<svg width="503" height="375" viewBox="0 0 503 375" fill="none" xmlns="http://www.w3.org/2000/svg">
<path d="M185.776 301.404L185.641 297.541C185.641 297.541 163.417 296.672 153.994 297.077C153.994 297.077 149.534 294.257 149.09 286.358C148.742 281.065 148.26 271.388 152.45 270.094C156.639 268.8 186.239 272.412 186.239 272.412V267.719L152.527 265.787L57.4328 271.273C53.4552 272.026 50.5783 278.844 50.9644 287.034C51.5268 292.588 53.2926 297.954 56.1391 302.756L149.071 301.674L185.776 301.404Z" fill="#A8A8A8"/>
<path d="M57.9738 276.797C57.8727 276.797 57.775 276.76 57.7 276.692C57.6249 276.624 57.578 276.53 57.5684 276.43C57.5679 276.323 57.6073 276.221 57.6788 276.142C57.7503 276.063 57.8487 276.014 57.9545 276.005L145.402 271.736C145.504 271.736 145.601 271.773 145.676 271.841C145.751 271.909 145.798 272.002 145.808 272.103C145.808 272.209 145.769 272.312 145.697 272.391C145.626 272.469 145.528 272.518 145.422 272.528L58.0318 276.797H57.9738Z" fill="#2D2D2D"/>
<path d="M183.787 297.232C178.091 297.522 161.814 296.73 154.071 297.077C154.071 297.077 149.611 294.257 149.109 286.338C148.819 281.065 148.298 271.369 152.526 270.075C155.963 269.032 176.45 270.5 183.748 272.007C184.173 271.968 184.965 297.193 183.787 297.232Z" fill="white"/>
<path d="M181.315 277.415L157.354 278.091C159.575 279.892 162.245 281.054 165.077 281.452C170.078 282.244 181.315 277.415 181.315 277.415Z" fill="#2D2D2D"/>
<path d="M173.611 290.182L149.476 288.56C151.714 290.329 154.377 291.481 157.199 291.901C162.142 292.712 173.611 290.182 173.611 290.182Z" fill="#2D2D2D"/>
<path d="M154.072 297.116C154.072 297.116 149.592 294.315 149.11 286.377C148.801 281.084 148.299 271.408 152.527 270.114C155.964 269.109 176.431 270.539 183.73 271.949L158.764 273.88C154.207 273.783 150.519 278.941 150.847 285.218V285.43C150.984 289.559 152.096 293.596 154.091 297.212L154.072 297.116Z" fill="#2D2D2D"/>
<path d="M66.8355 371.556V367.693C66.8355 367.693 89.0595 366.553 98.4241 366.824C98.4241 366.824 102.807 363.965 103.232 355.93C103.483 350.676 103.85 340.961 99.6213 339.744C95.3927 338.527 65.8701 342.525 65.8701 342.525V337.851L99.6213 335.417L194.754 339.647C198.751 340.323 201.724 347.142 201.473 355.351C200.969 360.917 199.262 366.308 196.472 371.15L103.637 371.401L66.8355 371.556Z" fill="#292929"/>
<path d="M194.272 345.152L106.785 342.12C106.733 342.12 106.681 342.109 106.633 342.089C106.585 342.068 106.541 342.038 106.505 342C106.469 341.962 106.441 341.917 106.423 341.868C106.404 341.819 106.396 341.767 106.399 341.714C106.399 341.612 106.44 341.513 106.512 341.441C106.584 341.369 106.683 341.328 106.785 341.328L194.194 344.36C194.297 344.37 194.393 344.416 194.464 344.49C194.535 344.565 194.576 344.663 194.581 344.766C194.579 344.855 194.548 344.942 194.492 345.012C194.436 345.082 194.358 345.131 194.272 345.152Z" fill="#2D2D2D"/>
<path d="M68.7668 367.423C74.5593 367.596 90.7591 366.592 98.5211 366.804C98.5211 366.804 102.904 363.946 103.329 355.949C103.58 350.657 103.947 340.98 99.7182 339.764C96.2234 338.759 75.7178 340.517 68.5158 342.043C68.0524 342.12 67.5697 367.307 68.7668 367.423Z" fill="white"/>
<path d="M70.9678 347.47L94.9489 347.837C92.73 349.66 90.0628 350.854 87.2255 351.295C82.2632 352.164 70.9678 347.47 70.9678 347.47Z" fill="#2D2D2D"/>
<path d="M78.8262 360.16L102.981 358.229C100.765 360.059 98.0972 361.26 95.2577 361.705C90.334 362.478 78.8262 360.16 78.8262 360.16Z" fill="#2D2D2D"/>
<path d="M98.5209 366.766C98.5209 366.766 102.904 363.907 103.329 355.872C103.58 350.618 103.947 340.903 99.7181 339.686C96.2232 338.759 75.7177 340.517 68.5156 342.043L93.4814 343.549C98.0768 343.375 101.842 348.475 101.552 354.771V354.945C101.465 359.066 100.428 363.112 98.5209 366.766V366.766Z" fill="#2D2D2D"/>
<path d="M184.695 336.499V332.636C184.695 332.636 162.509 331.419 153.126 331.767C153.126 331.767 148.723 328.889 148.298 320.873C148.047 315.581 147.681 305.904 151.928 304.687C156.176 303.471 185.699 307.469 185.699 307.469V302.795L151.928 300.361L56.8537 304.61C52.8955 305.305 49.922 312.085 50.173 320.313C50.6326 325.851 52.3072 331.219 55.0773 336.036L147.912 336.248L184.695 336.499Z" fill="#DDDDDD"/>
<path d="M57.259 310.134C57.1578 310.135 57.0601 310.097 56.9851 310.03C56.9101 309.962 56.8632 309.868 56.8535 309.767C56.8531 309.661 56.8925 309.559 56.964 309.48C57.0355 309.401 57.1339 309.352 57.2397 309.343L144.688 306.31C144.778 306.33 144.858 306.38 144.916 306.452C144.974 306.524 145.005 306.614 145.005 306.706C145.005 306.798 144.974 306.888 144.916 306.96C144.858 307.032 144.778 307.082 144.688 307.102L57.259 310.134V310.134Z" fill="#2D2D2D"/>
<path d="M182.783 332.366C176.99 332.578 160.771 331.535 153.029 331.787C153.029 331.787 148.626 328.928 148.202 320.931C147.951 315.639 147.584 305.924 151.832 304.707C155.307 303.703 175.735 305.499 183.015 306.967C183.497 307.063 184.019 332.289 182.783 332.366Z" fill="white"/>
<path d="M180.562 312.452L156.601 312.858C158.813 314.698 161.482 315.906 164.324 316.354C169.267 317.146 180.562 312.452 180.562 312.452Z" fill="#2D2D2D"/>
<path d="M172.704 325.142L148.588 323.21C150.81 325.032 153.475 326.231 156.311 326.687C161.196 327.46 172.704 325.142 172.704 325.142Z" fill="#2D2D2D"/>
<path d="M153.125 331.748C153.125 331.748 148.723 328.87 148.298 320.854C148.047 315.562 147.68 305.885 151.928 304.668C155.404 303.664 175.832 305.422 183.111 306.928L158.126 308.415C153.55 308.242 149.785 313.36 150.036 319.637V319.811C150.143 323.974 151.2 328.056 153.125 331.748V331.748Z" fill="#2D2D2D"/>
<path d="M238.43 373.314C283.862 371.846 345.572 374.608 386.815 373.951C386.815 373.951 379.092 270.21 373.724 241.025C339.374 209.252 283.631 222.541 253.355 230.151C248.798 267.236 247.003 320.043 238.43 373.314Z" fill="#A8A8A8"/>
<path d="M342.097 231.31C341.753 228.003 341.146 224.728 340.282 221.517C320.973 222.387 293.806 222.058 275.058 224.202C274.787 225.03 274.574 225.875 274.421 226.732C273.455 240.929 287.936 253.464 306.859 254.758C325.781 256.052 341.131 245.468 342.097 231.31Z" fill="#292929"/>
<path d="M333.293 191.444L333.428 231.561C333.428 240.156 322.518 247.187 309.002 247.245C295.487 247.303 284.519 240.311 284.481 231.793L284.423 191.598L333.293 191.444Z" fill="#DDDDDD"/>
<path opacity="0.19" d="M333.369 224.724C330.473 232.45 315.992 234.381 300.931 228.876C285.87 223.371 276.1 212.42 278.997 204.694C281.893 196.968 296.374 195.036 311.415 200.561C326.457 206.085 336.265 216.882 333.369 224.724Z" fill="#BFBFBF"/>
<path d="M370.983 145.049C385.483 146.363 391.836 157.913 389.113 171.182C386.236 185.302 372.798 194.631 362.217 193.704C351.636 192.777 348.913 181.361 349.937 167.822C350.96 154.282 360.402 144.064 370.983 145.049Z" fill="#DDDDDD"/>
<path d="M358.586 170.12C356.347 176.127 358.335 182.424 363.027 184.181C367.719 185.939 373.377 182.462 375.597 176.456C377.818 170.449 375.848 164.113 371.156 162.375C366.464 160.637 360.826 164.133 358.586 170.12Z" fill="#BFBFBF"/>
<path d="M246.791 145.088C232.309 146.44 225.957 157.932 228.679 171.24C231.576 185.34 245.014 194.669 255.595 193.742C266.176 192.815 268.879 181.4 267.837 167.841C266.794 154.282 257.391 144.122 246.791 145.088Z" fill="#DDDDDD"/>
<path d="M259.206 170.159C261.446 176.166 259.477 182.462 254.765 184.22C250.054 185.978 244.416 182.482 242.215 176.494C240.014 170.506 241.945 164.132 246.636 162.413C251.328 160.694 256.967 164.132 259.206 170.159Z" fill="#BFBFBF"/>
<path d="M255.267 174.215C265.887 182.482 287.068 190.922 308.288 190.922C329.508 190.922 350.921 182.424 361.56 174.138C382.799 157.585 385.792 107.52 368.376 87.3554C357.949 75.2836 333.003 64.5251 308.269 64.5251C283.535 64.5251 260.924 73.6998 247.988 87.452C229.683 106.825 234.028 157.681 255.267 174.215Z" fill="#1F1F1F"/>
<path d="M248.528 145.436C248.528 127.531 250.671 110.669 258.53 102.943C269.478 92.3388 284.847 87.9543 308.133 87.9543C331.786 87.9543 347.947 92.3002 359.108 102.904C367.043 110.456 368.974 127.396 368.897 145.397C369.032 168.575 363.355 193.8 353.45 203.902C341.344 215.142 325.553 221.578 309.041 222H308.732C292.199 221.576 276.382 215.158 264.226 203.941C254.108 193.839 248.412 168.672 248.528 145.436Z" fill="#DDDDDD"/>
<path d="M259.862 163.534C259.885 165.811 260.76 167.997 262.315 169.659C263.87 171.322 265.992 172.341 268.261 172.515C269.338 172.675 270.436 172.61 271.487 172.325C272.537 172.04 273.518 171.541 274.366 170.859C275.215 170.177 275.913 169.327 276.418 168.363C276.922 167.398 277.222 166.339 277.298 165.253C277.277 162.988 276.413 160.813 274.874 159.152C273.335 157.491 271.232 156.464 268.976 156.271C267.893 156.094 266.784 156.145 265.722 156.422C264.66 156.7 263.667 157.196 262.809 157.88C261.95 158.565 261.244 159.421 260.737 160.395C260.229 161.369 259.931 162.438 259.862 163.534V163.534Z" fill="#BFBFBF"/>
<path d="M340.186 165.04C340.271 166.119 340.581 167.167 341.096 168.118C341.612 169.068 342.321 169.9 343.179 170.559C344.036 171.218 345.022 171.69 346.073 171.944C347.124 172.197 348.217 172.228 349.28 172.032C351.557 171.806 353.668 170.739 355.2 169.038C356.732 167.338 357.574 165.127 357.563 162.838C357.486 161.753 357.181 160.696 356.668 159.737C356.154 158.778 355.444 157.938 354.584 157.273C353.724 156.607 352.732 156.131 351.675 155.875C350.618 155.619 349.519 155.59 348.45 155.788C346.171 156.032 344.064 157.114 342.538 158.823C341.011 160.533 340.173 162.748 340.186 165.04Z" fill="#BFBFBF"/>
<path d="M324.429 119.553C325.117 119.62 325.755 119.936 326.225 120.442C330.087 124.614 337.984 126.43 344.684 124.672C345.052 124.585 345.436 124.585 345.804 124.672C346.19 124.701 346.565 124.813 346.904 125C347.251 125.168 347.55 125.42 347.773 125.734C348.018 126.034 348.196 126.383 348.295 126.758C348.372 127.14 348.372 127.534 348.295 127.917C348.24 128.288 348.108 128.643 347.908 128.96C347.702 129.292 347.433 129.58 347.117 129.81C346.803 130.04 346.439 130.192 346.055 130.254C337.347 132.572 327.229 130.099 321.997 124.459C321.607 124.036 321.358 123.504 321.282 122.934C321.187 122.374 321.276 121.798 321.533 121.292C321.794 120.771 322.204 120.341 322.711 120.056C323.216 119.774 323.797 119.659 324.371 119.727L324.429 119.553Z" fill="#1F1F1F"/>
<path d="M283.843 121.504C284.39 121.331 284.977 121.331 285.523 121.504C286.082 121.62 286.589 121.911 286.971 122.335C287.357 122.768 287.605 123.306 287.686 123.88C287.763 124.451 287.662 125.031 287.396 125.541C283.901 132.437 274.826 137.555 265.79 137.671C265.414 137.682 265.039 137.617 264.689 137.478C263.992 137.192 263.427 136.654 263.106 135.971C262.959 135.629 262.88 135.262 262.874 134.89C262.863 134.513 262.929 134.139 263.067 133.789C263.192 133.436 263.389 133.114 263.647 132.842C263.907 132.571 264.215 132.348 264.554 132.186C264.904 132.047 265.278 131.974 265.655 131.973C272.586 131.973 279.731 127.994 282.279 122.914C282.636 122.311 283.187 121.847 283.843 121.601V121.504Z" fill="#1F1F1F"/>
<path d="M313.27 160.405C313.192 160.409 313.115 160.397 313.042 160.371C312.969 160.344 312.902 160.303 312.845 160.25C312.728 160.153 312.652 160.015 312.633 159.864C312.415 158.816 311.843 157.875 311.013 157.199C310.183 156.524 309.146 156.155 308.076 156.155C307.008 156.165 305.975 156.532 305.141 157.198C304.318 157.878 303.753 158.818 303.538 159.864C303.557 159.96 303.557 160.058 303.538 160.154L303.364 160.347C303.287 160.397 303.202 160.436 303.113 160.463C303.024 160.483 302.932 160.483 302.843 160.463L302.592 160.366C302.523 160.307 302.458 160.242 302.399 160.173C302.35 160.097 302.318 160.011 302.303 159.922C302.283 159.826 302.283 159.728 302.303 159.632C302.571 158.28 303.293 157.06 304.349 156.175C305.145 155.51 306.1 155.066 307.12 154.884C308.14 154.703 309.19 154.791 310.165 155.14C311.141 155.49 312.008 156.088 312.681 156.876C313.354 157.664 313.81 158.614 314.003 159.632C314.024 159.719 314.025 159.81 314.004 159.897C313.984 159.984 313.944 160.065 313.888 160.134C313.842 160.203 313.782 160.26 313.712 160.304C313.642 160.347 313.564 160.375 313.482 160.385L313.27 160.405Z" fill="#BFBFBF"/>
<path d="M343.738 85.9261C343.738 85.9261 338.254 104.275 322.499 103.406C306.743 102.537 257.005 96.3755 251.598 115.304C248.321 126.55 246.881 138.25 247.331 149.955L241.828 111.982L264.998 88.1667L295.158 76.0948L317.826 74.6848L343.738 85.9261Z" fill="#1F1F1F"/>
<path d="M342.483 84.4197C342.483 84.4197 333.736 103.348 347.252 108.081C363.143 113.566 364.63 124.981 365.479 129.115C367.564 138.405 368.993 148.681 368.993 148.681L375.307 118.259L366.696 94.7339L342.483 84.4197Z" fill="#1F1F1F"/>
<g opacity="0.55">
<path opacity="0.55" d="M377.934 295.165C376.679 284.619 375.423 274.208 374.207 264.647C335.803 271.639 294.695 272.373 249.745 266.579C248.895 276.372 248.046 286.589 247.1 297.309C272.554 300.539 298.225 301.747 323.87 300.921C342.001 300.23 360.064 298.307 377.934 295.165V295.165Z" fill="white"/>
</g>
<path d="M281.159 137.883C280.563 138.045 280.01 138.335 279.537 138.733C279.121 139.127 278.798 139.609 278.591 140.143C278.357 140.759 278.258 141.418 278.302 142.075C278.272 142.538 278.272 143.002 278.302 143.466C278.4 144.015 278.555 144.552 278.765 145.069C279.015 145.736 279.319 146.382 279.673 147C280.181 147.907 281.006 148.595 281.99 148.932C282.813 149.144 283.677 149.144 284.5 148.932C285.489 148.735 286.362 148.16 286.933 147.329C287.398 146.536 287.595 145.615 287.493 144.702C287.431 143.736 287.276 142.779 287.029 141.843C286.777 140.539 286.098 139.356 285.098 138.482C284.567 138.077 283.943 137.811 283.283 137.71C282.655 137.499 281.975 137.5 281.347 137.713C280.719 137.926 280.179 138.338 279.808 138.888C278.995 140.452 278.789 142.261 279.229 143.968C279.413 144.998 279.874 145.959 280.561 146.749C281.127 147.338 281.875 147.72 282.685 147.831C283.091 147.85 283.498 147.791 283.882 147.657C284.263 147.505 284.616 147.29 284.925 147.019C285.361 146.488 285.669 145.863 285.823 145.193C285.977 144.522 285.974 143.825 285.813 143.156C285.697 142.169 285.395 141.212 284.925 140.336C284.734 139.976 284.455 139.67 284.114 139.448C283.769 139.232 283.379 139.099 282.974 139.062C282.554 139.039 282.135 139.125 281.758 139.313C281.381 139.503 281.061 139.79 280.831 140.143C280.495 140.675 280.283 141.276 280.213 141.901C280.109 142.547 280.155 143.208 280.348 143.832C280.527 144.542 280.864 145.202 281.333 145.764C281.817 146.3 282.418 146.717 283.09 146.981L283.689 147.097C284.006 147.122 284.324 147.069 284.616 146.942C285.123 146.785 285.555 146.449 285.832 145.996C286.189 145.371 286.388 144.668 286.411 143.948C286.408 143.224 286.236 142.509 285.909 141.862C285.563 141.231 285.082 140.683 284.5 140.259C283.89 139.843 283.187 139.584 282.453 139.506C282.14 139.488 281.826 139.534 281.531 139.64C281.236 139.746 280.965 139.911 280.735 140.124C280.273 140.56 279.991 141.152 279.943 141.785C279.908 142.421 280.122 143.045 280.542 143.523C280.968 143.965 281.534 144.245 282.144 144.315H282.299H281.7L282.125 144.451L281.584 144.18C281.738 144.272 281.881 144.383 282.009 144.509L281.565 144.084L281.912 144.509L281.546 143.929C281.659 144.104 281.749 144.292 281.816 144.489L281.603 143.852C281.66 144.014 281.699 144.183 281.719 144.354V143.736C281.729 143.871 281.729 144.007 281.719 144.142L281.835 143.543L281.719 143.871L281.99 143.311V143.427L284.731 142.48L285.272 142.751C285.119 142.672 284.976 142.575 284.847 142.461L285.311 142.867C285.162 142.745 285.031 142.602 284.925 142.442L285.272 142.944C285.143 142.766 285.039 142.571 284.963 142.365L285.176 142.983C285.099 142.777 285.047 142.563 285.021 142.345V143.002C285.021 142.809 285.021 142.635 285.021 142.423L284.905 143.06L285.021 142.654L284.751 143.214L284.886 143.021L280.793 142.828C280.949 143.112 281.078 143.409 281.179 143.717L280.966 143.099C281.156 143.582 281.279 144.089 281.333 144.605V143.948C281.362 144.302 281.362 144.657 281.333 145.011L281.449 144.393C281.455 144.489 281.455 144.586 281.449 144.682L281.719 144.122L282.086 143.639C282.058 143.687 282.018 143.727 281.97 143.755L282.472 143.369L283.071 143.156H282.936H283.573H283.438L284.036 143.272C283.96 143.283 283.881 143.283 283.805 143.272L284.345 143.543C284.24 143.478 284.142 143.4 284.056 143.311L284.519 143.736C284.401 143.634 284.298 143.517 284.21 143.388L284.558 143.929C284.37 143.62 284.221 143.289 284.114 142.944L284.307 143.543C284.149 143.134 284.052 142.705 284.017 142.268V142.925C283.958 142.528 283.958 142.124 284.017 141.727L283.882 142.307C283.96 141.954 284.076 141.61 284.229 141.283L283.959 141.843C283.983 141.775 284.016 141.71 284.056 141.65L282.55 142.693H282.492H281.854C282.137 142.664 282.422 142.664 282.704 142.693L282.086 142.577L282.627 142.751L282.086 142.48L282.53 142.77L282.067 142.384C282.222 142.52 282.358 142.676 282.472 142.847L282.125 142.345C282.263 142.514 282.386 142.695 282.492 142.886L282.279 142.229C282.414 142.732 282.53 143.195 282.627 143.659C282.723 144.122 282.82 144.798 282.878 145.378V144.818C282.878 145.049 282.878 145.262 282.878 145.494L282.994 144.876C282.975 144.997 282.936 145.115 282.878 145.223L283.167 144.663L283.052 144.818L283.457 144.373L283.245 144.547L283.766 144.199L283.303 144.431L283.901 144.238C283.661 144.314 283.416 144.372 283.167 144.412H283.805C283.587 144.441 283.366 144.441 283.148 144.412L283.766 144.528C283.645 144.507 283.528 144.468 283.418 144.412L283.959 144.663C283.843 144.613 283.739 144.541 283.65 144.451L284.114 144.876C283.978 144.74 283.843 144.566 283.727 144.431L284.075 144.933C283.675 144.285 283.339 143.599 283.071 142.886L283.283 143.485C283.135 143.072 283.031 142.645 282.974 142.21V142.867C282.934 142.436 282.934 142.003 282.974 141.573L282.859 142.191C282.874 142.044 282.913 141.9 282.974 141.766L282.704 142.326C282.749 142.244 282.8 142.167 282.859 142.094L282.453 142.538C282.509 142.465 282.582 142.405 282.665 142.365L282.163 142.712C282.257 142.617 282.379 142.556 282.511 142.538L281.912 142.732H282.009C282.618 142.583 283.149 142.211 283.496 141.689C283.676 141.43 283.799 141.136 283.859 140.827C283.919 140.518 283.914 140.199 283.843 139.892C283.789 139.582 283.67 139.286 283.496 139.023C283.317 138.767 283.095 138.545 282.839 138.366C282.585 138.186 282.295 138.061 281.99 137.999C281.684 137.932 281.368 137.932 281.063 137.999L281.159 137.883Z" fill="#242424"/>
<path d="M281.45 143.195C281.603 143.167 281.749 143.108 281.878 143.022C282.008 142.936 282.118 142.824 282.203 142.693C282.292 142.562 282.354 142.413 282.384 142.257C282.414 142.101 282.411 141.94 282.377 141.785C282.314 141.478 282.134 141.207 281.874 141.032C281.743 140.943 281.594 140.882 281.439 140.852C281.283 140.822 281.122 140.824 280.967 140.858C280.811 140.885 280.662 140.944 280.529 141.031C280.396 141.117 280.282 141.23 280.194 141.362C280.106 141.493 280.045 141.641 280.015 141.797C279.985 141.953 279.987 142.113 280.021 142.268C280.09 142.579 280.279 142.85 280.546 143.023C280.813 143.197 281.138 143.258 281.45 143.195Z" fill="white"/>
<path d="M331.169 137.188C330.569 137.072 329.953 137.072 329.354 137.188C328.8 137.344 328.29 137.628 327.867 138.019C327.385 138.457 326.998 138.99 326.728 139.583C326.514 139.995 326.326 140.421 326.168 140.858C326.004 141.392 325.9 141.943 325.859 142.5C325.781 143.186 325.781 143.88 325.859 144.566C325.859 145.63 326.266 146.653 326.998 147.425C327.622 148.003 328.378 148.421 329.199 148.642C330.173 148.883 331.201 148.766 332.096 148.313C332.865 147.82 333.46 147.097 333.795 146.247C334.172 145.354 334.469 144.43 334.683 143.485C335.034 142.205 334.945 140.845 334.432 139.622C334.141 139.026 333.71 138.509 333.177 138.115C332.724 137.63 332.12 137.315 331.463 137.22C330.807 137.125 330.138 137.257 329.566 137.594C328.126 138.6 327.114 140.109 326.728 141.824C326.457 142.803 326.457 143.838 326.728 144.817C326.958 145.606 327.456 146.29 328.137 146.749C328.487 146.957 328.874 147.095 329.276 147.155C329.683 147.229 330.103 147.196 330.493 147.058C331.134 146.781 331.7 146.357 332.146 145.82C332.592 145.283 332.906 144.648 333.061 143.968C333.403 143.034 333.567 142.045 333.544 141.051C333.552 140.635 333.449 140.223 333.246 139.86C333.042 139.497 332.745 139.194 332.385 138.984C332.026 138.762 331.61 138.648 331.188 138.656C330.768 138.667 330.357 138.779 329.991 138.984C329.461 139.308 329.005 139.737 328.649 140.246C328.294 140.754 328.047 141.331 327.925 141.94C327.771 142.646 327.771 143.377 327.925 144.083C328.122 144.798 328.479 145.458 328.968 146.015L329.431 146.363C329.703 146.553 330.026 146.654 330.358 146.652C330.872 146.73 331.397 146.628 331.845 146.363C332.459 145.981 332.96 145.441 333.293 144.798C333.638 144.164 333.818 143.453 333.814 142.731C333.802 142.005 333.623 141.292 333.293 140.645C332.947 139.995 332.442 139.444 331.825 139.042C331.548 138.891 331.248 138.786 330.937 138.733C330.625 138.666 330.303 138.666 329.991 138.733C329.688 138.81 329.403 138.946 329.153 139.133C328.903 139.321 328.693 139.556 328.535 139.826C328.377 140.095 328.274 140.394 328.232 140.704C328.19 141.014 328.211 141.329 328.292 141.63C328.456 142.217 328.818 142.728 329.315 143.079L329.45 143.176L328.832 142.886C328.95 142.988 329.054 143.105 329.141 143.234L328.794 142.731C328.886 142.878 328.964 143.033 329.025 143.195L328.813 142.635C328.867 142.8 328.912 142.967 328.948 143.137V142.538C328.967 142.737 328.967 142.938 328.948 143.137V142.5C328.92 142.631 328.881 142.76 328.832 142.886L329.083 142.307C329.029 142.431 328.957 142.548 328.871 142.654L329.257 142.171L329.006 142.442L329.489 142.055L329.373 142.152L332.25 142.5L332.694 142.886C332.595 142.761 332.511 142.625 332.443 142.48L332.675 143.021C332.601 142.848 332.549 142.666 332.52 142.48V143.079C332.501 142.861 332.501 142.641 332.52 142.422V143.06C332.551 142.847 332.61 142.639 332.694 142.442L332.443 143.021C332.503 142.857 332.595 142.705 332.713 142.577L332.327 143.06L332.617 142.77L332.134 143.156L332.327 143.021L328.697 140.954C328.717 141.276 328.717 141.599 328.697 141.92V141.283C328.619 141.786 328.483 142.279 328.292 142.751L328.562 142.152C328.421 142.519 328.24 142.868 328.021 143.195L328.408 142.693C328.357 142.777 328.283 142.844 328.195 142.886L328.697 142.538L329.257 142.268H329.083L329.701 142.171L330.338 142.268H330.203L330.783 142.538H330.647L331.13 142.905L330.976 142.751L331.323 143.234C331.264 143.128 331.212 143.018 331.169 142.905L331.4 143.465C331.327 143.336 331.287 143.19 331.285 143.04V143.659C331.246 143.306 331.246 142.949 331.285 142.596L331.188 143.234C331.263 142.796 331.386 142.369 331.555 141.959L331.285 142.558C331.465 142.201 331.671 141.859 331.902 141.534L331.516 142.017C331.744 141.731 332.003 141.472 332.289 141.244L331.806 141.63L331.98 141.515L330.165 141.766L329.585 141.515C329.853 141.604 330.102 141.741 330.319 141.92L329.836 141.534L330.242 141.92L329.875 141.437C329.983 141.574 330.074 141.723 330.145 141.882L329.914 141.341C329.986 141.527 330.031 141.722 330.049 141.92V141.321C330.068 141.617 330.068 141.914 330.049 142.21V141.611C329.969 142.081 329.859 142.546 329.721 143.002C329.575 143.56 329.395 144.108 329.18 144.644L329.45 144.064C329.349 144.266 329.233 144.459 329.103 144.644L329.508 144.161C329.508 144.161 329.334 144.315 329.257 144.412L329.74 144.026H329.566L330.126 143.813C330.043 143.824 329.958 143.824 329.875 143.813H330.493H329.972H330.589C330.344 143.778 330.104 143.713 329.875 143.62L330.454 143.871L329.914 143.562L330.396 143.91C330.295 143.854 330.209 143.774 330.145 143.678L330.493 144.161C330.423 144.051 330.365 143.935 330.319 143.813L330.532 144.393C330.474 144.204 330.436 144.01 330.416 143.813V144.431C330.329 143.674 330.329 142.909 330.416 142.152V142.751C330.479 142.328 330.589 141.913 330.744 141.515L330.493 142.113C330.663 141.711 330.877 141.329 331.13 140.974L330.744 141.476C330.83 141.364 330.927 141.26 331.034 141.167L330.551 141.553L330.783 141.379L330.223 141.611H330.493H329.875C330.007 141.572 330.148 141.572 330.281 141.611H329.663C330.278 141.743 330.921 141.654 331.478 141.36C331.752 141.205 331.992 140.998 332.186 140.751C332.38 140.503 332.523 140.219 332.608 139.916C332.692 139.613 332.716 139.296 332.677 138.984C332.639 138.672 332.54 138.37 332.385 138.096C332.244 137.819 332.039 137.581 331.787 137.401C331.545 137.199 331.261 137.054 330.956 136.976L331.169 137.188Z" fill="#242424"/>
<path d="M329.006 142.056C329.307 142.113 329.619 142.051 329.875 141.882C330.005 141.808 330.119 141.708 330.208 141.589C330.298 141.469 330.362 141.332 330.396 141.186C330.511 140.908 330.511 140.596 330.396 140.317C330.243 140.057 330.004 139.859 329.72 139.757C329.422 139.692 329.109 139.747 328.852 139.912C328.723 139.987 328.61 140.087 328.521 140.207C328.431 140.326 328.366 140.462 328.33 140.607C328.223 140.887 328.223 141.196 328.33 141.476C328.471 141.75 328.714 141.958 329.006 142.056V142.056Z" fill="white"/>
<path d="M2.03684 374.955H501.16C501.573 374.916 501.955 374.716 502.222 374.398C502.489 374.08 502.621 373.67 502.589 373.256C502.621 372.839 502.49 372.427 502.223 372.106C501.956 371.785 501.575 371.581 501.16 371.537H2.03684C1.61831 371.576 1.23198 371.778 0.961098 372.1C0.690217 372.421 0.556478 372.836 0.588704 373.256C0.556673 373.673 0.690994 374.086 0.962328 374.404C1.23366 374.723 1.61996 374.921 2.03684 374.955V374.955Z" fill="black"/>
<path d="M305.469 365.008C308.142 357.775 308.81 349.953 307.4 342.371C284.751 341.927 251.637 342.854 206.996 333.776C206.996 333.776 205.065 358.402 220.164 367.191C231.769 373.99 278.032 370.629 305.469 365.008Z" fill="#DDDDDD"/>
<path d="M243.662 351.082L245.458 317.068H208.791L206.86 333.737L230.224 361.203L243.662 351.082Z" fill="#DDDDDD"/>
<path d="M251.599 322.65C254.746 308.184 256.986 277.859 257.121 271.871C257.295 264.242 261.89 233.956 253.375 230.151C248.065 231.87 210.781 244.019 205.49 320.758C211.611 323.848 241.134 324.118 251.599 322.65Z" fill="#A8A8A8"/>
<path d="M301.936 363.347C299.263 356.12 298.596 348.305 300.005 340.729C322.654 340.266 355.768 341.193 400.409 332.115C400.409 332.115 402.34 356.741 387.241 365.53C375.636 372.367 329.373 369.006 301.936 363.347Z" fill="#DDDDDD"/>
<path d="M363.742 349.459L361.946 315.446H398.613L400.544 332.115L377.181 359.58L363.742 349.459Z" fill="#DDDDDD"/>
<path d="M355.864 321.028C352.736 306.561 350.477 276.237 350.342 270.249C350.168 262.619 345.573 232.353 354.088 228.529C359.398 230.248 396.682 242.397 401.973 319.135C395.794 322.225 366.272 322.515 355.864 321.028Z" fill="#A8A8A8"/>
<path d="M259.669 366.804C260.287 368.079 269.323 372.502 274.015 373.719C275.946 374.221 276.699 372.792 275.753 368.137C280.638 360.141 280.406 351.449 277.182 347.528C273.957 343.607 269.034 341.193 264.013 345.751C263.183 346.582 258.723 364.718 259.669 366.804Z" fill="#BFBFBF"/>
<path d="M281.662 344.013C291.181 344.418 301.588 346.33 303.461 348.59C306.666 352.453 299.368 359.349 290.737 364.834C287.958 366.15 285.07 367.223 282.106 368.041C280.392 366.558 279.009 364.73 278.048 362.677C277.087 360.625 276.568 358.392 276.526 356.126C276.484 353.859 276.92 351.609 277.805 349.522C278.69 347.435 280.004 345.558 281.662 344.013V344.013Z" fill="#BFBFBF"/>
<path d="M277.027 373.874C278.553 373.99 281.777 373.7 281.14 371.633C284.905 371.923 286.122 370.223 285.716 367.461C292.165 370.281 293.169 358.982 291.76 357.688C285.369 352.144 282.897 356.876 284.944 358.962C286.044 360.063 286.778 359.812 286.74 360.315C286.353 360.527 283.534 359.214 283.341 357.977C283.172 355.902 283.309 353.813 283.747 351.777C293.246 349.575 296.432 360.604 300.603 362.825C305.121 365.221 310.045 361.338 310.836 359.6C313.675 353.574 309.408 344.978 305.758 340.749C299.02 339.841 270.173 341.56 266.369 342.68C260.577 344.302 260.461 361.995 261.658 365.143C262.952 368.562 265.558 369.045 277.027 373.874Z" fill="#DDDDDD"/>
<path d="M268.146 362.265C267.991 360.469 267.682 357.108 267.663 353.921V353.786C267.659 353.741 267.659 353.696 267.663 353.651C267.663 353.651 267.663 353.651 267.779 353.651H267.914C267.962 353.646 268.011 353.654 268.055 353.674C268.1 353.695 268.137 353.727 268.165 353.767C268.238 353.838 268.279 353.935 268.281 354.037C268.281 357.224 268.648 360.527 268.783 362.304L268.879 363.579C268.879 364.429 275.753 369.644 282.685 371.672C282.17 371.769 281.645 371.807 281.121 371.788C275.328 369.856 268.223 365.182 268.165 363.598C268.261 363.308 268.204 362.883 268.146 362.265Z" fill="#BFBFBF"/>
<path d="M275.193 360.121C275.019 358.306 274.749 354.964 274.691 351.719C274.682 351.675 274.682 351.629 274.691 351.584C274.681 351.54 274.681 351.493 274.691 351.449C274.691 351.449 274.691 351.449 274.826 351.449H274.961C275.01 351.454 275.057 351.468 275.101 351.491C275.144 351.514 275.182 351.546 275.212 351.584C275.251 351.617 275.282 351.659 275.302 351.706C275.322 351.753 275.331 351.804 275.328 351.855C275.328 355.061 275.656 358.383 275.811 360.16L275.927 361.396C275.927 362.497 286.913 367.809 286.933 367.925C286.65 367.941 286.366 367.941 286.083 367.925C281.661 365.781 275.154 362.806 275.193 361.454C275.29 361.145 275.251 360.682 275.193 360.121Z" fill="#BFBFBF"/>
<path d="M300.448 180.917C297.565 181.898 294.741 183.046 291.991 184.355C291.894 184.39 291.807 184.45 291.74 184.529C291.665 184.607 291.606 184.699 291.567 184.8C291.548 184.902 291.548 185.006 291.567 185.109C291.556 185.211 291.556 185.315 291.567 185.418C291.613 185.513 291.679 185.599 291.76 185.669C291.834 185.748 291.927 185.808 292.03 185.843C292.132 185.863 292.237 185.863 292.339 185.843C292.435 185.861 292.533 185.861 292.629 185.843C299.367 182.752 307.747 178.928 319.853 181.323C319.962 181.342 320.073 181.342 320.182 181.323C320.285 181.294 320.383 181.248 320.471 181.188C320.56 181.137 320.634 181.064 320.684 180.975C320.742 180.888 320.782 180.789 320.8 180.685C320.819 180.583 320.819 180.478 320.8 180.376C320.778 180.274 320.739 180.176 320.684 180.087C320.628 180.002 320.556 179.93 320.471 179.874C320.387 179.806 320.288 179.76 320.182 179.739C313.605 178.422 306.799 178.835 300.429 180.937L300.448 180.917Z" fill="#1F1F1F"/>
<path d="M309.89 192.294C312.573 192.258 315.147 191.225 317.112 189.397C317.214 189.333 317.3 189.247 317.363 189.145C317.423 189.046 317.457 188.933 317.459 188.817C317.489 188.703 317.489 188.583 317.459 188.469C317.431 188.348 317.363 188.239 317.266 188.16C317.184 188.081 317.085 188.021 316.976 187.987C316.861 187.968 316.744 187.968 316.629 187.987C316.508 188.008 316.391 188.047 316.281 188.102C316.184 188.171 316.099 188.256 316.03 188.354C314.245 189.945 311.913 190.782 309.523 190.691C308.283 190.592 307.077 190.229 305.988 189.626C304.899 189.023 303.952 188.194 303.209 187.195C303.146 187.11 303.068 187.038 302.978 186.982H302.669C302.568 186.954 302.461 186.954 302.36 186.982C302.261 187.007 302.169 187.054 302.09 187.117C302.009 187.187 301.943 187.273 301.897 187.368C301.836 187.46 301.802 187.567 301.8 187.678C301.782 187.78 301.782 187.884 301.8 187.987C301.84 188.083 301.892 188.174 301.954 188.257C302.833 189.435 303.955 190.409 305.245 191.112C306.535 191.815 307.961 192.232 309.427 192.332L309.89 192.294Z" fill="#1F1F1F"/>
<path d="M448.776 347.122C445.982 347.988 443.044 348.294 440.132 348.023C437.219 347.751 434.389 346.908 431.802 345.541C429.216 344.174 426.925 342.31 425.06 340.055C423.195 337.801 421.792 335.201 420.933 332.404C420.06 329.609 419.758 326.666 420.045 323.751C420.433 319.348 422.122 315.161 424.896 311.721C427.671 308.281 431.407 305.746 435.627 304.436C435.627 304.436 419.292 308.299 418.442 325.857C417.593 343.414 431.63 350.367 439.681 349.73L446.652 349.286L453.622 369.354C453.924 370.225 454.536 370.953 455.341 371.401C456.148 371.863 457.1 372.001 458.005 371.788L459.704 371.421L448.776 347.122Z" fill="#242424"/>
<path opacity="0.55" d="M447.637 347.354L449.066 351.121L456.055 369.798C456.317 370.482 456.827 371.04 457.484 371.363C458.137 371.689 458.891 371.752 459.589 371.537V371.537C459.962 371.416 460.309 371.226 460.612 370.976C460.903 370.712 461.145 370.398 461.326 370.049C461.499 369.7 461.597 369.318 461.616 368.929C461.64 368.533 461.574 368.137 461.423 367.77L453.004 345.307L450.321 346.331L447.637 347.354Z" fill="white"/>
<path d="M453.004 345.307L450.321 346.331L447.637 347.354L449.046 351.121L453.004 345.307Z" fill="#242424"/>
<path opacity="0.55" d="M442.211 348.127C446.623 348.134 450.939 346.833 454.611 344.386C458.284 341.939 461.148 338.458 462.842 334.382C464.536 330.306 464.983 325.82 464.127 321.49C463.271 317.16 461.15 313.181 458.033 310.057C454.915 306.933 450.942 304.805 446.614 303.941C442.287 303.077 437.801 303.516 433.724 305.204C429.647 306.891 426.162 309.75 423.709 313.42C421.257 317.089 419.948 321.404 419.948 325.818C419.946 328.745 420.52 331.644 421.637 334.349C422.754 337.055 424.394 339.513 426.461 341.585C428.528 343.656 430.983 345.3 433.685 346.423C436.388 347.545 439.285 348.124 442.211 348.127V348.127Z" fill="white"/>
<path d="M442.172 342.699C445.583 342.703 448.919 341.695 451.757 339.802C454.595 337.909 456.808 335.217 458.116 332.065C459.424 328.914 459.768 325.445 459.105 322.098C458.442 318.751 456.801 315.676 454.391 313.262C451.98 310.847 448.908 309.203 445.563 308.536C442.217 307.869 438.75 308.209 435.598 309.514C432.446 310.819 429.752 313.03 427.856 315.867C425.961 318.703 424.949 322.039 424.949 325.451C424.947 327.715 425.39 329.958 426.255 332.05C427.119 334.143 428.387 336.044 429.987 337.646C431.587 339.248 433.486 340.519 435.577 341.386C437.668 342.253 439.909 342.699 442.172 342.699V342.699Z" fill="#DDDDDD"/>
<path d="M447.251 341.83C442.888 343.17 438.171 342.725 434.136 340.593C430.1 338.46 427.074 334.814 425.722 330.454C425.722 330.454 439.682 325.161 444.238 331.439C448.795 337.716 447.251 341.83 447.251 341.83Z" fill="#A8A8A8"/>
<path d="M439.875 311.795C440.146 308.686 448.912 309.96 452.851 314.306C458.103 320.101 456.712 325.161 454.318 325.895C451.924 326.629 454.144 320.101 449.588 316.74C445.031 313.379 439.644 314.635 439.875 311.795Z" fill="white"/>
<path d="M437.095 308.995C437.095 308.995 421.223 313.727 425.722 330.55C426.825 334.238 429.142 337.445 432.297 339.651C435.451 341.856 439.258 342.93 443.1 342.699C444.476 342.595 445.836 342.336 447.154 341.927C447.154 341.927 431.07 344.186 426.9 329.99C426.263 327.479 422.942 317.01 437.095 308.995Z" fill="#242424"/>
<path d="M200.334 135.508V135.681C200.46 136.28 200.46 136.898 200.334 137.497C200.219 138.102 199.99 138.678 199.658 139.197C199.345 139.69 198.93 140.112 198.442 140.433C197.962 140.774 197.416 141.011 196.839 141.128C195.619 141.375 194.35 141.132 193.306 140.452C192.325 139.794 191.634 138.785 191.375 137.632C191.236 136.996 191.236 136.337 191.375 135.701C191.488 135.087 191.725 134.502 192.07 133.982C192.406 133.494 192.824 133.07 193.306 132.726C193.798 132.399 194.349 132.169 194.928 132.05C195.563 131.901 196.224 131.901 196.859 132.05C197.473 132.163 198.057 132.4 198.577 132.746C199.066 133.074 199.481 133.502 199.794 134.001C200.11 134.433 200.334 134.926 200.45 135.45L200.334 135.508ZM192.032 137.439C192.151 137.915 192.353 138.366 192.63 138.772C192.921 139.185 193.288 139.539 193.711 139.815C194.615 140.396 195.709 140.603 196.762 140.394C197.251 140.287 197.716 140.091 198.133 139.815C198.541 139.526 198.894 139.166 199.176 138.753C199.466 138.306 199.664 137.806 199.76 137.283C199.857 136.759 199.848 136.221 199.736 135.701C199.635 135.207 199.446 134.736 199.176 134.31C198.892 133.892 198.532 133.531 198.114 133.248C197.673 132.946 197.173 132.742 196.646 132.649C196.13 132.542 195.598 132.542 195.082 132.649C194.579 132.751 194.102 132.952 193.678 133.24C193.253 133.529 192.891 133.899 192.611 134.329C192.305 134.77 192.095 135.27 191.993 135.797C191.886 136.313 191.886 136.846 191.993 137.362L192.032 137.439ZM188.768 134.31L188.286 136.879H187.958C186.957 136.688 185.988 136.356 185.081 135.894C184.222 135.47 183.401 134.972 182.628 134.407C181.856 133.866 181.103 133.267 180.35 132.649C179.603 132.028 178.823 131.448 178.014 130.911C177.16 130.328 176.262 129.811 175.33 129.365C174.284 128.886 173.181 128.542 172.047 128.342C171.177 128.166 170.289 128.094 169.402 128.129C168.67 128.154 167.949 128.318 167.278 128.612C166.683 128.878 166.165 129.29 165.772 129.81C165.354 130.383 165.07 131.043 164.942 131.741C164.787 132.487 164.787 133.256 164.942 134.001C165.096 134.691 165.377 135.346 165.772 135.933C166.154 136.517 166.638 137.027 167.201 137.439C167.72 137.811 168.313 138.068 168.939 138.192C169.275 138.269 169.625 138.269 169.962 138.192C170.172 138.135 170.369 138.037 170.541 137.903C170.658 137.798 170.756 137.674 170.831 137.536L170.947 137.227C171.007 136.953 171.007 136.67 170.947 136.396C170.883 136.164 170.799 135.937 170.696 135.72L170.503 135.334C170.367 135.072 170.326 134.772 170.387 134.484C170.398 134.255 170.437 134.028 170.503 133.808C170.655 133.572 170.852 133.369 171.082 133.209C171.356 133.022 171.665 132.891 171.989 132.823C172.391 132.746 172.804 132.746 173.206 132.823C173.746 132.921 174.248 133.169 174.654 133.538C175.049 133.9 175.365 134.341 175.581 134.832C175.816 135.338 175.966 135.88 176.025 136.435C176.102 136.966 176.102 137.506 176.025 138.038C175.931 138.749 175.68 139.431 175.289 140.032C174.898 140.634 174.378 141.14 173.766 141.515C172.361 142.28 170.718 142.481 169.17 142.075C167.795 141.845 166.504 141.259 165.425 140.375C164.445 139.558 163.666 138.527 163.146 137.362C162.605 136.141 162.291 134.832 162.219 133.499C162.125 132.117 162.203 130.728 162.451 129.365C162.728 127.842 163.236 126.37 163.957 125C164.608 123.788 165.479 122.707 166.525 121.813C167.506 120.974 168.66 120.361 169.904 120.017C171.2 119.655 172.564 119.608 173.882 119.882C175.264 120.104 176.582 120.625 177.743 121.408C178.762 122.102 179.662 122.956 180.408 123.938C181.138 124.884 181.784 125.892 182.339 126.951C182.879 127.994 183.459 128.998 184.038 129.964C184.599 130.898 185.245 131.777 185.969 132.591C186.677 133.359 187.557 133.948 188.537 134.31H188.768ZM187.784 136.106L188.035 134.696C187.057 134.293 186.181 133.68 185.467 132.9C184.744 132.058 184.098 131.153 183.536 130.196C182.937 129.211 182.358 128.265 181.817 127.144C181.264 126.109 180.618 125.126 179.887 124.208C179.167 123.295 178.322 122.489 177.376 121.813C176.292 121.095 175.068 120.614 173.785 120.403C172.57 120.152 171.313 120.191 170.117 120.519C168.957 120.833 167.882 121.4 166.969 122.18C165.984 123.025 165.165 124.047 164.556 125.193C163.865 126.503 163.377 127.91 163.108 129.365C162.815 130.716 162.704 132.1 162.779 133.48C162.88 134.73 163.2 135.953 163.725 137.091C164.203 138.174 164.923 139.132 165.83 139.892C166.822 140.698 168.006 141.23 169.267 141.437C170.663 141.799 172.143 141.627 173.418 140.954C173.957 140.625 174.413 140.175 174.751 139.641C175.095 139.119 175.313 138.524 175.388 137.903C175.465 137.429 175.465 136.947 175.388 136.473C175.343 135.993 175.219 135.523 175.021 135.083C174.841 134.667 174.578 134.293 174.249 133.982C173.922 133.69 173.521 133.496 173.09 133.422C172.778 133.354 172.456 133.354 172.144 133.422C171.909 133.456 171.685 133.541 171.487 133.673C171.196 133.883 170.99 134.192 170.908 134.542C170.86 134.699 170.86 134.867 170.908 135.025C170.908 135.218 171.101 135.43 171.217 135.624C171.331 135.881 171.427 136.146 171.507 136.415C171.593 136.79 171.593 137.18 171.507 137.555C171.485 137.712 171.432 137.863 171.352 137.999C171.251 138.23 171.099 138.434 170.908 138.598C170.657 138.796 170.368 138.94 170.059 139.023C169.626 139.12 169.178 139.12 168.746 139.023C168.049 138.869 167.392 138.574 166.815 138.154C166.193 137.699 165.656 137.136 165.231 136.493C164.804 135.817 164.497 135.072 164.324 134.291C164.15 133.456 164.15 132.595 164.324 131.761C164.463 130.939 164.786 130.16 165.27 129.481C165.732 128.879 166.335 128.401 167.027 128.091C167.771 127.765 168.571 127.588 169.383 127.569C170.321 127.533 171.26 127.605 172.183 127.782C173.37 127.992 174.525 128.356 175.619 128.863C176.583 129.31 177.512 129.826 178.4 130.408C179.23 130.988 180.041 131.587 180.794 132.185C181.547 132.784 182.262 133.383 183.034 133.924C183.782 134.465 184.569 134.95 185.389 135.372C186.147 135.76 186.952 136.046 187.784 136.222V136.106Z" fill="#292929"/>
<path d="M392.975 33.235C392.208 32.8651 391.374 32.6549 390.523 32.6169C389.725 32.5731 388.927 32.6779 388.167 32.9259C387.463 33.1665 386.809 33.533 386.236 34.0076C385.674 34.4625 385.219 35.0364 384.904 35.688C384.716 36.0465 384.611 36.4424 384.595 36.8469C384.577 37.126 384.63 37.4053 384.75 37.6581C384.826 37.8597 384.961 38.0344 385.136 38.1603C385.231 38.2661 385.342 38.3572 385.464 38.4307C385.781 38.5728 386.121 38.6578 386.468 38.6818C386.738 38.7007 387.009 38.7007 387.279 38.6818L387.974 38.5466C388.21 38.4795 388.461 38.4931 388.689 38.5852C388.875 38.6796 389.044 38.8035 389.191 38.9522C389.36 39.1265 389.485 39.3383 389.557 39.5703C389.654 39.8493 389.693 40.1449 389.673 40.4394C389.637 40.8209 389.519 41.19 389.326 41.5211C389.1 41.9846 388.753 42.3783 388.322 42.6607C387.87 42.9109 387.381 43.0869 386.874 43.1822C386.337 43.2788 385.788 43.2788 385.252 43.1822C384.721 43.1041 384.206 42.9411 383.726 42.6993C383.084 42.4224 382.51 42.0069 382.046 41.4825C381.585 40.9535 381.237 40.3356 381.023 39.6668C380.667 38.108 380.916 36.472 381.718 35.0892C382.289 33.809 383.188 32.7027 384.325 31.8829C385.387 31.1491 386.602 30.6669 387.878 30.4729C389.205 30.2317 390.566 30.2317 391.894 30.4729C393.305 30.7612 394.674 31.2286 395.968 31.8636C397.385 32.5467 398.688 33.446 399.83 34.5291C400.829 35.5237 401.635 36.6962 402.204 37.9864C402.768 39.1952 403.052 40.5157 403.035 41.8494C403.036 43.1924 402.718 44.5164 402.108 45.7124C401.531 46.9943 400.681 48.1347 399.617 49.0539C398.653 49.8563 397.572 50.5075 396.412 50.9854C395.273 51.448 394.097 51.8162 392.898 52.0864C391.681 52.3375 390.504 52.6465 389.345 52.9749C388.233 53.2988 387.154 53.7256 386.121 54.2496C385.095 54.7844 384.209 55.5517 383.533 56.4902L381.602 55.5631C382.064 54.6327 382.648 53.7687 383.34 52.9942C384.007 52.2631 384.723 51.5791 385.483 50.9468C386.256 50.3287 387.047 49.7493 387.858 49.1698C388.669 48.5904 389.5 47.953 390.291 47.2383C391.106 46.5146 391.861 45.7266 392.55 44.8819C393.319 43.9352 393.967 42.8972 394.481 41.7915C394.908 40.9313 395.232 40.0236 395.446 39.0874C395.639 38.304 395.678 37.4907 395.562 36.6923C395.449 35.9537 395.15 35.256 394.693 34.6643C394.165 34.0495 393.505 33.5611 392.763 33.235H392.975ZM375.501 61.6086C376.007 60.5382 376.917 59.7119 378.03 59.3102C378.576 59.1204 379.152 59.0352 379.729 59.0591C380.326 59.09 380.911 59.2411 381.448 59.5033C381.996 59.7668 382.482 60.1418 382.877 60.6043C383.64 61.4927 384.034 62.6403 383.977 63.8106C383.948 64.4101 383.795 64.9972 383.53 65.5354C383.264 66.0737 382.89 66.5516 382.433 66.9396C382.005 67.3174 381.506 67.6062 380.965 67.7894C380.41 67.981 379.822 68.0608 379.235 68.0243C378.649 67.9879 378.075 67.8358 377.548 67.577C377.022 67.3205 376.551 66.9666 376.157 66.534C375.772 66.0976 375.47 65.5933 375.269 65.0467C375.076 64.4887 374.997 63.8975 375.037 63.3084C375.078 62.7251 375.229 62.1549 375.482 61.628L375.501 61.6086Z" fill="#A8A8A8"/>
<path d="M180.659 201.237C180.372 201.994 180.247 202.803 180.292 203.612C180.33 204.372 180.507 205.118 180.814 205.814C181.108 206.486 181.528 207.095 182.049 207.61C182.54 208.097 183.125 208.478 183.768 208.731C184.134 208.882 184.531 208.948 184.926 208.924C185.191 208.903 185.449 208.824 185.679 208.692C185.853 208.589 186.005 208.451 186.123 208.286C186.195 208.175 186.26 208.059 186.317 207.939C186.444 207.634 186.497 207.303 186.471 206.973C186.44 206.712 186.388 206.454 186.317 206.2C186.317 205.969 186.181 205.737 186.143 205.544C186.065 205.325 186.065 205.086 186.143 204.868C186.296 204.45 186.608 204.109 187.012 203.921C187.268 203.81 187.543 203.744 187.823 203.728C188.187 203.732 188.547 203.804 188.885 203.941C189.347 204.112 189.754 204.406 190.062 204.79C190.363 205.182 190.586 205.628 190.719 206.104C190.851 206.608 190.896 207.13 190.854 207.649C190.834 208.157 190.736 208.658 190.564 209.136C190.357 209.78 190.015 210.373 189.56 210.875C189.108 211.362 188.555 211.745 187.938 211.995C186.5 212.484 184.932 212.422 183.536 211.821C182.27 211.384 181.138 210.626 180.254 209.619C179.451 208.687 178.87 207.584 178.555 206.394C178.225 205.134 178.127 203.825 178.265 202.531C178.393 201.17 178.698 199.833 179.172 198.552C179.687 197.119 180.423 195.776 181.354 194.573C182.161 193.505 183.164 192.6 184.308 191.907C185.389 191.23 186.612 190.811 187.882 190.683C189.151 190.556 190.432 190.724 191.626 191.173C192.901 191.609 194.066 192.314 195.044 193.24C195.903 194.072 196.632 195.03 197.207 196.079C197.765 197.118 198.23 198.204 198.597 199.324C198.964 200.445 199.369 201.546 199.794 202.608C200.201 203.642 200.712 204.632 201.319 205.563C201.917 206.487 202.733 207.25 203.694 207.784L202.999 209.716C202.063 209.377 201.179 208.909 200.373 208.325C199.617 207.73 198.901 207.084 198.23 206.394C197.573 205.737 196.917 205.042 196.299 204.327C195.681 203.612 194.986 202.898 194.252 202.202C193.482 201.501 192.662 200.855 191.8 200.271C190.823 199.61 189.766 199.078 188.653 198.687C187.778 198.39 186.87 198.202 185.95 198.127C185.182 198.027 184.403 198.072 183.652 198.262C182.931 198.42 182.265 198.767 181.721 199.266C181.181 199.815 180.767 200.474 180.505 201.198L180.659 201.237ZM209.294 215.105C208.756 214.901 208.264 214.592 207.845 214.197C207.215 213.639 206.77 212.901 206.569 212.083C206.369 211.265 206.424 210.406 206.726 209.619C206.923 209.082 207.224 208.59 207.614 208.171C207.993 207.767 208.445 207.439 208.946 207.205C209.445 206.975 209.981 206.838 210.529 206.799C211.108 206.782 211.684 206.874 212.228 207.07C212.758 207.265 213.243 207.563 213.656 207.948C214.069 208.332 214.402 208.794 214.636 209.308C214.869 209.822 214.998 210.376 215.016 210.94C215.034 211.504 214.939 212.066 214.739 212.594C214.558 213.124 214.269 213.611 213.889 214.023C213.509 214.431 213.058 214.765 212.557 215.008C212.043 215.228 211.493 215.352 210.935 215.375C210.377 215.399 209.819 215.313 209.294 215.124V215.105Z" fill="#A8A8A8"/>
<path d="M433.213 175.722C432.867 175.303 432.448 174.95 431.977 174.679C431.519 174.444 431.022 174.293 430.51 174.234C430.032 174.138 429.54 174.138 429.062 174.234C428.607 174.33 428.183 174.535 427.826 174.833C427.603 174.981 427.418 175.18 427.285 175.412C427.209 175.576 427.169 175.754 427.17 175.934C427.132 176.067 427.132 176.207 427.17 176.34C427.298 176.633 427.532 176.868 427.826 176.996L428.309 177.189L428.753 177.325C428.95 177.369 429.122 177.486 429.236 177.653C429.326 177.76 429.392 177.885 429.429 178.02C429.457 178.173 429.457 178.33 429.429 178.484C429.391 178.67 429.333 178.851 429.255 179.024C429.13 179.24 428.958 179.424 428.753 179.565C428.494 179.779 428.179 179.913 427.845 179.952C427.52 180.009 427.186 180.009 426.861 179.952C426.527 179.852 426.213 179.696 425.934 179.488C425.652 179.293 425.398 179.058 425.181 178.793C424.88 178.455 424.662 178.051 424.544 177.614C424.415 177.182 424.382 176.728 424.447 176.282C424.686 175.285 425.275 174.407 426.108 173.809C426.798 173.227 427.631 172.84 428.521 172.689C429.34 172.557 430.178 172.61 430.973 172.844C431.8 173.096 432.577 173.488 433.271 174.003C433.988 174.568 434.637 175.216 435.202 175.934C435.842 176.726 436.357 177.612 436.727 178.561C437.06 179.396 437.224 180.289 437.21 181.188C437.217 182.029 437.032 182.862 436.669 183.621C436.287 184.383 435.732 185.045 435.047 185.553C434.355 186.133 433.544 186.554 432.672 186.789C431.892 186.997 431.085 187.082 430.278 187.04C429.485 186.997 428.697 186.887 427.923 186.712C427.15 186.538 426.397 186.383 425.625 186.268C424.886 186.139 424.135 186.087 423.385 186.113C422.647 186.132 421.924 186.331 421.281 186.692L420.431 185.63C420.95 185.205 421.529 184.86 422.149 184.606C422.74 184.37 423.346 184.176 423.964 184.027C424.563 183.872 425.2 183.757 425.895 183.641C426.547 183.532 427.192 183.383 427.826 183.196C428.49 183.017 429.136 182.778 429.757 182.482C430.451 182.147 431.1 181.725 431.688 181.226C432.166 180.845 432.6 180.41 432.981 179.932C433.316 179.53 433.566 179.063 433.715 178.561C433.841 178.099 433.841 177.612 433.715 177.151C433.596 176.629 433.351 176.145 433.001 175.741L433.213 175.722ZM415.218 187.311C415.527 187.069 415.881 186.891 416.26 186.789C416.618 186.722 416.984 186.722 417.342 186.789C417.706 186.846 418.058 186.964 418.384 187.137C418.73 187.315 419.033 187.565 419.272 187.871C419.512 188.172 419.683 188.521 419.774 188.894C419.979 189.618 419.896 190.393 419.543 191.058C419.351 191.394 419.095 191.689 418.79 191.927C418.495 192.174 418.154 192.358 417.786 192.468C417.422 192.535 417.049 192.535 416.685 192.468C416.319 192.429 415.964 192.318 415.642 192.139C415.222 191.914 414.864 191.589 414.6 191.193C414.341 190.792 414.182 190.335 414.136 189.86C414.103 189.388 414.183 188.915 414.372 188.482C414.56 188.048 414.85 187.666 415.218 187.368V187.311Z" fill="#DDDDDD"/>
<path d="M202.516 56.4322C202.172 56.8536 201.916 57.3396 201.763 57.8615C201.624 58.3574 201.571 58.8737 201.608 59.3874C201.657 59.8781 201.795 60.3558 202.014 60.7974C202.217 61.2145 202.506 61.5834 202.863 61.879C203.058 62.0552 203.289 62.187 203.539 62.2653C203.717 62.304 203.902 62.304 204.08 62.2653C204.212 62.2422 204.338 62.1894 204.447 62.1108C204.526 62.0569 204.598 61.9919 204.659 61.9177C204.794 61.7436 204.899 61.5476 204.968 61.3382C204.978 61.1645 204.978 60.9904 204.968 60.8167V60.3531C204.969 60.2037 205.024 60.0596 205.123 59.9475C205.214 59.8373 205.325 59.7455 205.451 59.6771C205.61 59.6102 205.78 59.5757 205.953 59.5757C206.125 59.5757 206.296 59.6102 206.455 59.6771C206.692 59.7539 206.914 59.8716 207.111 60.0248C207.365 60.2422 207.558 60.5217 207.671 60.836C207.787 61.144 207.827 61.4752 207.787 61.8018C207.77 62.156 207.685 62.5037 207.536 62.8255C207.238 63.5652 206.701 64.184 206.011 64.5831C205.613 64.8033 205.171 64.9289 204.717 64.9501C203.689 64.9538 202.7 64.5593 201.956 63.8492C201.251 63.2957 200.699 62.5709 200.353 61.7438C200.049 60.9707 199.924 60.1387 199.987 59.3101C200.055 58.4492 200.27 57.6064 200.624 56.8185C201.004 55.9701 201.497 55.1774 202.091 54.4621C202.719 53.6673 203.469 52.9764 204.312 52.4147C205.066 51.9119 205.902 51.5458 206.783 51.3331C207.604 51.1595 208.453 51.1595 209.274 51.3331C210.119 51.537 210.905 51.9336 211.572 52.492C212.29 53.0423 212.883 53.7405 213.309 54.5393C213.669 55.264 213.916 56.039 214.043 56.8378C214.175 57.6163 214.24 58.4047 214.236 59.1943C214.236 60.0055 214.236 60.7781 214.236 61.5507C214.268 62.2941 214.378 63.0321 214.564 63.7526C214.736 64.4728 215.088 65.1375 215.588 65.6841L214.719 66.7464C214.21 66.3213 213.756 65.8347 213.367 65.2978C212.659 64.2414 212.088 63.099 211.668 61.8983C211.398 61.2803 211.127 60.6815 210.819 60.1021C210.487 59.4784 210.113 58.8782 209.699 58.3058C209.197 57.6781 208.627 57.1081 208 56.606C207.533 56.2222 207.021 55.8978 206.474 55.6403C206.011 55.4032 205.506 55.2589 204.987 55.2154C204.504 55.1727 204.017 55.2594 203.578 55.4665C203.106 55.6945 202.695 56.0323 202.381 56.4515L202.516 56.4322ZM217.731 71.4979C217.421 71.2626 217.17 70.9585 216.997 70.6094C216.636 69.9623 216.546 69.1983 216.746 68.4847C216.86 68.1123 217.043 67.7649 217.287 67.4611C217.528 67.1562 217.83 66.9061 218.175 66.7271C218.499 66.5541 218.853 66.4428 219.218 66.3987C219.588 66.3776 219.96 66.4168 220.318 66.5146C220.691 66.6284 221.038 66.8119 221.342 67.0554C221.636 67.2988 221.885 67.5932 222.075 67.9246C222.239 68.2569 222.337 68.6176 222.365 68.9869C222.442 69.3499 222.442 69.7249 222.365 70.0879C222.251 70.4543 222.067 70.7952 221.824 71.0923C221.582 71.3877 221.287 71.6364 220.955 71.8262C220.632 72.0018 220.278 72.1133 219.913 72.1546C219.55 72.1904 219.183 72.1576 218.832 72.058C218.462 71.9413 218.121 71.7507 217.828 71.4979H217.731Z" fill="#DDDDDD"/>
<path d="M300.198 35.3403C299.696 35.2676 299.212 35.1039 298.769 34.8575C298.035 34.4678 297.446 33.8513 297.089 33.0998C296.717 32.3673 296.575 31.5388 296.684 30.7241C296.733 30.1534 296.904 29.6 297.186 29.1016C297.716 28.1671 298.588 27.4748 299.619 27.1701C300.162 27.0036 300.734 26.951 301.299 27.0156C301.867 27.0736 302.419 27.2444 302.92 27.5178C303.848 28.074 304.536 28.9551 304.851 29.9901C305.009 30.5419 305.062 31.1186 305.006 31.6898C304.952 32.2561 304.774 32.8035 304.484 33.293C304.228 33.774 303.873 34.1953 303.442 34.5291C303.025 34.8748 302.537 35.1252 302.013 35.2631C301.47 35.4291 300.898 35.4816 300.333 35.4176L300.198 35.3403ZM297.302 30.8593C297.209 31.5534 297.329 32.2593 297.646 32.8836C297.964 33.5079 298.463 34.0211 299.078 34.3553C299.942 34.8008 300.941 34.9042 301.878 34.645C302.325 34.5091 302.744 34.2931 303.114 34.0076C303.474 33.7202 303.775 33.3661 304.002 32.9646C304.233 32.5439 304.378 32.081 304.428 31.6033C304.478 31.1255 304.431 30.6427 304.291 30.1832C304.025 29.2848 303.414 28.5281 302.592 28.0779C302.18 27.8328 301.718 27.6811 301.241 27.6337C300.754 27.5826 300.262 27.6286 299.793 27.7689C299.353 27.9016 298.944 28.1202 298.59 28.4119C298.235 28.7037 297.942 29.0628 297.727 29.4686C297.496 29.892 297.358 30.3594 297.321 30.84L297.302 30.8593ZM299.966 24.3115V23.9831C300.049 23.0458 300.277 22.1271 300.642 21.2597C300.96 20.43 301.347 19.6288 301.801 18.8647C302.245 18.1307 302.727 17.3774 303.229 16.6628C303.731 15.9481 304.195 15.1755 304.639 14.3836C305.101 13.5677 305.495 12.715 305.817 11.834C306.182 10.8453 306.416 9.81275 306.512 8.76295C306.608 7.96106 306.608 7.15048 306.512 6.34858C306.445 5.67347 306.248 5.01765 305.933 4.41709C305.645 3.89481 305.234 3.45062 304.735 3.12298C304.149 2.77226 303.487 2.56697 302.805 2.52422C302.105 2.43672 301.395 2.49592 300.719 2.69805C300.089 2.89097 299.5 3.19874 298.982 3.60586C298.477 3.97782 298.056 4.45159 297.746 4.99654C297.44 5.4972 297.243 6.05652 297.167 6.63831C297.108 6.9381 297.108 7.24632 297.167 7.54611C297.22 7.73503 297.319 7.90765 297.456 8.0483C297.56 8.14287 297.677 8.22103 297.804 8.28008H298.093C298.334 8.33828 298.586 8.33828 298.827 8.28008L299.426 8.00967L300.005 7.70063C300.244 7.562 300.523 7.50759 300.797 7.54611C301.279 7.60777 301.72 7.84918 302.032 8.22214C302.224 8.46052 302.362 8.73712 302.438 9.03336C302.525 9.4017 302.525 9.78529 302.438 10.1536C302.401 10.6701 302.205 11.1626 301.878 11.5636C301.568 11.9477 301.188 12.269 300.758 12.5101C300.316 12.7625 299.832 12.9326 299.329 13.0122C298.843 13.0892 298.348 13.0892 297.862 13.0122C297.201 12.9842 296.555 12.8061 295.973 12.4916C295.391 12.177 294.888 11.7342 294.502 11.1966C293.706 9.95435 293.397 8.46178 293.633 7.00529C293.752 5.73218 294.19 4.50971 294.907 3.45134C295.683 2.51716 296.66 1.77093 297.765 1.26875C298.837 0.674328 300.008 0.281532 301.221 0.109849C302.504 -0.0366165 303.8 -0.0366165 305.083 0.109849C306.487 0.257927 307.86 0.616028 309.157 1.17217C310.322 1.67211 311.383 2.38624 312.285 3.2775C313.13 4.11503 313.788 5.12222 314.216 6.23269C314.628 7.39589 314.767 8.63841 314.621 9.86391C314.483 11.1447 314.061 12.3786 313.386 13.4758C312.866 14.4245 312.216 15.2956 311.455 16.064C310.637 16.7828 309.759 17.4291 308.829 17.9955C307.921 18.575 307.033 19.1544 306.203 19.7725C305.392 20.3382 304.642 20.9854 303.963 21.704C303.31 22.4061 302.834 23.2536 302.573 24.1763V24.4274L299.966 24.3115ZM303.249 1.88683C303.931 1.98088 304.588 2.21075 305.18 2.56285C305.758 2.95118 306.24 3.46646 306.589 4.06942C306.932 4.74011 307.154 5.46579 307.246 6.21338C307.352 7.06638 307.352 7.92927 307.246 8.78227C307.146 9.88542 306.899 10.9703 306.512 12.0079C306.182 12.9227 305.775 13.8079 305.295 14.654C304.851 15.4652 304.349 16.2378 303.847 16.9718C303.345 17.7058 302.882 18.4204 302.438 19.1351C302.005 19.8602 301.624 20.6154 301.299 21.3949C301.005 22.1068 300.804 22.8532 300.7 23.6162L301.974 23.7514C302.266 22.8334 302.753 21.9898 303.403 21.279C304.095 20.5433 304.851 19.871 305.662 19.2703C306.512 18.6522 307.4 18.0534 308.327 17.474C309.219 16.8977 310.065 16.2518 310.856 15.5425C311.613 14.8133 312.263 13.981 312.787 13.0702C313.364 12.0357 313.713 10.8898 313.81 9.70939C313.945 8.60029 313.824 7.47499 313.456 6.42017C313.088 5.36535 312.482 4.40914 311.686 3.62517C310.84 2.80917 309.852 2.1546 308.771 1.69368C307.544 1.16053 306.241 0.821685 304.909 0.689298C303.691 0.534967 302.459 0.534967 301.241 0.689298C300.112 0.850096 299.02 1.20976 298.016 1.75162C297.069 2.27124 296.251 2.99738 295.622 3.87627C294.96 4.83884 294.561 5.95722 294.463 7.12118C294.253 8.41159 294.513 9.73474 295.197 10.849C295.541 11.3007 295.975 11.6757 296.471 11.9499C296.973 12.2176 297.526 12.3756 298.093 12.4135C298.523 12.4718 298.958 12.4718 299.387 12.4135C299.824 12.3477 300.244 12.1967 300.623 11.9692C300.981 11.7769 301.296 11.5141 301.55 11.1966C301.806 10.8907 301.961 10.5128 301.994 10.115C302.051 9.82815 302.051 9.53267 301.994 9.24583C301.931 9.04696 301.84 8.85827 301.723 8.68569C301.611 8.55602 301.473 8.45084 301.318 8.37665C301.187 8.30307 301.042 8.25706 300.893 8.24145C300.761 8.20228 300.62 8.20228 300.488 8.24145L299.87 8.64706C299.646 8.7661 299.413 8.86937 299.175 8.9561C298.832 9.04196 298.474 9.04196 298.132 8.9561C297.986 8.93823 297.842 8.89919 297.707 8.84021C297.49 8.76005 297.293 8.63499 297.128 8.47323C296.925 8.25575 296.767 7.99958 296.665 7.71995C296.578 7.31897 296.578 6.90408 296.665 6.5031C296.743 5.81972 296.967 5.16107 297.321 4.57161C297.689 3.96143 298.167 3.4245 298.731 2.98778C299.309 2.54065 299.963 2.20051 300.661 1.9834C301.412 1.75914 302.2 1.68691 302.978 1.77094V2.09929V1.77094L303.249 1.88683Z" fill="#292929"/>
<path d="M498.495 98.4616C498.495 112.446 480.036 123.783 457.272 123.783C451.398 123.803 445.55 123.01 439.894 121.427C437.732 124.382 432.924 126.43 427.324 126.43C419.717 126.43 413.538 122.567 413.538 117.912C413.538 114.628 416.512 111.789 420.875 110.36C417.867 107.117 416.149 102.884 416.048 98.4616C416.048 84.4775 434.526 73.1396 457.272 73.1396C480.017 73.1396 498.495 84.4968 498.495 98.4616Z" fill="#A8A8A8"/>
<path d="M455.341 82.8165C453.879 82.8649 452.494 83.4816 451.48 84.5355C450.998 85.0157 450.618 85.587 450.36 86.2159C450.082 86.8204 449.956 87.4834 449.993 88.1474C449.975 88.5136 450.048 88.8786 450.205 89.2098C450.302 89.4372 450.455 89.6365 450.649 89.7892C450.803 89.9049 450.982 89.9841 451.171 90.021C451.292 90.0412 451.416 90.0412 451.538 90.021C451.843 90.0144 452.145 89.9488 452.426 89.8278C452.637 89.7039 452.837 89.5617 453.024 89.4029L453.526 88.9973C453.703 88.876 453.911 88.8089 454.125 88.8041C454.539 88.7977 454.939 88.9497 455.245 89.2291C455.427 89.411 455.572 89.6278 455.67 89.8665C455.8 90.1783 455.866 90.5135 455.863 90.8515C455.881 91.3117 455.767 91.7674 455.534 92.1649C455.301 92.5563 454.993 92.8976 454.627 93.1693C454.245 93.4633 453.813 93.6857 453.353 93.826C452.91 93.9764 452.448 94.061 451.982 94.0771C451.326 94.138 450.665 94.0454 450.051 93.8067C449.467 93.5931 448.938 93.2497 448.506 92.8023C447.59 91.7294 447.114 90.3492 447.174 88.9393C447.102 87.7024 447.362 86.4688 447.927 85.3661C448.462 84.3576 449.214 83.4803 450.128 82.7972C451.093 82.086 452.179 81.5559 453.333 81.2327C454.551 80.8758 455.81 80.6809 457.079 80.6532C458.488 80.6134 459.894 80.7893 461.25 81.1747C462.443 81.5121 463.562 82.0689 464.551 82.8165C465.465 83.524 466.216 84.4199 466.753 85.4433C467.305 86.5065 467.602 87.6835 467.621 88.8814C467.694 90.1275 467.489 91.3742 467.023 92.5319C466.598 93.5544 466.018 94.5055 465.304 95.3519C464.606 96.1953 463.83 96.9712 462.987 97.6697C462.157 98.365 461.346 99.0797 460.574 99.8137C459.822 100.524 459.143 101.306 458.546 102.151C457.957 102.983 457.573 103.942 457.427 104.951H455.496C455.457 104.041 455.555 103.129 455.785 102.247C456.019 101.401 456.303 100.569 456.635 99.7557C456.982 98.9638 457.369 98.1719 457.774 97.38C458.195 96.5714 458.568 95.7395 458.894 94.8884C459.253 93.986 459.537 93.0558 459.744 92.107C460.011 91.0268 460.141 89.917 460.13 88.8041C460.109 87.958 459.998 87.1164 459.802 86.2932C459.627 85.5966 459.319 84.9407 458.894 84.3617C458.509 83.8373 457.997 83.4187 457.407 83.1449C456.739 82.8541 456.012 82.7218 455.283 82.7586L455.341 82.8165ZM453.217 112.233C453.198 111.699 453.29 111.166 453.488 110.669C453.679 110.198 453.954 109.766 454.299 109.394C454.645 109.016 455.066 108.714 455.534 108.505C456.015 108.269 456.543 108.143 457.079 108.138C457.602 108.12 458.123 108.208 458.611 108.397C459.099 108.587 459.544 108.873 459.917 109.239C460.29 109.583 460.592 109.996 460.806 110.456C461.034 110.94 461.158 111.466 461.172 112.001C461.185 112.537 461.087 113.07 460.883 113.566C460.536 114.496 459.845 115.257 458.952 115.691C458.46 115.896 457.931 116.002 457.398 116.002C456.864 116.002 456.336 115.896 455.843 115.691C454.914 115.344 454.153 114.652 453.719 113.759C453.488 113.281 453.35 112.763 453.314 112.233H453.217Z" fill="white"/>
<path d="M414.967 127.859C414.967 126.178 412.09 124.807 408.537 124.807C404.985 124.807 402.127 126.178 402.127 127.859C402.127 129.539 405.004 130.93 408.537 130.93C412.071 130.93 414.967 129.559 414.967 127.859Z" fill="#A8A8A8"/>
</svg>
