<svg width="240" height="177" viewBox="0 0 240 177" fill="none" xmlns="http://www.w3.org/2000/svg">
<path d="M61.1719 125.829C61.1719 125.829 62.8362 143.104 71.7399 150.378L75.8143 144.095L71.6308 131.366L66.8015 125.001L61.1719 125.829Z" fill="#BCBCBC"/>
<path d="M35.3789 109.19C35.3789 109.19 36.352 135.557 51.4583 145.722C58.1157 150.187 67.1012 147.868 71.785 144.413C82.1711 136.73 83.5535 128.956 83.5535 128.956L71.8486 118.773C71.8486 118.773 63.4451 128.911 58.1611 127.501C48.4389 124.919 44.4463 108.762 44.4463 108.762L35.3789 109.19Z" fill="#DDDDDD"/>
<path d="M56.7145 143.658C63.9903 145.695 70.8477 140.813 73.1395 136.003C75.3314 131.457 70.7022 125.319 70.4111 120.382C71.3206 119.418 71.8663 118.755 71.8663 118.755L83.5439 128.929C83.5439 128.929 82.1615 136.712 71.7753 144.386C67.0916 147.841 58.1333 150.159 51.4487 145.695C43.9183 140.64 39.8984 131.548 37.8066 123.692C43.4635 135.93 51.7215 142.286 56.7145 143.658Z" fill="#C1C1C1"/>
<path d="M37.5525 122.892C36.3847 118.406 35.6567 113.817 35.3789 109.19L44.4736 108.762C44.4736 108.762 44.7192 109.744 45.2285 111.253C44.8387 113.624 43.9537 115.885 42.6311 117.89C41.3086 119.896 39.5781 121.6 37.5525 122.892Z" fill="#C1C1C1"/>
<path d="M44.3556 108.326C43.3061 105.578 41.2377 103.341 38.5804 102.079C35.852 100.752 32.1141 101.17 30.2497 101.17C27.7216 101.327 25.2097 101.683 22.7375 102.234C20.9822 102.925 20.8094 106.071 23.365 106.071C25.0475 106.071 29.5585 105.871 30.5134 105.889C28.3853 107.526 25.8933 107.835 24.3381 108.271C20.7912 109.271 16.262 109.253 14.4613 111.572C14.1839 111.965 14.0181 112.427 13.9812 112.907C13.9444 113.387 14.038 113.868 14.2521 114.299C12.5969 115.427 12.8515 118.591 14.4886 118.427C15.6891 118.309 16.8805 118.064 16.8805 118.064C16.5804 118.727 16.062 119.546 17.1442 120.073C18.4266 120.7 21.6916 119.664 23.0285 119.291C24.3654 118.918 28.0488 118.382 28.0488 118.382C28.0488 118.382 22.8557 120.691 22.1281 121.155C20.1819 122.373 21.1732 123.928 21.828 124.246C23.1013 124.874 27.1029 123.337 28.458 123.001C31.6503 122.137 36.5796 120.391 39.3717 118.564C41.0906 117.445 46.3291 112.936 44.3556 108.326Z" fill="#DDDDDD"/>
<path d="M24.1097 104.425C24.9883 104.837 25.9342 105.087 26.9017 105.162C27.8112 105.271 29.5301 105.243 30.4214 105.807L30.3304 105.889C29.1026 105.889 24.9464 106.071 23.3548 106.071C20.8719 106.071 20.9629 103.116 22.5727 102.307C22.5986 102.77 22.7572 103.216 23.0298 103.592C23.3023 103.967 23.6772 104.257 24.1097 104.425Z" fill="#C1C1C1"/>
<path d="M41.7548 116.545C41.0315 117.301 40.2297 117.978 39.3629 118.564C36.5708 120.382 31.6415 122.137 28.4492 123.001C27.0941 123.364 23.0925 124.874 21.8192 124.246C21.6115 124.125 21.432 123.961 21.2925 123.765C21.153 123.569 21.0566 123.346 21.0098 123.11C23.4381 125.528 38.3079 118.391 41.7548 116.545Z" fill="#C1C1C1"/>
<path d="M14.2424 114.281C14.0282 113.85 13.9347 113.369 13.9715 112.889C14.0083 112.409 14.1742 111.947 14.4515 111.554C14.787 111.136 15.1971 110.785 15.6611 110.517C14.0423 112.554 15.4974 113.499 15.4883 113.508C12.5871 116.673 15.3337 117.682 18.0621 116.864C17.2709 118.436 18.2622 118.955 19.3809 119C21.9274 119.091 24.9832 118.182 27.5115 118.436C26.4565 118.591 24.0737 118.955 23.0187 119.255C21.6636 119.628 18.4168 120.664 17.1345 120.037C16.0522 119.509 16.5706 118.691 16.8707 118.027C16.8707 118.027 15.6793 118.273 14.4788 118.391C12.8418 118.573 12.5871 115.409 14.2424 114.281Z" fill="#C1C1C1"/>
<path d="M20.9192 115.472C22.946 114.999 25.0034 114.668 27.0763 114.481C27.0763 114.481 19.1003 116.036 16.8175 118.2L16.8721 118.073C16.8721 118.073 16.29 118.191 15.5352 118.3C17.0226 116.862 18.8911 115.881 20.9192 115.472Z" fill="#C1C1C1"/>
<path d="M25.7211 110.972C25.7211 110.972 16.6264 112.854 14.2254 114.254C14.108 114.072 14.0305 113.868 13.998 113.654C16.781 111.835 22.7835 111.09 25.7211 110.972Z" fill="#C1C1C1"/>
<path d="M39.9624 107.407C39.9624 107.407 34.069 110.853 29.6035 107.644C31.0132 110.663 36.7974 110.572 39.9624 107.407Z" fill="#C1C1C1"/>
<g style="mix-blend-mode:multiply" opacity="0.5">
<path d="M37.5078 110.362C37.5078 110.362 33.3698 111.908 32.8241 115.5C31.8782 112.936 34.6794 110.735 37.5078 110.362Z" fill="#D5AFC1"/>
</g>
<path d="M88.6652 98.4607C86.3551 96.2694 79.6159 98.0697 74.8685 104.143C70.8123 109.335 61.1719 125.829 61.1719 125.829C67.2199 126.52 75.6052 140.658 71.7399 150.378C79.6159 148.168 86.9372 131.929 89.6747 124.492C94.3221 111.899 93.5035 103.061 88.6652 98.4607Z" fill="white"/>
<path d="M151.436 124.565C151.308 124.61 151.381 124.801 151.508 124.765C151.529 124.751 151.545 124.731 151.553 124.708C151.561 124.684 151.56 124.659 151.552 124.636C151.544 124.612 151.527 124.593 151.506 124.58C151.485 124.567 151.46 124.561 151.436 124.565Z" fill="#6B3C17"/>
<path d="M186.306 96.6422C186.306 96.6422 192.29 122.383 180.358 136.112C175.11 142.167 165.807 142.277 160.404 140.167C148.363 135.466 144.943 128.347 144.943 128.347L153.602 115.472C153.602 115.472 164.361 123.055 169.063 120.319C177.775 115.272 177.393 98.6425 177.393 98.6425L186.306 96.6422Z" fill="#DDDDDD"/>
<path d="M184.078 122.746C182.123 127.165 179.531 132.493 174.71 134.384C172.272 135.298 169.608 135.423 167.095 134.741C164.581 134.059 162.346 132.605 160.705 130.584C157.385 126.729 156.448 121.491 155.43 116.654C154.302 115.963 153.611 115.463 153.611 115.463L144.998 128.338C144.998 128.338 148.372 135.485 160.459 140.158C165.916 142.267 175.165 142.158 180.413 136.103C186.361 129.256 187.861 119.428 187.861 111.29C187.013 115.233 185.745 119.073 184.078 122.746Z" fill="#C1C1C1"/>
<path d="M187.797 110.444C187.75 105.806 187.25 101.184 186.306 96.6422L177.42 98.6152C177.42 98.6152 177.42 99.6245 177.348 101.216C178.344 103.401 179.79 105.352 181.59 106.942C183.39 108.532 185.505 109.725 187.797 110.444Z" fill="#C1C1C1"/>
<path d="M177.42 98.197C177.709 95.2702 179.12 92.569 181.358 90.6594C183.613 88.6682 187.369 88.1318 189.17 87.6226C191.651 87.1047 194.169 86.7824 196.701 86.6588C198.574 86.8588 199.565 89.8593 197.101 90.523C195.473 90.9595 191.071 91.9596 190.152 92.2233C192.635 93.2416 195.118 92.887 196.728 92.8961C200.411 92.8961 204.786 91.7323 207.132 93.5053C207.493 93.8149 207.767 94.2136 207.927 94.6618C208.087 95.11 208.126 95.5921 208.042 96.0603C209.933 96.7149 210.515 99.8427 208.897 100.106C207.705 100.306 206.486 100.379 206.486 100.379C206.95 100.943 207.669 101.597 206.759 102.398C205.686 103.307 202.276 103.18 200.875 103.17C199.474 103.161 195.8 103.625 195.8 103.625C195.8 103.625 201.421 104.534 202.239 104.753C204.44 105.425 203.885 107.189 203.34 107.671C202.276 108.58 198.019 108.198 196.619 108.198C193.308 108.198 188.097 107.808 184.914 106.78C182.958 106.107 176.719 103.125 177.42 98.197Z" fill="#DDDDDD"/>
<path d="M195.937 89.1047C195.198 89.7344 194.35 90.2243 193.436 90.5504C192.599 90.8959 190.926 91.3141 190.207 92.0961L190.316 92.1506C191.498 91.8233 195.555 90.9141 197.101 90.4958C199.493 89.8503 198.629 87.0226 196.864 86.668C196.961 87.1203 196.925 87.5909 196.76 88.0232C196.596 88.4555 196.31 88.8311 195.937 89.1047Z" fill="#C1C1C1"/>
<path d="M182.076 105.407C182.974 105.948 183.925 106.396 184.914 106.744C188.097 107.771 193.308 108.162 196.619 108.162C198.019 108.162 202.276 108.571 203.34 107.635C203.508 107.461 203.638 107.254 203.721 107.027C203.804 106.8 203.839 106.558 203.822 106.316C202.112 109.29 185.896 106.289 182.076 105.407Z" fill="#C1C1C1"/>
<path d="M208.041 96.0239C208.126 95.5557 208.086 95.0736 207.927 94.6254C207.767 94.1773 207.493 93.7786 207.132 93.469C206.699 93.1527 206.212 92.9185 205.695 92.778C207.787 94.3236 206.604 95.6148 206.604 95.6238C210.242 97.9242 207.85 99.6154 204.995 99.5335C206.177 100.852 205.358 101.607 204.285 101.943C201.848 102.698 198.665 102.625 196.291 103.525C197.355 103.398 199.747 103.125 200.838 103.134C202.239 103.134 205.649 103.298 206.723 102.361C207.632 101.561 206.914 100.906 206.45 100.343C206.45 100.343 207.668 100.27 208.86 100.07C210.515 99.8063 209.933 96.6786 208.041 96.0239Z" fill="#C1C1C1"/>
<path d="M201.902 98.8879C199.822 98.9651 197.749 99.1838 195.699 99.5426C195.699 99.5426 203.775 98.997 206.558 100.452L206.467 100.343C206.467 100.343 207.058 100.343 207.822 100.215C206.015 99.2195 203.961 98.759 201.902 98.8879Z" fill="#C1C1C1"/>
<path d="M196.1 95.833C196.1 95.833 205.349 95.2784 208.05 95.9967C208.118 95.7888 208.14 95.5684 208.114 95.3511C204.94 94.2964 198.964 95.1784 196.1 95.833Z" fill="#C1C1C1"/>
<path d="M181.422 96.133C181.422 96.133 188.016 97.9515 191.481 93.6417C190.908 96.9241 185.305 98.3515 181.422 96.133Z" fill="#C1C1C1"/>
<path d="M184.559 98.3334C184.559 98.3334 188.96 98.7425 190.434 102.07C190.67 99.3426 187.351 97.9515 184.559 98.3334Z" fill="#C1C1C1"/>
<path d="M135.366 98.8516C138.831 96.7876 144.515 99.2789 149.362 103.734C154.21 108.189 166.024 117.082 166.024 117.082C166.024 117.082 167.961 134.739 155.292 144.086C151.591 143.104 138.794 131.657 137.203 125.765C133.756 113.017 135.366 98.8516 135.366 98.8516Z" fill="white"/>
<path d="M96.095 99.8154C96.095 99.8154 84.7539 121.637 82.2892 137.167C80.4703 148.396 77.8419 166.708 81.3798 173.6C81.3798 173.6 80.5976 176.609 110.91 176.2C122.933 176.036 138.931 175.727 146.589 176.2C153.674 176.636 156.647 168.481 154.592 161.752C152.2 153.896 145.497 143.195 142.896 135.73C139.258 125.21 137.158 111.826 138.194 100.843C138.194 100.843 128.827 105.916 114.012 105.098C99.1963 104.28 96.095 99.8154 96.095 99.8154Z" fill="#BCBCBC"/>
<path d="M111.864 117.809C120.341 118.509 124.924 112.708 127.98 105.353C124.111 106.201 120.164 106.646 116.203 106.68C111.987 106.812 107.773 106.365 103.679 105.353C103.552 110.79 106.926 117.109 111.864 117.809Z" fill="#C1C1C1"/>
<path d="M81.3351 79.8669C78.8431 94.2236 86.7919 104.525 101.662 110.108C112.084 114.018 129.51 110.526 138.95 100.106C146.617 91.6596 146.471 73.2204 142.87 63.9371C139.969 56.3723 125.372 39.2333 105.272 47.0436C93.6766 51.5716 84.0908 64.0281 81.3351 79.8669Z" fill="#DDDDDD"/>
<path d="M128.236 70.2018C127.225 69.9565 126.28 69.4976 125.462 68.8561C124.496 67.9482 123.677 66.8961 123.033 65.7374C122.75 66.2298 122.641 66.8031 122.724 67.3649C122.687 68.1975 122.911 69.0208 123.367 69.7189C123.822 70.417 124.485 70.9548 125.262 71.2565C126.635 71.8293 128.345 70.7837 128.236 70.2018Z" fill="black"/>
<path d="M97.7962 62.2278C97.1541 62.7841 96.434 63.2435 95.659 63.5916C94.6558 64.0632 93.54 64.2428 92.4395 64.1099C92.4395 64.1099 92.8669 65.5192 94.0128 65.7101C94.5371 65.8257 95.0815 65.8124 95.5995 65.6715C96.1174 65.5306 96.5935 65.2661 96.9868 64.9009C98.2237 63.9644 98.3601 62.4369 97.7962 62.2278Z" fill="black"/>
<path d="M100.169 84.4494C100.314 84.504 100.378 84.2312 100.323 84.0857C99.3501 81.6126 99.7047 80.8307 99.9958 80.5852C100.523 80.1397 101.76 80.5852 102.724 81.1125C102.865 81.2247 103.037 81.2924 103.216 81.307C103.396 81.3215 103.576 81.2823 103.734 81.1944C104.707 80.6125 104.643 77.8666 104.643 77.3211C104.642 77.2844 104.634 77.2484 104.618 77.2151C104.603 77.1819 104.581 77.152 104.554 77.1274C104.527 77.1028 104.495 77.0839 104.46 77.0719C104.425 77.0599 104.389 77.0549 104.352 77.0574C104.198 77.0574 104.261 77.0574 104.27 77.2392C104.325 78.4576 103.997 80.4124 103.488 80.7125C103.488 80.7125 103.334 80.8034 103.061 80.6398C101.969 79.9669 100.269 79.4214 99.4228 80.0942C98.577 80.767 98.9772 82.1582 99.532 83.4493C99.6866 83.9221 99.8866 84.3403 100.169 84.4494Z" fill="black"/>
<path d="M141.477 88.4683C141.477 88.4683 144.451 85.5587 147.616 86.8589C152.763 88.9683 151.117 95.6512 146.797 98.0788C144.623 99.3659 142.03 99.748 139.576 99.1426C141.22 95.8403 141.88 92.135 141.477 88.4683Z" fill="#DDDDDD"/>
<path d="M140.877 97.1877C140.877 97.1877 144.833 97.3059 146.525 95.0056C148.435 92.4052 147.243 89.8684 145.615 89.5502C145.03 89.4226 144.424 89.43 143.843 89.5718C143.261 89.7136 142.72 89.9861 142.259 90.3685C142.355 92.7197 141.881 95.0592 140.877 97.1877Z" fill="#C1C1C1"/>
<path d="M150.681 51.5444C150.469 51.5308 150.256 51.5308 150.044 51.5444C150.954 50.0714 151.863 47.1164 148.662 43.0612C143.951 37.124 140.94 38.3423 138.658 39.4243C138.658 39.4243 137.057 32.4869 133.137 31.8322C130.409 31.3776 128.772 33.6507 128.008 35.0327C128.754 31.3958 131.946 27.4315 134.974 28.9681C135.256 29.1045 135.438 28.7045 135.184 28.5408C131.709 26.395 127.717 31.3776 127.098 35.5692C125.716 33.7962 121.05 28.4408 115.275 28.4772C110.728 28.4772 110.364 33.7143 110.364 33.7143C110.364 33.7143 103.261 29.1682 104.762 35.9419C104.762 35.9419 101.069 32.0868 96.8039 34.9509C95.8185 35.5827 94.9696 36.4054 94.3073 37.3704C93.645 38.3355 93.1827 39.4234 92.9478 40.5699C90.9287 38.0605 86.2814 37.5331 83.5439 38.6515C83.4727 38.6756 83.414 38.727 83.3808 38.7943C83.3475 38.8617 83.3424 38.9395 83.3665 39.0106C83.3906 39.0817 83.442 39.1404 83.5094 39.1736C83.5768 39.2069 83.6546 39.212 83.7257 39.1879C86.2359 38.6969 90.1921 38.6151 92.1565 40.6427C88.2731 38.4969 82.216 42.3793 80.3334 45.8435C80.2334 46.0253 80.5153 46.1526 80.6154 45.9799C82.6162 42.7157 89.51 38.3514 92.8023 41.9611V42.052C92.8023 42.052 88.6824 40.4699 84.0895 44.7797C79.4967 49.0894 83.1801 56.045 83.1801 56.045C82.2695 56.7764 81.513 57.6808 80.9541 58.7061C80.3953 59.7315 80.0452 60.8573 79.9242 62.0187C79.6695 65.7647 82.9436 68.9834 85.2173 68.1924C85.7993 66.6103 86.8725 63.6462 86.8725 63.6462C86.8725 63.6462 87.4546 64.5555 88.8279 62.8461C90.3244 60.9357 91.3215 58.6827 91.7291 56.2905C91.7291 56.2905 91.338 58.9364 93.548 58.3454C96.6766 57.4362 99.9143 50.0259 99.9143 50.0259C99.9143 50.0259 97.3132 56.0814 102.77 58.2999C108.227 60.5185 113.556 55.0722 113.556 55.0722C113.556 55.0722 111.656 59.6183 117.194 59.9638C122.733 60.3093 126.753 55.2904 126.753 55.2904C126.753 55.2904 130.009 61.4186 135.093 59.7002C135.093 59.7002 132.364 65.1555 138.449 67.5832C138.449 67.5832 135.093 72.3203 140.449 75.8754C139.497 78.5616 138.886 81.3566 138.63 84.1948C138.494 87.3681 139.74 89.8321 141.286 87.5681C145.333 86.3679 148.935 87.9409 148.798 92.9053C150.228 91.8769 151.553 90.7105 152.755 89.4229C155.156 86.9589 155.11 80.0306 155.11 80.0306C155.11 80.0306 157.256 82.8401 158.93 80.4761C160.603 78.1121 158.784 73.3386 158.784 73.3386C158.784 73.3386 161.467 74.0842 160.667 70.8655C159.867 67.6468 156.683 64.319 156.683 64.319C156.683 64.319 161.422 66.1375 159.812 60.7276C158.787 57.324 156.552 54.4131 153.528 52.5445C155.3 52.846 156.96 53.6115 158.341 54.7629C159.721 55.9144 160.771 57.4109 161.385 59.1001C161.476 59.3274 161.867 59.2819 161.831 59.0091C161.222 54.3357 155.31 50.6169 150.681 51.5444Z" fill="black"/>
<path d="M145.517 63.3825C147.581 62.3733 146.08 58.7272 145.262 57.2088C143.752 54.4266 140.715 50.5896 137.149 50.9079C136.786 50.9079 136.813 51.508 137.149 51.4716C140.078 51.2079 142.561 54.1993 143.98 56.3814C144.753 57.5816 147.481 62.4369 144.643 62.937C144.569 62.9403 144.498 62.9682 144.441 63.0163C144.384 63.0643 144.345 63.1298 144.33 63.2026C144.314 63.2753 144.323 63.3512 144.355 63.4183C144.387 63.4854 144.441 63.54 144.507 63.5735C147.872 65.3919 150.319 68.8834 148.481 72.6658C148.46 72.7092 148.456 72.7594 148.471 72.8055C148.487 72.8515 148.52 72.8896 148.563 72.9113C148.607 72.933 148.657 72.9365 148.703 72.9212C148.749 72.9058 148.787 72.8728 148.809 72.8294C151.146 69.1016 148.772 65.4647 145.517 63.3825Z" fill="#2B2B2B"/>
<path d="M102.298 40.9609C98.4696 41.0155 93.8677 44.9252 93.2765 48.8621C92.5217 47.8074 91.4576 47.7529 90.2753 48.9258C88.1835 51.0443 87.8834 54.3812 87.947 57.1816C87.947 57.3634 88.229 57.3453 88.2381 57.1816C88.1971 55.2055 88.5335 53.2398 89.2294 51.3898C89.8569 49.9259 92.1033 46.9255 93.222 49.8168C93.2367 49.8781 93.2744 49.9314 93.3273 49.9656C93.3802 49.9999 93.4443 50.0125 93.5063 50.0008C93.5682 49.9891 93.6233 49.954 93.6601 49.9029C93.6969 49.8517 93.7126 49.7883 93.704 49.7259C93.8222 45.7798 98.506 41.7065 102.335 41.5428C102.708 41.5246 102.671 40.9155 102.298 40.9609Z" fill="#2B2B2B"/>
<path d="M118.35 45.7889C116.804 47.7983 115.304 49.7077 113.039 50.9897C111.896 51.6941 110.58 52.0686 109.238 52.0717C107.51 51.9898 106.455 51.026 105.19 49.9622C105.15 49.9337 105.102 49.9196 105.052 49.9222C105.003 49.9249 104.956 49.9441 104.919 49.9768C104.882 50.0095 104.858 50.0537 104.849 50.1022C104.84 50.1508 104.849 50.2008 104.872 50.2441C108.592 56.0723 116.513 50.2441 118.56 45.9253C118.614 45.798 118.441 45.6707 118.35 45.7889Z" fill="#2B2B2B"/>
<path d="M132.492 45.4616C131.292 46.78 128.4 48.1893 127.636 45.7253C127.618 45.6842 127.59 45.6482 127.555 45.6203C127.52 45.5925 127.479 45.5737 127.435 45.5656C127.391 45.5575 127.345 45.5604 127.303 45.5739C127.26 45.5875 127.221 45.6114 127.19 45.6434C126.423 46.8685 125.429 47.9361 124.262 48.7894C122.443 49.8441 119.914 49.635 119.796 47.0709C119.796 46.8618 119.496 46.8891 119.487 47.0709C119.432 48.7712 120.242 49.9623 122.043 50.0259C124.58 50.1078 125.999 48.2529 127.29 46.389C128.2 48.7439 131.619 47.4801 132.811 45.7253C132.836 45.6824 132.846 45.6318 132.837 45.5827C132.829 45.5335 132.803 45.489 132.764 45.4572C132.726 45.4253 132.678 45.4083 132.628 45.4091C132.578 45.4099 132.53 45.4285 132.492 45.4616Z" fill="#2B2B2B"/>
<path d="M94.4762 69.4198C94.2341 69.3231 93.9733 69.2826 93.7133 69.3015C93.4533 69.3204 93.201 69.3982 92.9756 69.5289C92.6569 69.7382 92.3846 70.0105 92.1752 70.3291C91.8479 70.7788 91.6045 71.284 91.4567 71.8202C91.3191 72.2855 91.2307 72.7639 91.193 73.2477C91.1162 73.7652 91.2327 74.2928 91.5204 74.7298C91.7989 75.0931 92.1694 75.3756 92.5936 75.5481C92.8069 75.6569 93.0396 75.7226 93.2784 75.7414C93.5172 75.7601 93.7574 75.7315 93.9851 75.6572C94.4056 75.4733 94.7517 75.153 94.9673 74.7479C95.2968 74.2043 95.5768 73.6322 95.804 73.0386C96.1051 72.3944 96.185 71.6689 96.0314 70.9746C95.9316 70.6334 95.7506 70.3214 95.5039 70.0654C95.1219 69.6471 94.5944 69.1562 93.976 69.5017C93.0855 69.9481 92.3967 70.7146 92.0479 71.6475C91.8196 72.1608 91.7378 72.7272 91.8114 73.2841C91.8373 73.6352 92.0007 73.9619 92.2662 74.1933C92.3971 74.309 92.5498 74.3975 92.7153 74.4537C92.8808 74.5099 93.0558 74.5327 93.2302 74.5206C93.5487 74.4193 93.8407 74.2485 94.0851 74.0206C94.3324 73.7955 94.5279 73.5194 94.6581 73.2113C94.9553 72.6763 95.1496 72.0904 95.231 71.4838C95.2672 71.3436 95.2672 71.1966 95.231 71.0565C95.1763 70.9268 95.0923 70.8117 94.9855 70.72C94.8716 70.6289 94.7375 70.5666 94.5944 70.5382C94.4569 70.5057 94.3136 70.5057 94.1761 70.5382C93.878 70.6553 93.6105 70.8388 93.3939 71.0746C93.1755 71.3055 93.0109 71.5819 92.9119 71.8839C92.8001 72.2235 92.7599 72.5826 92.7937 72.9386C92.8226 73.2934 92.9281 73.6377 93.1029 73.9478C93.2102 74.0983 93.3633 74.2099 93.5394 74.266C93.7114 74.3181 93.8949 74.3181 94.0669 74.266C94.3915 74.1219 94.6735 73.8964 94.8854 73.6114C95.0989 73.3304 95.2339 72.9978 95.2765 72.6476C95.321 72.287 95.2868 71.9209 95.1765 71.5747C95.0564 71.2324 94.8605 70.9216 94.6035 70.6655C94.4289 70.5335 94.2125 70.469 93.9942 70.4836C93.8866 70.4913 93.7818 70.5211 93.6864 70.5712C93.5909 70.6212 93.5068 70.6905 93.4394 70.7746C93.3 70.9421 93.2314 71.1574 93.2484 71.3747C93.2742 71.587 93.374 71.7833 93.5303 71.9293C93.6577 72.0657 93.4394 71.7838 93.5303 71.9293L93.594 72.0202C93.694 72.1566 93.5394 71.8657 93.594 72.0202V72.1384C93.5984 72.1838 93.5984 72.2295 93.594 72.2748V72.4021V72.5294C93.594 72.6931 93.594 72.5294 93.594 72.5294C93.594 72.5294 93.5212 72.684 93.4849 72.7567C93.4849 72.6658 93.5576 72.6112 93.4849 72.7567C93.4121 72.9022 93.3666 72.8931 93.4849 72.7567C93.3666 72.8567 93.6486 72.684 93.4849 72.7567L94.4489 73.0568C94.558 73.2477 94.3943 72.9567 94.4489 72.9113C94.5035 72.8658 94.4489 73.0659 94.4489 72.9113V72.7749C94.4489 72.7113 94.3943 72.6112 94.4489 72.7749C94.4445 72.7356 94.4445 72.696 94.4489 72.6567V72.5112L94.558 72.2839V72.1839L94.6399 72.0839C94.6399 72.0202 94.4944 72.1839 94.6399 72.0839L94.7308 72.0293H94.6672H94.749L93.6395 71.1201C93.6218 71.2702 93.5945 71.419 93.5576 71.5656C93.5576 71.7111 93.5121 71.7566 93.5576 71.6293L93.4576 71.8566L93.2848 72.2294L93.1847 72.4476C93.2302 72.3385 93.1847 72.4476 93.1847 72.5021C93.1847 72.5567 93.0028 72.7294 92.9119 72.8476C92.8209 72.9658 92.9847 72.8476 92.9119 72.8476C92.8391 72.8476 92.9119 72.8476 93.1029 72.7749H93.3757C93.4255 72.7934 93.4694 72.8248 93.503 72.8658C93.5576 72.9567 93.5576 72.9477 93.503 72.8658C93.4485 72.784 93.503 73.0022 93.503 72.8658V72.7749C93.503 72.7203 93.503 72.7749 93.503 72.8204C93.4798 72.7033 93.4798 72.5828 93.503 72.4658L93.5576 72.2566C93.503 72.3657 93.5576 72.2566 93.5576 72.2566C93.6046 72.1351 93.6593 72.0167 93.7213 71.902C93.7418 71.8459 93.7661 71.7912 93.7941 71.7384C93.8598 71.6339 93.936 71.5364 94.0214 71.4474C94.0214 71.3929 94.1033 71.3565 94.1397 71.311C94.1761 71.2656 94.3307 71.1383 94.1397 71.2565L94.4125 71.0474L94.5853 70.9292C94.6399 70.9292 94.4762 70.9837 94.649 70.9292H94.0214C93.8214 70.8382 94.1124 70.9292 94.1397 71.0201L94.2306 71.0928H94.2761H94.2306L94.3034 71.1656L94.3579 71.2474C94.3549 71.2746 94.3549 71.302 94.3579 71.3292C94.3034 71.211 94.2943 71.1928 94.3579 71.2656L94.4034 71.3747C94.458 71.5202 94.4034 71.311 94.4034 71.311C94.4085 71.3776 94.4085 71.4445 94.4034 71.5111V71.6202C94.4034 71.7384 94.4034 71.5293 94.4034 71.5383C94.4168 71.6196 94.4168 71.7026 94.4034 71.7838V71.9748C94.3489 72.2021 94.4762 71.8293 94.4034 71.9748L94.2033 72.393L93.8395 73.1931C93.77 73.367 93.6911 73.537 93.6031 73.7023C93.5995 73.7386 93.5995 73.7751 93.6031 73.8114C93.6577 73.675 93.6031 73.7114 93.6031 73.8114L93.5212 73.9296V74.0024C93.5212 74.066 93.5212 74.066 93.5212 74.0024L93.4394 74.066C93.3484 74.1478 93.4394 74.066 93.494 74.066C93.3484 74.1297 93.6577 74.066 93.5485 74.066C93.4394 74.066 93.5485 74.066 93.5485 74.066C93.4792 74.0558 93.4087 74.0558 93.3393 74.066C93.1756 74.066 93.4667 74.1206 93.3393 74.066L93.1574 73.9751H93.0483C92.8937 73.9023 93.0483 73.9751 93.0483 73.9751C93.0483 73.9751 92.8573 73.8205 92.8209 73.8023C92.7846 73.7841 92.8209 73.8023 92.8755 73.8023L92.7937 73.7023C92.7027 73.7023 92.8937 73.8842 92.7937 73.7023V73.6387C92.7937 73.5387 92.7937 73.3477 92.7937 73.5205C92.7937 73.4114 92.7937 73.2932 92.7937 73.1841C92.8391 72.9022 92.8755 72.6203 92.9483 72.3385L93.021 72.193C93.0756 71.9384 92.9574 72.3294 93.0665 72.093C93.1191 71.9517 93.183 71.8149 93.2575 71.6838L93.3393 71.4929C93.3393 71.602 93.3393 71.4929 93.3393 71.4383L93.5212 71.1928C93.5212 71.1019 93.6668 71.0383 93.7122 70.9655C93.7577 70.8928 93.5576 71.0746 93.7122 70.9655C93.7122 70.9655 93.8305 70.8928 93.8305 70.8746C93.8305 70.8564 93.6486 70.9564 93.7759 70.8746C93.9032 70.7928 93.6031 70.8746 93.7759 70.8746C93.9487 70.8746 93.6486 70.82 93.7759 70.8746C93.9032 70.9292 94.0396 70.9473 93.7759 70.8746C93.9784 70.949 94.2009 70.949 94.4034 70.8746C94.6084 70.799 94.7751 70.6453 94.8672 70.4473C94.9487 70.2461 94.9487 70.0211 94.8672 69.8199C94.8311 69.7177 94.7746 69.6239 94.7011 69.5442C94.6277 69.4645 94.5387 69.4005 94.4398 69.3562L94.4762 69.4198Z" fill="#242424"/>
<path d="M92.9937 71.3292C93.0679 71.3666 93.1519 71.3805 93.2343 71.3691C93.3167 71.3576 93.3937 71.3213 93.4549 71.265C93.5162 71.2087 93.5588 71.1351 93.5771 71.054C93.5955 70.9728 93.5886 70.888 93.5575 70.8109C93.5399 70.7608 93.5123 70.7148 93.4763 70.6757C93.4404 70.6366 93.3968 70.6053 93.3483 70.5836C93.2462 70.5426 93.1322 70.5426 93.03 70.5836C92.9777 70.6016 92.9296 70.6303 92.8889 70.6679C92.8482 70.7054 92.8157 70.7511 92.7936 70.8018C92.7497 70.9009 92.7461 71.0132 92.7834 71.115C92.8207 71.2167 92.8961 71.3001 92.9937 71.3473V71.3292Z" fill="white"/>
<path d="M120.697 75.7026C120.458 75.6009 120.201 75.5513 119.942 75.5571C119.682 75.5676 119.427 75.6359 119.196 75.7571C118.869 75.9496 118.587 76.2101 118.369 76.5209C118.024 76.959 117.759 77.4546 117.586 77.9847C117.43 78.4417 117.323 78.9142 117.268 79.3941C117.17 79.9096 117.264 80.443 117.532 80.8943C117.791 81.2836 118.149 81.5974 118.569 81.8035C118.995 82.0332 119.492 82.0918 119.96 81.9672C120.378 81.8049 120.733 81.5113 120.97 81.1307C121.326 80.6066 121.63 80.0494 121.879 79.4668C122.205 78.831 122.316 78.1071 122.197 77.4028C122.107 77.0637 121.935 76.7516 121.697 76.4936C121.333 76.0572 120.788 75.5844 120.197 75.8662C119.324 76.2678 118.626 76.972 118.232 77.8484C117.986 78.3535 117.879 78.9155 117.923 79.4759C117.946 79.8218 118.099 80.1464 118.35 80.3851C118.597 80.617 118.922 80.747 119.26 80.7488C119.595 80.6625 119.906 80.5008 120.169 80.276C120.426 80.0641 120.631 79.7967 120.77 79.4941C121.095 78.9711 121.317 78.391 121.424 77.7847C121.457 77.6472 121.457 77.504 121.424 77.3665C121.377 77.23 121.296 77.1079 121.188 77.0119C121.08 76.9201 120.953 76.8547 120.815 76.8209C120.675 76.7847 120.528 76.7847 120.388 76.8209C120.089 76.9303 119.816 77.1006 119.587 77.321C119.361 77.544 119.187 77.8141 119.078 78.112C118.952 78.4455 118.896 78.8015 118.914 79.1577C118.931 79.5128 119.024 79.8602 119.187 80.176C119.286 80.3306 119.433 80.4487 119.605 80.5124C119.776 80.5713 119.962 80.5713 120.133 80.5124C120.465 80.3855 120.757 80.172 120.979 79.8941C121.198 79.6337 121.346 79.3202 121.406 78.9849C121.467 78.6271 121.445 78.2602 121.342 77.9121C121.24 77.5639 121.06 77.2436 120.815 76.9755C120.649 76.8313 120.434 76.7564 120.215 76.7664C120.054 76.7761 119.899 76.8327 119.769 76.9293C119.64 77.0259 119.542 77.1582 119.487 77.3099C119.432 77.4617 119.422 77.6262 119.459 77.7832C119.497 77.9403 119.579 78.083 119.696 78.1939C119.815 78.3303 119.605 78.0484 119.696 78.1939L119.751 78.2848C119.842 78.4212 119.706 78.1302 119.751 78.2848V78.403C119.751 78.403 119.751 78.4939 119.751 78.5394V78.6758V78.794C119.751 78.9576 119.751 78.794 119.751 78.794C119.706 78.8637 119.667 78.9366 119.633 79.0122C119.633 78.9213 119.715 78.8667 119.633 79.0122C119.551 79.1577 119.505 79.1486 119.633 79.0122C119.515 79.1031 119.796 78.9485 119.633 79.0122L120.588 79.3486C120.679 79.5486 120.533 79.2486 120.588 79.2031C120.642 79.1577 120.588 79.3577 120.588 79.2031V79.1031C120.588 79.0304 120.588 78.9394 120.588 79.1031C120.583 79.0639 120.583 79.0241 120.588 78.9849V78.8394L120.697 78.6212L120.751 78.5212L120.842 78.4303C120.842 78.3575 120.688 78.5212 120.842 78.4303C120.842 78.4303 120.933 78.3666 120.933 78.3757H120.87H120.952L119.878 77.4665C119.854 77.6168 119.82 77.7656 119.778 77.912C119.778 78.0484 119.724 78.0939 119.778 77.9666L119.669 78.1848L119.478 78.5576L119.369 78.7667C119.424 78.6667 119.369 78.7667 119.369 78.8212C119.28 78.9397 119.182 79.0521 119.078 79.1577C118.987 79.2668 119.151 79.1577 119.078 79.1577C119.005 79.1577 119.078 79.1577 119.278 79.094L119.542 79.1486C119.595 79.1659 119.64 79.2013 119.669 79.2486C119.669 79.3395 119.724 79.3304 119.669 79.2486C119.615 79.1668 119.669 79.385 119.669 79.2486V79.1031C119.669 79.1031 119.669 79.1031 119.669 79.1577C119.672 79.0369 119.693 78.9172 119.733 78.8031L119.796 78.5939C119.742 78.703 119.796 78.5939 119.796 78.5939C119.845 78.4744 119.903 78.3589 119.969 78.2484L120.051 78.0939C120.118 77.985 120.201 77.8869 120.297 77.8029L120.415 77.6756C120.415 77.6756 120.615 77.512 120.415 77.6211L120.697 77.421L120.879 77.3119C120.933 77.3119 120.761 77.3119 120.933 77.3119H120.306C120.115 77.2119 120.406 77.3119 120.433 77.4119L120.515 77.4938H120.56L120.615 77.5756L120.67 77.6574V77.7393C120.67 77.6211 120.615 77.5938 120.67 77.6756V77.7847C120.724 77.9393 120.67 77.7211 120.67 77.7302C120.675 77.7937 120.675 77.8576 120.67 77.9211V78.0302C120.67 78.1575 120.67 77.9393 120.67 77.9484C120.683 78.0297 120.683 78.1126 120.67 78.1939L120.615 78.3848C120.551 78.603 120.688 78.2484 120.615 78.3848L120.397 78.794L119.997 79.5759C119.924 79.7488 119.839 79.916 119.742 80.076L119.687 80.1851C119.662 80.2254 119.631 80.2621 119.596 80.2942V80.376V80.3215L119.515 80.3851C119.415 80.467 119.515 80.3851 119.578 80.3851C119.424 80.4397 119.733 80.3851 119.624 80.3851C119.515 80.3851 119.624 80.3851 119.624 80.3851C119.557 80.38 119.49 80.38 119.424 80.3851C119.251 80.3851 119.542 80.4397 119.424 80.3851L119.242 80.2851L119.133 80.2305C118.978 80.1578 119.133 80.2305 119.133 80.2305L118.923 80.0487C118.904 80.0118 118.88 79.9781 118.851 79.9487C118.76 79.9487 118.942 80.1396 118.851 79.9487V79.885C118.866 80.0044 118.926 80.1135 119.018 80.1902C119.111 80.2669 119.229 80.3053 119.349 80.2978C119.47 80.2903 119.582 80.2373 119.665 80.1496C119.747 80.062 119.793 79.9462 119.793 79.8259C119.793 79.7057 119.747 79.5899 119.665 79.5023C119.582 79.4146 119.47 79.3616 119.349 79.3541C119.229 79.3465 119.111 79.385 119.018 79.4617C118.926 79.5384 118.866 79.6475 118.851 79.7668L118.905 79.4304C118.96 79.1486 119.014 78.8667 119.096 78.5939L119.169 78.4485C119.242 78.1939 119.105 78.5848 119.224 78.3484C119.281 78.2107 119.348 78.077 119.424 77.9484L119.524 77.7574V77.7029L119.706 77.4665C119.706 77.3847 119.86 77.321 119.915 77.2483C119.969 77.1755 119.751 77.3574 119.915 77.2483C119.915 77.2483 120.042 77.1846 120.042 77.1664C120.042 77.1483 119.851 77.2301 119.978 77.1664C120.106 77.1028 119.806 77.1664 119.978 77.1664C120.151 77.1664 119.86 77.1119 119.978 77.1664C120.097 77.221 120.242 77.2483 119.978 77.1664C120.18 77.2478 120.405 77.2478 120.606 77.1664C120.812 77.0997 120.984 76.9565 121.088 76.7664C121.183 76.5678 121.202 76.3417 121.142 76.1299C121.066 75.9289 120.921 75.7614 120.733 75.6571L120.697 75.7026Z" fill="#242424"/>
<path d="M119.141 77.5574C119.192 77.5797 119.246 77.5912 119.301 77.5912C119.355 77.5912 119.41 77.5797 119.46 77.5574C119.511 77.5399 119.558 77.5124 119.599 77.4765C119.64 77.4406 119.673 77.397 119.696 77.3482C119.719 77.2982 119.73 77.2439 119.73 77.1891C119.73 77.1343 119.719 77.0801 119.696 77.03C119.679 76.9787 119.651 76.9314 119.615 76.8908C119.579 76.8503 119.536 76.8172 119.487 76.7936C119.437 76.7713 119.383 76.7598 119.328 76.7598C119.273 76.7598 119.219 76.7713 119.169 76.7936C119.117 76.8111 119.07 76.8386 119.03 76.8745C118.989 76.9104 118.956 76.954 118.932 77.0027C118.91 77.0528 118.898 77.107 118.898 77.1618C118.898 77.2167 118.91 77.2709 118.932 77.321C118.95 77.3722 118.977 77.4195 119.013 77.4601C119.049 77.5007 119.093 77.5338 119.141 77.5574Z" fill="white"/>
<path d="M90.0049 87.9C90.484 83.9418 88.924 80.4973 86.5206 80.2065C84.1171 79.9157 81.7802 82.8888 81.3011 86.847C80.822 90.8053 82.382 94.2498 84.7855 94.5405C87.189 94.8313 89.5258 91.8583 90.0049 87.9Z" fill="#C1C1C1"/>
<path d="M127.135 100.925C131.123 100.925 134.356 97.6925 134.356 93.7054C134.356 89.7183 131.123 86.4861 127.135 86.4861C123.147 86.4861 119.914 89.7183 119.914 93.7054C119.914 97.6925 123.147 100.925 127.135 100.925Z" fill="#C1C1C1"/>
<path d="M110.201 92.0869C109.883 91.9596 109.583 91.8323 109.292 91.7323C105.999 90.6742 102.484 90.508 99.1057 91.2504C97.1594 91.696 93.1214 92.1597 91.7572 93.9145C91.6874 94.0087 91.6265 94.1091 91.5753 94.2145C91.5128 94.3005 91.4722 94.4004 91.457 94.5055C92.4984 93.7969 93.675 93.3109 94.913 93.078C97.4569 92.4292 100.088 92.1897 102.707 92.3688C105.384 92.4172 108.024 92.9983 110.474 94.0781C111.486 94.514 112.411 95.1302 113.202 95.8966C113.002 94.0054 111.711 92.9962 110.201 92.0869Z" fill="#242424"/>
<path d="M113.184 96.3058C113.153 96.4566 113.104 96.6032 113.038 96.7422C112.939 96.9388 112.794 97.1084 112.615 97.2367C112.436 97.3649 112.228 97.4479 112.01 97.4787C111.05 97.5782 110.081 97.4115 109.209 96.9968C108.773 96.824 108.354 96.624 107.918 96.4422C106.044 95.5067 104.004 94.9475 101.915 94.7964C99.8465 94.8022 97.7816 94.9725 95.7399 95.3056C94.7668 95.442 92.6295 96.0239 92.0384 94.8419C91.3108 93.378 94.976 92.5234 95.7308 92.287C99.6961 91.014 104.316 90.4049 108.318 91.8687C109.9 92.4506 112.374 93.3599 113.147 95.0056C113.276 95.4279 113.288 95.8769 113.184 96.3058Z" fill="#242424"/>
<path d="M100.771 92.4779C102.07 92.3638 103.378 92.4188 104.663 92.6416C105.709 92.8689 109.865 94.0873 110.893 92.9598C110.061 92.5383 109.201 92.1738 108.319 91.8687C104.572 90.4958 100.27 90.9595 96.4961 92.0597C97.5511 92.7416 99.9066 92.5143 100.771 92.4779Z" fill="white"/>
<path d="M104.243 93.7418C101.388 93.2963 97.0495 93.369 94.6758 95.4784C95.085 95.4148 95.4579 95.342 95.7399 95.3056C97.7815 94.9725 99.8465 94.8023 101.915 94.7965C104.004 94.9476 106.044 95.5067 107.918 96.4422C108.354 96.624 108.773 96.8241 109.209 96.9968C109.427 97.0696 109.646 97.1605 109.882 97.2332C108.483 95.4296 106.482 94.1901 104.243 93.7418Z" fill="#C1C1C1"/>
<path d="M31.1412 158.352C31.0052 158.376 30.8651 158.347 30.7499 158.271C30.6347 158.195 30.5533 158.077 30.5227 157.943L29.6132 153.696C29.5874 153.562 29.6134 153.422 29.686 153.305C29.768 153.197 29.8828 153.117 30.0134 153.078C30.0822 153.065 30.153 153.065 30.2217 153.079C30.2905 153.093 30.3557 153.12 30.4136 153.16C30.4719 153.196 30.5222 153.244 30.5613 153.3C30.6004 153.356 30.6275 153.42 30.6409 153.487L31.5504 157.733C31.5749 157.869 31.546 158.009 31.4698 158.125C31.3936 158.24 31.2759 158.321 31.1412 158.352Z" fill="#00A3D5"/>
<path d="M24.556 127.011C24.3693 127.05 24.1767 127.052 23.9893 127.016C23.8019 126.98 23.6236 126.907 23.4647 126.801C23.1454 126.591 22.9204 126.265 22.8371 125.892L21.8276 120.773C21.7867 120.587 21.7842 120.394 21.8201 120.206C21.8561 120.019 21.9298 119.84 22.0368 119.682C22.2474 119.365 22.5739 119.143 22.9463 119.064C23.1334 119.024 23.3268 119.022 23.5145 119.06C23.7023 119.097 23.8803 119.173 24.0376 119.282C24.1991 119.382 24.3382 119.515 24.4462 119.671C24.5542 119.828 24.6287 120.005 24.6652 120.191L25.7292 125.319C25.7834 125.695 25.6888 126.076 25.4655 126.383C25.2522 126.698 24.9269 126.919 24.556 127.001V127.011Z" fill="#242424"/>
<path d="M30.6305 155.879C30.4451 155.921 30.253 155.926 30.0656 155.893C29.8781 155.86 29.6992 155.791 29.5392 155.688C29.2213 155.476 28.9966 155.151 28.9116 154.778L27.8475 149.669C27.8112 149.482 27.8112 149.291 27.8475 149.105C27.8773 148.916 27.9487 148.736 28.0567 148.577C28.1615 148.418 28.2977 148.282 28.4569 148.177C28.6113 148.065 28.7881 147.988 28.9753 147.95C29.1615 147.914 29.3529 147.914 29.5392 147.95C29.7274 147.983 29.9069 148.054 30.0666 148.159C30.2215 148.266 30.3569 148.398 30.4668 148.55C30.573 148.707 30.6472 148.883 30.6851 149.068L31.7492 154.178C31.7855 154.368 31.7855 154.562 31.7492 154.751C31.663 155.118 31.4464 155.441 31.1398 155.66C30.9826 155.764 30.8064 155.835 30.6214 155.869L30.6305 155.879Z" fill="#00A3D5"/>
<path d="M25.3558 122.692L22.1545 123.365C21.9646 123.402 21.7848 123.48 21.627 123.592C21.4647 123.7 21.3256 123.839 21.2177 124.001C21.1081 124.163 21.0338 124.345 20.9995 124.537C20.9585 124.723 20.9585 124.915 20.9995 125.101L23.7279 138.112L27.1202 151.042C27.2145 151.417 27.4488 151.742 27.775 151.951C28.095 152.15 28.4804 152.215 28.8482 152.133L30.7399 151.742C31.1072 151.662 31.4315 151.448 31.6493 151.142C31.8686 150.83 31.9568 150.445 31.8949 150.069L29.8304 136.839L27.102 123.865C27.0659 123.673 26.9917 123.491 26.8837 123.328C26.7807 123.164 26.6405 123.027 26.4745 122.928C26.311 122.818 26.1293 122.738 25.9379 122.692C25.7448 122.664 25.5489 122.664 25.3558 122.692Z" fill="#BFBFBF"/>
<path d="M29.4588 137.794L24.4476 138.858C24.3371 138.885 24.2216 138.885 24.1111 138.858C24.0017 138.838 23.8969 138.798 23.8019 138.74C23.7029 138.677 23.619 138.593 23.5563 138.494C23.4902 138.402 23.4465 138.297 23.429 138.185C23.4065 138.074 23.4065 137.96 23.429 137.849C23.4489 137.738 23.4924 137.632 23.5563 137.539C23.6171 137.437 23.6975 137.347 23.7928 137.276C23.8871 137.215 23.992 137.171 24.102 137.148L29.1041 136.094C29.2134 136.058 29.3313 136.058 29.4406 136.094C29.5514 136.102 29.6581 136.14 29.7498 136.203C29.8489 136.265 29.9327 136.349 29.9954 136.448C30.0632 136.539 30.107 136.645 30.1227 136.757C30.1448 136.872 30.1448 136.989 30.1227 137.103C30.1018 137.214 30.0584 137.319 29.9954 137.412C29.9367 137.506 29.8593 137.586 29.768 137.648C29.6753 137.722 29.5661 137.772 29.4497 137.794H29.4588Z" fill="#242424"/>
<path d="M31.7055 135.548C31.6185 135.566 31.5287 135.566 31.4417 135.548C31.354 135.537 31.2699 135.506 31.1962 135.457C31.1205 135.409 31.0551 135.347 31.0036 135.273C30.9521 135.2 30.9155 135.117 30.8961 135.03L28.3495 122.746C28.3314 122.656 28.3314 122.563 28.3495 122.473C28.3707 122.387 28.4044 122.304 28.4496 122.228C28.5065 122.161 28.5705 122.1 28.6406 122.046C28.7143 121.997 28.7983 121.966 28.8861 121.955C28.9731 121.937 29.0629 121.937 29.1499 121.955C29.2376 121.966 29.3217 121.997 29.3954 122.046C29.4655 122.1 29.5295 122.161 29.5864 122.228C29.6316 122.304 29.6653 122.387 29.6865 122.473L32.2512 134.757C32.2677 134.843 32.2657 134.931 32.2453 135.015C32.2249 135.1 32.1866 135.179 32.1329 135.248C32.0838 135.32 32.0206 135.381 31.9471 135.428C31.8736 135.475 31.7915 135.507 31.7055 135.521V135.548Z" fill="#242424"/>
<path opacity="0.3" d="M29.2772 127.183L27.8857 127.483L27.1309 123.846L28.5223 123.574L29.2772 127.183Z" fill="white"/>
<path d="M37.2884 146.05L30.7129 145.704L32.3227 114.609L38.889 114.936L37.2884 146.05Z" fill="#BFBFBF"/>
<path opacity="0.3" d="M35.752 145.968L32.1777 145.786L33.7784 114.672L37.3526 114.872L35.752 145.968Z" fill="white"/>
<path d="M33.369 156.288L37.2888 146.032L30.6133 145.695L33.369 156.288Z" fill="#0B2D4E"/>
<path d="M35.3878 150.932L37.2068 146.032L30.5312 145.695L31.8682 150.751L35.3878 150.932Z" fill="#FFE9CC"/>
<path opacity="0.3" d="M38.8437 114.936L32.2773 114.563L32.4501 111.326L39.0165 111.663L38.8437 114.936Z" fill="white"/>
<path d="M32.4414 111.499L39.0169 111.826C39.0513 110.971 38.7511 110.136 38.1802 109.499C37.8947 109.179 37.5481 108.919 37.1607 108.735C36.7734 108.55 36.3532 108.445 35.9247 108.426C35.4982 108.403 35.0712 108.464 34.6684 108.606C34.2655 108.747 33.8946 108.968 33.5769 109.253C33.2593 109.538 33.0011 109.884 32.8172 110.269C32.6332 110.655 32.5272 111.073 32.5051 111.499H32.4414Z" fill="#242424"/>
<path d="M45.3106 122.874L51.2767 125.601L38.1985 153.896L32.2324 151.169L45.3106 122.874Z" fill="#BFBFBF"/>
<path opacity="0.3" d="M46.6647 123.51L49.9206 125.01L36.8243 153.278L33.5684 151.778L46.6647 123.51Z" fill="white"/>
<path d="M52.7494 114.818L45.3281 122.91L51.3943 125.692L52.7494 114.818Z" fill="#242424"/>
<path d="M48.8666 119.036L45.3105 122.91L51.3767 125.692L52.0224 120.482L48.8666 119.036Z" fill="#BFBFBF"/>
<path d="M32.2138 151.16L38.1799 153.887L36.8157 156.833L30.8496 154.106L32.2138 151.16Z" fill="#51666F"/>
<path d="M36.8787 156.706L30.9034 153.978L29.994 155.96C29.9399 156.09 29.9121 156.229 29.9121 156.37C29.9121 156.51 29.9399 156.649 29.994 156.779C30.0426 156.908 30.1167 157.026 30.2121 157.126C30.3074 157.226 30.4219 157.306 30.5487 157.361L34.5595 159.215C34.8224 159.32 35.1152 159.32 35.378 159.215C35.6409 159.113 35.8553 158.915 35.9783 158.661L36.8787 156.706Z" fill="#D8584E"/>
<path d="M23.9199 143.659H43.81V175.482H23.9199V143.659Z" fill="#BCBCBC"/>
<path opacity="0.1" d="M23.9199 143.659H33.8604V175.482H23.9199V143.659Z" fill="black"/>
<path d="M0.682572 177H235.781C235.972 176.971 236.147 176.874 236.273 176.728C236.399 176.581 236.469 176.394 236.469 176.2C236.469 176.006 236.399 175.819 236.273 175.672C236.147 175.525 235.972 175.429 235.781 175.4H0.682572C0.491042 175.429 0.316247 175.525 0.189927 175.672C0.0636076 175.819 -0.00585937 176.006 -0.00585938 176.2C-0.00585937 176.394 0.0636076 176.581 0.189927 176.728C0.316247 176.874 0.491042 176.971 0.682572 177Z" fill="black"/>
<path d="M22.5 24.7311C22.5 31.8595 31.913 37.6331 43.5178 37.6331C46.5119 37.644 49.493 37.2401 52.3761 36.433C53.4856 37.9423 55.9321 38.9788 58.7424 38.9788C62.6349 38.9788 65.7817 37.033 65.7817 34.6418C65.7817 32.9779 64.2629 31.5231 62.0347 30.7957C63.5971 29.1546 64.5004 26.9957 64.5721 24.7311C64.5721 17.6119 55.1227 11.8201 43.5178 11.8201C31.913 11.8201 22.5 17.6119 22.5 24.7311Z" fill="#A8A8A8"/>
<path d="M68.9297 40.5426C68.9297 39.6333 67.4655 38.9878 65.6647 38.9878C63.864 38.9878 62.3906 39.6788 62.3906 40.5426C62.3906 41.4063 63.8549 42.1065 65.6647 42.1065C67.4746 42.1065 68.9297 41.4063 68.9297 40.5426Z" fill="#A8A8A8"/>
<path d="M43.8187 16.7663C43.4352 16.7738 43.0575 16.8605 42.7091 17.0209C42.3697 17.1679 42.0612 17.3776 41.7996 17.6391C41.5578 17.8865 41.3636 18.1762 41.2267 18.4938C41.0968 18.7791 41.0316 19.0896 41.0357 19.403C41.0349 19.5904 41.0721 19.7759 41.1448 19.9486C41.2026 20.0609 41.2831 20.16 41.3813 20.2395C41.4567 20.3023 41.548 20.3432 41.645 20.3577C41.7053 20.3673 41.7667 20.3673 41.8269 20.3577C41.9838 20.3561 42.1386 20.3221 42.2817 20.2577C42.3922 20.1997 42.4959 20.1296 42.5909 20.0486L42.8455 19.8395C42.9335 19.7784 43.0385 19.7465 43.1456 19.7485C43.3549 19.7412 43.5594 19.8126 43.7186 19.9486C43.8108 20.0434 43.8847 20.1544 43.9369 20.2759C44.0015 20.438 44.0354 20.6106 44.0369 20.7851C44.0479 21.0175 43.991 21.2481 43.8732 21.4488C43.7534 21.6498 43.5959 21.8258 43.4094 21.9671C43.2112 22.1146 42.9899 22.2283 42.7546 22.3035C42.528 22.3774 42.2924 22.4202 42.0543 22.4308C41.7451 22.4457 41.436 22.3994 41.1448 22.2944C40.8489 22.1817 40.5818 22.0047 40.3627 21.7761C39.8951 21.2277 39.6516 20.5231 39.6806 19.8031C39.6483 19.1741 39.7799 18.5475 40.0625 17.9846C40.3335 17.4704 40.7194 17.0255 41.1903 16.6844C41.679 16.3197 42.2309 16.0484 42.8182 15.8843C43.4425 15.7028 44.0874 15.602 44.7372 15.5843C45.4534 15.5662 46.1681 15.6582 46.8563 15.857C47.462 16.0304 48.0318 16.3106 48.5388 16.6844C49.0067 17.0472 49.3913 17.5061 49.6665 18.0301C49.9467 18.5735 50.0991 19.1737 50.1122 19.7849C50.132 20.4057 50.0268 21.024 49.803 21.6034C49.5701 22.1233 49.2638 22.6071 48.8935 23.04C48.5319 23.4651 48.1365 23.8604 47.7112 24.222C47.2868 24.5796 46.8775 24.9433 46.4834 25.313C46.1017 25.7061 45.7633 26.139 45.4739 26.6042C45.1732 27.0274 44.9797 27.5172 44.91 28.0316H44.0006C43.9885 27.5661 44.0405 27.101 44.1552 26.6496C44.2652 26.2262 44.4019 25.8101 44.5644 25.404C44.7463 25.0039 44.9373 24.5948 45.1465 24.1947C45.3557 23.7946 45.5466 23.3582 45.7194 22.9218C45.8976 22.4635 46.0405 21.9924 46.1469 21.5125C46.2674 20.9665 46.3163 20.4072 46.2924 19.8486C46.2854 19.4159 46.2274 18.9856 46.1196 18.5665C46.0363 18.209 45.8816 17.8719 45.6649 17.5755C45.467 17.3077 45.2041 17.0949 44.9009 16.9572C44.5624 16.8128 44.1953 16.7475 43.8277 16.7663H43.8187ZM42.7455 31.7504C42.7352 31.4801 42.7817 31.2106 42.8819 30.9594C42.9753 30.7143 43.1142 30.4891 43.2912 30.2956C43.47 30.1084 43.683 29.9572 43.9187 29.8501C44.1664 29.7324 44.4358 29.6674 44.7099 29.6592C44.9812 29.648 45.2516 29.6977 45.5012 29.8046C45.744 29.9014 45.9662 30.0433 46.156 30.2229C46.3457 30.398 46.5001 30.6079 46.6107 30.8412C46.7214 31.0908 46.7831 31.3593 46.7926 31.6322C46.8021 31.9025 46.7557 32.1718 46.6562 32.4232C46.4596 32.907 46.0855 33.2974 45.6103 33.5143C45.1036 33.7234 44.5346 33.7234 44.0278 33.5143C43.5487 33.328 43.1606 32.9629 42.9456 32.496C42.8294 32.2506 42.7614 31.9851 42.7455 31.714V31.7504Z" fill="white"/>
<path d="M61.0082 87.8136V87.8863C61.0844 88.1239 61.1061 88.3756 61.0718 88.6228C61.0514 88.871 60.9802 89.1124 60.8626 89.332C60.7477 89.5389 60.5968 89.7236 60.417 89.8775C60.2282 90.022 60.0159 90.1327 59.7895 90.2049C59.3071 90.3488 58.7874 90.2965 58.3434 90.0594C57.9148 89.8305 57.5895 89.4468 57.4339 88.9865C57.3595 88.7455 57.3347 88.4918 57.3612 88.2409C57.3872 87.9914 57.4646 87.7499 57.5886 87.5317C57.7036 87.3197 57.8579 87.1314 58.0433 86.9771C58.2317 86.8299 58.444 86.7161 58.6708 86.6407C58.9121 86.5672 59.1656 86.5425 59.4166 86.5679C59.6677 86.5947 59.9115 86.6687 60.1351 86.7862C60.342 86.905 60.5241 87.0624 60.6717 87.2499C60.8089 87.4184 60.9166 87.609 60.99 87.8136H61.0082ZM57.725 88.9229C57.7823 89.1131 57.8783 89.2896 58.0069 89.4411C58.1365 89.5997 58.2975 89.7297 58.4798 89.823C58.6685 89.9264 58.8759 89.9909 59.0899 90.0127C59.3039 90.0346 59.5202 90.0134 59.7258 89.9503C59.9192 89.8922 60.0991 89.7965 60.2552 89.6685C60.4113 89.5405 60.5405 89.3829 60.6353 89.2047C60.7387 89.0161 60.8032 88.8087 60.8251 88.5948C60.847 88.3808 60.8257 88.1647 60.7626 87.9591C60.7056 87.7604 60.6098 87.575 60.4807 87.4135C60.3492 87.2503 60.1867 87.1148 60.0025 87.0149C59.8182 86.915 59.616 86.8527 59.4075 86.8316C59.1932 86.8071 58.9761 86.8288 58.7709 86.8953C58.381 87.0238 58.0554 87.2972 57.8614 87.659C57.7545 87.8459 57.6893 88.0537 57.6704 88.2682C57.6459 88.4825 57.6676 88.6995 57.7341 88.9047L57.725 88.9229ZM56.288 87.7772L56.1789 88.8228H56.0516C55.6393 88.7854 55.2347 88.6873 54.8511 88.5319C54.4894 88.3867 54.1397 88.2134 53.8052 88.0136C53.4778 87.8227 53.1503 87.6045 52.832 87.3862C52.5137 87.168 52.1772 86.9589 51.8225 86.7589C51.4584 86.5579 51.0781 86.3876 50.6857 86.2497C50.2457 86.0917 49.7872 85.9908 49.3215 85.9497C48.9649 85.9087 48.6049 85.9087 48.2483 85.9497C47.9542 85.985 47.67 86.0777 47.4116 86.2224C47.1776 86.349 46.9803 86.5338 46.8386 86.7589C46.6888 87.0143 46.5986 87.3002 46.5749 87.5954C46.5401 87.8957 46.5656 88.2 46.65 88.4904C46.7343 88.7808 46.8757 89.0515 47.066 89.2865C47.2392 89.5085 47.4519 89.6966 47.6935 89.8412C47.9191 89.9755 48.1698 90.0622 48.4302 90.0958C48.5653 90.1229 48.7044 90.1229 48.8395 90.0958C48.9229 90.0701 48.9981 90.0231 49.0577 89.9594C49.11 89.9173 49.1481 89.8602 49.1669 89.7957C49.1721 89.7534 49.1721 89.7107 49.1669 89.6684C49.1894 89.5605 49.1894 89.449 49.1669 89.3411C49.1299 89.2477 49.0874 89.1566 49.0395 89.0683L48.9031 88.8228C48.8391 88.7231 48.8132 88.6037 48.8304 88.4864C48.8406 88.3894 48.8651 88.2944 48.9031 88.2046C48.9585 88.1036 49.0326 88.0142 49.1214 87.9409C49.2208 87.8541 49.3392 87.7919 49.467 87.759C49.6292 87.7274 49.7959 87.7274 49.9581 87.759C50.1824 87.7846 50.3958 87.8693 50.5765 88.0045C50.7465 88.1395 50.8886 88.3063 50.9949 88.4955C51.1066 88.6898 51.1835 88.9021 51.2223 89.1229C51.254 89.3399 51.254 89.5605 51.2223 89.7775C51.2038 90.0671 51.1232 90.3493 50.9858 90.6049C50.8493 90.8626 50.6566 91.0864 50.4219 91.2596C49.885 91.6106 49.2358 91.7469 48.603 91.6415C48.0419 91.5968 47.5025 91.4056 47.0387 91.0868C46.6097 90.7934 46.2548 90.4043 46.0019 89.9503C45.7462 89.4771 45.5739 88.9635 45.4926 88.4319C45.4243 87.8702 45.4243 87.3024 45.4926 86.7407C45.5471 86.1143 45.7006 85.5005 45.9473 84.9222C46.1615 84.4088 46.47 83.9401 46.8568 83.5402C47.2289 83.1368 47.6897 82.8256 48.2028 82.631C48.7189 82.4501 49.2685 82.3849 49.8126 82.44C50.3727 82.4849 50.9161 82.6526 51.4042 82.931C51.8371 83.1718 52.2299 83.4785 52.5683 83.8402C52.9021 84.2 53.2063 84.5862 53.4778 84.995C53.7324 85.395 53.9961 85.786 54.269 86.1588C54.5398 86.5146 54.8444 86.8435 55.1785 87.1408C55.4895 87.4314 55.8675 87.6406 56.2789 87.7499L56.288 87.7772ZM55.9515 88.5319L56.0061 87.9591C55.5968 87.8306 55.221 87.6132 54.9056 87.3226C54.5695 87.0107 54.2649 86.6666 53.9961 86.2952C53.7233 85.9224 53.4505 85.5314 53.1958 85.1223C52.9248 84.7245 52.6205 84.3504 52.2863 84.0039C51.9685 83.6461 51.5973 83.3394 51.1859 83.0947C50.7277 82.8379 50.2183 82.6857 49.6944 82.6492C49.1935 82.5878 48.6852 82.647 48.2119 82.8219C47.7533 82.9902 47.3373 83.2572 46.9932 83.6038C46.6288 83.9813 46.336 84.4219 46.1292 84.904C45.8937 85.4565 45.7464 86.0425 45.6927 86.6407C45.6246 87.1811 45.6246 87.7278 45.6927 88.2682C45.7736 88.7686 45.9397 89.2514 46.1838 89.6957C46.4028 90.1118 46.7138 90.4726 47.0933 90.7504C47.5238 91.0409 48.0217 91.2163 48.5393 91.2596C49.1165 91.3513 49.7075 91.2319 50.2037 90.9232C50.4032 90.7666 50.5677 90.57 50.6868 90.3461C50.8058 90.1222 50.8767 89.8759 50.8949 89.623C50.9174 89.4296 50.9174 89.2344 50.8949 89.041C50.8587 88.8507 50.7943 88.6668 50.7039 88.4955C50.6138 88.3345 50.4933 88.1925 50.3492 88.0773C50.211 87.9685 50.0427 87.905 49.8672 87.8954C49.7378 87.8728 49.6055 87.8728 49.4761 87.8954C49.3846 87.923 49.2984 87.966 49.2214 88.0227C49.1123 88.1191 49.0414 88.2513 49.0213 88.3955C48.9991 88.4572 48.9991 88.5247 49.0213 88.5864C49.0619 88.668 49.1075 88.7469 49.1578 88.8228C49.2154 88.9213 49.2641 89.0248 49.3033 89.132C49.3352 89.2818 49.3352 89.4367 49.3033 89.5866C49.3075 89.6502 49.3075 89.7139 49.3033 89.7775C49.2662 89.8725 49.2106 89.959 49.1396 90.0321C49.0459 90.1213 48.9343 90.1895 48.8122 90.2321C48.6387 90.2728 48.4582 90.2728 48.2847 90.2321C47.985 90.2036 47.6957 90.1072 47.4389 89.9503C47.1721 89.7926 46.9376 89.5859 46.7477 89.3411C46.5441 89.0669 46.3902 88.7592 46.2929 88.4319C46.1946 88.102 46.1636 87.7556 46.202 87.4135C46.228 87.0766 46.3307 86.7501 46.5021 86.4588C46.6694 86.1991 46.8972 85.9838 47.166 85.8315C47.4488 85.6796 47.7571 85.581 48.0755 85.5405C48.4533 85.4996 48.8345 85.4996 49.2123 85.5405C49.6998 85.586 50.1796 85.693 50.6402 85.8587C51.0432 86.0066 51.4353 86.1828 51.8134 86.3861C52.1772 86.5861 52.5228 86.8043 52.8411 87.0226C53.1594 87.2408 53.4778 87.4499 53.8052 87.6408C54.1303 87.8322 54.4675 88.0022 54.8147 88.15C55.1334 88.2751 55.4664 88.3606 55.806 88.4046L55.9515 88.5319Z" fill="#292929"/>
<path d="M46.8387 58.991C46.7408 59.2273 46.6913 59.4808 46.6932 59.7365C46.6862 59.9754 46.7264 60.2133 46.8114 60.4367C46.8923 60.6491 47.0092 60.8459 47.157 61.0186C47.306 61.1793 47.4853 61.3091 47.6845 61.4004C47.7939 61.447 47.9113 61.4717 48.0301 61.4732C48.1151 61.4744 48.1992 61.4557 48.2757 61.4186C48.3317 61.3895 48.3813 61.3493 48.4212 61.3004L48.494 61.1913C48.5333 61.096 48.5549 60.9943 48.5576 60.8913C48.562 60.8095 48.562 60.7276 48.5576 60.6458L48.5122 60.4458C48.4893 60.3779 48.4893 60.3045 48.5122 60.2366C48.5379 60.1806 48.5716 60.1285 48.6122 60.0821C48.6644 60.0287 48.7261 59.9855 48.7941 59.9548C48.8781 59.9371 48.9648 59.9371 49.0487 59.9548C49.1618 59.9626 49.2727 59.9903 49.3761 60.0366C49.5202 60.0969 49.6435 60.198 49.7308 60.3275C49.8135 60.4563 49.8749 60.5975 49.9127 60.7458C49.94 60.9083 49.94 61.0743 49.9127 61.2368C49.8971 61.3946 49.854 61.5484 49.7854 61.6914C49.7128 61.8895 49.598 62.0694 49.4489 62.2188C49.2961 62.3612 49.1169 62.4724 48.9214 62.5461C48.4586 62.672 47.9654 62.6201 47.539 62.4006C47.1502 62.2454 46.8085 61.9915 46.5477 61.6641C46.3168 61.3546 46.1583 60.9973 46.0839 60.6185C46.0111 60.2217 46.0111 59.8151 46.0839 59.4183C46.1507 58.992 46.273 58.5763 46.4477 58.1818C46.6322 57.7453 46.8838 57.3403 47.1934 56.9816C47.461 56.6633 47.7886 56.4007 48.1575 56.2087C48.5022 56.0238 48.8851 55.9212 49.2761 55.9087C49.6818 55.8891 50.0865 55.9638 50.4584 56.1269C50.8473 56.2879 51.1976 56.5297 51.4861 56.8361C51.7387 57.1068 51.9501 57.4132 52.1137 57.7453C52.2608 58.0822 52.3854 58.4285 52.4865 58.7819C52.5775 59.1456 52.6866 59.4911 52.7958 59.8275C52.911 60.1426 53.054 60.4469 53.2232 60.7367C53.3951 61.0341 53.6351 61.2865 53.9235 61.4732L53.6688 62.0551C53.3851 61.9352 53.1214 61.7727 52.8867 61.5732C52.6585 61.3844 52.4428 61.1809 52.241 60.964L51.6771 60.273C51.4899 60.0289 51.2895 59.7952 51.0769 59.5729C50.8487 59.3358 50.6024 59.1169 50.3402 58.9182C50.0612 58.6964 49.7557 58.5101 49.4307 58.3636C49.1686 58.2474 48.894 58.162 48.6122 58.109C48.3749 58.0636 48.131 58.0636 47.8937 58.109C47.6756 58.1502 47.4719 58.2474 47.3026 58.3909C47.1248 58.5487 46.985 58.7445 46.8933 58.9637L46.8387 58.991ZM55.5515 63.8463C55.2272 63.7053 54.9699 63.4448 54.833 63.1189C54.764 62.9581 54.7299 62.7846 54.7329 62.6097C54.7331 62.4313 54.7703 62.2548 54.8421 62.0915C54.9121 61.9252 55.0176 61.7762 55.1513 61.655C55.3966 61.4206 55.7214 61.2874 56.0608 61.2822C56.2392 61.2824 56.4157 61.3196 56.5791 61.3913C56.7461 61.4603 56.8953 61.5659 57.0157 61.7005C57.1314 61.8255 57.2238 61.9702 57.2885 62.1278C57.4206 62.4576 57.4206 62.8255 57.2885 63.1553C57.214 63.3118 57.1158 63.4559 56.9975 63.5826C56.8711 63.7033 56.723 63.7989 56.561 63.8645C56.3996 63.9306 56.226 63.9616 56.0517 63.9554C55.8759 63.957 55.702 63.9198 55.5424 63.8463H55.5515Z" fill="#A8A8A8"/>
<path d="M173.609 33.4961C173.26 33.2815 172.87 33.1421 172.464 33.0869C172.079 33.0188 171.684 33.0188 171.299 33.0869C170.936 33.1725 170.591 33.3235 170.281 33.5325C169.995 33.7355 169.751 33.9917 169.562 34.2871C169.453 34.4546 169.382 34.6438 169.353 34.8417C169.322 34.9732 169.322 35.1103 169.353 35.2418C169.384 35.3422 169.441 35.4329 169.517 35.5055C169.562 35.5581 169.614 35.604 169.671 35.6419C169.811 35.7322 169.97 35.7883 170.135 35.8055C170.268 35.8191 170.402 35.8191 170.535 35.8055H170.89C171.005 35.7955 171.121 35.8243 171.218 35.8874C171.409 36.0083 171.549 36.1964 171.609 36.4147C171.636 36.5559 171.636 36.7009 171.609 36.8421C171.572 37.0234 171.501 37.1961 171.399 37.3512C171.273 37.569 171.087 37.7458 170.863 37.8604C170.64 37.976 170.395 38.0441 170.144 38.0604C169.881 38.0819 169.617 38.0573 169.362 37.9877C169.111 37.9233 168.869 37.8254 168.644 37.6967C168.341 37.5343 168.077 37.3078 167.871 37.033C167.669 36.7635 167.53 36.4531 167.461 36.1238C167.352 35.357 167.537 34.5774 167.98 33.9416C168.313 33.3454 168.8 32.8493 169.39 32.505C169.948 32.1911 170.569 32.0077 171.208 31.9686C171.865 31.9234 172.524 31.9973 173.155 32.1868C173.826 32.3863 174.471 32.6672 175.074 33.0233C175.738 33.4195 176.336 33.9164 176.847 34.4962C177.303 35.0035 177.658 35.5929 177.893 36.2329C178.112 36.8127 178.199 37.4338 178.148 38.0513C178.085 38.6959 177.877 39.3178 177.538 39.8698C177.196 40.4668 176.731 40.9844 176.174 41.3882C175.675 41.7355 175.126 42.0052 174.546 42.1883C173.973 42.368 173.386 42.4988 172.791 42.5793C172.191 42.652 171.609 42.743 171.036 42.8612C170.477 42.9621 169.931 43.1236 169.408 43.3431C168.89 43.5544 168.431 43.8883 168.071 44.3159L167.161 43.7795C167.406 43.3466 167.713 42.9516 168.071 42.6066C168.421 42.2762 168.795 41.9722 169.189 41.6973C169.59 41.4306 169.999 41.1761 170.417 40.9336C170.849 40.6791 171.268 40.4029 171.672 40.1062C172.11 39.796 172.521 39.4492 172.9 39.0697C173.319 38.644 173.682 38.1675 173.982 37.6513C174.23 37.2558 174.429 36.8313 174.574 36.3874C174.702 36.0136 174.754 35.618 174.728 35.2236C174.703 34.8656 174.59 34.5192 174.401 34.2144C174.164 33.8805 173.853 33.6065 173.491 33.4143L173.609 33.4961ZM163.933 46.4981C164.082 46.2489 164.28 46.0324 164.515 45.8616C164.736 45.6905 164.99 45.5667 165.261 45.4979C165.53 45.4257 165.811 45.4071 166.088 45.4434C166.381 45.4811 166.663 45.5802 166.916 45.7343C167.167 45.8842 167.384 46.0856 167.552 46.3253C167.719 46.551 167.84 46.8075 167.907 47.08C167.98 47.3526 167.998 47.6368 167.962 47.9165C167.916 48.2048 167.817 48.4822 167.671 48.7348C167.482 49.0507 167.216 49.3133 166.898 49.4978C166.58 49.6823 166.22 49.7827 165.852 49.7895C165.424 49.7983 165.002 49.6882 164.633 49.4713C164.386 49.3262 164.17 49.1347 163.996 48.9076C163.861 48.6858 163.762 48.4431 163.705 48.1893C163.656 47.9096 163.656 47.6233 163.705 47.3437C163.752 47.0611 163.85 46.7897 163.996 46.5435L163.933 46.4981Z" fill="#A8A8A8"/>
<path d="M168.535 89.1592C168.366 88.9382 168.152 88.7554 167.907 88.6228C167.674 88.5022 167.422 88.4222 167.161 88.3864C166.915 88.3558 166.665 88.3712 166.425 88.4319C166.193 88.4828 165.975 88.5854 165.788 88.7319C165.679 88.8111 165.589 88.9136 165.524 89.032C165.482 89.1139 165.457 89.2037 165.452 89.2956C165.452 89.3677 165.468 89.4388 165.497 89.5048C165.561 89.6562 165.682 89.7767 165.834 89.8412C165.912 89.8808 165.994 89.9113 166.079 89.9321L166.306 90.0048C166.383 90.0297 166.449 90.0773 166.497 90.1412C166.542 90.1936 166.573 90.256 166.588 90.3231C166.607 90.4008 166.607 90.4817 166.588 90.5595C166.576 90.6541 166.548 90.7462 166.507 90.8322C166.438 90.9429 166.349 91.0387 166.243 91.1141C166.114 91.223 165.956 91.2896 165.788 91.305C165.623 91.341 165.453 91.341 165.288 91.305C165.117 91.2612 164.956 91.184 164.815 91.0777C164.671 90.9785 164.543 90.859 164.433 90.7231C164.279 90.5493 164.165 90.3448 164.096 90.123C164.036 89.9011 164.02 89.6692 164.051 89.4411C164.173 88.9323 164.477 88.4859 164.906 88.1864C165.253 87.8884 165.674 87.6904 166.125 87.6136C166.543 87.5407 166.974 87.5687 167.38 87.6954C167.805 87.8162 168.203 88.0168 168.553 88.2864C168.93 88.5653 169.27 88.8924 169.562 89.2593C169.89 89.662 170.154 90.1128 170.344 90.5958C170.512 91.0214 170.595 91.4752 170.59 91.9324C170.592 92.3597 170.498 92.782 170.317 93.169C170.123 93.5697 169.84 93.9211 169.49 94.1964C169.136 94.4924 168.724 94.7094 168.28 94.8329C167.882 94.931 167.471 94.9708 167.061 94.9511C166.657 94.9329 166.255 94.8782 165.861 94.7874C165.461 94.6965 165.079 94.6237 164.688 94.5601C164.312 94.4967 163.931 94.4693 163.551 94.4783C163.171 94.4896 162.8 94.5925 162.468 94.7783L162.041 94.2328C162.318 94.0171 162.624 93.8425 162.95 93.7145C163.247 93.5961 163.551 93.4959 163.86 93.4144C164.169 93.3417 164.487 93.2781 164.815 93.2235C165.149 93.1661 165.48 93.0902 165.806 92.9962C166.152 92.9022 166.49 92.7806 166.816 92.6325C167.184 92.461 167.529 92.2441 167.843 91.987C168.089 91.7946 168.312 91.575 168.507 91.3323C168.672 91.1228 168.798 90.8858 168.88 90.6322C168.939 90.3964 168.939 90.1497 168.88 89.9139C168.817 89.65 168.689 89.4061 168.507 89.2047L168.535 89.1592ZM159.367 95.0783C159.523 94.9524 159.702 94.8595 159.895 94.8056C160.078 94.7691 160.266 94.7691 160.449 94.8056C160.635 94.8238 160.814 94.8795 160.977 94.9692C161.153 95.0597 161.308 95.1868 161.432 95.342C161.555 95.4977 161.645 95.6773 161.695 95.8694C161.795 96.2389 161.749 96.6325 161.568 96.9695C161.474 97.1412 161.348 97.2926 161.195 97.4151C161.04 97.5411 160.86 97.6339 160.668 97.6878C160.485 97.7239 160.296 97.7239 160.113 97.6878C159.925 97.6684 159.743 97.6128 159.576 97.5242C159.366 97.4061 159.185 97.2412 159.049 97.0423C158.914 96.8406 158.833 96.6081 158.812 96.3665C158.791 96.1248 158.832 95.8819 158.931 95.6602C159.03 95.4409 159.18 95.2479 159.367 95.0965V95.0783Z" fill="#DDDDDD"/>
<path d="M79.4237 10.1652C79.1675 10.2724 78.9355 10.4301 78.7416 10.6289C78.5576 10.8154 78.4096 11.0343 78.3051 11.2745C78.2048 11.5044 78.1492 11.7512 78.1414 12.0019C78.131 12.238 78.1713 12.4736 78.2596 12.6929C78.3082 12.819 78.3826 12.9335 78.4779 13.0293C78.5441 13.0938 78.6254 13.1406 78.7144 13.1657C78.7834 13.1794 78.8545 13.1794 78.9235 13.1657C78.9655 13.1751 79.0089 13.1751 79.0509 13.1657C79.1579 13.1282 79.2545 13.0659 79.3328 12.9839L79.4874 12.7293L79.6147 12.5292C79.6512 12.4601 79.7132 12.4079 79.7875 12.3838C79.8535 12.3547 79.9246 12.3393 79.9967 12.3383C80.078 12.335 80.1589 12.3506 80.2332 12.3838C80.3238 12.419 80.4048 12.475 80.4696 12.5474C80.5578 12.6384 80.6259 12.7468 80.6697 12.8657C80.74 13.0191 80.7622 13.1903 80.7334 13.3566C80.7058 13.525 80.6439 13.686 80.5515 13.8294C80.4556 13.9784 80.3357 14.1105 80.1968 14.2204C80.0607 14.3302 79.9109 14.4219 79.7512 14.4932C79.5413 14.5889 79.3134 14.6385 79.0827 14.6385C78.852 14.6385 78.6241 14.5889 78.4142 14.4932C77.9533 14.2435 77.6051 13.8272 77.4411 13.3294C77.2587 12.9121 77.1866 12.455 77.2319 12.0019C77.2777 11.5808 77.4209 11.1761 77.6503 10.8199C77.8918 10.4457 78.2001 10.119 78.5597 9.8561C78.9304 9.56573 79.3408 9.32996 79.7784 9.15599C80.2547 8.94838 80.7615 8.81941 81.2791 8.77411C81.7372 8.72683 82.2001 8.76694 82.6433 8.89231C83.052 9.01756 83.4278 9.23183 83.7437 9.51968C84.0773 9.81206 84.3361 10.1799 84.4986 10.5926C84.6866 11.013 84.7827 11.4686 84.7805 11.9291C84.7745 12.3459 84.707 12.7595 84.5804 13.1566C84.4525 13.5383 84.2881 13.9067 84.0893 14.2568C83.8953 14.6144 83.7134 14.969 83.5436 15.3206C83.3701 15.6556 83.2271 16.0056 83.1162 16.3662C83.0298 16.734 83.0298 17.1168 83.1162 17.4845L82.4796 17.7391C82.3492 17.4285 82.2635 17.1009 82.2249 16.7663C82.2022 16.4424 82.2022 16.1173 82.2249 15.7934C82.2335 15.4704 82.2639 15.1484 82.3159 14.8296C82.3522 14.4944 82.3704 14.1575 82.3704 13.8203C82.3737 13.4614 82.3494 13.1027 82.2977 12.7475C82.2327 12.3434 82.1165 11.9493 81.9521 11.5745C81.8342 11.289 81.6847 11.0176 81.5064 10.7653C81.3536 10.5504 81.1624 10.3655 80.9426 10.2198C80.7358 10.0839 80.498 10.0025 80.2514 9.98339C79.9824 9.97645 79.7153 10.0292 79.4692 10.138L79.4237 10.1652ZM82.5978 20.6032C82.5163 20.4141 82.4789 20.2088 82.4887 20.0031C82.4858 19.8147 82.5205 19.6276 82.5908 19.4528C82.661 19.2779 82.7655 19.1188 82.8979 18.9848C83.0347 18.8418 83.1985 18.7274 83.3799 18.6484C83.5621 18.5755 83.7567 18.5385 83.9529 18.5393C84.1432 18.5385 84.3318 18.5756 84.5077 18.6484C84.8626 18.8062 85.1451 19.0919 85.2989 19.4485C85.3718 19.6306 85.4088 19.8251 85.4081 20.0213C85.4057 20.2092 85.3655 20.3948 85.2898 20.5668C85.2205 20.7414 85.1151 20.8994 84.9806 21.0305C84.8418 21.1731 84.6745 21.2846 84.4895 21.3579C84.3078 21.4336 84.1133 21.4737 83.9165 21.4761C83.7322 21.4758 83.5497 21.4387 83.3799 21.367C83.2072 21.2942 83.0498 21.1893 82.9161 21.0578C82.7764 20.9186 82.6679 20.7512 82.5978 20.5668V20.6032Z" fill="#DDDDDD"/>
<path d="M133.302 18.0301C133.047 17.9938 132.8 17.9106 132.575 17.7846C132.205 17.5737 131.907 17.257 131.72 16.8753C131.534 16.498 131.461 16.0748 131.511 15.657C131.541 15.3673 131.627 15.0863 131.765 14.8296C131.9 14.589 132.079 14.3761 132.293 14.2022C132.507 14.0299 132.75 13.8974 133.011 13.8112C133.288 13.7285 133.579 13.7037 133.866 13.7385C134.156 13.7675 134.438 13.854 134.694 13.9931C135.18 14.2713 135.544 14.7226 135.712 15.2569C135.796 15.5367 135.821 15.8308 135.785 16.1207C135.755 16.4075 135.668 16.6855 135.53 16.939C135.395 17.1817 135.213 17.395 134.994 17.5664C134.775 17.7394 134.525 17.869 134.257 17.9482C133.98 18.0272 133.689 18.0519 133.402 18.021L133.302 18.0301ZM131.874 15.7115C131.846 15.9492 131.864 16.1902 131.929 16.4207C131.995 16.6525 132.106 16.8688 132.256 17.0572C132.404 17.2337 132.583 17.3816 132.784 17.4936C133.224 17.7209 133.733 17.776 134.212 17.6482C134.438 17.576 134.65 17.4653 134.839 17.3209C135.021 17.1738 135.175 16.9952 135.294 16.7935C135.411 16.5764 135.485 16.3387 135.512 16.0934C135.539 15.8515 135.514 15.6068 135.44 15.3751C135.368 15.1432 135.25 14.928 135.094 14.7422C134.938 14.5564 134.746 14.4037 134.53 14.2931C134.318 14.1705 134.082 14.096 133.839 14.0749C133.592 14.0455 133.341 14.0671 133.102 14.1386C132.881 14.211 132.675 14.3218 132.493 14.4659C132.313 14.6178 132.165 14.8031 132.056 15.0114C131.935 15.2235 131.861 15.4592 131.838 15.7024L131.874 15.7115ZM133.23 12.3747V12.211C133.277 11.7359 133.393 11.2703 133.575 10.829C133.754 10.4173 133.958 10.0165 134.184 9.62877C134.412 9.25599 134.657 8.87411 134.921 8.51042C135.185 8.14673 135.412 7.75576 135.64 7.3557C135.876 6.93699 136.077 6.49899 136.24 6.0464C136.421 5.54455 136.54 5.02241 136.595 4.49162C136.64 4.08069 136.64 3.66599 136.595 3.25506C136.56 2.91695 136.458 2.5892 136.294 2.29128C136.149 2.02576 135.94 1.80074 135.685 1.63663C135.408 1.46871 135.098 1.36321 134.776 1.32749C134.421 1.28437 134.062 1.31534 133.721 1.41842C133.393 1.51416 133.085 1.66815 132.811 1.87303C132.555 2.06979 132.339 2.31358 132.175 2.59133C132.018 2.84488 131.921 3.13108 131.893 3.42782C131.857 3.58029 131.857 3.73905 131.893 3.89153C131.921 3.98372 131.971 4.06786 132.038 4.13702C132.089 4.19231 132.151 4.23577 132.22 4.26431H132.356C132.482 4.29134 132.612 4.29134 132.738 4.26431C132.846 4.22511 132.949 4.17642 133.048 4.11883L133.33 3.96426C133.455 3.89658 133.597 3.86807 133.739 3.88243C133.987 3.91319 134.214 4.03661 134.375 4.22794C134.468 4.35456 134.539 4.49597 134.585 4.64619C134.616 4.83581 134.616 5.02938 134.585 5.219C134.556 5.4808 134.455 5.72952 134.294 5.9373C134.139 6.13045 133.947 6.29112 133.73 6.4101C133.5 6.53797 133.251 6.62706 132.993 6.67377C132.743 6.71934 132.488 6.71934 132.238 6.67377C131.903 6.65742 131.576 6.56408 131.283 6.401C130.986 6.24145 130.728 6.01784 130.528 5.74636C130.116 5.12569 129.947 4.37434 130.055 3.63694C130.109 2.9835 130.335 2.35594 130.71 1.81848C131.056 1.33095 131.507 0.92706 132.029 0.636479C132.578 0.340206 133.176 0.143213 133.793 0.0545712C134.442 -0.0318623 135.1 -0.0318623 135.749 0.0545712C136.468 0.119035 137.171 0.300228 137.831 0.591017C138.424 0.847406 138.963 1.21116 139.423 1.66391C139.862 2.09658 140.195 2.62388 140.399 3.20542C140.602 3.78696 140.67 4.40731 140.596 5.01897C140.536 5.6588 140.341 6.27858 140.023 6.83743C139.747 7.33318 139.401 7.78643 138.996 8.1831C138.578 8.55523 138.131 8.89276 137.659 9.19234C137.192 9.4833 136.746 9.78637 136.322 10.1016C135.907 10.3986 135.523 10.7368 135.176 11.1108C134.846 11.4677 134.606 11.8977 134.475 12.3656L134.43 12.5019L133.23 12.3747ZM134.912 1.01836C135.254 1.06315 135.583 1.18098 135.876 1.36386C136.178 1.55456 136.428 1.81694 136.604 2.12762C136.781 2.46741 136.892 2.83761 136.931 3.21869C136.986 3.65342 136.986 4.09326 136.931 4.52799C136.874 5.08965 136.749 5.64229 136.558 6.1737C136.384 6.63793 136.175 7.08785 135.931 7.51936C135.705 7.92559 135.459 8.3201 135.194 8.70136C134.939 9.07414 134.703 9.42874 134.475 9.80153C134.254 10.1722 134.06 10.5581 133.893 10.9563C133.745 11.3176 133.644 11.6966 133.593 12.0837L134.239 12.1564C134.389 11.6882 134.637 11.2573 134.967 10.8926C135.329 10.5063 135.728 10.1562 136.158 9.84699C136.585 9.53785 137.067 9.22871 137.513 8.93776C137.972 8.65334 138.405 8.3277 138.805 7.96488C139.202 7.5997 139.543 7.17671 139.814 6.71014C140.114 6.18635 140.294 5.60255 140.342 5.00079C140.414 4.42691 140.349 3.84403 140.151 3.30053C139.957 2.77105 139.646 2.29231 139.241 1.90031C138.804 1.47832 138.292 1.14213 137.731 0.909248C137.099 0.633048 136.427 0.458152 135.74 0.390987C135.121 0.313777 134.494 0.313777 133.875 0.390987C133.298 0.470245 132.74 0.655176 132.229 0.936525C131.746 1.2004 131.33 1.57034 131.01 2.01851C130.671 2.50821 130.467 3.07919 130.419 3.67331C130.307 4.33102 130.44 5.00709 130.792 5.5736C130.965 5.80536 131.185 5.99756 131.438 6.13733C131.693 6.27372 131.976 6.35138 132.265 6.36463C132.486 6.39659 132.709 6.39659 132.929 6.36463C133.15 6.32911 133.362 6.25525 133.557 6.14642C133.742 6.04592 133.904 5.90631 134.03 5.73727C134.156 5.58505 134.232 5.39778 134.248 5.20082C134.275 5.05357 134.275 4.90254 134.248 4.7553C134.221 4.65056 134.175 4.55183 134.112 4.46434C134.054 4.39815 133.983 4.34539 133.902 4.30977C133.838 4.27216 133.767 4.24745 133.693 4.23703C133.625 4.21892 133.553 4.21892 133.484 4.23703L133.202 4.4007C133.068 4.46385 132.928 4.51262 132.784 4.54617C132.616 4.60936 132.434 4.62815 132.256 4.60073L132.074 4.54617C131.964 4.50547 131.865 4.44017 131.783 4.35523C131.677 4.25093 131.596 4.12333 131.547 3.98245C131.502 3.7788 131.502 3.56782 131.547 3.36417C131.591 3.02996 131.702 2.70818 131.874 2.41857C132.064 2.11115 132.308 1.84017 132.593 1.61845C132.888 1.38704 133.224 1.21421 133.584 1.10928C133.967 0.99292 134.368 0.952761 134.766 0.991079V1.16383V0.991079L134.912 1.01836Z" fill="#292929"/>
<path d="M234.744 175.582L234.68 173.763C234.68 173.763 224.212 173.354 219.774 173.545C219.774 173.545 217.673 172.218 217.464 168.499C217.3 166.007 217.073 161.452 219.047 160.843C221.02 160.234 234.962 161.934 234.962 161.934V159.725L219.083 158.815L174.292 161.398C172.418 161.752 171.063 164.971 171.245 168.817C171.51 171.432 172.342 173.957 173.682 176.218L217.455 175.709L234.744 175.582Z" fill="#A8A8A8"/>
<path d="M174.547 164.007C174.498 164.005 174.452 163.986 174.417 163.952C174.382 163.919 174.36 163.874 174.356 163.825C174.354 163.801 174.358 163.776 174.367 163.753C174.375 163.73 174.389 163.709 174.406 163.691C174.423 163.673 174.443 163.659 174.466 163.649C174.488 163.639 174.513 163.634 174.538 163.634L215.7 161.616C215.728 161.61 215.757 161.61 215.785 161.616C215.813 161.623 215.839 161.635 215.861 161.653C215.883 161.671 215.901 161.694 215.914 161.72C215.926 161.745 215.933 161.774 215.933 161.802C215.933 161.831 215.926 161.859 215.914 161.885C215.901 161.911 215.883 161.933 215.861 161.951C215.839 161.969 215.813 161.982 215.785 161.988C215.757 161.995 215.728 161.995 215.7 161.989L174.538 164.007H174.547Z" fill="#2D2D2D"/>
<path d="M233.808 173.663C231.125 173.79 223.458 173.427 219.811 173.581C219.811 173.581 217.71 172.254 217.474 168.526C217.337 166.044 217.092 161.479 219.084 160.879C220.702 160.379 230.352 161.079 233.79 161.734C233.99 161.734 234.363 173.599 233.808 173.663Z" fill="white"/>
<path d="M232.642 164.289L221.355 164.589C222.403 165.435 223.66 165.982 224.993 166.171C227.367 166.562 232.642 164.289 232.642 164.289Z" fill="#2D2D2D"/>
<path d="M229.015 170.299L217.646 169.535C218.703 170.367 219.956 170.912 221.284 171.117C223.613 171.49 229.015 170.299 229.015 170.299Z" fill="#2D2D2D"/>
<path d="M219.811 173.563C219.811 173.563 217.701 172.245 217.474 168.508C217.337 166.026 217.092 161.461 219.084 160.852C220.702 160.379 230.343 161.052 233.79 161.761L222.021 162.625C219.875 162.58 218.138 165.007 218.292 167.962V168.062C218.36 170.005 218.883 171.905 219.82 173.609L219.811 173.563Z" fill="#2D2D2D"/>
<path d="M239.791 160.461L239.718 158.643C239.718 158.643 229.25 158.234 224.812 158.424C224.812 158.424 222.72 157.097 222.502 153.378C222.338 150.887 222.111 146.332 224.094 145.723C226.076 145.113 240 146.814 240 146.814V144.568L224.112 143.659L179.32 146.241C177.501 146.595 176.092 149.805 176.274 153.66C176.537 156.276 177.372 158.803 178.72 161.061L222.484 160.552L239.791 160.461Z" fill="white"/>
<path d="M179.585 148.878C179.561 148.879 179.538 148.875 179.516 148.867C179.494 148.859 179.473 148.846 179.456 148.83C179.439 148.814 179.426 148.795 179.417 148.773C179.407 148.751 179.403 148.728 179.403 148.705C179.4 148.656 179.417 148.607 179.449 148.57C179.481 148.533 179.526 148.509 179.575 148.505L220.738 146.495C220.786 146.495 220.832 146.513 220.867 146.545C220.902 146.577 220.924 146.621 220.929 146.668C220.93 146.693 220.926 146.718 220.918 146.742C220.91 146.766 220.896 146.787 220.88 146.806C220.863 146.824 220.842 146.84 220.82 146.85C220.797 146.861 220.772 146.867 220.747 146.868L179.585 148.878Z" fill="#2D2D2D"/>
<path d="M238.855 158.497C236.126 158.634 228.496 158.261 224.849 158.424C224.849 158.424 222.748 157.097 222.521 153.369C222.375 150.887 222.13 146.323 224.121 145.713C225.749 145.222 235.39 145.913 238.827 146.623C239.028 146.604 239.4 158.479 238.855 158.497Z" fill="white"/>
<path d="M237.681 149.168L226.395 149.469C227.442 150.315 228.699 150.862 230.032 151.051C232.397 151.442 237.681 149.168 237.681 149.168Z" fill="#2D2D2D"/>
<path d="M234.052 155.178L222.684 154.415C223.739 155.246 224.993 155.788 226.321 155.988C228.659 156.388 234.052 155.178 234.052 155.178Z" fill="#2D2D2D"/>
<path d="M224.848 158.443C224.848 158.443 222.747 157.124 222.511 153.387C222.374 150.896 222.129 146.341 224.121 145.732C225.739 145.259 235.389 145.932 238.827 146.595L227.067 147.505C224.912 147.459 223.175 149.887 223.338 152.842V152.942C223.412 154.884 223.935 156.782 224.866 158.488L224.848 158.443Z" fill="#2D2D2D"/>
<path d="M231.832 145.75L231.76 143.931C231.76 143.931 221.292 143.522 216.863 143.722C216.863 143.722 214.762 142.395 214.543 138.667C214.38 136.185 214.152 131.62 216.135 131.011C218.118 130.402 232.042 132.102 232.042 132.102V129.893L216.153 128.984L171.371 131.566C169.497 131.92 168.133 135.139 168.315 138.994C168.579 141.611 169.414 144.137 170.762 146.395L214.525 145.886L231.832 145.75Z" fill="#DDDDDD"/>
<path d="M171.626 134.175C171.584 134.166 171.546 134.142 171.519 134.108C171.491 134.074 171.477 134.032 171.477 133.989C171.477 133.945 171.491 133.903 171.519 133.869C171.546 133.835 171.584 133.812 171.626 133.802L212.816 131.784C212.864 131.786 212.909 131.806 212.942 131.84C212.976 131.873 212.996 131.918 212.998 131.966C213 131.99 212.998 132.014 212.99 132.037C212.983 132.061 212.971 132.082 212.954 132.1C212.938 132.118 212.918 132.132 212.896 132.142C212.873 132.152 212.849 132.157 212.825 132.157L171.653 134.175H171.626Z" fill="#2D2D2D"/>
<path d="M230.897 143.795C228.169 143.922 220.539 143.558 216.892 143.713C216.892 143.713 214.791 142.386 214.563 138.667C214.418 136.176 214.172 131.62 216.173 131.011C217.792 130.52 227.432 131.211 230.87 131.875C231.07 131.902 231.443 143.777 230.897 143.795Z" fill="white"/>
<path d="M229.724 134.457L218.438 134.766C219.486 135.61 220.743 136.153 222.075 136.339C224.44 136.739 229.724 134.457 229.724 134.457Z" fill="#2D2D2D"/>
<path d="M226.095 140.467L214.727 139.703C215.782 140.536 217.036 141.081 218.364 141.285C220.702 141.658 226.095 140.467 226.095 140.467Z" fill="#2D2D2D"/>
<path d="M216.89 143.731C216.89 143.731 214.789 142.422 214.562 138.676C214.416 136.194 214.171 131.629 216.162 131.029C217.781 130.557 227.431 131.229 230.868 131.893L219.109 132.757C216.954 132.757 215.217 135.139 215.38 138.085V138.185C215.451 140.127 215.974 142.027 216.908 143.731H216.89Z" fill="#2D2D2D"/>
</svg>
