<svg width="442" height="351" viewBox="0 0 442 351" fill="none" xmlns="http://www.w3.org/2000/svg">
<g clip-path="url(#clip0_8577_19866)">
<path d="M54.8955 197.425C46.4197 196.606 39.3565 191.605 41.0093 189.528C42.6621 187.451 51.3921 190.291 51.3921 190.291C51.3921 190.291 41.0516 178.622 46.1089 173.889C51.1661 169.157 55.5877 181.815 55.5877 181.815C55.5877 181.815 54.3587 164.269 60.7438 163.45C66.8746 162.658 63.8375 179.865 63.8375 179.865C63.8375 179.865 68.0754 163.464 74.1497 165.738C80.2241 168.013 70.8018 182.691 70.8018 182.691C70.8018 182.691 77.7661 174.907 80.3512 177.76C82.4419 180.091 72.059 191.379 72.059 191.379C69.97 193.791 67.2885 195.617 64.2788 196.677C61.2691 197.738 58.0351 197.995 54.8955 197.425Z" fill="#E8E8E8"/>
<path d="M68.019 194.19C68.019 194.19 66.1684 243.084 108.364 218.884L113.011 240.159C110.186 244.694 44.8659 266.704 55.2911 196.111L68.019 194.19Z" fill="#E8E8E8"/>
<path d="M221.784 199.106L197.331 197.016V178.961H182.64V197.058L158.625 199.106C156.873 232.107 188.078 233.845 190.155 233.915H190.254C192.344 233.845 223.564 232.107 221.784 199.106Z" fill="#E8E8E8"/>
<path d="M190.226 194.204C191.412 194.17 192.59 194.397 193.679 194.868C194.768 195.339 195.74 196.043 196.527 196.931V189.373H183.926V196.931C184.711 196.041 185.682 195.335 186.771 194.864C187.86 194.392 189.04 194.167 190.226 194.204Z" fill="#EEAD86"/>
<path d="M227.181 199.403C227.011 227.417 208.619 237.786 190.155 235.172H189.915C171.452 237.786 153.06 227.417 152.89 199.403C144.909 199.403 123.677 207.187 99.5771 219.336C99.9586 226.004 105.51 254.936 109.946 258.27C116.458 253.877 128.169 253.057 131.898 252.619C131.828 262.099 130.486 287.033 129.553 297.063C127.957 314.213 128.324 348.867 145.516 349.573C167.539 350.477 230.274 348.457 245.714 349.573C265.901 350.986 263.683 331.208 262.454 318.338C261.042 304.112 252.142 267.34 252.057 256.306C254.021 259.711 257.397 259.259 257.397 261.802C261.833 258.468 285 241.742 285.367 235.074C269.998 211.34 235.162 199.403 227.181 199.403Z" fill="#BCBCBC"/>
<path d="M95.9186 219.124C95.9186 219.124 94.1245 246.065 103.942 260.093C109.452 258.27 115.766 256.519 115.766 256.519C115.766 256.519 108.505 236.345 107.502 216.525C100.623 217.909 95.9186 219.124 95.9186 219.124Z" fill="#686868"/>
<path d="M286.44 234.155C286.44 234.155 257.538 243.663 245.714 258.892C247.612 262.411 249.692 265.83 251.944 269.134C251.944 269.134 272.201 253.481 293.235 245.81C289.435 238.86 286.44 234.155 286.44 234.155Z" fill="#686868"/>
<path d="M235.6 200.25C230.438 199.376 225.348 198.12 220.372 196.493C217.419 213.445 203.349 226.4 182.923 226.795C162.482 226.4 161.959 213.431 159.007 196.493C154.025 198.119 148.931 199.375 143.764 200.25C143.764 200.25 141.702 242.278 184.01 242.165H184.773C227.082 242.278 235.6 200.25 235.6 200.25Z" fill="#686868"/>
<path d="M272.314 255.416C272.314 255.416 298.024 309.099 277.018 317.575C275.973 308.817 272.625 302.53 270.506 304.239C268.387 305.949 267.525 316.149 267.525 316.149C267.525 316.149 247.098 305.695 242.267 311.077C237.436 316.459 252.777 320.966 252.777 320.966C252.777 320.966 237.238 322.562 237.238 326.15C237.309 332.592 253.512 329.88 253.512 329.88C253.512 329.88 239.852 334.118 242.31 340.376C244.768 346.635 259.925 336.52 259.925 336.52C259.925 336.52 251.28 343.117 255.009 346.578C258.739 350.039 271.961 337.339 271.961 337.339C271.961 337.339 286.991 342.707 299.818 324.851C312.645 306.994 302.516 280.435 290.452 246.87C282.965 248.24 272.314 255.416 272.314 255.416Z" fill="#E8E8E8"/>
<path d="M259.205 138.247C271.241 141.482 288.094 153.589 285.48 160.2C282.867 166.812 241.166 160.977 241.166 160.977L259.205 138.247Z" fill="#686868"/>
<path d="M149.952 114.754C142.536 128.542 148.017 161.91 133.876 187.254C119.736 212.598 151.789 224.436 173.67 212.357C195.552 200.279 222.039 212.725 235.53 214.575C249.02 216.426 276.312 206.707 276.623 186.872C276.934 167.038 265.492 166.445 262.158 144.491C259.926 129.884 252.608 94.2697 239.81 95.075C222.519 109.202 184.717 122.269 184.717 122.269L149.952 114.754Z" fill="#1E181A"/>
<path d="M244.924 172.11C245.955 171.417 241.35 201.084 260.208 205.704C237.267 215.027 220.725 205.704 208.76 204.291C188.362 201.918 181.595 204.164 166.381 212.287C156.492 217.528 130.33 213.092 135.303 193.71C179.801 211.821 215.329 191.746 244.924 172.11Z" fill="#0C0205"/>
<path d="M122.109 138.078C118.393 155.03 122.462 204.559 169.333 211.157C215.95 217.712 237.465 183.651 240.996 151.357C245.234 112.395 212.842 91.8681 185.748 90.9639C143.454 89.5653 127.138 115.347 122.109 138.078Z" fill="#E8E8E8"/>
<path d="M151.251 173.635C151.562 177.76 145.883 181.476 139.526 180.543C133.169 179.611 129.426 174.892 129.341 170.019C129.341 165.512 134.553 161.345 141.094 165.286C147.225 168.987 150.926 169.383 151.251 173.635Z" fill="#C6C6C6"/>
<path d="M170.252 162.757C170.252 163.308 169.63 163.76 168.839 163.803C168.048 163.845 167.342 163.435 167.313 162.899C167.285 162.362 167.935 161.881 168.726 161.853C169.517 161.825 170.238 162.221 170.252 162.757Z" fill="#C6C6C6"/>
<path d="M219.058 169.892C219.058 175.542 213.93 179.78 206.612 180.487C199.549 181.207 192.076 176.249 193.065 170.965C194.012 165.908 197.967 167.462 206.005 164.029C213.76 160.709 219.029 164.241 219.058 169.892Z" fill="#C6C6C6"/>
<path d="M213.916 167.25C213.916 167.772 213.379 168.182 212.701 168.196C212.529 168.149 212.374 168.055 212.253 167.925C212.131 167.794 212.049 167.633 212.014 167.458C211.979 167.283 211.993 167.102 212.055 166.935C212.117 166.768 212.225 166.622 212.365 166.512C212.506 166.403 212.674 166.334 212.851 166.315C213.028 166.296 213.207 166.326 213.368 166.402C213.529 166.479 213.666 166.599 213.762 166.748C213.859 166.898 213.912 167.072 213.916 167.25Z" fill="#FBD3C4"/>
<path d="M186.553 163.874C186.504 164.239 186.314 164.57 186.024 164.797C185.733 165.024 185.366 165.129 185 165.089C184.815 165.138 184.622 165.144 184.435 165.107C184.248 165.07 184.072 164.99 183.921 164.874C183.77 164.758 183.647 164.609 183.563 164.438C183.478 164.267 183.435 164.078 183.435 163.888C183.435 163.697 183.478 163.509 183.563 163.338C183.647 163.167 183.77 163.017 183.921 162.901C184.072 162.785 184.248 162.706 184.435 162.668C184.622 162.631 184.815 162.638 185 162.687C185.362 162.646 185.725 162.747 186.015 162.968C186.304 163.189 186.497 163.514 186.553 163.874Z" fill="#C6C6C6"/>
<path d="M194.055 163.661C193.966 164.009 193.765 164.317 193.482 164.537C193.2 164.757 192.852 164.876 192.494 164.876C192.135 164.876 191.787 164.757 191.505 164.537C191.222 164.317 191.021 164.009 190.933 163.661C190.982 163.296 191.172 162.965 191.462 162.738C191.753 162.511 192.12 162.406 192.486 162.447C192.855 162.402 193.226 162.505 193.52 162.732C193.813 162.96 194.005 163.294 194.055 163.661Z" fill="#C6C6C6"/>
<path d="M190.607 167.914C190.696 168.238 190.681 168.581 190.564 168.896C190.448 169.21 190.236 169.481 189.959 169.67C189.681 169.858 189.352 169.955 189.016 169.947C188.681 169.94 188.356 169.827 188.088 169.626C187.819 169.424 187.62 169.144 187.519 168.824C187.417 168.504 187.418 168.161 187.522 167.842C187.625 167.522 187.825 167.243 188.095 167.043C188.365 166.844 188.69 166.733 189.025 166.727C189.392 166.678 189.763 166.776 190.059 166.997C190.355 167.219 190.552 167.548 190.607 167.914Z" fill="#C6C6C6"/>
<path d="M152.635 161.613C152.586 161.981 152.394 162.315 152.1 162.542C151.807 162.769 151.436 162.872 151.067 162.828C150.886 162.872 150.698 162.875 150.516 162.836C150.334 162.796 150.163 162.716 150.016 162.601C149.87 162.486 149.751 162.34 149.67 162.172C149.588 162.004 149.546 161.821 149.546 161.634C149.546 161.448 149.588 161.264 149.67 161.097C149.751 160.929 149.87 160.782 150.016 160.667C150.163 160.552 150.334 160.472 150.516 160.433C150.698 160.394 150.886 160.396 151.067 160.441C151.43 160.396 151.795 160.493 152.087 160.711C152.38 160.93 152.576 161.253 152.635 161.613Z" fill="#C6C6C6"/>
<path d="M160.137 161.387C160.088 161.752 159.897 162.084 159.607 162.311C159.317 162.538 158.949 162.642 158.583 162.602C158.402 162.646 158.213 162.649 158.031 162.61C157.849 162.57 157.678 162.49 157.532 162.375C157.385 162.26 157.267 162.113 157.185 161.946C157.104 161.778 157.062 161.595 157.062 161.408C157.062 161.222 157.104 161.038 157.185 160.871C157.267 160.703 157.385 160.556 157.532 160.441C157.678 160.326 157.849 160.246 158.031 160.207C158.213 160.168 158.402 160.17 158.583 160.215C158.943 160.173 159.305 160.272 159.594 160.49C159.883 160.709 160.078 161.03 160.137 161.387Z" fill="#C6C6C6"/>
<path d="M156.69 165.639C156.641 166.007 156.449 166.341 156.155 166.568C155.862 166.796 155.491 166.898 155.122 166.854C154.941 166.899 154.753 166.901 154.57 166.862C154.388 166.823 154.218 166.742 154.071 166.627C153.924 166.512 153.806 166.366 153.724 166.198C153.643 166.031 153.601 165.847 153.601 165.66C153.601 165.474 153.643 165.29 153.724 165.123C153.806 164.955 153.924 164.808 154.071 164.693C154.218 164.578 154.388 164.498 154.57 164.459C154.753 164.42 154.941 164.422 155.122 164.467C155.484 164.422 155.85 164.519 156.142 164.737C156.434 164.956 156.631 165.279 156.69 165.639Z" fill="#C6C6C6"/>
<path d="M141.489 140.521C147.592 137.47 143.736 131.212 140.515 134.136C137.054 137.272 133.028 138.643 132.887 139.363C132.604 140.959 138.071 142.231 141.489 140.521Z" fill="#1E181A"/>
<path d="M195.523 142.796C189.759 139.179 194.195 133.317 197.119 136.538C200.255 139.985 204.182 141.75 204.182 142.485C204.324 144.096 198.772 144.83 195.523 142.796Z" fill="#1E181A"/>
<path d="M169.517 169.425C169.443 169.447 169.364 169.447 169.291 169.425C168.232 169.202 167.279 168.627 166.589 167.793C165.899 166.959 165.512 165.916 165.491 164.834C165.446 163.888 165.693 162.951 166.198 162.15C166.703 161.349 167.443 160.723 168.316 160.356C169.319 160.045 171.367 160.003 173.528 163.181C173.552 163.215 173.569 163.254 173.578 163.295C173.586 163.335 173.587 163.377 173.579 163.418C173.571 163.459 173.555 163.498 173.532 163.532C173.508 163.567 173.479 163.596 173.444 163.619C173.41 163.645 173.372 163.664 173.331 163.673C173.29 163.683 173.247 163.684 173.206 163.676C173.164 163.668 173.125 163.651 173.09 163.627C173.056 163.602 173.027 163.571 173.006 163.535C171.593 161.373 169.969 160.441 168.499 160.893C167.749 161.207 167.115 161.748 166.684 162.439C166.254 163.129 166.049 163.937 166.098 164.749C166.108 165.697 166.445 166.611 167.053 167.337C167.661 168.064 168.501 168.557 169.432 168.733C169.512 168.762 169.579 168.821 169.618 168.897C169.657 168.972 169.667 169.061 169.644 169.143C169.657 169.197 169.651 169.255 169.628 169.306C169.605 169.357 169.566 169.399 169.517 169.425Z" fill="#1E181A"/>
<path d="M154.288 188.921C154.288 188.921 155.348 177.096 173.147 178.015C189.053 178.848 189.053 191.506 189.053 191.506C189.053 191.506 172.553 182.535 154.288 188.921Z" fill="#1E181A"/>
<path d="M158.583 187.678C162.596 186.758 166.723 186.435 170.831 186.717C175.29 187.045 179.691 187.937 183.926 189.373C183.7 187.508 180.903 185.347 177.936 186.208C175.761 180.967 163.866 182.578 158.583 187.678Z" fill="#C6C6C6"/>
<path d="M181.015 187.254C180.451 186.937 179.826 186.741 179.182 186.678C178.538 186.615 177.887 186.686 177.272 186.886C176.994 186.097 176.489 185.408 175.821 184.905C175.152 184.402 174.35 184.108 173.514 184.061C169.954 183.355 165.604 184.739 163.781 186.886C166.818 186.633 169.87 186.633 172.907 186.886C176.005 187.228 179.062 187.876 182.033 188.822C182.025 188.492 181.926 188.17 181.746 187.893C181.567 187.617 181.314 187.395 181.015 187.254Z" fill="#E8E8E8"/>
<path d="M171.607 178C168.548 177.867 165.494 178.348 162.623 179.413C163.471 180.275 164.559 180.861 165.745 181.094C169.496 182.004 173.371 182.29 177.216 181.942C178.821 181.832 180.345 181.197 181.552 180.134C178.463 178.616 175.047 177.883 171.607 178Z" fill="white"/>
<path d="M165.957 70.2819C207.248 62.0317 224.61 84.974 224.61 84.974C224.61 84.974 240.007 83.9851 251.732 105.472C265.336 130.421 255.221 149.958 245.616 168.196C210.074 159.07 209.438 114.782 209.438 114.782C201.061 141.27 161.592 128.711 152.565 122.312C134.724 109.597 120.753 133.514 121.247 148.913C104.945 121.987 126.46 78.1648 165.957 70.2819Z" fill="#1E181A"/>
<path d="M227.732 90.3281C231.56 87.1072 251.054 103.042 251.04 117.735C249.712 118.031 239.993 104.667 239.993 104.667C239.993 104.667 250.673 127.016 245.418 127.087C242.183 127.087 225.09 108.524 225.09 108.524C225.09 108.524 230.359 128.598 227.265 128.881C222.943 129.276 209.014 103.636 218.013 95.8518C221.53 91.6137 228.763 100.217 228.763 100.217C228.763 100.217 224.412 93.1253 227.732 90.3281Z" fill="#AB6365"/>
<path d="M212.983 107.605C213.28 108.82 211.754 153.547 249.26 166.784C253.583 159.226 247.395 151.639 238.976 149.351C214.015 142.542 212.983 107.605 212.983 107.605Z" fill="#0C0205"/>
<path d="M208.011 107.365C199.422 122.354 179.235 128.062 160.73 118.596C142.224 109.131 134.455 115.206 131.375 121.196C137.506 115.969 142.93 113.737 154.062 119.656C179.235 133.034 204.832 129.446 208.011 107.365Z" fill="#0C0205"/>
<path d="M232.76 160.822C233.742 158.729 235.371 157.008 237.405 155.912C239.44 154.815 241.774 154.402 244.061 154.733C252.707 156.005 252.537 168.521 245.883 174.808C239.23 181.094 229.511 179.724 228.409 172.943L232.76 160.822Z" fill="#E8E8E8"/>
<path d="M244.768 158.519C239.668 155.892 232.054 165.795 237.704 173.607C236.885 164.891 240.53 162.983 243.284 167.815C243.991 165.244 243.115 163.252 239.767 162.616C240.226 161.593 240.917 160.69 241.785 159.979C242.653 159.268 243.674 158.768 244.768 158.519Z" fill="#C6C6C6"/>
<path d="M125.597 167.462C128.56 170.475 132.272 172.644 136.351 173.745C140.431 174.846 144.73 174.839 148.806 173.725C152.882 172.611 156.588 170.43 159.54 167.407C162.493 164.384 164.586 160.629 165.603 156.527L173.952 156.612C175.284 162.531 178.829 167.717 183.861 171.108C188.892 174.498 195.03 175.837 201.016 174.849C207.002 173.862 212.384 170.623 216.06 165.796C219.736 160.969 221.428 154.919 220.789 148.886C220.149 142.852 217.228 137.291 212.622 133.341C208.016 129.392 202.075 127.353 196.015 127.642C189.954 127.93 184.234 130.525 180.025 134.895C175.815 139.264 173.435 145.078 173.373 151.145C173.373 151.752 173.373 152.346 173.373 152.953H166.14C166.14 152.346 166.225 151.752 166.225 151.145C166.267 147.238 165.344 143.381 163.539 139.916C161.734 136.451 159.101 133.485 155.875 131.281C152.649 129.076 148.929 127.703 145.045 127.281C141.16 126.859 137.232 127.401 133.608 128.861C129.984 130.321 126.776 132.653 124.268 135.649C121.761 138.646 120.032 142.215 119.234 146.039C118.436 149.864 118.594 153.827 119.694 157.576C120.794 161.325 122.803 164.745 125.541 167.532L125.597 167.462ZM153.087 167.928C149.3 170.264 144.844 171.275 140.42 170.803C135.995 170.331 131.853 168.402 128.644 165.32C125.435 162.237 123.341 158.176 122.691 153.774C122.041 149.372 122.872 144.878 125.054 141C127.235 137.122 130.644 134.078 134.743 132.348C138.842 130.617 143.4 130.298 147.701 131.44C152.001 132.581 155.801 135.12 158.502 138.656C161.203 142.192 162.652 146.526 162.623 150.975C162.607 154.379 161.723 157.722 160.054 160.689C158.385 163.655 155.988 166.147 153.087 167.928ZM177.032 151.159C177.065 147.665 178.008 144.241 179.769 141.223C181.53 138.206 184.047 135.7 187.073 133.952C190.098 132.205 193.527 131.277 197.021 131.26C200.514 131.243 203.952 132.138 206.994 133.856C210.036 135.573 212.578 138.055 214.368 141.055C216.159 144.055 217.135 147.47 217.202 150.964C217.269 154.457 216.424 157.907 214.75 160.974C213.076 164.04 210.632 166.617 207.658 168.45C204.599 170.33 201.094 171.356 197.505 171.423C193.917 171.489 190.376 170.594 187.25 168.829C184.124 167.064 181.528 164.495 179.731 161.387C177.934 158.28 177.002 154.748 177.032 151.159Z" fill="#1E181A"/>
<path d="M187.768 63.7411C192.387 58.1892 202.078 56.5646 204.098 65.7189C198.624 65.3394 193.174 64.6793 187.768 63.7411Z" fill="#686868"/>
<path d="M243.764 83.4625C234.215 74.8733 217.546 67.4425 197.84 63.9531C178.416 60.5202 154.627 62.5404 143.142 68.9399C125.202 78.8288 120.173 103.028 117.927 113.624C154.09 117.636 225.767 125.914 261.069 138.148C262.228 120.744 259.035 97.0951 243.764 83.4625ZM188.191 114.429C181.269 115.842 168.612 115.686 153.737 111.604C143.693 108.778 149.683 97.7873 155.15 98.8892C165.837 101.079 176.733 102.079 187.64 101.87C193.305 101.997 195.113 113.016 188.191 114.429Z" fill="#686868"/>
<path d="M173.938 65.6907C163.965 65.1257 143.114 67.2871 135.797 81.6543C143.03 76.8935 163.23 75.6785 176.438 76.0035C189.647 76.3284 198.221 67.0469 173.938 65.6907Z" fill="#E8E8E8"/>
<path d="M142.422 143.686C142.037 143.632 141.645 143.67 141.278 143.799C140.898 143.914 140.553 144.123 140.275 144.407C139.876 144.848 139.565 145.361 139.356 145.918C139.029 146.73 138.834 147.588 138.777 148.461C138.73 149.22 138.754 149.981 138.848 150.735C138.899 151.541 139.234 152.302 139.794 152.883C140.312 153.331 140.942 153.629 141.617 153.744C142.327 153.903 143.071 153.782 143.693 153.405C144.25 152.972 144.655 152.374 144.852 151.696C145.162 150.748 145.389 149.774 145.53 148.786C145.769 147.702 145.66 146.57 145.219 145.551C144.972 145.06 144.602 144.642 144.145 144.336C143.453 143.827 142.478 143.361 141.73 144.025C140.56 145.051 139.802 146.467 139.597 148.009C139.426 148.871 139.485 149.762 139.766 150.594C139.838 150.85 139.961 151.089 140.125 151.297C140.29 151.506 140.495 151.68 140.727 151.809C140.955 151.936 141.207 152.015 141.468 152.039C141.728 152.064 141.99 152.033 142.238 151.95C142.674 151.675 143.045 151.309 143.326 150.877C143.606 150.446 143.803 149.967 143.905 149.464C144.171 148.547 144.271 147.591 144.202 146.639C144.187 146.412 144.114 146.193 143.99 146.003C143.874 145.823 143.714 145.677 143.524 145.579C143.332 145.482 143.117 145.438 142.902 145.452C142.687 145.471 142.479 145.538 142.295 145.65C141.899 145.947 141.567 146.322 141.32 146.752C141.078 147.187 140.928 147.668 140.882 148.164C140.821 148.714 140.872 149.27 141.032 149.8C141.192 150.329 141.459 150.821 141.814 151.244C142.013 151.435 142.274 151.55 142.549 151.569C142.822 151.586 143.092 151.506 143.312 151.343C143.751 151.007 144.096 150.565 144.315 150.057C144.533 149.545 144.62 148.987 144.569 148.433C144.528 147.87 144.359 147.324 144.075 146.836C143.797 146.357 143.41 145.95 142.945 145.65C142.797 145.587 142.639 145.554 142.478 145.554C142.318 145.554 142.16 145.587 142.012 145.65C141.694 145.759 141.431 145.987 141.278 146.285C141.135 146.596 141.11 146.947 141.207 147.274C141.248 147.432 141.32 147.579 141.42 147.708C141.519 147.837 141.644 147.944 141.786 148.023C142.012 148.178 141.603 147.839 141.786 148.023L141.913 148.136C142.097 148.306 141.786 147.924 141.913 148.136L142.012 148.306C142.018 148.371 142.018 148.438 142.012 148.503V148.701C142.019 148.767 142.019 148.833 142.012 148.899C142.012 149.167 142.012 148.899 142.012 148.899C141.971 149.023 141.942 149.151 141.927 149.28C141.927 149.139 141.927 149.026 141.927 149.28C141.927 149.535 141.8 149.535 141.927 149.28C141.786 149.478 142.139 149.111 141.927 149.28L143.425 149.393C143.651 149.648 143.312 149.252 143.326 149.181C143.34 149.111 143.411 149.422 143.326 149.181V148.984C143.326 148.885 143.185 148.758 143.326 148.984C143.319 148.923 143.319 148.861 143.326 148.8V148.574L143.411 148.193V148.023L143.51 147.839C143.51 147.712 143.326 148.037 143.51 147.839C143.548 147.794 143.591 147.751 143.637 147.712L143.552 147.783L143.651 147.712L141.758 146.737C141.758 146.978 141.758 147.218 141.758 147.444C141.758 147.67 141.758 147.755 141.758 147.557V147.938L141.617 148.56V148.941C141.617 148.758 141.617 148.941 141.617 149.026C141.617 149.111 141.405 149.45 141.32 149.662C141.235 149.874 141.405 149.563 141.32 149.662C141.235 149.761 141.32 149.662 141.574 149.478H141.984C142.068 149.484 142.148 149.519 142.21 149.577C142.309 149.69 142.309 149.676 142.21 149.577C142.111 149.478 142.21 149.775 142.21 149.577V149.422C142.21 149.351 142.21 149.422 142.21 149.52C142.182 149.333 142.182 149.143 142.21 148.955V148.616C142.21 148.8 142.21 148.616 142.21 148.616C142.239 148.411 142.281 148.208 142.337 148.009C142.337 147.924 142.337 147.825 142.337 147.74C142.441 147.466 142.569 147.202 142.719 146.949C142.719 146.949 142.93 146.624 142.719 146.865L143.043 146.441L143.269 146.201C143.34 146.13 143.128 146.328 143.34 146.13L142.422 146.328C142.097 146.328 142.577 146.328 142.634 146.427L142.789 146.511L142.916 146.624L143.029 146.709C143.049 146.752 143.078 146.791 143.114 146.822C143.001 146.667 142.973 146.639 143.114 146.737L143.213 146.879C143.34 147.091 143.213 146.794 143.213 146.879C143.257 146.969 143.29 147.064 143.312 147.161V147.331C143.312 147.5 143.312 147.19 143.312 147.204C143.326 147.33 143.326 147.458 143.312 147.585V147.896C143.312 148.263 143.312 147.656 143.312 147.896L143.156 148.616L142.874 150.029C142.828 150.319 142.766 150.607 142.69 150.891C142.684 150.957 142.684 151.023 142.69 151.089C142.69 150.848 142.69 150.919 142.69 151.089L142.606 151.286V151.414C142.606 151.512 142.606 151.527 142.606 151.414L142.507 151.527C142.394 151.696 142.507 151.527 142.507 151.527C142.309 151.682 142.733 151.442 142.591 151.527C142.45 151.611 142.591 151.527 142.591 151.527C142.488 151.521 142.384 151.521 142.281 151.527C142.026 151.527 142.478 151.527 142.281 151.527H141.984H141.814L141.433 151.343C141.433 151.343 141.433 151.343 141.518 151.343L141.377 151.216C141.221 151.216 141.574 151.456 141.377 151.216V151.131C141.4 151.339 141.502 151.53 141.662 151.665C141.822 151.8 142.028 151.869 142.237 151.857C142.446 151.845 142.642 151.754 142.786 151.602C142.93 151.45 143.01 151.248 143.01 151.039C143.01 150.83 142.93 150.628 142.786 150.476C142.642 150.324 142.446 150.233 142.237 150.221C142.028 150.209 141.822 150.278 141.662 150.413C141.502 150.548 141.4 150.739 141.377 150.947V150.425C141.377 149.973 141.377 149.535 141.377 149.012C141.37 148.927 141.37 148.842 141.377 148.758C141.377 148.348 141.377 148.984 141.377 148.588C141.413 148.35 141.465 148.114 141.532 147.882V147.571C141.532 147.755 141.532 147.571 141.532 147.472L141.716 147.034C141.716 146.893 141.885 146.752 141.927 146.61C141.97 146.469 141.73 146.85 141.927 146.61L142.083 146.441C142.083 146.441 141.829 146.624 141.998 146.441C142.168 146.257 141.758 146.441 141.998 146.441C142.238 146.441 141.8 146.441 141.998 146.441C142.196 146.441 142.408 146.441 141.998 146.441C142.157 146.471 142.32 146.469 142.477 146.435C142.635 146.401 142.784 146.336 142.916 146.243C143.187 146.043 143.378 145.752 143.453 145.424C143.525 145.095 143.469 144.752 143.298 144.463C143.211 144.324 143.098 144.204 142.965 144.109C142.831 144.015 142.68 143.948 142.521 143.912L142.422 143.686Z" fill="#242424"/>
<path d="M140.883 147.147C140.963 147.166 141.046 147.166 141.127 147.149C141.207 147.132 141.283 147.098 141.349 147.048C141.42 147.003 141.481 146.943 141.528 146.872C141.574 146.802 141.605 146.722 141.618 146.639C141.639 146.555 141.642 146.467 141.627 146.382C141.613 146.297 141.58 146.216 141.533 146.144C141.492 146.075 141.437 146.015 141.371 145.969C141.305 145.922 141.23 145.891 141.151 145.876C141.071 145.86 140.988 145.86 140.908 145.877C140.828 145.894 140.752 145.927 140.685 145.975C140.615 146.021 140.555 146.081 140.509 146.152C140.463 146.222 140.431 146.301 140.417 146.384C140.355 146.543 140.355 146.72 140.417 146.879C140.468 146.957 140.537 147.022 140.618 147.069C140.699 147.115 140.79 147.142 140.883 147.147Z" fill="white"/>
<path d="M194.831 145.183C194.443 145.124 194.046 145.158 193.673 145.282C193.296 145.412 192.953 145.624 192.67 145.904C192.271 146.343 191.964 146.856 191.766 147.416C191.429 148.22 191.229 149.074 191.173 149.944C191.109 150.706 191.109 151.471 191.173 152.233C191.227 153.033 191.562 153.789 192.119 154.366C192.642 154.814 193.277 155.112 193.956 155.228C194.666 155.386 195.409 155.265 196.032 154.889C196.58 154.456 196.979 153.863 197.176 153.194C197.492 152.246 197.723 151.272 197.869 150.283C198.11 149.198 197.996 148.064 197.544 147.048C197.296 146.558 196.926 146.139 196.47 145.833C195.778 145.325 194.817 144.859 194.069 145.523C192.903 146.548 192.141 147.955 191.921 149.492C191.764 150.355 191.822 151.243 192.091 152.077C192.242 152.591 192.587 153.026 193.051 153.292C193.28 153.418 193.532 153.497 193.791 153.523C194.051 153.55 194.313 153.524 194.563 153.448C194.999 153.167 195.37 152.796 195.651 152.36C195.944 151.937 196.141 151.455 196.23 150.947C196.494 150.03 196.594 149.074 196.526 148.122C196.514 147.899 196.441 147.684 196.315 147.5C196.203 147.313 196.042 147.162 195.848 147.062C195.655 146.97 195.441 146.927 195.227 146.935C195.009 146.95 194.799 147.023 194.619 147.147C194.224 147.442 193.897 147.817 193.659 148.249C193.412 148.684 193.258 149.165 193.207 149.662C193.152 150.218 193.204 150.779 193.362 151.315C193.52 151.835 193.785 152.316 194.139 152.727C194.345 152.909 194.601 153.022 194.874 153.052C195.15 153.062 195.423 152.983 195.651 152.826C196.079 152.483 196.418 152.042 196.64 151.541C196.864 151.03 196.952 150.47 196.894 149.916C196.853 149.353 196.684 148.807 196.399 148.32C196.127 147.841 195.744 147.434 195.283 147.133C195.138 147.059 194.98 147.015 194.817 147.003C194.655 146.991 194.491 147.011 194.337 147.062C194.102 147.15 193.897 147.302 193.745 147.502C193.593 147.701 193.5 147.94 193.478 148.189C193.456 148.439 193.505 148.69 193.619 148.913C193.734 149.136 193.909 149.322 194.125 149.45C194.351 149.605 193.941 149.266 194.125 149.45L194.238 149.563C194.422 149.732 194.111 149.337 194.238 149.563L194.337 149.732C194.343 149.793 194.343 149.855 194.337 149.916V150.128V150.326C194.337 150.58 194.337 150.326 194.337 150.326L194.252 150.707C194.252 150.566 194.252 150.453 194.252 150.707C194.252 150.961 194.125 150.961 194.252 150.707C194.111 150.905 194.478 150.538 194.252 150.707L195.764 150.806C195.976 151.074 195.651 150.679 195.665 150.608C195.679 150.538 195.75 150.834 195.665 150.608L195.594 150.41C195.594 150.312 195.467 150.17 195.594 150.41C195.588 150.349 195.588 150.288 195.594 150.227V150.001V149.605V149.436C195.594 149.436 195.665 149.323 195.693 149.252C195.721 149.181 195.509 149.464 195.693 149.252L195.806 149.139H195.721H195.82L193.927 148.164C193.927 148.39 193.927 148.645 193.927 148.871C193.927 149.097 193.927 149.181 193.927 148.97L193.842 149.351L193.715 149.987L193.631 150.354C193.631 150.184 193.631 150.354 193.631 150.453C193.631 150.552 193.433 150.877 193.334 151.074C193.235 151.272 193.419 150.99 193.334 151.074C193.249 151.159 193.334 151.074 193.588 150.905H193.998C194.082 150.914 194.161 150.948 194.224 151.004C194.323 151.131 194.323 151.117 194.224 151.004C194.125 150.891 194.224 151.216 194.224 151.004V150.863C194.224 150.778 194.224 150.863 194.224 150.947C194.195 150.76 194.195 150.57 194.224 150.382V150.043C194.224 150.227 194.224 150.128 194.224 150.043C194.241 149.842 194.279 149.643 194.337 149.45C194.337 149.365 194.337 149.266 194.337 149.181C194.337 149.097 194.337 148.97 194.337 149.181C194.399 148.992 194.484 148.812 194.591 148.645C194.591 148.546 194.676 148.475 194.718 148.39C194.761 148.306 194.944 148.065 194.718 148.291L195.057 147.882C195.128 147.797 195.213 147.726 195.269 147.642C195.326 147.557 195.128 147.755 195.354 147.642L194.422 147.839C194.111 147.839 194.577 147.839 194.634 147.938L194.789 148.023L194.902 148.122L195.015 148.221L195.114 148.334C194.987 148.178 194.973 148.136 195.043 148.249L195.128 148.39C195.269 148.602 195.128 148.306 195.128 148.306L195.227 148.602V148.758C195.227 148.941 195.227 148.63 195.227 148.645C195.242 148.771 195.242 148.899 195.227 149.026V149.337C195.227 149.69 195.227 149.097 195.227 149.337L195.071 150.043L194.789 151.456C194.748 151.747 194.687 152.035 194.605 152.318C194.597 152.383 194.597 152.45 194.605 152.515C194.605 152.275 194.605 152.332 194.605 152.445C194.583 152.518 194.555 152.589 194.521 152.657V152.784C194.521 152.883 194.521 152.897 194.521 152.784V152.572L194.422 152.699C194.309 152.869 194.422 152.699 194.422 152.699C194.224 152.84 194.662 152.614 194.506 152.699C194.351 152.784 194.506 152.699 194.577 152.699C194.469 152.686 194.36 152.686 194.252 152.699C193.998 152.699 194.464 152.699 194.252 152.699H193.956H193.786H193.857L193.475 152.501H193.546C193.51 152.448 193.461 152.404 193.405 152.374C193.263 152.374 193.616 152.614 193.405 152.374V152.275C193.405 152.148 193.32 151.823 193.405 152.106C193.405 151.922 193.405 151.753 193.405 151.569C193.405 151.131 193.405 150.679 193.405 150.156C193.398 150.072 193.398 149.987 193.405 149.902C193.405 149.492 193.405 150.142 193.405 149.732C193.431 149.498 193.478 149.266 193.546 149.04L193.616 148.715C193.616 148.913 193.616 148.715 193.616 148.63L193.8 148.178C193.8 148.037 193.97 147.896 194.012 147.769C194.054 147.642 193.814 147.995 194.012 147.769C194.067 147.716 194.119 147.659 194.167 147.599C194.167 147.599 193.913 147.769 194.097 147.67C194.28 147.571 193.842 147.67 194.097 147.67C194.351 147.67 193.885 147.67 194.097 147.67C194.309 147.67 194.521 147.67 194.167 147.67C194.488 147.725 194.817 147.654 195.086 147.472C195.368 147.279 195.565 146.986 195.636 146.651C195.707 146.317 195.646 145.969 195.467 145.678C195.384 145.538 195.271 145.417 195.137 145.324C195.003 145.232 194.851 145.169 194.69 145.141L194.831 145.183Z" fill="#242424"/>
<path d="M193.278 148.645C193.358 148.66 193.441 148.659 193.521 148.642C193.601 148.625 193.676 148.592 193.744 148.546C193.814 148.499 193.874 148.439 193.92 148.368C193.966 148.298 193.998 148.219 194.012 148.136C194.054 147.968 194.029 147.791 193.942 147.642C193.85 147.504 193.708 147.408 193.546 147.373C193.467 147.355 193.384 147.354 193.304 147.368C193.224 147.383 193.148 147.413 193.08 147.458C193.009 147.507 192.949 147.57 192.903 147.643C192.857 147.716 192.826 147.797 192.811 147.882C192.79 147.963 192.786 148.048 192.801 148.131C192.815 148.214 192.848 148.293 192.896 148.362C192.937 148.433 192.992 148.495 193.057 148.543C193.123 148.592 193.198 148.626 193.278 148.645Z" fill="white"/>
<path d="M1.24333 351H440.743C441.088 350.941 441.401 350.762 441.627 350.494C441.853 350.227 441.976 349.888 441.976 349.538C441.976 349.188 441.853 348.849 441.627 348.581C441.401 348.314 441.088 348.135 440.743 348.076H1.24333C0.855562 348.076 0.483676 348.23 0.209483 348.504C-0.0647099 348.778 -0.21875 349.15 -0.21875 349.538C-0.21875 349.926 -0.0647099 350.298 0.209483 350.572C0.483676 350.846 0.855562 351 1.24333 351Z" fill="black"/>
<path d="M417.59 347.892V345.533C417.59 345.533 403.732 344.826 397.898 345.024C396.923 344.197 396.15 343.158 395.638 341.987C395.117 340.82 394.875 339.548 394.932 338.272C394.762 334.966 394.522 328.849 397.277 328.171C400.031 327.493 418.311 329.937 418.311 329.937V326.998L397.277 325.487L337.946 328.1C335.46 328.524 333.623 332.804 333.708 337.848C334.024 341.331 335.089 344.704 336.83 347.737L394.748 347.906L417.59 347.892Z" fill="#A8A8A8"/>
<path d="M338.058 331.702L392.544 329.795C392.596 329.798 392.649 329.789 392.697 329.769C392.746 329.75 392.79 329.72 392.826 329.682C392.878 329.614 392.904 329.528 392.897 329.442C392.899 329.365 392.874 329.29 392.826 329.23C392.786 329.135 392.71 329.058 392.614 329.018H392.459L337.96 330.925H337.691V331.208C337.663 331.3 337.663 331.399 337.691 331.491C337.731 331.557 337.784 331.615 337.847 331.66H338.058V331.702Z" fill="#292929"/>
<path d="M416.389 345.279C412.801 345.279 402.672 344.756 397.841 344.925C396.863 344.101 396.086 343.064 395.57 341.894C395.053 340.724 394.81 339.451 394.86 338.173C394.69 334.881 394.479 328.764 397.205 328.072C399.366 327.464 412.108 328.566 416.643 329.485C416.812 329.555 417.095 345.25 416.389 345.279Z" fill="white"/>
<path d="M414.99 332.903L400.059 333.115C401.403 334.247 403.028 334.994 404.763 335.277C407.941 335.814 414.99 332.903 414.99 332.903Z" fill="#292929"/>
<path d="M410.074 340.786L395.016 339.557C396.37 340.673 397.991 341.418 399.72 341.719C403.197 341.848 406.676 341.535 410.074 340.786Z" fill="#292929"/>
<path d="M397.827 344.926C396.856 344.096 396.084 343.058 395.571 341.889C395.057 340.719 394.814 339.449 394.86 338.173C394.691 334.881 394.451 328.764 397.205 328.072C399.367 327.464 412.123 328.566 416.671 329.485L401.132 330.403C398.307 330.403 395.934 333.497 396.103 337.466C396.094 340.053 396.684 342.606 397.827 344.926Z" fill="#292929"/>
<path d="M55.1775 348.076C61.4746 348.087 67.6335 346.23 72.8748 342.739C78.1161 339.249 82.2042 334.282 84.6218 328.467C87.0393 322.652 87.6777 316.251 86.456 310.073C85.2344 303.895 82.2076 298.219 77.7589 293.762C73.3101 289.305 67.6392 286.268 61.4639 285.035C55.2886 283.802 48.8864 284.429 43.0675 286.837C37.2487 289.244 32.2747 293.324 28.775 298.559C25.2753 303.794 23.4073 309.95 23.4073 316.248C23.3998 320.425 24.2161 324.562 25.8094 328.423C27.4027 332.285 29.7417 335.794 32.6926 338.75C35.6434 341.706 39.1483 344.052 43.0065 345.652C46.8647 347.252 51.0006 348.076 55.1775 348.076Z" fill="#EAEAEA"/>
<path d="M63.3993 261.449L63.5547 289.703L46.4476 289.83L46.2781 261.576C45.9604 261.633 45.6352 261.633 45.3175 261.576C45.0038 261.52 44.7081 261.389 44.4558 261.195C44.1976 261.002 43.9894 260.75 43.8484 260.46C43.686 260.191 43.5982 259.884 43.5941 259.57C43.5706 259.254 43.6139 258.936 43.7212 258.638C43.8568 258.339 44.0432 258.067 44.2722 257.832C44.7664 257.437 45.3929 257.245 46.0238 257.295L63.4558 257.112C63.945 257.113 64.4188 257.283 64.7978 257.592C65.1482 257.818 65.4099 258.158 65.5386 258.554C65.6673 258.95 65.6551 259.379 65.5041 259.768C65.3031 260.373 64.8786 260.878 64.3175 261.18C64.0302 261.318 63.7176 261.395 63.3993 261.406V261.449Z" fill="#EAEAEA"/>
<path d="M81.3963 314.227C81.6744 318.181 81.0541 322.147 79.5816 325.827C78.1092 329.507 75.823 332.806 72.8942 335.476C69.9655 338.147 66.4703 340.12 62.6706 341.248C58.8709 342.375 54.8653 342.628 50.954 341.987C47.0483 341.352 43.3365 339.844 40.0955 337.574C36.8545 335.304 34.168 332.331 32.2365 328.877C30.2916 325.423 29.1541 321.574 28.9094 317.618C28.6648 313.661 29.3193 309.701 30.8239 306.034C30.8239 306.034 42.3651 297.332 54.3867 310.865C66.6907 324.724 81.3963 314.227 81.3963 314.227Z" fill="#BFBFBF"/>
<path d="M56.8449 333.892C52.5285 333.554 48.4547 331.761 45.2895 328.806C41.9368 325.375 39.6587 321.04 38.7349 316.332C38.6002 315.951 38.3282 315.634 37.972 315.442C37.6005 315.271 37.1803 315.236 36.7854 315.343C36.3885 315.451 36.046 315.703 35.8248 316.05C35.62 316.399 35.5402 316.808 35.5988 317.208C37.0115 322.449 39.1445 327.591 43.1847 331.335C46.9488 334.769 51.7625 336.83 56.8449 337.184C58.9215 337.339 58.8791 334.09 56.8449 333.92V333.892Z" fill="white"/>
<path d="M38.4522 310.964L39.0879 307.348C39.1787 306.928 39.1239 306.489 38.9325 306.104C38.7044 305.758 38.3659 305.499 37.9719 305.37C37.7486 305.321 37.5172 305.321 37.2939 305.37C37.0839 305.41 36.8798 305.476 36.6864 305.568C36.3326 305.8 36.0723 306.15 35.9519 306.556L35.3162 310.102C35.2254 310.522 35.2802 310.961 35.4716 311.345C35.6924 311.708 36.0318 311.982 36.4322 312.122C36.642 312.164 36.858 312.164 37.0679 312.122C37.281 312.095 37.487 312.028 37.6753 311.925C37.8563 311.815 38.0185 311.676 38.1556 311.515C38.2951 311.349 38.3877 311.149 38.424 310.936L38.4522 310.964Z" fill="white"/>
<path d="M48.5244 265.348L61.1534 264.769C61.1534 264.769 61.4077 268.286 59.656 268.427C57.9043 268.569 48.5244 265.348 48.5244 265.348Z" fill="#1F1F1F"/>
<path d="M377.598 326.122C380.857 325.982 384.001 324.878 386.632 322.951C389.263 321.023 391.263 318.359 392.38 315.294C393.496 312.229 393.678 308.902 392.903 305.734C392.128 302.566 390.431 299.698 388.026 297.495C385.621 295.292 382.616 293.851 379.393 293.356C376.169 292.861 372.871 293.333 369.915 294.713C366.96 296.093 364.48 298.319 362.79 301.108C361.1 303.898 360.276 307.126 360.421 310.385C360.615 314.749 362.533 318.857 365.754 321.807C368.974 324.758 373.234 326.31 377.598 326.122Z" fill="#292929"/>
<path d="M368.105 322.379L365.887 320.966L365.351 321.8L363.274 325.049C363.182 325.194 363.119 325.356 363.09 325.526C363.061 325.696 363.066 325.87 363.104 326.038C363.139 326.209 363.208 326.371 363.307 326.515C363.407 326.658 363.535 326.779 363.684 326.871C363.826 326.97 363.988 327.037 364.158 327.069C364.329 327.1 364.504 327.096 364.673 327.055C365.012 326.972 365.309 326.765 365.506 326.476L366.919 324.201L368.105 322.379Z" fill="#292929"/>
<path d="M386.398 321.785L388.489 320.189L388.927 320.768L391.399 324.046C391.505 324.183 391.582 324.34 391.626 324.507C391.669 324.675 391.679 324.849 391.653 325.02C391.601 325.37 391.42 325.688 391.145 325.91C391.009 326.012 390.856 326.089 390.693 326.136C390.52 326.172 390.343 326.172 390.17 326.136C389.996 326.12 389.828 326.067 389.676 325.981C389.531 325.895 389.406 325.78 389.308 325.642L387.613 323.41L386.398 321.785Z" fill="#292929"/>
<path d="M378.248 295.778L378.022 290.127C378.02 290.055 378.004 289.984 377.974 289.919C377.945 289.854 377.902 289.795 377.85 289.746C377.797 289.697 377.735 289.66 377.668 289.635C377.6 289.611 377.528 289.6 377.457 289.604H376.185C376.113 289.606 376.042 289.622 375.976 289.651C375.909 289.681 375.85 289.723 375.8 289.775C375.75 289.828 375.711 289.89 375.685 289.957C375.659 290.025 375.647 290.097 375.649 290.169L375.875 295.82C375.882 295.964 375.945 296.099 376.051 296.196C376.156 296.294 376.296 296.346 376.44 296.343H377.725C377.869 296.335 378.004 296.272 378.102 296.166C378.199 296.061 378.252 295.921 378.248 295.778Z" fill="#292929"/>
<path d="M369.758 293.277C365.992 295.902 362.693 299.139 359.997 302.855C362.039 301.751 363.886 300.319 365.464 298.617C369.349 294.605 369.758 293.277 369.758 293.277Z" fill="#292929"/>
<path d="M359.983 292.571L359.347 293.249C359.31 293.286 359.28 293.33 359.259 293.378C359.239 293.427 359.229 293.479 359.229 293.531C359.229 293.584 359.239 293.636 359.259 293.685C359.28 293.733 359.31 293.777 359.347 293.814L366.41 300.51C366.484 300.582 366.583 300.622 366.686 300.622C366.789 300.622 366.888 300.582 366.961 300.51L367.597 299.846C367.635 299.809 367.664 299.765 367.685 299.717C367.705 299.668 367.716 299.616 367.716 299.563C367.716 299.511 367.705 299.459 367.685 299.41C367.664 299.362 367.635 299.318 367.597 299.281L360.534 292.585C360.462 292.511 360.364 292.469 360.261 292.466C360.158 292.463 360.059 292.501 359.983 292.571Z" fill="#A8A8A8"/>
<path d="M360.011 302.855C359.445 302.269 359.003 301.575 358.711 300.815C358.418 300.055 358.281 299.244 358.307 298.43C358.333 297.616 358.523 296.816 358.864 296.076C359.205 295.337 359.691 294.673 360.294 294.125C365.746 288.573 369.772 293.277 369.772 293.277C366.005 295.91 362.701 299.152 359.997 302.869L360.011 302.855Z" fill="#EAEAEA"/>
<path d="M362.243 293.037C362.73 292.734 363.298 292.587 363.871 292.615C364.444 292.642 364.994 292.844 365.45 293.192L364.221 294.237L362.243 293.037Z" fill="white"/>
<path d="M364.955 294.845L365.76 295.481L367.173 294.294L366.424 293.644L364.955 294.845Z" fill="white"/>
<path d="M384.676 292.585C388.517 295.248 391.888 298.532 394.649 302.304C392.564 301.163 390.679 299.688 389.069 297.939C385.1 293.941 384.676 292.585 384.676 292.585Z" fill="#292929"/>
<path d="M386.836 299.253L387.486 299.931C387.523 299.968 387.567 299.998 387.615 300.019C387.664 300.039 387.716 300.049 387.769 300.049C387.821 300.049 387.873 300.039 387.922 300.019C387.97 299.998 388.014 299.968 388.051 299.931L395.227 293.079C395.265 293.043 395.294 293.001 395.314 292.953C395.335 292.906 395.345 292.855 395.345 292.804C395.345 292.752 395.335 292.701 395.314 292.654C395.294 292.606 395.265 292.564 395.227 292.528L394.578 291.836C394.542 291.799 394.499 291.769 394.452 291.749C394.404 291.729 394.354 291.718 394.302 291.718C394.251 291.718 394.2 291.729 394.152 291.749C394.105 291.769 394.062 291.799 394.027 291.836L386.85 298.673C386.808 298.708 386.773 298.752 386.749 298.801C386.725 298.851 386.711 298.905 386.71 298.96C386.709 299.015 386.719 299.069 386.741 299.12C386.763 299.171 386.795 299.216 386.836 299.253Z" fill="#A8A8A8"/>
<path d="M394.621 302.318C395.192 301.719 395.639 301.012 395.933 300.237C396.228 299.463 396.365 298.638 396.336 297.81C396.307 296.982 396.113 296.168 395.765 295.417C395.417 294.665 394.922 293.99 394.31 293.432C388.659 287.782 384.647 292.599 384.647 292.599C388.492 295.258 391.863 298.543 394.621 302.318Z" fill="#EAEAEA"/>
<path d="M395.087 295.453C395.424 295.916 395.606 296.475 395.606 297.049C395.606 297.623 395.424 298.182 395.087 298.645L393.999 297.473L395.087 295.453Z" fill="white"/>
<path d="M393.419 298.207L392.798 299.041L394.027 300.453L394.634 299.676L393.419 298.207Z" fill="white"/>
<path d="M369.023 322.096L366.805 320.683L366.254 321.517L364.192 324.766C364.094 324.904 364.031 325.064 364.008 325.232C363.973 325.403 363.974 325.579 364.01 325.749C364.047 325.919 364.118 326.08 364.22 326.221C364.317 326.363 364.442 326.483 364.587 326.574C364.734 326.669 364.897 326.736 365.068 326.772C365.235 326.808 365.409 326.808 365.576 326.772C365.747 326.736 365.91 326.669 366.057 326.574C366.202 326.476 366.323 326.345 366.41 326.193L367.822 323.933L369.023 322.096Z" fill="#A8A8A8"/>
<path d="M367.865 323.848L369.024 322.025L366.792 320.613L366.255 321.46L367.865 323.848Z" fill="#292929"/>
<path d="M387.289 321.418L389.408 319.822L389.832 320.415L392.304 323.693C392.415 323.828 392.493 323.988 392.53 324.159C392.558 324.327 392.558 324.499 392.53 324.667C392.503 324.836 392.446 324.999 392.36 325.148C392.269 325.301 392.149 325.435 392.007 325.543C391.728 325.753 391.378 325.844 391.033 325.798C390.688 325.742 390.376 325.561 390.157 325.289L388.476 323.057L387.289 321.418Z" fill="#A8A8A8"/>
<path d="M388.476 323.057L387.232 321.418L389.351 319.822L389.789 320.415L388.476 323.057Z" fill="#292929"/>
<path d="M378.305 325.444C381.563 325.301 384.705 324.195 387.334 322.266C389.963 320.337 391.961 317.672 393.076 314.607C394.19 311.542 394.37 308.215 393.593 305.048C392.817 301.881 391.119 299.015 388.713 296.813C386.308 294.611 383.303 293.172 380.08 292.678C376.857 292.184 373.559 292.657 370.605 294.037C367.65 295.417 365.172 297.643 363.482 300.432C361.792 303.221 360.968 306.449 361.113 309.707C361.207 311.869 361.727 313.992 362.642 315.954C363.558 317.915 364.85 319.677 366.447 321.139C368.044 322.6 369.913 323.733 371.947 324.472C373.982 325.21 376.142 325.541 378.305 325.444Z" fill="#A8A8A8"/>
<path d="M378.177 322.591C380.871 322.473 383.47 321.56 385.645 319.965C387.82 318.37 389.473 316.166 390.395 313.632C391.317 311.097 391.466 308.346 390.824 305.727C390.183 303.107 388.778 300.737 386.789 298.916C384.8 297.095 382.315 295.905 379.65 295.496C376.984 295.087 374.257 295.478 371.814 296.62C369.371 297.762 367.321 299.602 365.924 301.909C364.527 304.216 363.845 306.885 363.966 309.58C364.127 313.189 365.714 316.587 368.379 319.026C371.044 321.466 374.568 322.748 378.177 322.591Z" fill="white"/>
<path d="M376.016 319.581V319.313H376.257V319.567L376.016 319.581ZM374.025 319.087L373.784 319.002L373.883 318.748L374.109 318.833L374.025 319.087ZM378.361 319.68V319.412H378.587V319.666L378.361 319.68ZM371.948 318.07L371.722 317.929L371.863 317.717L372.075 317.858L371.948 318.07ZM380.65 319.257L380.551 319.016L380.791 318.932L380.876 319.186L380.65 319.257ZM370.112 316.643L369.942 316.459L370.126 316.276L370.295 316.459L370.112 316.643ZM382.825 318.366L382.712 318.14L382.924 318.013L383.051 318.239L382.825 318.366ZM368.699 314.849L368.558 314.623L368.784 314.496L368.911 314.708L368.699 314.849ZM384.761 317.039L384.577 316.841L384.761 316.671L384.944 316.855L384.761 317.039ZM367.639 312.8L367.541 312.546L367.795 312.461L367.88 312.702L367.639 312.8ZM386.329 315.329L386.117 315.174L386.258 314.976L386.47 315.117L386.329 315.329ZM367.046 310.554V310.286H367.315V310.54L367.046 310.554ZM387.487 313.38L387.261 313.267L387.36 313.041L387.586 313.154C387.559 313.236 387.526 313.316 387.487 313.394V313.38ZM366.947 308.28C366.947 308.195 366.947 308.11 366.947 308.011H367.202C367.228 308.089 367.228 308.174 367.202 308.252L366.947 308.28ZM387.939 311.105C387.939 311.006 387.939 310.922 387.939 310.851H388.193C388.2 310.936 388.2 311.021 388.193 311.105H387.939ZM367.611 306.048L367.357 305.977C367.387 305.894 367.411 305.809 367.428 305.723L367.682 305.808C367.682 305.906 367.682 305.977 367.611 306.062V306.048ZM388.151 308.873V308.576H388.405V308.873H388.151ZM368.459 303.971L368.233 303.858L368.36 303.632L368.586 303.759L368.459 303.971ZM387.77 306.556V306.302L388.01 306.231C388.023 306.319 388.047 306.404 388.08 306.486L387.77 306.556ZM369.674 302.092L369.476 301.908L369.645 301.725L369.843 301.894L369.674 302.092ZM387.063 304.338C387.031 304.265 386.993 304.194 386.95 304.126L387.176 303.999L387.303 304.239L387.063 304.338ZM371.383 300.482L371.228 300.27L371.439 300.128L371.595 300.34L371.383 300.482ZM385.877 302.431L385.721 302.233L385.919 302.064C385.968 302.136 386.025 302.202 386.089 302.262L385.877 302.431ZM373.375 299.337L373.262 299.097L373.502 298.998L373.601 299.238L373.375 299.337ZM384.28 300.821L384.097 300.651L384.266 300.453L384.464 300.623L384.28 300.821ZM375.522 298.645L375.451 298.391H375.72V298.645H375.522ZM382.387 299.578L382.161 299.464L382.274 299.224L382.5 299.337L382.387 299.578ZM377.768 298.433V298.179H378.022V298.447L377.768 298.433ZM380.268 298.758H380.028V298.504H380.297L380.268 298.758Z" fill="#292929"/>
<path d="M369.038 311.656C369.686 311.589 370.284 311.276 370.709 310.782C371.135 310.288 371.356 309.651 371.327 309C371.298 308.349 371.022 307.733 370.554 307.279C370.087 306.825 369.463 306.566 368.812 306.556C368.164 306.624 367.566 306.937 367.14 307.43C366.715 307.924 366.494 308.562 366.523 309.213C366.552 309.864 366.828 310.479 367.296 310.934C367.763 311.388 368.386 311.646 369.038 311.656Z" fill="white"/>
<path d="M386.78 310.526C387.282 310.503 387.767 310.332 388.171 310.034C388.576 309.736 388.884 309.325 389.055 308.852C389.227 308.38 389.254 307.867 389.134 307.379C389.014 306.891 388.752 306.449 388.381 306.11C388.01 305.77 387.547 305.548 387.05 305.472C386.553 305.396 386.045 305.469 385.59 305.681C385.134 305.894 384.752 306.237 384.491 306.667C384.23 307.096 384.103 307.594 384.124 308.096C384.139 308.43 384.219 308.758 384.361 309.061C384.502 309.364 384.702 309.636 384.948 309.862C385.195 310.088 385.484 310.262 385.798 310.376C386.113 310.49 386.446 310.541 386.78 310.526Z" fill="white"/>
<path d="M376.891 301.711C377.54 301.643 378.137 301.33 378.563 300.837C378.988 300.343 379.209 299.705 379.18 299.054C379.151 298.403 378.875 297.788 378.408 297.334C377.94 296.879 377.317 296.621 376.665 296.611C376.017 296.679 375.419 296.991 374.994 297.485C374.569 297.979 374.348 298.616 374.377 299.267C374.405 299.918 374.682 300.534 375.149 300.988C375.617 301.442 376.24 301.701 376.891 301.711Z" fill="white"/>
<path d="M378.417 320.175C378.923 320.155 379.411 319.985 379.82 319.687C380.229 319.389 380.541 318.977 380.716 318.502C380.89 318.027 380.92 317.51 380.801 317.018C380.682 316.526 380.419 316.081 380.047 315.738C379.675 315.395 379.209 315.171 378.709 315.093C378.209 315.015 377.697 315.088 377.238 315.301C376.779 315.514 376.394 315.859 376.131 316.292C375.868 316.724 375.739 317.225 375.761 317.731C375.774 318.066 375.853 318.395 375.993 318.7C376.134 319.005 376.333 319.278 376.58 319.506C376.827 319.733 377.117 319.909 377.432 320.024C377.747 320.139 378.082 320.19 378.417 320.175Z" fill="white"/>
<path d="M379.618 289.35L373.968 289.562C373.895 289.565 373.824 289.583 373.759 289.614C373.694 289.645 373.635 289.689 373.586 289.743C373.538 289.796 373.5 289.859 373.476 289.928C373.452 289.996 373.441 290.068 373.445 290.141V291.426C373.452 291.57 373.516 291.705 373.621 291.803C373.727 291.9 373.866 291.953 374.01 291.949L379.661 291.723C379.733 291.721 379.804 291.705 379.871 291.676C379.937 291.646 379.996 291.604 380.046 291.552C380.096 291.499 380.135 291.437 380.161 291.37C380.187 291.302 380.199 291.23 380.198 291.158L380.127 289.872C380.124 289.737 380.069 289.608 379.975 289.511C379.881 289.414 379.753 289.357 379.618 289.35Z" fill="#EAEAEA"/>
<path d="M377.655 314.807L377.443 309.58L373.728 301.993L374.434 301.64L378.206 309.368L378.432 314.778L377.655 314.807Z" fill="#292929"/>
<path d="M373.36 302.135L374.872 301.57C374.933 301.54 374.986 301.496 375.027 301.442C375.041 301.382 375.041 301.319 375.027 301.259C375.042 301.194 375.042 301.126 375.027 301.061C375.001 300.997 374.963 300.94 374.914 300.891L373.713 300.03H373.544C373.483 300.022 373.421 300.022 373.36 300.03C373.301 300.049 373.247 300.083 373.205 300.129C373.156 300.174 373.121 300.233 373.106 300.298L372.795 301.711C372.781 301.776 372.781 301.843 372.795 301.909C372.828 301.972 372.871 302.029 372.922 302.078C372.974 302.123 373.038 302.152 373.106 302.163C373.135 302.177 373.166 302.184 373.198 302.184C373.23 302.184 373.261 302.177 373.29 302.163L373.36 302.135Z" fill="#292929"/>
<path d="M377.033 315.16L377.909 316.572C377.95 316.626 378.003 316.67 378.064 316.7H378.262H378.446C378.509 316.672 378.56 316.622 378.587 316.558L379.195 315.216C379.231 315.159 379.25 315.093 379.25 315.026C379.25 314.958 379.231 314.892 379.195 314.835C379.158 314.782 379.109 314.739 379.053 314.708C378.993 314.692 378.93 314.692 378.87 314.708H377.457C377.392 314.694 377.324 314.694 377.259 314.708C377.205 314.747 377.158 314.795 377.118 314.849C377.103 314.914 377.103 314.982 377.118 315.047C377.084 315.079 377.055 315.118 377.033 315.16Z" fill="#292929"/>
<path d="M377.966 310.54C378.213 310.526 378.451 310.439 378.649 310.29C378.847 310.141 378.997 309.937 379.08 309.703C379.162 309.469 379.174 309.216 379.113 308.976C379.052 308.736 378.921 308.519 378.737 308.352C378.553 308.186 378.324 308.078 378.079 308.041C377.834 308.005 377.583 308.042 377.359 308.147C377.135 308.253 376.947 308.422 376.818 308.634C376.69 308.846 376.627 309.092 376.638 309.339C376.645 309.506 376.685 309.669 376.756 309.82C376.827 309.971 376.927 310.106 377.051 310.217C377.174 310.329 377.319 310.415 377.476 310.471C377.633 310.526 377.799 310.55 377.966 310.54Z" fill="#292929"/>
<path d="M375.635 298.08H375.268V297.473H376.313L376.44 300.298H375.762L375.635 298.08Z" fill="#292929"/>
<path d="M376.708 299.747C377.273 299.239 377.895 298.73 377.867 298.264C377.867 298.052 377.754 297.925 377.57 297.939C377.386 297.953 377.259 298.108 377.273 298.363H376.638C376.617 298.236 376.617 298.108 376.638 297.981C376.69 297.865 376.756 297.756 376.835 297.656C376.926 297.564 377.031 297.488 377.146 297.43C377.269 297.386 377.398 297.363 377.528 297.36C377.644 297.339 377.764 297.339 377.881 297.36C377.989 297.392 378.09 297.444 378.177 297.515C378.272 297.592 378.349 297.689 378.403 297.798C378.449 297.905 378.473 298.02 378.474 298.137C378.474 298.744 377.966 299.253 377.542 299.549H378.573V300.086L376.666 300.171L376.708 299.747Z" fill="#292929"/>
<path d="M388.108 306.556C388.701 306.556 389.026 306.853 389.04 307.277C389.056 307.41 389.026 307.544 388.956 307.658C388.885 307.772 388.782 307.86 388.659 307.913C388.805 307.946 388.934 308.029 389.024 308.148C389.115 308.266 389.161 308.413 389.153 308.562C389.175 308.679 389.175 308.799 389.153 308.916C389.106 309.021 389.039 309.117 388.956 309.198C388.871 309.28 388.77 309.343 388.659 309.382C388.552 309.409 388.441 309.409 388.334 309.382C388.204 309.41 388.069 309.41 387.939 309.382C387.812 309.35 387.696 309.286 387.6 309.198C387.499 309.119 387.417 309.018 387.361 308.903C387.305 308.788 387.275 308.662 387.275 308.534H387.882C387.876 308.581 387.876 308.629 387.882 308.675C387.892 308.72 387.917 308.76 387.953 308.789C387.992 308.822 388.034 308.85 388.08 308.873H388.221C388.262 308.888 388.307 308.888 388.348 308.873C388.388 308.862 388.423 308.837 388.447 308.803C388.447 308.803 388.447 308.732 388.447 308.69C388.461 308.653 388.461 308.613 388.447 308.577C388.447 308.322 388.292 308.238 387.953 308.252H387.84V307.715H387.953C388.179 307.715 388.391 307.715 388.376 307.39C388.383 307.374 388.387 307.357 388.387 307.34C388.387 307.323 388.383 307.307 388.376 307.291C388.366 307.25 388.341 307.215 388.306 307.192C388.306 307.192 388.306 307.192 388.207 307.192H388.108C388.067 307.179 388.022 307.179 387.981 307.192H387.896C387.896 307.192 387.896 307.192 387.896 307.291C387.884 307.333 387.884 307.377 387.896 307.418H387.275C387.247 307.302 387.247 307.181 387.275 307.065C387.319 306.95 387.392 306.847 387.487 306.768C387.568 306.679 387.67 306.611 387.783 306.571C387.9 306.549 388.02 306.549 388.136 306.571L388.108 306.556Z" fill="#292929"/>
<path d="M366.805 309.382C366.819 309.467 366.858 309.546 366.918 309.608C366.996 309.634 367.08 309.634 367.158 309.608C367.427 309.608 367.512 309.368 367.512 308.831C367.44 308.916 367.354 308.988 367.257 309.043C367.165 309.09 367.064 309.114 366.961 309.113C366.849 309.134 366.734 309.134 366.622 309.113C366.519 309.074 366.427 309.011 366.353 308.93C366.266 308.85 366.203 308.747 366.17 308.633C366.148 308.526 366.148 308.415 366.17 308.308C366.148 308.187 366.148 308.062 366.17 307.941C366.209 307.815 366.282 307.703 366.381 307.616C366.462 307.522 366.564 307.45 366.678 307.404C366.803 307.37 366.935 307.37 367.06 307.404C367.851 307.404 368.077 307.899 368.119 308.746C368.161 309.594 367.95 310.159 367.201 310.258C367.089 310.285 366.973 310.285 366.862 310.258C366.752 310.229 366.651 310.176 366.565 310.102C366.477 310.034 366.404 309.947 366.353 309.848C366.293 309.75 366.259 309.638 366.254 309.523L366.805 309.382ZM367.413 308.252C367.427 308.206 367.427 308.156 367.413 308.11C367.39 308.049 367.345 307.998 367.286 307.969C367.286 307.969 367.201 307.969 367.173 307.884H367.003H366.862C366.815 307.905 366.776 307.94 366.749 307.983C366.717 308.015 366.693 308.054 366.678 308.096C366.671 308.148 366.671 308.2 366.678 308.252C366.665 308.298 366.665 308.347 366.678 308.393C366.696 308.441 366.725 308.485 366.763 308.52H366.89H367.045H367.187C367.187 308.52 367.271 308.52 367.286 308.421C367.3 308.322 367.286 308.351 367.37 308.308C367.384 308.262 367.384 308.213 367.37 308.167L367.413 308.252Z" fill="#292929"/>
<path d="M378.587 318.847C378.595 318.81 378.595 318.771 378.587 318.734C378.594 318.701 378.594 318.668 378.587 318.635H378.474H378.347C378.064 318.635 377.965 318.903 377.994 319.44C378.047 319.338 378.131 319.254 378.234 319.2C378.338 319.159 378.448 319.131 378.559 319.115C378.671 319.095 378.786 319.095 378.898 319.115C379.007 319.156 379.105 319.224 379.18 319.313C379.262 319.392 379.325 319.489 379.364 319.596C379.384 319.708 379.384 319.823 379.364 319.935C379.392 320.056 379.392 320.181 379.364 320.302C379.332 320.428 379.263 320.541 379.166 320.627C379.087 320.722 378.985 320.795 378.87 320.839C378.744 320.867 378.614 320.867 378.488 320.839C377.655 320.839 377.429 320.274 377.4 319.426C377.372 318.579 377.641 318.013 378.347 318.013C378.458 317.984 378.575 317.984 378.686 318.013C378.795 318.042 378.897 318.095 378.983 318.169C379.083 318.234 379.161 318.328 379.209 318.437C379.254 318.535 379.278 318.641 379.279 318.748L378.587 318.847ZM377.951 319.977C377.945 320.033 377.945 320.09 377.951 320.147C377.966 320.197 377.995 320.241 378.036 320.274C378.081 320.316 378.134 320.35 378.192 320.373H378.361C378.451 320.354 378.531 320.304 378.587 320.231C378.648 320.161 378.678 320.07 378.672 319.977C378.669 319.884 378.634 319.794 378.573 319.723C378.503 319.656 378.414 319.611 378.319 319.596H378.163L378.036 319.666L377.937 319.793C377.937 319.793 377.937 319.906 377.937 319.949L377.951 319.977Z" fill="#292929"/>
<path d="M391.16 308.435C391.013 304.823 389.444 301.415 386.795 298.956C385.483 297.733 383.948 296.774 382.274 296.131C380.597 295.522 378.817 295.243 377.033 295.311C373.43 295.458 370.031 297.028 367.582 299.675C365.133 302.323 363.833 305.834 363.966 309.438C363.966 309.438 364.574 296.724 377.203 296.187C389.069 295.778 391.16 308.435 391.16 308.435Z" fill="#292929"/>
<path d="M395.906 303.067C395.899 303.03 395.899 302.991 395.906 302.954C396.913 302.188 397.59 301.066 397.799 299.818C398.216 298.258 397.998 296.597 397.191 295.198H397.304C397.327 295.192 397.352 295.192 397.375 295.198C397.792 295.92 398.063 296.717 398.172 297.544C398.281 298.37 398.226 299.21 398.01 300.016C397.781 301.334 397.059 302.516 395.99 303.321L395.906 303.067Z" fill="#292929"/>
<path d="M397.742 302.092V301.993C398.094 301.553 398.357 301.05 398.519 300.51C398.93 299.326 399.027 298.056 398.801 296.823H398.9C398.9 296.823 398.9 296.823 398.9 296.908C399.14 298.191 399.042 299.515 398.618 300.75C398.451 301.335 398.157 301.875 397.756 302.332H397.657L397.742 302.092Z" fill="#292929"/>
<path d="M361.494 291.991H361.423C361.417 291.978 361.414 291.964 361.414 291.949C361.414 291.934 361.417 291.92 361.423 291.907C361.417 291.891 361.413 291.874 361.413 291.857C361.413 291.84 361.417 291.823 361.423 291.808C362.533 290.802 363.969 290.231 365.467 290.2C366.965 290.169 368.423 290.679 369.574 291.638C369.559 291.646 369.542 291.65 369.525 291.65C369.507 291.65 369.491 291.646 369.475 291.638H369.39C368.302 290.695 366.904 290.188 365.464 290.214C364.025 290.24 362.646 290.798 361.593 291.779L361.494 291.991Z" fill="#292929"/>
<path d="M383.503 292.754C382.705 292.454 381.876 292.246 381.031 292.133V292.062C381.031 292.062 381.031 292.062 381.13 292.062C381.999 292.187 382.851 292.405 383.673 292.712V292.811L383.503 292.754Z" fill="#292929"/>
<path d="M37.1387 23.5356C37.1387 36.5325 54.3022 47.0712 75.4776 47.0712C80.9348 47.0862 86.368 46.3493 91.6241 44.8815C93.6441 47.6222 98.1081 49.5293 103.307 49.5293C110.37 49.5293 116.133 45.9835 116.133 41.6041C116.133 38.5668 113.308 35.9533 109.296 34.5406C112.098 31.528 113.696 27.592 113.788 23.4791C113.788 10.5388 96.6248 0 75.4635 0C54.3022 0 37.1387 10.5529 37.1387 23.5356Z" fill="#A8A8A8"/>
<path d="M76.0141 8.99897C74.6458 9.03562 73.3469 9.60902 72.3978 10.5953C71.9579 11.0456 71.6036 11.5721 71.3524 12.1493C71.1077 12.6948 70.9917 13.2894 71.0134 13.8869C71.0009 14.2275 71.0687 14.5662 71.2111 14.8758C71.3113 15.0797 71.4562 15.2583 71.6349 15.3985C71.7686 15.5123 71.929 15.5901 72.1011 15.6245C72.2184 15.6393 72.337 15.6393 72.4543 15.6245C72.739 15.623 73.0195 15.5553 73.2736 15.4268C73.4736 15.3178 73.6628 15.1901 73.8386 15.0453L74.3048 14.678C74.4729 14.5717 74.6725 14.5268 74.8699 14.5509C75.0585 14.5423 75.247 14.5716 75.4241 14.6372C75.6012 14.7027 75.7634 14.803 75.9011 14.9323C76.0739 15.1023 76.2045 15.3103 76.2825 15.5398C76.4056 15.8302 76.4681 16.1426 76.4662 16.458C76.4827 16.8891 76.3748 17.3157 76.1554 17.6871C75.9429 18.055 75.6538 18.373 75.3078 18.6195C74.9564 18.8903 74.5593 19.0961 74.1353 19.2269C73.7191 19.3626 73.2869 19.4433 72.8498 19.4671C72.2688 19.496 71.6879 19.4095 71.1405 19.2128C70.6089 19.0056 70.1274 18.6878 69.7279 18.2804C68.8873 17.2727 68.4495 15.9894 68.4989 14.678C68.4288 13.5081 68.6778 12.3411 69.2193 11.3017C69.7059 10.3647 70.402 9.5525 71.2535 8.92833C72.1532 8.28055 73.1632 7.80186 74.2342 7.51563C75.3583 7.17939 76.5222 6.99411 77.6951 6.96468C79.0034 6.92327 80.3099 7.09017 81.5658 7.45912C82.6701 7.77482 83.7084 8.28686 84.6312 8.97071C85.487 9.627 86.1906 10.4607 86.6936 11.4147C87.2075 12.4066 87.4832 13.5045 87.4988 14.6215C87.558 15.7793 87.3653 16.9361 86.9338 18.012C86.5367 18.9557 86.0037 19.8362 85.3516 20.6255C84.6888 21.4014 83.9661 22.1241 83.1903 22.7869C82.4134 23.4368 81.6647 24.0866 80.9442 24.7789C80.2668 25.4412 79.652 26.1647 79.1078 26.9403C78.5686 27.7211 78.2159 28.6152 78.0766 29.5538L76.2825 29.6668C76.2568 28.8148 76.352 27.9634 76.565 27.1381C76.7777 26.3539 77.042 25.5847 77.3561 24.8354C77.6857 24.1008 78.0389 23.3661 78.4156 22.6315C78.797 21.8687 79.1502 21.0917 79.4609 20.3006C79.7883 19.4644 80.0527 18.605 80.252 17.7295C80.474 16.7092 80.5642 15.6647 80.5204 14.6215C80.5099 13.8349 80.4056 13.0524 80.2096 12.2906C80.0523 11.6393 79.7692 11.025 79.3762 10.4823C79.0133 9.98747 78.5259 9.59754 77.9635 9.35214C77.3438 9.08872 76.6727 8.96802 76 8.99897H76.0141ZM74.0364 36.3348C74.0177 35.8496 74.0969 35.3657 74.2692 34.9119C74.4415 34.458 74.7035 34.0435 75.0394 33.693C75.3609 33.3447 75.7503 33.0659 76.1836 32.8736C76.6218 32.6526 77.1055 32.5365 77.5963 32.5346C78.0803 32.5115 78.5633 32.5985 79.0089 32.7889C79.462 32.9623 79.8763 33.2238 80.2277 33.5583C80.5792 33.8928 80.8609 34.2936 81.0566 34.7376C81.2523 35.1815 81.3581 35.6599 81.3679 36.145C81.3777 36.6301 81.2913 37.1123 81.1137 37.5638C80.7719 38.4385 80.1104 39.1506 79.2632 39.5557C78.3646 39.9373 77.3544 39.9626 76.4379 39.6263C75.5637 39.2818 74.8555 38.6141 74.4602 37.7616C74.2493 37.3182 74.1247 36.8388 74.0929 36.3489L74.0364 36.3348Z" fill="white"/>
<path d="M72.8215 139.278V139.42C73.0742 139.931 73.2185 140.489 73.2453 141.058C73.2918 141.633 73.2147 142.211 73.0193 142.754C72.8427 143.274 72.5642 143.754 72.2 144.166C71.8383 144.577 71.3959 144.909 70.9004 145.141C69.8562 145.637 68.6589 145.703 67.5665 145.325C67.0436 145.153 66.5624 144.874 66.1539 144.505C65.7439 144.151 65.4079 143.718 65.1651 143.234C64.9013 142.716 64.752 142.147 64.7271 141.567C64.6964 140.986 64.7828 140.404 64.9814 139.857C65.3563 138.811 66.1274 137.953 67.1286 137.47C67.6544 137.201 68.2333 137.051 68.8238 137.032C69.3995 136.991 69.9772 137.073 70.5189 137.272C71.0379 137.466 71.5168 137.753 71.9316 138.12C72.299 138.458 72.6092 138.854 72.8498 139.292L72.8215 139.278ZM65.7584 142.965C65.957 143.37 66.2357 143.731 66.5777 144.025C67.3068 144.672 68.2617 145.005 69.235 144.952C70.2083 144.899 71.1215 144.465 71.7762 143.742C72.0854 143.396 72.3252 142.993 72.4825 142.556C72.717 141.862 72.7484 141.116 72.5733 140.405C72.3981 139.695 72.0235 139.049 71.4937 138.544C71.1425 138.23 70.7351 137.985 70.2929 137.823C69.8423 137.653 69.3608 137.581 68.8803 137.611C68.1558 137.651 67.4592 137.904 66.8785 138.339C66.2977 138.774 65.8588 139.371 65.6171 140.055C65.4495 140.507 65.3727 140.987 65.3911 141.468C65.4262 141.959 65.5557 142.439 65.7725 142.881L65.7584 142.965ZM62.1561 140.86L62.2974 143.29H61.9866C61.0384 143.337 60.0881 143.257 59.1613 143.05C58.2935 142.85 57.4432 142.581 56.6186 142.245C55.8134 141.92 54.9941 141.567 54.1747 141.171C53.3554 140.776 52.5502 140.437 51.6885 140.126C50.7676 139.8 49.8231 139.545 48.8632 139.363C47.8101 139.175 46.7384 139.113 45.6707 139.179C44.8438 139.219 44.024 139.352 43.2268 139.575C42.5772 139.761 41.9685 140.067 41.4327 140.479C40.9575 140.851 40.5835 141.337 40.345 141.892C40.0879 142.523 39.9815 143.205 40.0342 143.884C40.0739 144.594 40.2514 145.29 40.5569 145.932C40.8601 146.535 41.2664 147.08 41.7577 147.543C42.227 147.978 42.7731 148.323 43.3681 148.56C43.9234 148.786 44.5204 148.892 45.1197 148.87C45.4425 148.871 45.7612 148.798 46.0521 148.659C46.2329 148.572 46.3885 148.441 46.5041 148.277C46.5932 148.16 46.6559 148.025 46.6878 147.882C46.7017 147.783 46.7017 147.683 46.6878 147.585C46.7088 147.361 46.6848 147.135 46.6171 146.921C46.5081 146.721 46.3804 146.532 46.2357 146.356L45.8402 145.861C45.6713 145.647 45.5726 145.385 45.5576 145.113C45.5223 144.893 45.5223 144.669 45.5576 144.449C45.6393 144.2 45.7689 143.97 45.9391 143.771C46.1428 143.541 46.3932 143.358 46.6736 143.234C47.0213 143.08 47.3953 142.993 47.7755 142.98C48.2903 142.95 48.8032 143.063 49.2588 143.304C49.6861 143.554 50.0643 143.88 50.3747 144.265C50.7038 144.689 50.9571 145.167 51.1234 145.678C51.2857 146.134 51.3901 146.608 51.4342 147.09C51.4896 147.755 51.4079 148.423 51.1941 149.054C50.9762 149.683 50.6243 150.256 50.1628 150.735C49.0599 151.731 47.6228 152.276 46.1368 152.261C44.8496 152.368 43.5572 152.129 42.3933 151.569C41.3171 151.051 40.3746 150.292 39.6387 149.351C38.8849 148.382 38.3108 147.287 37.9435 146.116C37.5514 144.874 37.3188 143.588 37.2513 142.287C37.1616 140.863 37.2902 139.434 37.6328 138.049C37.9542 136.81 38.4948 135.637 39.229 134.588C39.9339 133.616 40.8397 132.806 41.8848 132.215C42.9829 131.609 44.2061 131.266 45.4588 131.212C46.7435 131.116 48.0339 131.294 49.2446 131.734C50.3287 132.107 51.3484 132.646 52.2677 133.331C53.1248 134.022 53.919 134.788 54.6409 135.619C55.3614 136.439 56.0535 137.23 56.8587 137.964C57.5696 138.678 58.3559 139.313 59.2037 139.857C60.0182 140.394 60.9471 140.733 61.916 140.846L62.1561 140.86ZM61.6335 142.683L61.5628 141.355C60.5877 141.213 59.6564 140.856 58.8364 140.31C57.9642 139.725 57.1505 139.058 56.4067 138.318C55.6439 137.569 54.8952 136.764 54.1747 135.944C53.4564 135.141 52.672 134.399 51.8298 133.726C50.9679 133.064 50.0167 132.526 49.0045 132.13C47.8702 131.719 46.6614 131.556 45.4588 131.65C44.3033 131.695 43.1752 132.015 42.1673 132.582C41.1902 133.124 40.3458 133.877 39.6952 134.786C39.0049 135.77 38.4976 136.871 38.1978 138.035C37.857 139.372 37.733 140.755 37.8305 142.132C37.9004 143.375 38.1283 144.605 38.5086 145.791C38.8594 146.904 39.4046 147.947 40.119 148.87C40.8002 149.732 41.6638 150.431 42.6476 150.919C43.7217 151.426 44.9108 151.641 46.0945 151.541C47.4429 151.54 48.7427 151.036 49.7391 150.128C50.1337 149.724 50.4413 149.243 50.6431 148.715C50.8308 148.166 50.8935 147.582 50.8268 147.006C50.803 146.561 50.7125 146.123 50.5584 145.706C50.4117 145.283 50.197 144.887 49.9227 144.534C49.666 144.199 49.344 143.92 48.9762 143.714C48.623 143.519 48.2205 143.43 47.8179 143.46C47.5152 143.463 47.2166 143.53 46.942 143.658C46.7414 143.745 46.5592 143.87 46.4052 144.025C46.1915 144.283 46.0763 144.608 46.0803 144.943C46.0841 145.095 46.1333 145.243 46.2216 145.367L46.6313 145.847C46.7948 146.052 46.9413 146.269 47.0692 146.497C47.2336 146.812 47.3253 147.159 47.3376 147.514C47.3515 147.66 47.3515 147.807 47.3376 147.952C47.2936 148.183 47.1969 148.401 47.055 148.588C46.8828 148.831 46.6552 149.029 46.3911 149.167C46.0181 149.339 45.6148 149.435 45.2045 149.45C44.5195 149.479 43.836 149.363 43.1985 149.111C42.5369 148.84 41.9292 148.452 41.4045 147.966C40.8643 147.453 40.4153 146.851 40.0766 146.186C39.7392 145.472 39.5426 144.7 39.4974 143.912C39.4367 143.137 39.5576 142.358 39.8506 141.637C40.1301 140.989 40.5671 140.421 41.122 139.985C41.7261 139.526 42.4115 139.186 43.142 138.982C43.9798 138.742 44.8426 138.599 45.713 138.558C46.8329 138.489 47.957 138.556 49.061 138.756C50.0211 138.949 50.9655 139.213 51.8863 139.547C52.7762 139.872 53.6379 140.225 54.4431 140.606C55.2483 140.988 56.0394 141.355 56.8446 141.666C57.6432 141.986 58.4649 142.246 59.3026 142.443C60.07 142.627 60.8587 142.708 61.6476 142.683H61.6335Z" fill="#EAEAEA"/>
<path d="M62.1559 87.757C61.9701 88.2049 61.8741 88.6849 61.8733 89.1697C61.8656 89.6075 61.9374 90.0431 62.0852 90.4553C62.2274 90.8501 62.4431 91.2144 62.7209 91.5289C62.9833 91.8186 63.3001 92.0538 63.6533 92.2212C63.8588 92.3096 64.0794 92.3576 64.3031 92.3624C64.4549 92.3651 64.6051 92.3311 64.741 92.2635C64.8457 92.2085 64.9373 92.1314 65.0094 92.0375C65.0569 91.9726 65.095 91.9012 65.1224 91.8256C65.2075 91.6545 65.2511 91.4657 65.2496 91.2746C65.2496 91.1334 65.2496 90.978 65.2496 90.8367L65.1083 90.4129C65.0663 90.2892 65.0663 90.1551 65.1083 90.0315C65.1561 89.9292 65.2179 89.8341 65.2919 89.7489C65.3877 89.6607 65.4975 89.5891 65.6168 89.537C65.775 89.5017 65.939 89.5017 66.0971 89.537C66.3025 89.5535 66.5033 89.6061 66.6904 89.6924C66.9514 89.8035 67.1729 89.9905 67.3261 90.2292C67.4805 90.4613 67.5907 90.72 67.651 90.9921C67.7464 91.26 67.7989 91.5413 67.8064 91.8256C67.771 92.1173 67.6949 92.4026 67.5804 92.6732C67.4362 93.0276 67.2179 93.3471 66.9402 93.6102C66.6624 93.8734 66.3317 94.0741 65.97 94.1989C65.1323 94.4248 64.2404 94.329 63.4696 93.9305C62.7534 93.6264 62.1298 93.1392 61.6615 92.5178C61.2206 91.9722 60.9069 91.3352 60.7432 90.6531C60.609 89.9293 60.609 89.1871 60.7432 88.4634C60.8616 87.6743 61.0849 86.9047 61.4072 86.1748C61.7561 85.3773 62.2333 84.6424 62.8198 83.9992C63.3171 83.4185 63.9213 82.9389 64.5997 82.5865C65.2504 82.2447 65.9708 82.0567 66.7056 82.0371C67.4403 82.0175 68.1697 82.1668 68.8376 82.4735C69.5422 82.7735 70.177 83.216 70.7023 83.7732C71.1576 84.2841 71.5338 84.8602 71.8183 85.4826C72.1007 86.0919 72.3276 86.7255 72.4964 87.3756C72.6659 88.0396 72.8495 88.6753 73.0473 89.2969C73.2459 89.899 73.5013 90.4808 73.8101 91.0345C74.1109 91.6031 74.5477 92.0884 75.0815 92.4472L74.6153 93.5067C74.1042 93.2793 73.6285 92.9796 73.2027 92.6167C72.7937 92.2689 72.4113 91.8912 72.0585 91.4866C71.7053 91.0769 71.3663 90.6672 71.0272 90.2292C70.689 89.7807 70.3259 89.3515 69.9395 88.9437C69.5313 88.5026 69.0872 88.0962 68.6116 87.7288C68.0812 87.3201 67.5023 86.9785 66.8882 86.7116C66.3794 86.4696 65.8435 86.2894 65.2919 86.1748C64.8575 86.097 64.4126 86.097 63.9782 86.1748C63.5796 86.2613 63.207 86.4403 62.8904 86.6975C62.5656 86.9797 62.3095 87.3325 62.1418 87.7288L62.1559 87.757ZM77.9774 96.7277C77.6762 96.5928 77.4056 96.398 77.1822 96.1551C76.9587 95.9122 76.7871 95.6264 76.6778 95.315C76.5579 95.029 76.5001 94.7208 76.5083 94.4109C76.5082 94.0805 76.5755 93.7537 76.706 93.4502C76.8351 93.1451 77.0334 92.8742 77.2852 92.6591C77.5144 92.4401 77.7848 92.2688 78.0805 92.1548C78.3763 92.0408 78.6918 91.9866 79.0086 91.9951C79.3341 91.9981 79.6557 92.0653 79.9551 92.1929C80.2582 92.3254 80.5284 92.5231 80.7462 92.7721C80.9577 92.9983 81.1253 93.2617 81.2406 93.5491C81.487 94.1463 81.487 94.8167 81.2406 95.4139C81.1169 95.707 80.9342 95.9715 80.7038 96.1908C80.4761 96.4142 80.2075 96.5917 79.9127 96.7136C79.6153 96.8266 79.2984 96.8794 78.9804 96.869C78.6575 96.8708 78.3385 96.7983 78.048 96.657L77.9774 96.7277Z" fill="#A8A8A8"/>
<path d="M309.777 32.3509C309.139 31.9584 308.428 31.699 307.687 31.588C306.98 31.4934 306.262 31.5269 305.568 31.6869C304.906 31.8372 304.278 32.1103 303.717 32.4922C303.182 32.8627 302.734 33.3446 302.403 33.9049C302.206 34.2135 302.076 34.56 302.022 34.922C301.966 35.1637 301.966 35.4149 302.022 35.6566C302.093 35.8322 302.194 35.9945 302.319 36.1369C302.408 36.2243 302.507 36.3003 302.615 36.363C302.868 36.5339 303.159 36.6406 303.463 36.6738C303.707 36.702 303.953 36.702 304.197 36.6738H304.833C305.043 36.6593 305.251 36.7139 305.426 36.8292C305.784 37.0423 306.042 37.3873 306.147 37.7898C306.197 38.0512 306.197 38.3195 306.147 38.5809C306.075 38.9071 305.946 39.218 305.765 39.4992C305.537 39.8972 305.199 40.2209 304.791 40.4315C304.38 40.6326 303.934 40.7525 303.477 40.7847C303.002 40.8257 302.524 40.7826 302.064 40.6576C301.603 40.5439 301.16 40.363 300.751 40.1207C300.201 39.8241 299.719 39.415 299.338 38.92C298.978 38.4103 298.724 37.834 298.589 37.2247C298.396 35.8251 298.733 34.4038 299.536 33.2409C300.152 32.1568 301.044 31.2551 302.121 30.6274C303.112 30.0607 304.217 29.7228 305.356 29.6385C306.553 29.5617 307.754 29.7004 308.902 30.0482C310.126 30.4041 311.298 30.9169 312.391 31.5739C313.61 32.2893 314.707 33.1955 315.64 34.258C316.469 35.1837 317.116 36.2572 317.547 37.4225C317.964 38.5279 318.121 39.7145 318.006 40.8904C317.891 42.0663 317.506 43.1999 316.883 44.2035C316.272 45.2926 315.428 46.2333 314.411 46.9582C313.499 47.5761 312.499 48.0524 311.444 48.3709C310.399 48.7078 309.326 48.9489 308.238 49.0914C307.136 49.2327 306.076 49.4022 305.031 49.6C304.021 49.7972 303.032 50.0905 302.078 50.4759C301.158 50.8805 300.346 51.4949 299.705 52.27L298.067 51.2387C298.545 50.4472 299.13 49.7247 299.804 49.0914C300.453 48.5029 301.142 47.96 301.867 47.4668C302.587 46.9724 303.279 46.5062 304.099 46.0541C304.889 45.5982 305.653 45.0982 306.387 44.5566C307.179 43.9845 307.925 43.3516 308.619 42.6636C309.388 41.8913 310.052 41.0223 310.597 40.0784C311.045 39.3514 311.406 38.5736 311.67 37.7615C311.898 37.0796 311.994 36.3604 311.953 35.6425C311.907 34.9913 311.703 34.361 311.36 33.806C310.941 33.2205 310.395 32.7375 309.763 32.3933L309.777 32.3509ZM292.119 56.0702C292.396 55.6123 292.761 55.2138 293.193 54.8976C293.622 54.5955 294.1 54.3708 294.606 54.2336C295.104 54.1068 295.622 54.0781 296.131 54.1489C296.661 54.2199 297.171 54.3981 297.63 54.6725C298.089 54.9469 298.488 55.3119 298.801 55.7452C299.105 56.171 299.325 56.6503 299.451 57.1579C299.571 57.6572 299.6 58.1741 299.536 58.6837C299.448 59.2111 299.267 59.7184 298.999 60.1811C298.722 60.6348 298.357 61.0286 297.925 61.3395C297.291 61.8007 296.534 62.0615 295.75 62.0883C295.099 62.1054 294.454 61.9699 293.865 61.6927C293.276 61.4155 292.761 61.0042 292.36 60.4919C292.053 60.0662 291.828 59.5872 291.696 59.0792C291.604 58.57 291.604 58.0486 291.696 57.5394C291.783 57.0387 291.966 56.5593 292.232 56.1267L292.119 56.0702Z" fill="#A8A8A8"/>
<path d="M315.018 116.35C314.702 115.955 314.314 115.624 313.874 115.375C313.434 115.145 312.955 115.001 312.461 114.952C311.995 114.859 311.515 114.859 311.048 114.952C310.625 115.052 310.23 115.245 309.89 115.517C309.69 115.66 309.522 115.843 309.396 116.053C309.336 116.189 309.305 116.336 309.305 116.484C309.305 116.633 309.336 116.779 309.396 116.915C309.521 117.186 309.735 117.405 310.003 117.537L310.469 117.706L310.879 117.833C311.013 117.879 311.131 117.962 311.218 118.074C311.298 118.17 311.36 118.28 311.402 118.399C311.43 118.548 311.43 118.701 311.402 118.851C311.376 119.053 311.308 119.247 311.201 119.42C311.093 119.593 310.95 119.741 310.78 119.854C310.536 120.04 310.25 120.161 309.947 120.207C309.638 120.235 309.327 120.207 309.028 120.122C308.716 120.035 308.42 119.897 308.153 119.712C307.895 119.526 307.663 119.307 307.46 119.063C307.188 118.739 306.981 118.364 306.853 117.961C306.737 117.557 306.713 117.132 306.782 116.717C306.992 115.789 307.541 114.973 308.322 114.429C308.96 113.889 309.731 113.528 310.554 113.383C311.318 113.261 312.1 113.309 312.842 113.525C313.611 113.756 314.332 114.119 314.976 114.598C315.663 115.114 316.284 115.712 316.826 116.378C317.417 117.117 317.894 117.941 318.239 118.822C318.537 119.603 318.69 120.431 318.691 121.266C318.686 122.048 318.512 122.819 318.182 123.527C317.826 124.251 317.315 124.887 316.685 125.391C316.034 125.927 315.279 126.322 314.467 126.55C313.742 126.731 312.995 126.807 312.249 126.776C311.508 126.734 310.771 126.634 310.045 126.479C309.339 126.31 308.633 126.168 307.912 126.041C307.226 125.93 306.531 125.883 305.836 125.9C305.147 125.926 304.474 126.115 303.872 126.451L303.081 125.462C303.563 125.069 304.101 124.75 304.677 124.516C305.22 124.286 305.783 124.106 306.358 123.979C306.924 123.837 307.503 123.71 308.11 123.611C308.716 123.51 309.315 123.373 309.904 123.202C310.534 123.031 311.148 122.809 311.741 122.538C312.413 122.227 313.044 121.833 313.619 121.365C314.065 121.009 314.473 120.606 314.834 120.164C315.131 119.782 315.361 119.352 315.512 118.893C315.625 118.462 315.625 118.01 315.512 117.579C315.395 117.1 315.168 116.655 314.848 116.28L315.018 116.35ZM298.349 127.143C298.632 126.915 298.959 126.747 299.309 126.649C299.637 126.565 299.976 126.536 300.312 126.564C300.653 126.607 300.984 126.713 301.287 126.875C301.606 127.046 301.885 127.282 302.106 127.567C302.335 127.843 302.499 128.166 302.587 128.514C302.677 128.852 302.699 129.205 302.651 129.552C302.602 129.899 302.484 130.233 302.304 130.534C302.13 130.846 301.9 131.124 301.626 131.353C301.343 131.581 301.016 131.749 300.666 131.847C300.329 131.911 299.984 131.911 299.648 131.847C299.308 131.812 298.977 131.711 298.674 131.551C298.288 131.333 297.959 131.029 297.713 130.661C297.469 130.294 297.323 129.871 297.289 129.432C297.261 128.999 297.329 128.565 297.487 128.16C297.665 127.755 297.936 127.397 298.278 127.115L298.349 127.143Z" fill="#DDDDDD"/>
<path d="M160.448 8.47626C159.98 8.67175 159.557 8.96012 159.205 9.32388C158.543 9.99421 158.151 10.884 158.103 11.8244C158.086 12.2549 158.163 12.684 158.329 13.0817C158.414 13.315 158.549 13.527 158.724 13.7033C158.841 13.8206 158.988 13.9036 159.148 13.9434C159.274 13.9714 159.404 13.9714 159.529 13.9434C159.609 13.958 159.69 13.958 159.77 13.9434C159.965 13.8745 160.14 13.7579 160.278 13.6044L160.575 13.2088L160.801 12.8415C160.873 12.724 160.982 12.6343 161.112 12.5872C161.231 12.5323 161.361 12.5035 161.493 12.5025C161.643 12.5031 161.792 12.5319 161.931 12.5872C162.096 12.6473 162.242 12.7496 162.355 12.8839C162.511 13.0534 162.635 13.2496 162.722 13.4631C162.844 13.7477 162.884 14.0612 162.835 14.3672C162.787 14.6693 162.676 14.9579 162.51 15.2148C162.335 15.4935 162.11 15.7377 161.846 15.9353C161.603 16.1375 161.332 16.304 161.041 16.4298C160.66 16.6082 160.246 16.7044 159.826 16.7123C159.402 16.7076 158.984 16.6162 158.597 16.4439C157.751 15.9857 157.109 15.2234 156.803 14.3107C156.466 13.548 156.334 12.7102 156.422 11.8809C156.511 11.1167 156.772 10.3826 157.185 9.73356C157.624 9.05403 158.178 8.45643 158.823 7.96768C159.503 7.44695 160.248 7.01935 161.041 6.69625C161.94 6.31708 162.894 6.08342 163.866 6.00403C164.701 5.91791 165.544 5.9898 166.353 6.21593C167.1 6.43848 167.786 6.83001 168.358 7.36022C168.977 7.88912 169.461 8.55727 169.771 9.30975C170.121 10.0763 170.294 10.9113 170.28 11.7537C170.265 12.5059 170.127 13.2505 169.87 13.9575C169.629 14.6541 169.331 15.3297 168.98 15.9777C168.627 16.6275 168.288 17.2774 167.977 17.9131C167.679 18.5386 167.443 19.1915 167.271 19.8626C167.106 20.5307 167.106 21.2289 167.271 21.8969L166.098 22.3772C165.859 21.809 165.702 21.2097 165.632 20.5972C165.59 20.0094 165.59 19.4192 165.632 18.8314C165.649 18.2402 165.701 17.6506 165.787 17.0655C165.787 16.4439 165.886 15.8364 165.9 15.2148C165.903 14.5624 165.855 13.9107 165.759 13.2653C165.645 12.5304 165.436 11.8133 165.138 11.1321C164.911 10.636 164.636 10.1629 164.318 9.71943C164.04 9.32779 163.69 8.99227 163.287 8.73054C162.912 8.48171 162.479 8.33557 162.03 8.30673C161.544 8.28401 161.06 8.37596 160.617 8.57515L160.448 8.47626ZM166.24 27.5336C166.036 27.049 165.978 26.5154 166.073 25.9984C166.169 25.4814 166.413 25.0035 166.776 24.6234C167.028 24.3723 167.325 24.171 167.652 24.0301C167.988 23.8895 168.348 23.8174 168.712 23.8182C169.055 23.8196 169.396 23.8867 169.715 24.016C170.026 24.1625 170.312 24.358 170.562 24.5952C170.817 24.8498 171.018 25.1523 171.155 25.4852C171.297 25.8154 171.369 26.1713 171.367 26.5306C171.354 26.87 171.282 27.2045 171.155 27.5195C171.019 27.8368 170.822 28.1247 170.576 28.3671C170.322 28.6217 170.019 28.8234 169.686 28.9604C169.356 29.1022 169 29.1743 168.641 29.1723C168.302 29.1695 167.966 29.1024 167.652 28.9746C167.344 28.8419 167.062 28.6553 166.819 28.4236C166.567 28.1697 166.37 27.8668 166.24 27.5336Z" fill="#DDDDDD"/>
<path d="M226.488 34.0179C226.027 33.9442 225.583 33.7913 225.174 33.5658C224.49 33.1909 223.935 32.6181 223.582 31.9223C223.23 31.2265 223.095 30.4403 223.197 29.6668C223.253 29.1419 223.411 28.6331 223.663 28.1693C223.903 27.7272 224.23 27.338 224.624 27.025C225.014 26.7106 225.46 26.4711 225.937 26.3187C226.444 26.1588 226.979 26.1106 227.505 26.1774C228.032 26.2266 228.542 26.3854 229.003 26.6436C229.887 27.1511 230.548 27.9733 230.853 28.9463C231.006 29.4541 231.054 29.9875 230.995 30.5144C230.943 31.042 230.779 31.5525 230.514 32.0119C230.269 32.4588 229.938 32.8526 229.54 33.1703C229.14 33.473 228.691 33.7026 228.212 33.8484C227.704 34.0012 227.17 34.0493 226.644 33.9896L226.488 34.0179ZM223.804 29.7798C223.752 30.2153 223.786 30.6569 223.903 31.0795C224.026 31.4997 224.227 31.8928 224.496 32.2379C224.764 32.5649 225.096 32.834 225.471 33.029C226.269 33.4523 227.2 33.5534 228.07 33.3116C228.48 33.1852 228.864 32.9841 229.2 32.7182C229.54 32.4569 229.823 32.1302 230.034 31.7576C230.254 31.3654 230.393 30.9331 230.444 30.4861C230.486 30.0394 230.443 29.5887 230.316 29.1582C230.118 28.5307 229.739 27.9759 229.226 27.5636C228.713 27.1514 228.09 26.9001 227.435 26.8414C226.984 26.7861 226.527 26.8246 226.093 26.9544C225.687 27.0883 225.309 27.2941 224.977 27.5619C224.645 27.8345 224.371 28.1707 224.172 28.5507C223.956 28.9387 223.821 29.3665 223.776 29.8081L223.804 29.7798ZM226.276 23.7052V23.3944C226.363 22.5309 226.572 21.6841 226.898 20.8798C227.219 20.1249 227.592 19.3933 228.014 18.6901C228.424 18.012 228.876 17.2774 229.356 16.6417C229.836 16.006 230.246 15.229 230.67 14.5367C231.095 13.7759 231.459 12.9822 231.757 12.1634C232.091 11.2524 232.309 10.3032 232.407 9.338C232.492 8.5917 232.492 7.8381 232.407 7.0918C232.34 6.47289 232.153 5.87301 231.856 5.32592C231.598 4.84187 231.218 4.43304 230.754 4.13925C230.222 3.81505 229.623 3.61692 229.003 3.56005C227.734 3.42749 226.463 3.79208 225.457 4.57719C224.992 4.9279 224.599 5.36426 224.299 5.86275C224.015 6.33192 223.836 6.85741 223.776 7.4026C223.736 7.68686 223.76 7.9765 223.847 8.25022C223.894 8.42236 223.986 8.57857 224.115 8.70228C224.205 8.80106 224.316 8.87831 224.44 8.92831H224.694C224.922 8.97804 225.158 8.97804 225.386 8.92831C225.577 8.86077 225.762 8.77564 225.937 8.67403L226.474 8.37736C226.7 8.25929 226.955 8.21017 227.209 8.23609C227.662 8.2929 228.076 8.52024 228.367 8.87181C228.546 9.09118 228.676 9.34652 228.748 9.62054C228.812 9.97085 228.812 10.3298 228.748 10.6801C228.702 11.1542 228.52 11.6052 228.226 11.9797C227.94 12.334 227.59 12.6311 227.195 12.8556C226.783 13.0878 226.333 13.2456 225.867 13.3218C225.399 13.4025 224.921 13.4025 224.454 13.3218C223.841 13.2858 223.244 13.1171 222.702 12.8274C222.147 12.5391 221.664 12.1285 221.29 11.6266C220.548 10.4767 220.266 9.09001 220.499 7.74164C220.634 6.56438 221.077 5.44362 221.784 4.49243C222.419 3.60201 223.244 2.86377 224.2 2.33099C225.207 1.7886 226.302 1.42983 227.435 1.27147C228.618 1.09966 229.819 1.07593 231.009 1.20083C232.319 1.33303 233.6 1.66659 234.809 2.18972C235.888 2.65173 236.87 3.31313 237.705 4.13925C238.509 4.92817 239.12 5.89143 239.493 6.95456C239.865 8.01768 239.988 9.15219 239.852 10.2704C239.74 11.4514 239.384 12.5962 238.806 13.6326C238.278 14.5417 237.622 15.3696 236.857 16.0907C236.128 16.7776 235.339 17.397 234.498 17.9414C233.664 18.4782 232.845 19.0291 232.068 19.5801C231.31 20.1242 230.61 20.7443 229.977 21.4307C229.375 22.0821 228.935 22.8661 228.692 23.7193L228.621 23.9595L226.276 23.7052ZM229.342 2.98084C229.969 3.05701 230.571 3.26914 231.108 3.60243C231.657 3.95584 232.109 4.44161 232.421 5.01513C232.775 5.64776 233 6.34379 233.085 7.06355C233.177 7.85672 233.177 8.65784 233.085 9.45101C232.974 10.4718 232.746 11.4766 232.407 12.4459C232.083 13.291 231.701 14.1123 231.263 14.904C230.839 15.6669 230.387 16.3874 229.921 17.0655C229.455 17.7436 229.017 18.3934 228.607 19.0715C228.201 19.7451 227.847 20.4488 227.548 21.1764C227.267 21.8344 227.082 22.5289 226.997 23.239L228.169 23.3661C228.44 22.5114 228.893 21.7257 229.497 21.0634C230.154 20.3332 230.883 19.6706 231.673 19.0856C232.464 18.5206 233.297 17.9555 234.145 17.4187C234.979 16.8986 235.764 16.3028 236.49 15.6386C237.22 14.9754 237.845 14.2035 238.34 13.3501C238.887 12.3931 239.215 11.3269 239.301 10.228C239.431 9.1985 239.321 8.15291 238.98 7.17275C238.64 6.19258 238.078 5.30431 237.337 4.57719C236.553 3.80473 235.634 3.18232 234.625 2.74068C233.47 2.2429 232.246 1.92375 230.995 1.79417C229.861 1.68118 228.717 1.70965 227.59 1.87893C226.535 2.02108 225.515 2.3563 224.581 2.86782C223.702 3.34538 222.944 4.01693 222.363 4.83148C221.745 5.72667 221.374 6.76978 221.29 7.85466C221.073 9.04102 221.294 10.2656 221.911 11.3017C222.234 11.717 222.638 12.063 223.098 12.3188C223.566 12.5623 224.082 12.6975 224.609 12.7144C225.008 12.7637 225.411 12.7637 225.81 12.7144C226.215 12.6456 226.603 12.5019 226.954 12.2905C227.287 12.1105 227.58 11.8655 227.816 11.5701C228.041 11.2855 228.178 10.9421 228.212 10.5812C228.268 10.311 228.268 10.032 228.212 9.76181C228.168 9.57045 228.081 9.39164 227.957 9.23911C227.856 9.1145 227.725 9.01736 227.576 8.95657C227.46 8.88518 227.33 8.84166 227.195 8.82942C227.071 8.78744 226.937 8.78744 226.813 8.82942L226.305 9.12609C226.099 9.24299 225.881 9.3377 225.655 9.40863C225.347 9.51877 225.018 9.55271 224.694 9.50752C224.559 9.48303 224.426 9.44518 224.299 9.39451C224.095 9.31958 223.911 9.19873 223.762 9.04133C223.569 8.85165 223.424 8.61936 223.338 8.36323C223.246 7.99208 223.246 7.60423 223.338 7.23307C223.407 6.6066 223.614 6.00333 223.945 5.46719C224.291 4.92222 224.731 4.44371 225.245 4.05449C225.785 3.63414 226.398 3.31795 227.053 3.12211C227.748 2.90846 228.479 2.84112 229.2 2.92433V3.221V2.92433L229.342 2.98084Z" fill="#DDDDDD"/>
<path d="M125.485 50.8574C125.485 49.2893 122.815 48.032 119.509 48.032C116.204 48.032 113.548 49.3034 113.548 50.8574C113.548 52.4114 116.218 53.6828 119.509 53.6828C122.801 53.6828 125.485 52.4396 125.485 50.8574Z" fill="#A8A8A8"/>
</g>
<defs>
<clipPath id="clip0_8577_19866">
<rect width="442" height="351" fill="white"/>
</clipPath>
</defs>
</svg>
