<svg width="247" height="216" viewBox="0 0 247 216" fill="none" xmlns="http://www.w3.org/2000/svg">
<path d="M0.672917 215.804H245.533C245.722 215.764 245.893 215.653 246.016 215.49C246.139 215.326 246.206 215.121 246.206 214.91C246.206 214.698 246.139 214.493 246.016 214.329C245.893 214.166 245.722 214.055 245.533 214.015H0.672917C0.483531 214.055 0.312769 214.166 0.189969 214.329C0.0671699 214.493 0 214.698 0 214.91C0 215.121 0.0671699 215.326 0.189969 215.49C0.312769 215.653 0.483531 215.764 0.672917 215.804V215.804Z" fill="black"/>
<path d="M181.424 70.6164C180.714 54.7551 167.074 41.9674 155.024 44.7664C138.364 28.0161 110.704 38.0597 103.434 55.5125C95.1242 75.3912 100.434 88.0144 90.8742 111.493C87.0942 120.67 83.3842 140.033 96.9742 155.191C118.144 178.956 163.444 171.075 178.584 172.304C207.814 169.362 190.984 120.856 185.584 104.249C182.364 94.0954 181.734 77.2024 181.424 70.6164Z" fill="black"/>
<path d="M97.8435 156.069C95.2835 143.754 96.7135 127.991 101.074 116.466C106.644 101.582 116.174 85.9838 131.224 81.5932C140.294 79.0137 151.314 80.265 158.754 87.0815C164.664 92.4929 167.004 100.594 171.374 107.487C185.864 130.351 184.954 155.652 183.624 166.761C162.404 168.177 116.904 175.717 97.8435 156.069Z" fill="#191717"/>
<path d="M111.214 160.131C111.284 160.559 110.704 160.888 110.544 160.449C107.614 152.436 106.154 139.835 111.544 132.602C111.576 132.568 111.617 132.548 111.661 132.543C111.704 132.537 111.748 132.548 111.786 132.573C111.823 132.598 111.852 132.636 111.868 132.681C111.884 132.725 111.886 132.775 111.874 132.821C109.444 141.251 109.884 151.47 111.214 160.131Z" fill="#3A3838"/>
<path d="M91.7838 147.76C91.5338 146.575 91.3338 145.389 91.1738 144.127C90.2638 137.179 92.4538 131.943 93.3939 125.291C93.3939 125.17 93.5838 125.159 93.5738 125.291C93.8738 130.253 92.0338 135.17 92.0138 140.296C92.0369 143.85 92.5736 147.377 93.6039 150.746C92.947 149.792 92.3394 148.799 91.7838 147.771V147.76Z" fill="#3A3838"/>
<path d="M178.582 170.822C185.322 168.144 187.092 161.481 187.582 158.748C188.839 151.452 188.815 143.96 187.512 136.674C187.497 136.574 187.518 136.471 187.572 136.388C187.635 136.326 187.71 136.281 187.792 136.257C187.831 136.237 187.874 136.227 187.917 136.227C187.96 136.227 188.003 136.237 188.042 136.257C188.086 136.275 188.125 136.307 188.155 136.347C188.185 136.387 188.205 136.436 188.212 136.487C190.552 144.939 192.542 161.81 184.302 170.789C179.832 172.699 178.582 172.304 178.582 170.822Z" fill="#3A3838"/>
<path d="M167.872 136.476C167.863 136.458 167.857 136.437 167.857 136.416C167.857 136.395 167.863 136.374 167.872 136.356C167.881 136.336 167.894 136.319 167.909 136.306C167.925 136.292 167.943 136.283 167.962 136.279C167.962 136.279 168.042 136.279 168.062 136.279C168.101 136.305 168.134 136.338 168.162 136.377C172.542 145.06 172.992 157.804 169.972 167.99L167.492 168.209C169.302 157.551 170.342 147.453 167.872 136.476Z" fill="#3A3838"/>
<path d="M154.433 143.315C154.511 145.192 154.484 147.072 154.353 148.946C153.926 150.974 153.148 152.893 152.063 154.599C152.015 154.684 151.94 154.747 151.853 154.774C151.768 154.807 151.677 154.807 151.593 154.774C151.551 154.763 151.512 154.742 151.479 154.711C151.446 154.681 151.42 154.642 151.403 154.599C151.384 154.554 151.375 154.505 151.375 154.456C151.375 154.407 151.384 154.358 151.403 154.313C151.7 152.364 152.104 150.436 152.613 148.54C152.95 146.728 153.371 144.937 153.873 143.172C153.907 143.132 153.943 143.096 153.983 143.062C154.045 143.051 154.11 143.051 154.173 143.062C154.241 143.078 154.304 143.116 154.353 143.172C154.398 143.231 154.426 143.304 154.433 143.381V143.315Z" fill="#9D1820"/>
<path d="M155.983 43.4823C155.983 43.4823 161.763 37.6099 165.373 36.9952C162.753 29.3666 160.623 32.3192 160.623 32.3192C160.623 32.3192 155.713 38.5429 155.983 43.4823Z" fill="#191717"/>
<path d="M154.853 42.2091C154.853 42.2091 156.723 33.6364 153.743 32.3301C150.763 31.0239 149.193 34.5803 149.193 34.5803L154.853 42.2091Z" fill="#191717"/>
<path d="M122.982 150.471C122.772 147.991 117.772 143.512 115.872 145.598C104.432 158.122 103.452 169.999 98.2525 187.386C96.1425 194.4 102.852 196.541 107.802 197.002C117.832 182.765 123.832 161.569 122.982 150.471Z" fill="#DDDDDD"/>
<path d="M151.143 155.905C151.403 153.446 159.063 146.542 160.403 149.089C169.113 165.4 171.003 172.798 175.713 190.273C177.613 197.287 167.653 193.643 162.713 194.049C155.053 180.998 149.903 166.991 151.143 155.905Z" fill="#DDDDDD"/>
<path d="M155.114 141.58C163.304 145.477 171.114 153.336 176.714 170.723C174.984 178.188 160.984 187.441 157.034 184.697C153.084 181.953 141.544 135.027 155.114 141.58Z" fill="#BFBFBF"/>
<path d="M178.583 172.304L176.743 166.113C176.743 166.113 164.243 179.746 154.562 181.887C155.673 187.627 157.173 188.549 157.173 188.549C157.173 188.549 175.453 182.677 178.583 172.304Z" fill="#BFBFBF"/>
<path d="M121.883 139.879C119.753 138.836 107.683 142.645 97.8828 162.721C98.9828 169.944 108.173 179.472 112.743 178.462C117.313 177.452 125.803 141.844 121.883 139.879Z" fill="#BFBFBF"/>
<path d="M114.492 176.442C114.492 176.442 101.982 169.044 98.9217 158.759C96.1517 160.317 95.7617 165.608 95.7617 165.608C95.7617 165.608 100.922 179.669 112.972 180.91C113.536 180.356 113.969 179.66 114.234 178.882C114.499 178.104 114.587 177.266 114.492 176.442V176.442Z" fill="#BFBFBF"/>
<path d="M154.883 142.623C158.383 159.889 157.233 191.48 158.883 213.971C158.883 213.971 141.943 214.323 131.303 214.059C120.403 213.84 108.373 214.399 107.523 213.971C109.073 200.723 118.093 142.788 120.063 140.362C123.203 136.476 153.643 136.553 154.883 142.623Z" fill="#EAEAEA"/>
<path d="M152.643 188.912C155.439 172.876 155.456 156.405 152.693 140.362C153.903 140.999 154.693 141.756 154.883 142.623C158.383 159.889 157.233 191.48 158.883 213.971C158.223 214.158 147.273 214.158 139.373 213.971C147.123 208.264 150.753 199.603 152.643 188.912Z" fill="#BFBFBF"/>
<path d="M135.983 152.612C133.403 149.001 129.333 142.59 128.143 138.09C134.843 137.447 141.591 137.745 148.223 138.979C145.983 143.831 139.783 148.858 135.983 152.612Z" fill="#DDDDDD"/>
<path d="M145.563 125.961L145.123 139.648L130.363 139.934L130.943 128.584L145.563 125.961Z" fill="#DDDDDD"/>
<path d="M130.674 134.16L130.944 128.584L145.564 125.961L145.304 134.182C135.284 138.43 131.864 135.433 130.674 134.16Z" fill="#BFBFBF"/>
<path d="M151.333 146.355C154.333 140.724 148.903 137.519 145.723 137.662C145.963 144.017 140.833 148.09 136.623 152.162C141.413 154.489 149.353 150.044 151.333 146.355Z" fill="#BFBFBF"/>
<path d="M122.883 145.137C120.363 139.264 126.043 136.586 129.203 137.047C128.443 143.336 133.203 147.936 137.043 152.414C132.093 154.225 124.543 149 122.883 145.137Z" fill="#BFBFBF"/>
<path d="M136.384 151.251C136.494 150.878 137.074 150.878 137.124 151.251C137.514 155.126 136.784 158.934 136.624 162.809C136.394 167.328 135.926 171.829 135.224 176.289C135.225 176.341 135.214 176.393 135.191 176.44C135.168 176.486 135.135 176.525 135.094 176.552C135.061 176.591 135.02 176.623 134.976 176.643C134.931 176.664 134.882 176.674 134.834 176.673C134.785 176.677 134.736 176.668 134.69 176.647C134.645 176.626 134.605 176.593 134.574 176.552C134.531 176.525 134.496 176.487 134.472 176.441C134.447 176.394 134.434 176.342 134.434 176.289C134.594 167.716 134.044 159.527 136.384 151.251Z" fill="#BFBFBF"/>
<path d="M176.733 92.0099C173.443 88.9804 169.453 91.1977 167.213 94.3919C163.433 96.8616 160.093 102.295 162.213 106.334C164.773 111.208 171.873 108.705 175.053 106.005C178.923 102.723 181.063 95.9396 176.733 92.0099Z" fill="#DDDDDD"/>
<path d="M175.112 95.5336C174.411 95.5235 173.72 95.7207 173.112 96.1044C172.498 96.5178 171.997 97.1056 171.662 97.8057C171.343 98.7283 171.291 99.7361 171.512 100.693C171.712 101.878 171.942 103.239 170.402 103.645C170.288 103.684 170.182 103.747 170.091 103.832C170 103.917 169.925 104.022 169.872 104.139C169.822 104.139 169.812 104.238 169.822 104.326C169.811 104.351 169.805 104.38 169.805 104.408C169.805 104.437 169.811 104.465 169.822 104.49C169.822 104.611 169.912 104.677 169.922 104.765C170.016 104.905 170.144 105.011 170.292 105.072C170.45 105.137 170.624 105.137 170.782 105.072C171.202 104.984 171.6 104.801 171.952 104.534C172.31 104.253 172.596 103.875 172.782 103.437C172.997 103.031 173.124 102.577 173.152 102.108C173.204 101.64 173.149 101.165 172.992 100.725C172.592 99.1339 172.602 98.0691 173.992 97.0264C174.512 96.6312 175.202 96.28 175.212 95.5775L175.112 95.5336Z" fill="#191717"/>
<path d="M103.782 89.2767C107.452 87.3777 110.102 90.539 110.972 94.1503C113.342 97.5202 114.442 103.546 111.392 106.752C107.712 110.593 102.562 106.269 100.782 102.844C98.6022 98.6947 98.9822 91.7135 103.782 89.2767Z" fill="#DDDDDD"/>
<path d="M109.422 62.9329C107.428 74.6537 106.093 86.4978 105.422 98.3983C104.922 109.693 109.822 121.449 116.882 127.585C129.592 138.682 147.882 133.633 155.952 126.005C168.332 114.227 171.672 99.3533 168.472 67.9382C166.702 66.2258 109.422 62.9329 109.422 62.9329Z" fill="#DDDDDD"/>
<path d="M109.333 61.9668C111.523 59.53 112.063 60.6825 112.183 62.834C114.016 60.1194 116.262 57.7725 118.823 55.8967C125.223 50.9792 168.193 50.9792 169.653 64.5134C169.705 65.0608 169.672 65.6141 169.553 66.1489C170.044 66.4763 170.512 66.8432 170.953 67.2466C176.023 72.208 176.243 90.7586 170.253 101.582C162.603 95.5663 160.403 86.0606 159.943 78.8708C157.402 80.7143 154.674 82.2247 151.813 83.3713C151.293 83.5908 150.813 83.7884 150.263 83.975C143.193 87.5973 132.263 89.6499 116.413 82.5919C118.157 82.5577 119.893 82.3222 121.593 81.8894C118.114 80.2996 114.918 78.0477 112.153 75.2376C111.763 83.2505 110.153 94.3809 104.293 100.133C99.9829 86.6423 105.803 65.8964 109.333 61.9668Z" fill="black"/>
<path d="M149.804 80.8688C155.444 75.7537 158.394 67.5431 160.594 60.1338C160.594 59.9801 160.874 60.0789 160.824 60.2326C158.904 68.2017 156.294 76.1708 150.724 82.0323C149.196 83.6287 147.456 84.9611 145.564 85.984C142.802 86.815 139.957 87.2649 137.094 87.3231C141.734 86.2921 146.088 84.0773 149.804 80.8578V80.8688Z" fill="#3A3838"/>
<path d="M166.752 63.4927C166.746 63.473 166.745 63.4523 166.748 63.4321C166.752 63.4119 166.759 63.3928 166.77 63.3764C166.782 63.3599 166.796 63.3466 166.813 63.3374C166.829 63.3282 166.848 63.3234 166.867 63.3234C166.885 63.3234 166.904 63.3282 166.92 63.3374C166.937 63.3466 166.952 63.3599 166.963 63.3764C166.974 63.3928 166.981 63.4119 166.985 63.4321C166.988 63.4523 166.987 63.473 166.982 63.4927C168.382 70.6385 167.802 84.3482 163.482 93.1295C163.162 92.4929 162.872 91.8782 162.602 91.2306C166.508 82.6736 167.955 73.0162 166.752 63.5366V63.4927Z" fill="#3A3838"/>
<path d="M128.984 79.1672C135.884 75.2046 141.254 66.8843 142.744 58.6189C142.744 58.4104 143.084 58.4104 143.044 58.6189C141.694 71.9885 132.044 81.9223 120.574 84.3152C119.634 83.9749 118.654 83.5907 117.674 83.1407C121.598 82.4173 125.407 81.0791 128.984 79.1672V79.1672Z" fill="#3A3838"/>
<path d="M124.314 69.3764C124.314 69.2228 124.584 69.2337 124.564 69.3764C124.344 73.9536 120.454 78.6515 116.154 78.7064C115.734 78.4101 115.314 78.1137 114.934 77.8064C119.324 77.2026 123.654 74.6232 124.314 69.3764Z" fill="#3A3838"/>
<path d="M135.762 121.998C136.172 121.819 136.619 121.77 137.052 121.855C137.398 121.879 137.737 121.972 138.052 122.13C138.332 122.371 137.952 122.767 137.552 122.613C137.552 122.613 137.472 122.613 137.422 122.613H136.982L136.572 122.701H136.492H136.392C135.732 123.063 135.062 122.317 135.762 121.998Z" fill="#292929"/>
<path d="M162.702 108.233C163.252 111.526 159.842 114.918 155.062 115.917C150.282 116.916 145.972 115.039 145.422 111.801C144.872 108.563 148.272 105.083 153.062 104.117C157.852 103.151 162.152 104.962 162.702 108.233Z" fill="#BFBFBF"/>
<path d="M122.714 111C121.714 114.084 117.314 115.182 112.884 113.502C108.454 111.823 105.624 107.937 106.634 104.875C107.644 101.812 112.034 100.693 116.464 102.405C120.894 104.117 123.694 107.937 122.714 111Z" fill="#BFBFBF"/>
<path d="M174.332 86.9496C176.732 74.4363 172.062 52.8343 148.332 47.0826C126.462 41.8248 109.422 52.5709 106.852 70.6383C114.322 61.0009 122.642 51.9781 146.302 56.259C161.352 58.9483 170.222 71.0445 174.332 86.9496Z" fill="#BFBFBF"/>
<path d="M171.073 64.3487C171.263 68.1795 166.873 67.0489 163.773 65.9512C159.042 60.7406 152.911 57.3353 146.283 56.237C132.403 53.7234 123.783 55.7979 117.543 59.8922C115.313 60.1117 113.123 59.8154 112.823 57.8835C112.761 57.4055 112.795 56.9184 112.923 56.4565C120.213 47.5106 133.113 43.3834 148.373 47.0606C160.183 49.9365 167.243 56.7309 171.073 64.3487Z" fill="#EAEAEA"/>
<path d="M120.153 94.6773C119.796 94.8091 119.459 94.9977 119.153 95.2371C118.865 95.4744 118.623 95.7731 118.443 96.1152C118.231 96.5571 118.108 97.0437 118.083 97.5421C117.998 98.527 118.212 99.5151 118.693 100.352C118.821 100.636 119.008 100.884 119.239 101.074C119.47 101.265 119.738 101.393 120.023 101.45C120.553 101.518 121.091 101.465 121.603 101.296C122.194 101.124 122.728 100.77 123.143 100.275C123.453 99.8406 123.635 99.3119 123.663 98.7605C123.717 98.0282 123.694 97.2915 123.593 96.5652C123.553 96.0966 123.366 95.6579 123.063 95.3249C122.758 94.9663 122.366 94.7111 121.933 94.5895C121.53 94.4687 121.106 94.4576 120.698 94.557C120.291 94.6565 119.911 94.8635 119.593 95.1602C119.304 95.5549 119.077 96.0002 118.923 96.4774C118.578 97.3911 118.578 98.4176 118.923 99.3313C119.018 99.5997 119.17 99.8393 119.367 100.03C119.563 100.221 119.798 100.358 120.053 100.429C120.257 100.473 120.468 100.473 120.673 100.429C120.896 100.411 121.114 100.344 121.313 100.231C121.52 100.138 121.709 100.004 121.873 99.8362C122.034 99.6825 122.166 99.4961 122.263 99.2874C122.503 98.7058 122.616 98.0705 122.593 97.4324C122.563 96.8961 122.441 96.3708 122.233 95.8847C122.158 95.7229 122.034 95.5948 121.883 95.5225C121.718 95.4333 121.535 95.3953 121.353 95.4127C121.146 95.4402 120.944 95.4993 120.753 95.5883C120.571 95.6952 120.406 95.8322 120.263 95.9944C120.039 96.3259 119.87 96.6973 119.763 97.0921C119.663 97.4471 119.635 97.8218 119.683 98.1897C119.751 98.5283 119.892 98.8443 120.093 99.1118C120.312 99.3722 120.582 99.5749 120.883 99.7045C121.149 99.8279 121.445 99.8473 121.723 99.7594C122.023 99.6635 122.291 99.4726 122.493 99.2105C122.761 98.8731 122.944 98.4644 123.023 98.0251C123.071 97.651 123.019 97.2695 122.873 96.9274C122.694 96.5689 122.427 96.2724 122.103 96.0713C121.741 95.8521 121.336 95.7316 120.923 95.72C120.617 95.751 120.326 95.8766 120.083 96.0822C119.843 96.2799 119.673 96.5633 119.603 96.8835C119.58 97.0113 119.586 97.1433 119.621 97.2678C119.656 97.3923 119.718 97.5054 119.803 97.597C119.901 97.6955 120.016 97.7715 120.141 97.8205C120.267 97.8695 120.4 97.8905 120.533 97.8824C120.183 97.8824 120.533 97.8824 120.613 97.8824C120.393 97.8824 120.433 97.8824 120.613 97.8824L120.703 97.9592C120.533 97.9592 120.543 97.8056 120.703 97.8934L120.753 97.9922C120.753 97.9922 120.813 98.1239 120.753 97.9922L120.813 98.1019V98.2227C120.883 98.3544 120.813 98.0251 120.813 98.1568C120.813 98.2885 120.813 98.2336 120.813 98.2885C120.813 98.3434 120.873 98.08 120.813 98.2007V98.3324C120.813 98.4861 120.893 98.1349 120.813 98.2336C120.733 98.3324 120.753 98.3434 120.753 98.3654C120.753 98.3873 120.913 98.1348 120.753 98.3654L122.393 97.8824C122.297 97.8534 122.206 97.809 122.123 97.7507C122.043 97.7507 122.293 97.9263 122.123 97.7507V97.6409C122.193 97.7946 122.123 97.6409 122.123 97.6409V97.5421V97.3994C122.123 97.2567 122.123 97.3994 122.123 97.3994C122.123 97.3994 122.123 97.2787 122.123 97.2677C122.123 97.2567 122.183 97.0811 122.123 97.2677C122.123 97.2677 122.203 97.1689 122.193 97.1579C122.183 97.147 122.073 97.3445 122.123 97.2677L122.203 97.1689L120.203 97.2787C120.268 97.4135 120.324 97.5528 120.373 97.6958C120.373 97.8385 120.373 97.4763 120.373 97.6958C120.388 97.7356 120.396 97.7786 120.396 97.822C120.396 97.8654 120.388 97.9084 120.373 97.9483C120.36 98.0943 120.36 98.2413 120.373 98.3873C120.373 98.3873 120.373 98.6398 120.373 98.4971V98.6178C120.353 98.7782 120.319 98.9362 120.273 99.0898C120.273 99.2435 120.373 98.9142 120.273 99.0898C120.351 98.9232 120.473 98.7857 120.623 98.6947C120.766 98.5919 120.932 98.5314 121.103 98.519C120.903 98.519 121.363 98.519 121.193 98.519C121.343 98.5959 121.403 98.5849 121.323 98.519H121.253C121.119 98.4397 120.963 98.4199 120.817 98.4637C120.67 98.5076 120.545 98.6117 120.466 98.7544C120.388 98.8971 120.363 99.0675 120.396 99.2301C120.429 99.3927 120.518 99.535 120.644 99.6274C120.771 99.7198 120.925 99.7552 121.074 99.7263C121.224 99.6974 121.357 99.6063 121.447 99.4721C121.537 99.3379 121.576 99.1707 121.557 99.0055C121.537 98.8403 121.461 98.6896 121.343 98.5849V98.5849C121.273 98.4532 121.283 98.4641 121.343 98.5849C121.314 98.4595 121.259 98.3431 121.183 98.2446L121.113 98.1129C121.113 98.0361 121.113 98.1129 121.113 98.1897V98.0909C121.113 98.0909 121.113 97.8385 121.113 97.7177V97.3994C121.113 97.1909 121.113 97.586 121.113 97.3994C121.113 97.2128 121.113 97.114 121.173 96.9713C121.206 96.9112 121.226 96.8437 121.233 96.7738C121.183 96.9274 121.163 96.9604 121.233 96.8945V96.7738C121.233 96.6421 121.363 96.4994 121.423 96.3676L121.513 96.2359L120.443 96.8616C120.566 96.8502 120.69 96.8502 120.813 96.8616H120.983C121.193 96.8616 120.983 96.8616 120.983 96.8616C121.069 96.898 121.16 96.9202 121.253 96.9274C121.253 96.9274 121.023 96.8177 121.173 96.9274L121.303 97.0043C121.503 97.114 121.213 96.8177 121.303 97.0043C121.303 97.0043 121.473 97.2238 121.393 97.0701C121.313 96.9165 121.393 97.136 121.393 97.1689L121.503 97.3994C121.503 97.4763 121.503 97.3994 121.503 97.3226V97.4214C121.503 97.5092 121.503 97.5751 121.503 97.6738C121.503 97.7726 121.503 97.9922 121.503 98.1897C121.503 98.3873 121.503 98.8483 121.563 99.1776C121.563 99.1776 121.563 99.2654 121.563 99.3093C121.563 99.3532 121.563 99.0788 121.563 99.3093V99.5837C121.533 99.6288 121.516 99.6821 121.513 99.7374C121.513 99.7374 121.633 99.474 121.563 99.6386C121.532 99.6686 121.508 99.7062 121.493 99.7484L121.573 99.6057C121.573 99.6825 121.573 99.6716 121.573 99.6057C121.573 99.5398 121.643 99.6057 121.573 99.6057L121.713 99.5179C121.624 99.546 121.542 99.5946 121.473 99.6606C121.643 99.5618 121.703 99.5728 121.573 99.6606H121.433H121.273C121.043 99.7264 121.533 99.6606 121.273 99.6606C121.273 99.6606 121.063 99.6606 121.013 99.6606C120.963 99.6606 121.273 99.6606 121.113 99.6606H121.003C121.003 99.6606 121.213 99.7813 121.113 99.6606C121.013 99.5398 120.963 99.5508 121.033 99.6606C121.103 99.7703 121.033 99.6606 121.033 99.6606C121.033 99.6606 121.113 99.8142 121.033 99.6606L120.773 99.1118C120.679 98.9088 120.605 98.6954 120.553 98.4751C120.553 98.4751 120.613 98.6617 120.553 98.4751C120.493 98.2885 120.553 98.3763 120.553 98.2995C120.561 98.1753 120.561 98.0505 120.553 97.9263V97.7617C120.546 97.6483 120.546 97.5347 120.553 97.4214L120.643 97.0482C120.643 96.9165 120.643 96.8835 120.643 97.0482C120.643 97.2128 120.643 97.0482 120.643 97.0482C120.643 97.0482 120.643 97.0482 120.583 97.125L120.643 97.0482C120.703 96.9823 120.643 97.0482 120.543 97.147C120.683 97.0152 120.543 97.2458 120.443 97.147C120.343 97.0482 120.823 97.0043 120.443 97.147C120.746 97.0525 121.018 96.8615 121.223 96.5981C121.398 96.3717 121.494 96.0834 121.493 95.7859C121.48 95.6557 121.437 95.5312 121.369 95.4237C121.301 95.3163 121.209 95.2295 121.103 95.1712C120.837 95.0508 120.543 95.0239 120.263 95.0944L120.153 94.6773Z" fill="#242424"/>
<path d="M120.064 97.3994C120.157 97.2901 120.225 97.1586 120.264 97.0153C120.268 96.8874 120.228 96.7626 120.154 96.6641C120.107 96.6175 120.052 96.5826 119.991 96.5618C119.931 96.5409 119.867 96.5347 119.804 96.5434C119.656 96.5347 119.51 96.5854 119.394 96.686C119.291 96.7792 119.217 96.9061 119.184 97.0482C119.167 97.112 119.168 97.1802 119.188 97.2432C119.207 97.3063 119.245 97.3609 119.294 97.3994C119.332 97.4544 119.383 97.4976 119.44 97.5245C119.498 97.5515 119.562 97.5613 119.624 97.5531C119.779 97.5339 119.928 97.4817 120.064 97.3994V97.3994Z" fill="white"/>
<path d="M146.864 95.6542C146.562 95.5974 146.253 95.6238 145.964 95.731C145.67 95.83 145.397 95.9944 145.164 96.214C144.873 96.5272 144.642 96.9002 144.484 97.3117C144.133 98.1951 144.009 99.1665 144.124 100.122C144.13 100.407 144.191 100.688 144.304 100.945C144.434 101.208 144.607 101.442 144.814 101.637C145.186 101.921 145.614 102.105 146.064 102.174C146.552 102.244 147.049 102.145 147.484 101.889C147.855 101.621 148.148 101.24 148.324 100.791C148.579 100.131 148.77 99.4429 148.894 98.7387C149.003 98.2967 149.003 97.8305 148.894 97.3885C148.757 96.9725 148.535 96.5968 148.244 96.2908C147.994 96.0196 147.678 95.8322 147.335 95.7506C146.991 95.6689 146.633 95.6964 146.304 95.8298C145.966 96.0736 145.669 96.3778 145.424 96.7299C144.889 97.4514 144.586 98.3468 144.564 99.2765C144.56 99.5583 144.609 99.8379 144.706 100.098C144.804 100.359 144.95 100.595 145.134 100.791C145.261 100.92 145.411 101.021 145.574 101.088C145.746 101.16 145.929 101.197 146.114 101.197C146.295 101.182 146.474 101.138 146.644 101.066C146.814 100.994 146.968 100.881 147.094 100.736C147.463 100.293 147.731 99.7582 147.874 99.1777C148.012 98.6804 148.073 98.1607 148.054 97.641C148.043 97.4683 147.992 97.3016 147.904 97.158C147.812 97.0087 147.679 96.8967 147.524 96.8397C147.368 96.7563 147.196 96.7185 147.024 96.7299C146.848 96.7424 146.677 96.7987 146.524 96.8946C146.263 97.1034 146.034 97.3552 145.844 97.641C145.677 97.9228 145.559 98.2351 145.494 98.563C145.428 98.8959 145.428 99.2401 145.494 99.5729C145.571 99.8882 145.711 100.181 145.904 100.429C146.055 100.649 146.277 100.797 146.524 100.846C146.779 100.878 147.037 100.824 147.264 100.693C147.566 100.475 147.816 100.182 147.994 99.8363C148.161 99.5007 148.241 99.1208 148.224 98.7387C148.196 98.3472 148.079 97.9697 147.884 97.641C147.689 97.3021 147.417 97.0257 147.094 96.8397C146.981 96.7838 146.857 96.7575 146.734 96.7628C146.604 96.7415 146.473 96.7415 146.344 96.7628C146.216 96.8093 146.094 96.8759 145.984 96.9604C145.89 97.0466 145.813 97.1508 145.754 97.2678C145.696 97.3803 145.66 97.5046 145.648 97.633C145.636 97.7614 145.648 97.8911 145.684 98.0142C145.766 98.2561 145.931 98.4531 146.144 98.563C145.904 98.3984 146.144 98.563 146.144 98.6509C145.984 98.5301 146.054 98.5082 146.144 98.6509C146.234 98.7935 146.144 98.7167 146.144 98.7277C146.144 98.7387 146.074 98.5521 146.144 98.7277V98.8375C146.144 98.8375 146.144 98.9911 146.144 98.7716V98.8923V99.0241C146.144 99.1887 146.204 98.8594 146.144 98.9582C146.153 99.0015 146.153 99.0467 146.144 99.0899C146.144 99.2436 146.224 98.9253 146.144 99.0021C146.145 99.0423 146.145 99.0826 146.144 99.1229C146.084 99.2656 146.274 98.9802 146.204 99.046L146.104 99.1448C146.104 99.1448 146.304 99.0021 146.104 99.1448L147.464 99.3753C147.404 99.3095 147.374 99.2216 147.314 99.1558C147.254 99.0899 147.394 99.3753 147.314 99.1558V99.035C147.314 99.035 147.314 98.8265 147.314 99.035C147.314 99.2436 147.314 99.035 147.314 99.035V98.9362C147.314 98.9362 147.314 98.7167 147.314 98.8704C147.314 98.8704 147.314 98.7826 147.314 98.7387C147.314 98.6948 147.314 98.7387 147.314 98.8045L147.374 98.6838L147.474 98.6069C147.344 98.7167 147.324 98.7387 147.374 98.6838H147.434L145.934 97.9374C145.944 98.0872 145.944 98.2376 145.934 98.3874C145.934 98.5191 145.934 98.1679 145.934 98.3874V98.6069C145.934 98.7496 145.874 98.8814 145.834 99.0131V99.1119C145.894 98.9692 145.834 99.1997 145.784 99.2326C145.725 99.3655 145.658 99.4938 145.584 99.6168C145.584 99.7266 145.724 99.4961 145.584 99.6168C145.695 99.511 145.829 99.4391 145.974 99.4083C146.104 99.3642 146.243 99.3642 146.374 99.4083C146.224 99.3314 146.574 99.54 146.444 99.4083L146.524 99.4961V99.3753C146.594 99.54 146.594 99.5839 146.584 99.518C146.574 99.4522 146.584 99.4522 146.584 99.4302C146.584 99.4082 146.584 99.3204 146.584 99.4302C146.598 99.3027 146.598 99.1736 146.584 99.046V98.9033C146.584 98.8375 146.584 98.9033 146.584 98.9911V98.8814L146.654 98.5411C146.654 98.5411 146.654 98.4313 146.714 98.3655C146.774 98.2996 146.634 98.5301 146.714 98.3655C146.794 98.2008 146.824 98.124 146.874 98.0032C146.919 97.9576 146.959 97.906 146.994 97.8495L146.944 97.9264L146.994 97.8495C147.072 97.7393 147.159 97.6364 147.254 97.5422V97.5422L147.344 97.4654L146.344 97.5312L146.624 97.641L146.744 97.7288C146.914 97.8056 146.744 97.7288 146.744 97.7288C146.799 97.7867 146.859 97.8382 146.924 97.8825C146.924 97.8825 146.774 97.6959 146.864 97.8825L146.954 97.9922C147.074 98.1789 146.954 97.8056 146.954 97.9922C146.954 98.1789 146.954 98.2776 146.954 98.091C146.954 97.9044 146.954 98.1788 146.954 98.2228V98.4752C146.954 98.6289 146.954 98.3874 146.954 98.3874C146.954 98.3874 146.954 98.4642 146.954 98.5082V98.7277L146.834 99.1997C146.754 99.4961 146.674 99.8144 146.574 100.133C146.57 100.173 146.57 100.213 146.574 100.253C146.574 100.253 146.664 100.034 146.574 100.253C146.545 100.338 146.508 100.419 146.464 100.495L146.394 100.594C146.394 100.594 146.554 100.407 146.444 100.594C146.334 100.78 146.394 100.594 146.374 100.671L146.484 100.561C146.404 100.561 146.424 100.561 146.484 100.561H146.634H146.424C146.554 100.561 146.604 100.561 146.484 100.561H146.374H146.264C146.054 100.561 146.454 100.66 146.264 100.561C146.19 100.439 146.095 100.334 145.984 100.253C145.984 100.253 146.164 100.396 146.054 100.253C145.944 100.111 145.984 100.253 145.984 100.253C145.984 100.253 146.124 100.44 146.064 100.319C146.004 100.199 145.964 100.144 146.004 100.319C146.044 100.495 146.004 100.319 146.004 100.253C146.004 100.188 146.004 100.407 146.004 100.253C145.988 100.049 145.988 99.8433 146.004 99.6388C146.004 99.5509 145.954 99.0021 146.004 98.9692C146.054 98.9362 146.004 99.1448 146.004 99.035C146.014 98.9734 146.014 98.9101 146.004 98.8484C146.004 98.7387 146.004 98.6069 146.074 98.4972V98.3545C146.117 98.2554 146.167 98.1601 146.224 98.0691L146.374 97.7617C146.284 97.9044 146.374 97.7617 146.434 97.7617C146.494 97.7617 146.374 97.8166 146.354 97.8276L146.434 97.7617L146.374 97.6959C146.524 97.6959 146.324 97.7508 146.314 97.6959C146.304 97.641 146.624 97.6959 146.314 97.6959C146.561 97.7373 146.815 97.6871 147.034 97.5532C147.14 97.488 147.234 97.4 147.31 97.2945C147.385 97.1889 147.441 97.0679 147.474 96.9385C147.509 96.8125 147.516 96.6792 147.495 96.5494C147.474 96.4197 147.426 96.2972 147.354 96.1921C147.212 95.9714 146.996 95.8214 146.754 95.7749L146.864 95.6542Z" fill="#242424"/>
<path d="M145.983 98.0581C146.097 98.0113 146.193 97.9219 146.253 97.8056C146.287 97.6915 146.287 97.5684 146.253 97.4543C146.208 97.3396 146.131 97.2436 146.033 97.1798C145.915 97.1414 145.79 97.1414 145.673 97.1798C145.571 97.2294 145.487 97.3142 145.433 97.4214C145.411 97.4769 145.4 97.5367 145.4 97.597C145.4 97.6574 145.411 97.7171 145.433 97.7727C145.475 97.8896 145.553 97.9867 145.653 98.0471C145.761 98.0793 145.875 98.0793 145.983 98.0471V98.0581Z" fill="white"/>
<path d="M135.464 110.846C132.804 111.406 130.924 111.186 129.924 110.154C129.66 109.915 129.457 109.605 129.334 109.254C129.192 108.91 129.134 108.532 129.164 108.157L130.874 96.4556L131.734 96.6092L130.034 108.277C130.044 108.49 130.091 108.699 130.174 108.892C130.252 109.104 130.38 109.29 130.544 109.43C131.074 109.957 132.364 110.527 135.284 109.88L135.464 110.846Z" fill="#191818"/>
<path d="M123.383 88.6839C123.539 88.681 123.694 88.707 123.843 88.7608C124.045 88.8956 124.206 89.0946 124.303 89.3316C124.382 89.5651 124.382 89.8225 124.303 90.056C124.213 90.2646 122.093 95.2589 114.543 94.4466C114.308 94.4126 114.092 94.2881 113.933 94.0954C113.859 93.9966 113.806 93.8822 113.775 93.7594C113.744 93.6366 113.736 93.508 113.753 93.3819C113.776 93.1245 113.891 92.8877 114.073 92.7233C114.16 92.6406 114.262 92.5793 114.372 92.5433C114.483 92.5073 114.599 92.4976 114.713 92.5148C120.943 93.1953 122.623 89.4523 122.713 89.2218C122.775 89.0693 122.875 88.9398 123.003 88.8486C123.127 88.7424 123.276 88.6776 123.433 88.662L123.383 88.6839Z" fill="#191818"/>
<path d="M145.812 90.5939C145.96 90.5564 146.114 90.5564 146.262 90.5939C146.408 90.6442 146.539 90.7349 146.642 90.8574C150.872 95.7748 154.192 93.7771 154.332 93.6893C154.43 93.6144 154.543 93.5656 154.661 93.5465C154.779 93.5275 154.899 93.5388 155.012 93.5795C155.123 93.6076 155.226 93.6613 155.316 93.737C155.406 93.8128 155.479 93.9088 155.532 94.0186C155.597 94.1255 155.642 94.246 155.662 94.3725C155.683 94.4991 155.68 94.629 155.652 94.754C155.623 94.8806 155.571 94.9993 155.499 95.1031C155.426 95.2068 155.336 95.2935 155.232 95.3577C155.042 95.4675 150.602 98.3213 145.352 92.2075C145.267 92.1209 145.199 92.0163 145.152 91.9001C145.142 91.765 145.142 91.6291 145.152 91.494C145.158 91.3709 145.178 91.2491 145.212 91.1318C145.272 91.0181 145.343 90.9115 145.422 90.8135C145.551 90.7002 145.701 90.6212 145.862 90.583L145.812 90.5939Z" fill="#191818"/>
<path d="M201.914 171.25C202.474 170.46 193.294 165.125 192.674 165.861C183.444 176.837 165.774 191.392 162.674 194.049C164.313 196.711 166.648 198.765 169.373 199.941C172.097 201.117 175.082 201.359 177.934 200.635C183.984 199.23 194.584 181.689 201.914 171.25Z" fill="#DDDDDD"/>
<path d="M207.982 160.976C213.982 158.309 219.232 157.156 220.982 159.33C217.932 161.24 205.572 167.013 195.982 172.699C194.982 173.292 192.182 167.716 193.212 166.223C193.622 161.02 199.602 159.933 204.312 152.48C205.652 150.351 206.962 152.03 206.942 153.216C206.942 155.345 205.802 157.398 204.532 160.976C203.672 163.501 206.332 161.723 207.982 160.976Z" fill="#BFBFBF"/>
<path d="M222.984 164.159C219.324 165.641 213.854 167.88 203.514 172.381C200.454 173.709 198.724 168.726 199.914 168.177C205.984 165.334 220.124 159.077 222.984 164.159Z" fill="#BFBFBF"/>
<path d="M222.983 167.881C219.383 169.549 208.893 170.921 198.703 175.114C193.563 177.233 187.503 168.682 193.293 164.138C196.763 161.393 204.823 165.027 207.923 167.112C214.123 165.938 221.383 165.477 222.983 167.881Z" fill="#DDDDDD"/>
<path d="M67.8222 177.397C67.1922 176.684 75.7422 170.218 76.4322 170.877C86.7622 180.635 105.852 192.83 109.182 195.025C109.182 195.025 104.182 205.278 94.7322 203.532C88.7022 202.457 76.2122 186.848 67.8222 177.397Z" fill="#DDDDDD"/>
<path d="M60.6742 167.979C54.4242 166.091 49.1042 165.619 47.5742 167.979C50.8142 169.483 63.6942 173.61 73.8342 178.078C74.8342 178.528 77.0842 172.589 75.9042 171.283C74.9042 166.168 68.9042 165.85 63.4242 159.055C61.8642 157.101 60.7442 158.945 60.8942 160.153C61.1542 162.26 62.4642 164.159 64.1042 167.551C65.2542 169.933 62.4342 168.506 60.6742 167.979Z" fill="#BFBFBF"/>
<path d="M46.1934 173.039C49.9934 174.049 55.6634 175.575 66.4134 178.725C69.5934 179.647 70.7834 174.488 69.5434 174.093C63.1234 172.052 48.4634 167.639 46.1934 173.039Z" fill="#BFBFBF"/>
<path d="M46.582 176.738C50.332 177.935 60.902 177.957 71.462 180.833C76.792 182.271 81.912 173.017 75.682 169.208C71.982 166.925 64.312 171.601 61.452 174.016C55.142 173.676 47.882 174.148 46.582 176.738Z" fill="#DDDDDD"/>
<path d="M128.873 120.132C128.873 120.132 134.283 114.644 144.513 117.937L128.873 120.132Z" fill="#191818"/>
<path d="M232.614 213.905V212.467C232.614 212.467 224.894 212.039 221.614 212.149C221.071 211.644 220.64 211.009 220.354 210.294C220.065 209.58 219.932 208.802 219.964 208.022C219.874 206.013 219.734 202.27 221.274 201.853C222.814 201.436 232.984 202.951 232.984 202.951V201.128L221.274 200.206L188.274 201.809C186.884 202.072 185.864 204.685 185.944 207.769C186.122 209.885 186.716 211.933 187.684 213.774L219.934 213.883L232.614 213.905Z" fill="#A8A8A8"/>
<path d="M188.313 204.004L218.663 202.841C218.692 202.843 218.722 202.838 218.749 202.827C218.777 202.815 218.802 202.798 218.823 202.775C218.837 202.729 218.837 202.679 218.823 202.632C218.836 202.59 218.836 202.543 218.823 202.501C218.794 202.446 218.752 202.401 218.703 202.369H218.613L188.263 203.532H188.103V203.708C188.083 203.764 188.083 203.827 188.103 203.884C188.125 203.924 188.156 203.958 188.193 203.982H188.313V204.004Z" fill="#292929"/>
<path d="M231.982 212.314C229.982 212.314 224.342 211.995 221.652 212.094C221.106 211.592 220.672 210.958 220.384 210.243C220.097 209.527 219.962 208.749 219.992 207.967C219.902 205.947 219.782 202.215 221.302 201.798C222.502 201.425 229.592 202.095 232.122 202.654C232.182 202.698 232.332 212.292 231.982 212.314Z" fill="white"/>
<path d="M231.174 204.74L222.844 204.871C223.596 205.565 224.504 206.024 225.474 206.2C227.234 206.529 231.174 204.74 231.174 204.74Z" fill="#292929"/>
<path d="M228.433 209.559L220.043 208.812C220.798 209.495 221.7 209.953 222.663 210.14C224.601 210.211 226.539 210.016 228.433 209.559V209.559Z" fill="#292929"/>
<path d="M221.602 212.094C221.059 211.589 220.629 210.954 220.342 210.239C220.055 209.525 219.922 208.747 219.952 207.967C219.862 205.947 219.722 202.215 221.262 201.798C222.462 201.425 229.572 202.095 232.102 202.654L223.422 203.214C221.822 203.214 220.522 205.102 220.622 207.539C220.626 209.12 220.961 210.678 221.602 212.094V212.094Z" fill="#292929"/>
<path d="M30.7224 214.015C34.2287 214.013 37.6556 212.869 40.57 210.73C43.4843 208.59 45.7553 205.55 47.0957 201.993C48.4361 198.437 48.7858 194.524 48.1005 190.75C47.4153 186.976 45.7259 183.509 43.2459 180.788C40.7659 178.068 37.6067 176.215 34.1677 175.465C30.7287 174.715 27.1643 175.101 23.9252 176.575C20.686 178.048 17.9176 180.542 15.9698 183.742C14.022 186.943 12.9824 190.705 12.9824 194.553C12.9785 197.111 13.4347 199.645 14.325 202.009C15.2152 204.373 16.5219 206.52 18.1702 208.328C19.8184 210.136 21.7757 211.57 23.9297 212.545C26.0838 213.521 28.3922 214.021 30.7224 214.015V214.015Z" fill="#EAEAEA"/>
<path d="M35.3033 161.053L35.3933 178.341L25.8533 178.418L25.7633 161.13C25.5879 161.163 25.4087 161.163 25.2333 161.13C25.0586 161.09 24.8944 161.008 24.7533 160.888C24.6016 160.779 24.4832 160.622 24.4133 160.438C24.3219 160.277 24.2734 160.09 24.2733 159.9C24.2555 159.707 24.2795 159.511 24.3433 159.33C24.4037 159.143 24.5045 158.976 24.6369 158.842C24.7693 158.709 24.9293 158.612 25.1033 158.561C25.2748 158.522 25.4518 158.522 25.6233 158.561L35.3333 158.44C35.6075 158.438 35.8734 158.543 36.0833 158.737C36.2961 158.932 36.4524 159.192 36.5333 159.483C36.5479 159.68 36.5275 159.877 36.4733 160.065C36.4286 160.256 36.3428 160.433 36.2233 160.581C36.115 160.736 35.9744 160.86 35.8133 160.943C35.6553 161.033 35.4809 161.081 35.3033 161.086V161.053Z" fill="#EAEAEA"/>
<path d="M45.3336 193.324C45.5502 196.969 44.6362 200.587 42.7405 203.588C40.8448 206.59 38.079 208.799 34.8936 209.855C32.7745 210.536 30.5436 210.69 28.3636 210.305C25.0843 209.709 22.0858 207.911 19.8574 205.203C17.629 202.496 16.3022 199.04 16.0936 195.399C15.9591 192.98 16.3249 190.56 17.1636 188.319C17.1636 188.319 23.5936 182.995 30.2936 191.271C37.1336 199.734 45.3336 193.324 45.3336 193.324Z" fill="#BFBFBF"/>
<path d="M31.6434 205.355C29.2444 205.136 26.981 204.042 25.2134 202.248C23.3542 200.156 22.0865 197.518 21.5634 194.652C21.5287 194.534 21.4727 194.425 21.3989 194.33C21.325 194.236 21.2348 194.159 21.1334 194.104C20.9266 194 20.6938 193.977 20.4734 194.038C20.2531 194.107 20.0641 194.263 19.9434 194.477C19.8297 194.688 19.7839 194.936 19.8134 195.179C20.4394 198.433 21.9043 201.42 24.0334 203.785C26.1335 205.88 28.8133 207.14 31.6434 207.364C32.8034 207.462 32.7834 205.465 31.6434 205.366V205.355Z" fill="white"/>
<path d="M21.4016 191.359L21.7516 189.164C21.8076 188.904 21.7756 188.631 21.6616 188.396C21.5328 188.188 21.3472 188.03 21.1316 187.946C21.0095 187.918 20.8836 187.918 20.7616 187.946C20.6432 187.96 20.528 187.997 20.4216 188.055C20.2224 188.2 20.077 188.418 20.0116 188.67L19.6715 190.865C19.6215 191.125 19.6532 191.396 19.7616 191.633C19.8841 191.85 20.0715 192.013 20.2916 192.094C20.4098 192.127 20.5333 192.127 20.6516 192.094C20.7688 192.075 20.8832 192.038 20.9916 191.985C21.0883 191.906 21.1786 191.817 21.2616 191.721C21.3357 191.62 21.384 191.499 21.4016 191.37V191.359Z" fill="white"/>
<path d="M26.9844 163.435L33.9844 163.084C33.9844 163.084 34.1244 165.279 33.1444 165.279C32.1644 165.279 26.9844 163.435 26.9844 163.435Z" fill="#1F1F1F"/>
<path d="M210.333 200.602C212.147 200.515 213.897 199.84 215.361 198.662C216.825 197.483 217.939 195.855 218.56 193.982C219.181 192.109 219.282 190.076 218.851 188.14C218.42 186.204 217.475 184.452 216.136 183.106C214.797 181.759 213.125 180.879 211.33 180.575C209.536 180.272 207.7 180.56 206.054 181.402C204.408 182.245 203.027 183.604 202.086 185.308C201.144 187.012 200.683 188.984 200.763 190.975C200.872 193.644 201.94 196.156 203.735 197.96C205.529 199.765 207.901 200.715 210.333 200.602V200.602Z" fill="#292929"/>
<path d="M205.053 198.308L203.813 197.441L203.513 197.956L202.353 199.932C202.262 200.114 202.235 200.327 202.277 200.529C202.32 200.732 202.429 200.91 202.583 201.03C202.747 201.143 202.944 201.182 203.133 201.14C203.228 201.117 203.318 201.073 203.398 201.011C203.477 200.949 203.543 200.869 203.593 200.777L204.413 199.394L205.053 198.308Z" fill="#292929"/>
<path d="M215.232 197.945L216.402 196.969L216.642 197.331L218.032 199.328C218.09 199.414 218.13 199.512 218.153 199.616C218.175 199.719 218.178 199.827 218.162 199.932C218.152 200.038 218.121 200.14 218.073 200.233C218.025 200.325 217.96 200.406 217.882 200.47V200.47C217.727 200.595 217.534 200.65 217.342 200.623C217.245 200.607 217.15 200.574 217.062 200.525C216.981 200.466 216.91 200.392 216.852 200.305L215.922 198.944L215.232 197.945Z" fill="#292929"/>
<path d="M210.703 182.04L210.573 178.593C210.571 178.55 210.562 178.508 210.546 178.468C210.53 178.429 210.507 178.393 210.478 178.364C210.449 178.334 210.415 178.311 210.378 178.296C210.341 178.281 210.302 178.274 210.263 178.275H209.543C209.502 178.276 209.463 178.287 209.426 178.305C209.39 178.324 209.357 178.35 209.33 178.383C209.303 178.416 209.282 178.454 209.269 178.496C209.255 178.538 209.25 178.582 209.253 178.626L209.373 182.073C209.378 182.161 209.414 182.244 209.474 182.303C209.534 182.363 209.612 182.394 209.693 182.391H210.403C210.443 182.39 210.483 182.38 210.521 182.361C210.558 182.343 210.591 182.317 210.619 182.284C210.647 182.251 210.669 182.213 210.683 182.171C210.697 182.129 210.704 182.085 210.703 182.04Z" fill="#292929"/>
<path d="M205.983 180.515C203.883 182.116 202.044 184.093 200.543 186.365C201.668 185.678 202.682 184.792 203.543 183.742C205.733 181.327 205.983 180.515 205.983 180.515Z" fill="#292929"/>
<path d="M200.523 180.086L200.163 180.492C200.123 180.541 200.102 180.603 200.102 180.668C200.102 180.733 200.123 180.795 200.163 180.844L204.113 184.938C204.154 184.983 204.21 185.008 204.268 185.008C204.326 185.008 204.381 184.983 204.423 184.938L204.773 184.543C204.814 184.496 204.837 184.433 204.837 184.367C204.837 184.302 204.814 184.239 204.773 184.191L200.833 180.097C200.793 180.051 200.738 180.024 200.68 180.022C200.622 180.02 200.565 180.043 200.523 180.086Z" fill="#A8A8A8"/>
<path d="M200.533 186.365C200.218 186.007 199.972 185.583 199.81 185.118C199.647 184.654 199.571 184.158 199.586 183.661C199.601 183.163 199.706 182.674 199.897 182.222C200.087 181.771 200.358 181.365 200.693 181.03C203.693 177.639 205.973 180.515 205.973 180.515C203.872 182.123 202.033 184.108 200.533 186.387V186.365Z" fill="#EAEAEA"/>
<path d="M201.783 180.383C202.051 180.192 202.367 180.097 202.686 180.113C203.005 180.129 203.312 180.254 203.563 180.471L202.883 181.107L201.783 180.383Z" fill="white"/>
<path d="M203.293 181.48L203.743 181.875L204.533 181.151L204.113 180.756L203.293 181.48Z" fill="white"/>
<path d="M214.283 180.086C216.417 181.719 218.292 183.725 219.833 186.025C218.669 185.335 217.618 184.438 216.723 183.368C214.513 180.92 214.283 180.086 214.283 180.086Z" fill="#292929"/>
<path d="M215.483 184.17L215.843 184.587C215.863 184.611 215.888 184.63 215.916 184.643C215.943 184.656 215.973 184.662 216.003 184.662C216.033 184.662 216.062 184.656 216.09 184.643C216.118 184.63 216.142 184.611 216.163 184.587L220.163 180.405C220.184 180.383 220.202 180.357 220.213 180.328C220.225 180.298 220.231 180.267 220.231 180.235C220.231 180.203 220.225 180.171 220.213 180.142C220.202 180.112 220.184 180.086 220.163 180.064L219.803 179.647C219.762 179.602 219.706 179.577 219.648 179.577C219.59 179.577 219.534 179.602 219.493 179.647L215.493 183.829C215.451 183.873 215.426 183.933 215.424 183.997C215.422 184.061 215.443 184.123 215.483 184.17Z" fill="#A8A8A8"/>
<path d="M219.822 186.035C220.148 185.668 220.403 185.231 220.571 184.752C220.739 184.273 220.818 183.762 220.801 183.249C220.784 182.736 220.673 182.232 220.473 181.768C220.274 181.303 219.991 180.888 219.642 180.547C216.532 177.079 214.262 180.031 214.262 180.031C216.401 181.665 218.28 183.675 219.822 185.981V186.035Z" fill="#EAEAEA"/>
<path d="M220.083 181.843C220.27 182.127 220.37 182.469 220.37 182.82C220.37 183.17 220.27 183.512 220.083 183.797L219.473 183.083L220.083 181.843Z" fill="white"/>
<path d="M219.143 183.533L218.803 184.038L219.493 184.883L219.833 184.4L219.143 183.533Z" fill="white"/>
<path d="M205.563 198.099L204.323 197.221L204.013 197.737L202.863 199.713C202.813 199.804 202.779 199.904 202.763 200.009C202.738 200.11 202.738 200.216 202.763 200.316C202.774 200.421 202.812 200.52 202.873 200.602C202.93 200.685 202.997 200.759 203.073 200.821C203.156 200.877 203.248 200.918 203.343 200.942C203.439 200.958 203.537 200.958 203.633 200.942C203.725 200.912 203.813 200.868 203.893 200.81C203.976 200.753 204.045 200.674 204.093 200.58L204.903 199.197L205.563 198.099Z" fill="#A8A8A8"/>
<path d="M204.912 199.208L205.562 198.11L204.322 197.232L204.012 197.748L204.912 199.208Z" fill="#292929"/>
<path d="M215.732 197.715L216.912 196.749L217.152 197.111L218.532 199.109C218.592 199.192 218.633 199.29 218.652 199.394C218.673 199.499 218.673 199.608 218.652 199.713C218.642 199.814 218.612 199.911 218.562 199.998C218.513 200.09 218.448 200.172 218.372 200.239V200.239C218.215 200.369 218.018 200.428 217.822 200.404C217.727 200.389 217.635 200.353 217.553 200.298C217.471 200.244 217.399 200.171 217.342 200.086L216.402 198.725L215.732 197.715Z" fill="#A8A8A8"/>
<path d="M216.422 198.725L215.732 197.715L216.912 196.749L217.152 197.111L216.422 198.725Z" fill="#292929"/>
<path d="M210.734 200.141C212.55 200.054 214.302 199.378 215.769 198.198C217.235 197.018 218.349 195.387 218.971 193.511C219.592 191.636 219.693 189.6 219.26 187.662C218.828 185.724 217.881 183.97 216.54 182.622C215.199 181.275 213.524 180.394 211.727 180.092C209.93 179.789 208.091 180.079 206.444 180.924C204.797 181.769 203.415 183.131 202.473 184.838C201.532 186.545 201.072 188.52 201.154 190.514C201.263 193.185 202.333 195.698 204.129 197.503C205.925 199.308 208.301 200.257 210.734 200.141V200.141Z" fill="#A8A8A8"/>
<path d="M210.662 198.439C212.161 198.366 213.607 197.807 214.817 196.831C216.027 195.856 216.946 194.509 217.458 192.961C217.971 191.412 218.053 189.731 217.696 188.131C217.338 186.531 216.556 185.083 215.449 183.971C214.342 182.859 212.959 182.131 211.476 181.881C209.992 181.632 208.474 181.87 207.114 182.567C205.754 183.264 204.613 184.387 203.835 185.796C203.056 187.205 202.676 188.835 202.742 190.481C202.784 191.575 203.023 192.649 203.444 193.642C203.865 194.634 204.461 195.526 205.197 196.265C205.932 197.004 206.794 197.577 207.732 197.95C208.67 198.323 209.665 198.489 210.662 198.439V198.439Z" fill="white"/>
<path d="M209.463 196.606V196.442H209.593V196.595L209.463 196.606ZM208.353 196.299L208.213 196.244L208.263 196.09L208.393 196.145L208.353 196.299ZM210.763 196.65V196.497H210.903V196.65H210.763ZM207.183 195.673L207.063 195.586L207.143 195.454L207.263 195.542L207.183 195.673ZM212.033 196.398L211.983 196.255L212.113 196.2L212.163 196.354L212.033 196.398ZM206.163 194.806L206.063 194.696L206.173 194.576L206.273 194.685L206.163 194.806ZM213.223 195.904L213.163 195.772L213.273 195.695L213.353 195.827L213.223 195.904ZM205.333 193.708L205.253 193.566L205.383 193.489C205.402 193.535 205.426 193.579 205.453 193.621L205.333 193.708ZM214.273 195.037L214.173 194.916L214.283 194.817L214.383 194.938L214.273 195.037ZM204.743 192.457C204.74 192.406 204.74 192.355 204.743 192.303H204.883C204.883 192.303 204.883 192.402 204.883 192.446L204.743 192.457ZM215.153 194.005L215.033 193.906L215.113 193.785L215.233 193.873L215.153 194.005ZM204.413 191.085V190.92H204.563V191.074L204.413 191.085ZM215.803 192.764L215.673 192.699L215.723 192.556L215.853 192.622L215.803 192.775V192.764ZM204.363 189.647C204.358 189.592 204.358 189.537 204.363 189.482H204.503C204.513 189.533 204.513 189.585 204.503 189.636L204.363 189.647ZM216.053 191.359V191.206H216.193C216.198 191.261 216.198 191.316 216.193 191.37L216.053 191.359ZM204.723 188.275H204.583C204.583 188.275 204.583 188.165 204.583 188.11L204.723 188.165V188.319V188.275ZM216.163 189.976V189.801H216.313V189.976H216.163ZM205.163 186.98L205.033 186.914L205.103 186.771L205.233 186.859L205.163 186.98ZM215.963 188.582V188.429H216.103C216.103 188.429 216.103 188.538 216.103 188.582H215.963ZM205.923 185.871L205.813 185.761L205.903 185.651L206.023 185.75L205.923 185.871ZM215.573 187.298C215.561 187.247 215.541 187.198 215.513 187.155L215.643 187.078C215.643 187.078 215.643 187.177 215.713 187.232L215.573 187.298ZM206.843 184.927L206.753 184.795L206.873 184.718L206.953 184.839L206.843 184.927ZM214.913 186.123L214.833 186.003L214.943 185.893C214.967 185.938 214.998 185.979 215.033 186.014L214.913 186.123ZM207.913 184.235L207.853 184.082L207.983 184.016L208.033 184.17L207.913 184.235ZM213.983 185.136L213.883 185.037L213.973 184.916L214.093 185.015L213.983 185.136ZM209.103 183.807V183.654H209.243V183.807H209.103ZM212.933 184.378L212.813 184.312L212.873 184.17L212.993 184.235L212.933 184.378ZM210.363 183.687V183.522H210.503V183.676L210.363 183.687ZM211.753 183.884H211.613V183.731H211.753V183.884Z" fill="#292929"/>
<path d="M205.573 191.755C205.854 191.741 206.124 191.637 206.351 191.455C206.577 191.273 206.749 191.021 206.846 190.732C206.942 190.442 206.958 190.128 206.892 189.829C206.825 189.529 206.679 189.258 206.473 189.05C206.266 188.841 206.008 188.704 205.73 188.657C205.453 188.61 205.169 188.654 204.914 188.783C204.659 188.913 204.445 189.123 204.299 189.386C204.153 189.649 204.081 189.954 204.093 190.262C204.101 190.467 204.145 190.668 204.224 190.853C204.302 191.039 204.414 191.206 204.551 191.345C204.688 191.484 204.849 191.591 205.025 191.662C205.2 191.732 205.387 191.763 205.573 191.755V191.755Z" fill="white"/>
<path d="M215.452 191.063C215.647 191.068 215.84 191.029 216.021 190.949C216.201 190.868 216.365 190.748 216.501 190.595C216.638 190.442 216.744 190.26 216.813 190.06C216.883 189.86 216.914 189.647 216.905 189.433C216.896 189.22 216.847 189.01 216.761 188.818C216.675 188.626 216.554 188.455 216.406 188.317C216.257 188.178 216.085 188.075 215.898 188.013C215.712 187.951 215.515 187.932 215.322 187.957C215.127 187.951 214.933 187.99 214.753 188.071C214.572 188.151 214.409 188.272 214.272 188.425C214.136 188.577 214.03 188.759 213.96 188.959C213.891 189.159 213.86 189.373 213.869 189.586C213.878 189.8 213.927 190.009 214.012 190.201C214.098 190.393 214.219 190.564 214.368 190.703C214.516 190.841 214.689 190.945 214.876 191.007C215.062 191.069 215.258 191.088 215.452 191.063V191.063Z" fill="white"/>
<path d="M209.982 185.663C210.263 185.65 210.533 185.545 210.76 185.362C210.987 185.18 211.159 184.927 211.255 184.637C211.351 184.347 211.366 184.032 211.299 183.732C211.231 183.433 211.085 183.162 210.877 182.954C210.669 182.746 210.41 182.61 210.132 182.564C209.854 182.518 209.57 182.564 209.315 182.695C209.061 182.826 208.848 183.038 208.703 183.302C208.558 183.567 208.488 183.873 208.502 184.181C208.509 184.385 208.554 184.586 208.633 184.771C208.711 184.956 208.823 185.123 208.96 185.261C209.098 185.398 209.259 185.505 209.434 185.574C209.61 185.643 209.796 185.673 209.982 185.663V185.663Z" fill="white"/>
<path d="M210.794 196.968C211.078 196.957 211.351 196.854 211.581 196.671C211.811 196.489 211.986 196.235 212.084 195.943C212.182 195.651 212.199 195.334 212.132 195.031C212.066 194.729 211.919 194.455 211.71 194.244C211.501 194.034 211.24 193.896 210.96 193.849C210.68 193.801 210.393 193.846 210.136 193.978C209.879 194.11 209.664 194.323 209.518 194.59C209.371 194.856 209.3 195.165 209.314 195.476C209.332 195.888 209.498 196.276 209.775 196.556C210.052 196.835 210.418 196.983 210.794 196.968V196.968Z" fill="white"/>
<path d="M211.463 178.111L208.333 178.243C208.252 178.248 208.176 178.288 208.12 178.353C208.064 178.418 208.033 178.504 208.033 178.594V179.384C208.038 179.473 208.075 179.555 208.134 179.615C208.194 179.674 208.273 179.706 208.353 179.703L211.483 179.571C211.524 179.569 211.564 179.559 211.601 179.541C211.638 179.522 211.672 179.496 211.7 179.463C211.727 179.431 211.749 179.392 211.763 179.351C211.778 179.309 211.785 179.264 211.783 179.22V178.44C211.782 178.395 211.773 178.351 211.756 178.311C211.739 178.27 211.715 178.233 211.685 178.203C211.656 178.172 211.621 178.148 211.583 178.132C211.545 178.117 211.504 178.109 211.463 178.111V178.111Z" fill="#EAEAEA"/>
<path d="M210.374 193.687L210.254 190.481L208.184 185.871L208.574 185.663L210.684 190.383L210.804 193.676L210.374 193.687Z" fill="#292929"/>
<path d="M207.982 185.937L208.822 185.586C208.853 185.566 208.88 185.54 208.902 185.509C208.912 185.469 208.912 185.428 208.902 185.388C208.912 185.352 208.912 185.314 208.902 185.278C208.894 185.235 208.873 185.196 208.842 185.169L208.172 184.642C208.139 184.631 208.104 184.631 208.072 184.642H207.982C207.949 184.654 207.921 184.677 207.902 184.708C207.873 184.733 207.852 184.768 207.842 184.806L207.672 185.685C207.661 185.724 207.661 185.766 207.672 185.805C207.689 185.843 207.713 185.876 207.742 185.904C207.753 185.921 207.768 185.936 207.786 185.945C207.803 185.955 207.822 185.959 207.842 185.959L207.982 185.937Z" fill="#292929"/>
<path d="M209.983 193.895L210.473 194.718C210.491 194.755 210.519 194.786 210.553 194.806H210.663C210.698 194.817 210.737 194.817 210.773 194.806C210.804 194.783 210.831 194.753 210.853 194.718L211.183 193.895C211.191 193.855 211.191 193.814 211.183 193.774C211.187 193.738 211.187 193.701 211.183 193.664C211.161 193.633 211.134 193.607 211.103 193.587C211.07 193.577 211.035 193.577 211.003 193.587H210.183C210.15 193.576 210.115 193.576 210.083 193.587C210.049 193.608 210.021 193.638 210.003 193.675C209.997 193.715 209.997 193.756 210.003 193.796C209.988 193.827 209.981 193.861 209.983 193.895V193.895Z" fill="#292929"/>
<path d="M210.544 191.074C210.636 191.07 210.725 191.046 210.808 191.003C210.891 190.96 210.966 190.9 211.027 190.825C211.088 190.751 211.136 190.663 211.166 190.568C211.197 190.474 211.209 190.373 211.204 190.273C211.198 190.12 211.151 189.974 211.068 189.851C210.986 189.728 210.872 189.635 210.742 189.584C210.611 189.532 210.469 189.524 210.335 189.561C210.2 189.598 210.079 189.679 209.985 189.792C209.892 189.905 209.832 190.045 209.812 190.196C209.792 190.347 209.813 190.501 209.873 190.638C209.933 190.776 210.029 190.89 210.148 190.968C210.268 191.046 210.405 191.083 210.544 191.074V191.074Z" fill="#292929"/>
<path d="M209.243 183.489H209.033V183.127H209.613L209.683 184.828H209.313L209.243 183.489Z" fill="#292929"/>
<path d="M209.844 184.477C210.154 184.159 210.504 183.851 210.494 183.566C210.484 183.28 210.424 183.357 210.324 183.368C210.224 183.379 210.144 183.467 210.154 183.621H209.804C209.789 183.545 209.789 183.466 209.804 183.39C209.828 183.315 209.861 183.245 209.904 183.182C209.956 183.125 210.017 183.081 210.084 183.05C210.154 183.038 210.225 183.038 210.294 183.05C210.357 183.039 210.421 183.039 210.484 183.05C210.546 183.072 210.603 183.105 210.654 183.149C210.706 183.197 210.747 183.257 210.774 183.324C210.801 183.39 210.818 183.461 210.824 183.533C210.803 183.717 210.744 183.893 210.652 184.049C210.561 184.205 210.438 184.336 210.294 184.433H210.874V184.762L209.814 184.817L209.844 184.477Z" fill="#292929"/>
<path d="M216.194 188.615C216.524 188.615 216.704 188.802 216.714 189.054C216.733 189.133 216.733 189.217 216.714 189.296C216.673 189.361 216.618 189.414 216.554 189.449V189.449C216.634 189.469 216.705 189.52 216.754 189.592C216.801 189.666 216.825 189.754 216.824 189.845C216.834 189.914 216.834 189.984 216.824 190.053C216.799 190.12 216.761 190.18 216.714 190.229C216.669 190.279 216.614 190.317 216.554 190.339C216.492 190.36 216.426 190.36 216.364 190.339C216.291 190.355 216.216 190.355 216.144 190.339C216.076 190.32 216.014 190.282 215.964 190.229C215.902 190.183 215.853 190.118 215.824 190.042C215.809 189.97 215.809 189.895 215.824 189.823H216.164C216.164 189.823 216.164 189.889 216.164 189.911C216.158 189.936 216.158 189.962 216.164 189.987H216.234C216.259 189.998 216.288 189.998 216.314 189.987C216.325 189.993 216.337 189.996 216.349 189.996C216.361 189.996 216.373 189.993 216.384 189.987C216.393 189.992 216.403 189.995 216.414 189.995C216.424 189.995 216.434 189.992 216.444 189.987C216.448 189.969 216.448 189.95 216.444 189.932C216.444 189.932 216.444 189.878 216.444 189.856C216.444 189.834 216.354 189.647 216.164 189.658H216.104V189.329H216.174C216.294 189.329 216.414 189.329 216.414 189.131C216.414 188.933 216.414 189.131 216.414 189.065C216.418 189.047 216.418 189.028 216.414 189.01C216.394 189.003 216.373 189.003 216.354 189.01H216.234H216.174C216.17 189.036 216.17 189.062 216.174 189.087H215.824C215.804 189.016 215.804 188.939 215.824 188.868C215.847 188.797 215.885 188.733 215.934 188.681C215.984 188.634 216.042 188.597 216.104 188.571C216.169 188.554 216.238 188.554 216.304 188.571L216.194 188.615Z" fill="#292929"/>
<path d="M204.322 190.382C204.331 190.434 204.356 190.48 204.392 190.514C204.412 190.524 204.435 190.529 204.457 190.529C204.479 190.529 204.502 190.524 204.522 190.514C204.672 190.514 204.722 190.36 204.712 190.031C204.675 190.086 204.627 190.131 204.572 190.163C204.52 190.179 204.464 190.179 204.412 190.163C204.349 190.174 204.285 190.174 204.222 190.163C204.167 190.135 204.116 190.098 204.072 190.053C204.026 189.998 203.989 189.935 203.962 189.866C203.948 189.801 203.948 189.734 203.962 189.669C203.952 189.592 203.952 189.515 203.962 189.438C203.986 189.362 204.028 189.295 204.082 189.241C204.126 189.182 204.185 189.14 204.252 189.12C204.318 189.105 204.386 189.105 204.452 189.12C204.902 189.12 205.022 189.427 205.052 189.943C205.082 190.459 204.952 190.843 204.542 190.865C204.48 190.882 204.414 190.882 204.352 190.865C204.29 190.852 204.231 190.822 204.182 190.777C204.131 190.733 204.09 190.677 204.062 190.613C204.047 190.548 204.047 190.48 204.062 190.415L204.322 190.382ZM204.662 189.691C204.672 189.662 204.672 189.631 204.662 189.603C204.667 189.578 204.667 189.551 204.662 189.526L204.592 189.471H204.502H204.422C204.395 189.483 204.371 189.502 204.352 189.526C204.346 189.551 204.346 189.578 204.352 189.603C204.347 189.632 204.347 189.662 204.352 189.691C204.346 189.72 204.346 189.75 204.352 189.779C204.363 189.808 204.38 189.835 204.402 189.855H204.472H204.562H204.642C204.664 189.839 204.681 189.816 204.692 189.79C204.697 189.76 204.697 189.731 204.692 189.702L204.662 189.691Z" fill="#292929"/>
<path d="M210.922 196.156C210.928 196.131 210.928 196.104 210.922 196.079V196.024C210.922 196.024 210.922 196.024 210.862 196.024H210.792C210.632 196.024 210.572 196.189 210.592 196.518C210.619 196.455 210.665 196.405 210.722 196.376C210.779 196.347 210.84 196.329 210.902 196.321C210.965 196.304 211.03 196.304 211.092 196.321C211.152 196.344 211.207 196.382 211.252 196.43C211.298 196.479 211.332 196.539 211.352 196.606C211.371 196.674 211.371 196.747 211.352 196.815C211.367 196.891 211.367 196.969 211.352 197.045C211.329 197.119 211.292 197.186 211.242 197.243C211.198 197.301 211.139 197.343 211.072 197.364C211.006 197.38 210.938 197.38 210.872 197.364C210.402 197.364 210.272 197.023 210.262 196.518C210.252 196.013 210.392 195.629 210.792 195.618C210.855 195.602 210.92 195.602 210.982 195.618C211.042 195.632 211.097 195.662 211.142 195.706C211.193 195.751 211.234 195.807 211.262 195.871C211.277 195.936 211.277 196.003 211.262 196.068L210.922 196.156ZM210.562 196.848C210.562 196.848 210.562 196.913 210.562 196.946V197.023C210.587 197.05 210.618 197.069 210.652 197.078H210.742C210.768 197.075 210.794 197.065 210.816 197.05C210.839 197.035 210.858 197.014 210.872 196.99C210.9 196.979 210.925 196.96 210.945 196.935C210.964 196.91 210.977 196.88 210.982 196.848C210.981 196.79 210.96 196.734 210.922 196.694C210.883 196.654 210.835 196.627 210.782 196.617H210.702L210.622 196.672V196.749C210.622 196.749 210.622 196.815 210.622 196.848H210.562Z" fill="#292929"/>
<path d="M217.883 189.79C217.851 188.695 217.621 187.619 217.205 186.624C216.79 185.629 216.197 184.735 215.463 183.994C214.732 183.25 213.874 182.673 212.938 182.297C212.003 181.92 211.008 181.751 210.013 181.799C209.018 181.836 208.041 182.091 207.137 182.549C206.234 183.007 205.423 183.659 204.753 184.466C204.077 185.267 203.552 186.207 203.209 187.232C202.866 188.257 202.711 189.346 202.753 190.437C202.753 190.437 203.093 182.655 210.123 182.347C216.733 182.04 217.883 189.79 217.883 189.79Z" fill="#292929"/>
<path d="M221.562 185.871C221.756 185.603 221.902 185.298 221.993 184.971C222.22 184.248 222.275 183.473 222.153 182.72H222.203C222.335 183.505 222.28 184.315 222.043 185.069C221.951 185.43 221.787 185.764 221.562 186.046V186.046V185.871Z" fill="#292929"/>
<path d="M201.363 179.724C201.363 179.724 201.363 179.724 201.363 179.669C201.981 179.052 202.782 178.703 203.616 178.684C204.451 178.666 205.264 178.981 205.903 179.57V179.57V179.636H205.853C205.248 179.059 204.47 178.748 203.668 178.764C202.866 178.781 202.099 179.123 201.513 179.724C201.513 179.724 201.513 179.724 201.513 179.724H201.363Z" fill="#292929"/>
<path d="M202.184 178.637C202.777 178.311 203.442 178.174 204.104 178.242C204.765 178.298 205.398 178.566 205.924 179.011V179.011C205.213 178.427 204.324 178.167 203.444 178.286C203.061 178.33 202.691 178.457 202.354 178.659H202.294L202.184 178.637Z" fill="#292929"/>
<path d="M213.622 180.196C213.175 180.018 212.713 179.89 212.242 179.812V179.812C212.729 179.878 213.206 180.01 213.662 180.207V180.207L213.622 180.196Z" fill="#292929"/>
<path d="M54.3125 14.7565C54.3125 22.7035 63.8825 29.1468 75.6725 29.1468C78.7144 29.1589 81.7432 28.7082 84.6725 27.8077C85.8025 29.4871 88.2925 30.6506 91.1825 30.6506C95.1825 30.6506 98.3325 28.4553 98.3325 25.8099C98.3325 23.9439 96.7925 22.3303 94.5225 21.5181C96.0701 19.6716 96.9456 17.2652 96.9825 14.7565C96.9825 6.80938 87.4525 0.366089 75.6625 0.366089C63.8725 0.366089 54.3125 6.82035 54.3125 14.7565Z" fill="#A8A8A8"/>
<path d="M75.9825 5.85431C75.5931 5.86441 75.2093 5.95762 74.8525 6.12873C74.5283 6.31166 74.2342 6.55281 73.9825 6.84221C73.742 7.12284 73.546 7.4456 73.4025 7.79717C73.2649 8.14278 73.2 8.51793 73.2125 8.89483C73.2032 9.10295 73.241 9.31035 73.3225 9.49854C73.3797 9.62618 73.4616 9.73856 73.5625 9.82784C73.6416 9.89039 73.7294 9.93857 73.8225 9.97054H74.0125C74.1709 9.96793 74.3273 9.93062 74.4725 9.86077C74.585 9.79428 74.6921 9.71716 74.7925 9.63026L74.9825 9.3778C75.0671 9.30258 75.1737 9.26358 75.2825 9.26803C75.3883 9.26179 75.4942 9.27898 75.5938 9.31858C75.6935 9.35818 75.7848 9.41938 75.8625 9.49854C75.9641 9.59763 76.043 9.72177 76.0925 9.86077C76.1561 10.0389 76.1867 10.2293 76.1825 10.4206C76.2009 10.6816 76.145 10.9424 76.0225 11.167C75.9044 11.3916 75.7442 11.5861 75.5525 11.7378C75.3535 11.9027 75.1303 12.0289 74.8925 12.111C74.66 12.1964 74.4175 12.2445 74.1725 12.2537C73.8327 12.2943 73.489 12.2415 73.1725 12.1C72.8711 11.9759 72.5981 11.7811 72.3725 11.5292C71.9072 10.9137 71.662 10.1334 71.6825 9.33389C71.6501 8.63135 71.7844 7.93162 72.0725 7.30322C72.3783 6.7251 72.7987 6.22991 73.3025 5.85431C73.8099 5.44819 74.3786 5.14349 74.9825 4.95423C75.6338 4.75204 76.3058 4.64139 76.9825 4.62493C77.7087 4.60291 78.4337 4.70285 79.1325 4.9213C79.7241 5.12599 80.279 5.44166 80.7725 5.85431C81.2612 6.25656 81.6596 6.77635 81.9369 7.3738C82.2142 7.97125 82.3632 8.6305 82.3725 9.30096C82.3973 9.9986 82.2882 10.6942 82.0525 11.3426C81.832 11.9211 81.5355 12.461 81.1725 12.9452C80.8056 13.4192 80.4043 13.8597 79.9725 14.2624C79.5325 14.6575 79.1225 15.0637 78.7225 15.4808C78.329 15.8909 77.9739 16.3432 77.6625 16.8309C77.3601 17.3043 77.1648 17.8499 77.0925 18.4225H76.0925C76.0719 17.9013 76.1225 17.3796 76.2425 16.8748C76.3624 16.392 76.5128 15.9188 76.6925 15.4588C76.8725 15.0088 77.0625 14.5588 77.2725 14.1087C77.4825 13.6587 77.6825 13.1757 77.8625 12.6927C78.0423 12.1814 78.1893 11.6569 78.3025 11.1231C78.4238 10.5106 78.4709 9.88312 78.4425 9.25706C78.4408 8.77545 78.3836 8.296 78.2725 7.8301C78.1791 7.43543 78.0197 7.06323 77.8025 6.73244C77.603 6.43442 77.3381 6.19655 77.0325 6.04091C76.7007 5.88912 76.341 5.82519 75.9825 5.85431V5.85431ZM74.8825 22.5607C74.8711 22.2578 74.9153 21.9554 75.0125 21.6716C75.1106 21.4012 75.2568 21.1549 75.4425 20.9471C75.6184 20.7328 75.8329 20.5609 76.0725 20.4422C76.3231 20.3126 76.5955 20.2416 76.8725 20.2337C77.2751 20.2282 77.6708 20.3493 78.0128 20.5827C78.3548 20.8161 78.6288 21.152 78.8025 21.5508C78.9205 21.826 78.9852 22.125 78.9925 22.429C79.005 22.8698 78.8962 23.3045 78.6804 23.6765C78.4646 24.0485 78.1517 24.3405 77.7825 24.5145C77.5274 24.6314 77.2538 24.6915 76.9775 24.6915C76.7011 24.6915 76.4275 24.6314 76.1725 24.5145C75.6909 24.3174 75.297 23.9243 75.0725 23.4169C74.95 23.1469 74.8818 22.8511 74.8725 22.5497L74.8825 22.5607Z" fill="white"/>
<path d="M86.9839 104.863V104.951C87.0559 105.313 87.0559 105.687 86.9839 106.049C86.9315 106.395 86.8122 106.724 86.6339 107.015C86.4688 107.293 86.2546 107.532 86.0039 107.717C85.7518 107.904 85.4704 108.038 85.1739 108.113C84.5416 108.247 83.8864 108.109 83.3439 107.728C82.836 107.354 82.4781 106.781 82.3439 106.126C82.2718 105.764 82.2718 105.39 82.3439 105.028C82.4024 104.679 82.5249 104.347 82.7039 104.051C82.8787 103.771 83.099 103.53 83.3539 103.338C83.6059 103.151 83.8873 103.017 84.1839 102.943C84.8065 102.805 85.4534 102.943 85.9839 103.327C86.2346 103.512 86.4488 103.751 86.6139 104.029C86.7743 104.283 86.8928 104.565 86.9639 104.863H86.9839ZM82.6839 105.961C82.7376 106.233 82.8396 106.49 82.9839 106.719C83.1382 106.954 83.3316 107.155 83.5539 107.311C84.018 107.642 84.5814 107.76 85.1239 107.641C85.3777 107.582 85.6189 107.471 85.8339 107.311C86.0452 107.147 86.2281 106.943 86.3739 106.708C86.6755 106.194 86.7831 105.572 86.6739 104.973C86.6158 104.693 86.5143 104.426 86.3739 104.183C86.23 103.943 86.0428 103.737 85.8239 103.579C85.5978 103.403 85.3377 103.287 85.0639 103.239C84.7967 103.178 84.521 103.178 84.2539 103.239C83.7316 103.366 83.2735 103.708 82.9739 104.194C82.8175 104.445 82.7118 104.729 82.6639 105.028C82.6086 105.321 82.6086 105.624 82.6639 105.917L82.6839 105.961ZM80.9839 104.238L80.6839 105.742H80.5139C79.9787 105.611 79.4634 105.397 78.9839 105.105C78.5403 104.862 78.1156 104.579 77.7139 104.26C77.3139 103.941 76.9239 103.612 76.5339 103.261C76.1469 102.908 75.743 102.578 75.3239 102.273C74.8992 101.948 74.451 101.662 73.9839 101.417C73.4432 101.141 72.8715 100.945 72.2839 100.835C71.8333 100.735 71.3733 100.694 70.9139 100.714C70.534 100.723 70.1598 100.816 69.8139 100.989C69.5085 101.145 69.2412 101.378 69.0339 101.669C68.8174 101.995 68.6704 102.37 68.6039 102.767C68.5289 103.191 68.5289 103.627 68.6039 104.051C68.6877 104.442 68.8332 104.813 69.0339 105.149C69.2325 105.477 69.4831 105.763 69.7739 105.994C70.0425 106.215 70.3539 106.365 70.6839 106.433C70.8549 106.477 71.0328 106.477 71.2039 106.433C71.3137 106.409 71.4167 106.357 71.5039 106.279C71.5703 106.226 71.6222 106.154 71.6539 106.071C71.6825 106.016 71.7028 105.957 71.7139 105.895C71.749 105.74 71.749 105.578 71.7139 105.423C71.6811 105.291 71.6375 105.163 71.5839 105.039L71.4339 104.677C71.3892 104.52 71.3892 104.351 71.4339 104.194C71.4531 104.058 71.4973 103.927 71.5639 103.81C71.6361 103.671 71.735 103.551 71.8539 103.458C71.9964 103.356 72.1562 103.285 72.3239 103.25C72.532 103.206 72.7458 103.206 72.9539 103.25C73.2366 103.305 73.4997 103.446 73.7139 103.656C73.9132 103.867 74.0759 104.116 74.1939 104.391C74.3066 104.678 74.3807 104.981 74.4139 105.292C74.4533 105.597 74.4533 105.908 74.4139 106.214C74.3524 106.605 74.2197 106.978 74.0239 107.311C73.8177 107.651 73.5485 107.939 73.2339 108.156C72.5065 108.592 71.6552 108.706 70.8539 108.475C70.1439 108.346 69.4778 108.013 68.9239 107.509C68.4131 107.046 68.0059 106.46 67.7339 105.797C67.4537 105.103 67.291 104.359 67.2539 103.601C67.1885 102.852 67.2053 102.096 67.3039 101.351C67.4445 100.483 67.7112 99.6454 68.0939 98.8702C68.4267 98.178 68.8744 97.56 69.4139 97.0481C69.9267 96.5727 70.5271 96.2244 71.1739 96.0273C71.8465 95.8299 72.5519 95.8074 73.2339 95.9614C73.9487 96.0928 74.6302 96.3883 75.2339 96.8286C75.7536 97.2254 76.2156 97.7066 76.6039 98.2555C76.9819 98.7972 77.3165 99.3738 77.6039 99.9789C77.8839 100.561 78.1739 101.142 78.4839 101.691C78.7733 102.223 79.1081 102.722 79.4839 103.184C79.8544 103.621 80.3135 103.955 80.8239 104.161L80.9839 104.238ZM80.4739 105.259L80.6139 104.457C80.1083 104.227 79.6544 103.879 79.2839 103.437C78.901 102.961 78.5658 102.443 78.2839 101.889C77.9739 101.34 77.6739 100.791 77.3839 100.155C77.0985 99.5689 76.7637 99.014 76.3839 98.497C75.9835 97.9673 75.5113 97.5082 74.9839 97.1359C74.4274 96.7249 73.7961 96.4515 73.1339 96.3346C72.5013 96.1916 71.847 96.2141 71.2239 96.4005C70.6236 96.5788 70.0668 96.9012 69.5939 97.3445C69.0863 97.8248 68.6656 98.4057 68.3539 99.0568C67.9872 99.7967 67.7338 100.598 67.6039 101.428C67.4757 102.176 67.432 102.94 67.4739 103.7C67.5334 104.408 67.706 105.099 67.9839 105.742C68.2376 106.356 68.6134 106.9 69.0839 107.333C69.5962 107.793 70.2103 108.096 70.8639 108.211C71.5773 108.408 72.3317 108.311 72.9839 107.937C73.2551 107.747 73.4868 107.496 73.6639 107.202C73.841 106.903 73.957 106.566 74.0039 106.214C74.0387 105.944 74.0387 105.671 74.0039 105.401C73.9808 105.128 73.9166 104.861 73.8139 104.611C73.7205 104.375 73.5844 104.162 73.4139 103.985C73.249 103.82 73.0442 103.709 72.8239 103.667C72.6586 103.634 72.4892 103.634 72.3239 103.667C72.2028 103.695 72.0876 103.747 71.9839 103.821C71.8327 103.94 71.7262 104.116 71.6839 104.315C71.6537 104.399 71.6537 104.493 71.6839 104.578C71.7256 104.699 71.7757 104.817 71.8339 104.929C71.8926 105.076 71.9427 105.226 71.9839 105.379C72.0287 105.592 72.0287 105.814 71.9839 106.027C71.9627 106.115 71.9325 106.199 71.8939 106.279C71.8414 106.41 71.7628 106.527 71.6639 106.62C71.5325 106.73 71.3832 106.812 71.2239 106.861C71.0028 106.911 70.7749 106.911 70.5539 106.861C70.1948 106.768 69.8553 106.601 69.5539 106.367C69.2346 106.108 68.9603 105.789 68.7439 105.423C68.5167 105.041 68.3541 104.617 68.2639 104.172C68.1738 103.698 68.1738 103.208 68.2639 102.734C68.3341 102.267 68.5018 101.823 68.7539 101.439C68.9944 101.094 69.311 100.822 69.6739 100.648C70.0593 100.463 70.4732 100.359 70.8939 100.341C71.3769 100.324 71.86 100.369 72.3339 100.473C72.9517 100.594 73.5532 100.801 74.1239 101.088C74.6184 101.344 75.0963 101.637 75.5539 101.966C75.9939 102.295 76.4039 102.635 76.7939 102.976C77.1839 103.316 77.5639 103.656 77.9539 103.963C78.3425 104.269 78.7502 104.544 79.1739 104.787C79.5676 105.003 79.9841 105.165 80.4139 105.27L80.4739 105.259Z" fill="#EAEAEA"/>
<path d="M68.2415 54.0308C68.1388 54.2908 68.0844 54.5707 68.0815 54.8541C68.0807 55.1231 68.1213 55.3902 68.2015 55.6444C68.2833 55.8808 68.4017 56.0999 68.5515 56.292C68.6982 56.4747 68.8789 56.6207 69.0815 56.7201C69.1943 56.7776 69.3171 56.8076 69.4415 56.8079C69.5251 56.807 69.6073 56.7845 69.6815 56.7421C69.7417 56.7144 69.7937 56.6687 69.8315 56.6103C69.8605 56.5744 69.8842 56.5337 69.9015 56.4896C69.9459 56.3865 69.9698 56.2743 69.9715 56.1603C69.9763 56.0726 69.9763 55.9846 69.9715 55.8969V55.6664C69.9514 55.5874 69.9514 55.5039 69.9715 55.4249C69.9965 55.3617 70.0341 55.3054 70.0815 55.2602C70.13 55.1972 70.1918 55.1482 70.2615 55.1175C70.3475 55.1009 70.4355 55.1009 70.5215 55.1175C70.6393 55.1281 70.7544 55.1616 70.8615 55.2163C71.0017 55.2917 71.1222 55.405 71.2115 55.5456C71.2958 55.6904 71.3567 55.8501 71.3915 56.0176C71.4165 56.1958 71.4165 56.3772 71.3915 56.5555C71.3407 56.9677 71.1728 57.3518 70.9115 57.6531C70.7551 57.8119 70.5715 57.935 70.3715 58.0153C69.9013 58.1515 69.4016 58.0888 68.9715 57.8397C68.5754 57.6664 68.2297 57.378 67.9715 57.0055C67.7312 56.6652 67.5699 56.2659 67.5015 55.842C67.4266 55.3994 67.4266 54.9454 67.5015 54.5028C67.5508 54.0056 67.6619 53.5181 67.8315 53.0539C68.0184 52.5661 68.275 52.114 68.5915 51.7148C68.8755 51.366 69.2142 51.076 69.5915 50.8586C69.9463 50.6625 70.3347 50.5504 70.7315 50.5293C71.1446 50.5156 71.555 50.6057 71.9315 50.7928C72.311 50.9774 72.6516 51.2465 72.9315 51.5831C73.1898 51.9127 73.4022 52.2826 73.5615 52.6807C73.7262 53.0497 73.8666 53.4312 73.9815 53.8223C74.0715 54.2174 74.1815 54.6126 74.2915 54.9968C74.3981 55.377 74.5388 55.7447 74.7115 56.0944C74.8856 56.4296 75.1287 56.7153 75.4215 56.9287L75.1615 57.5763C74.8749 57.4354 74.606 57.2546 74.3615 57.0384C74.136 56.8219 73.9222 56.591 73.7215 56.3469C73.5215 56.0944 73.3415 55.842 73.1515 55.5676C72.9615 55.2932 72.7615 55.0407 72.5415 54.7882C72.3118 54.5199 72.0644 54.2704 71.8015 54.0418C71.4941 53.7897 71.1579 53.5831 70.8015 53.4271C70.5416 53.2697 70.2666 53.1446 69.9815 53.0539C69.7402 53.0048 69.4928 53.0048 69.2515 53.0539C69.0318 53.1078 68.8265 53.2168 68.6515 53.3723C68.4726 53.55 68.3295 53.7668 68.2315 54.0089L68.2415 54.0308ZM77.0515 59.5191C76.8885 59.4427 76.7409 59.3316 76.6174 59.1922C76.4938 59.0527 76.3966 58.8878 76.3315 58.7069C76.2639 58.5296 76.2299 58.3392 76.2315 58.1471C76.2346 57.9461 76.2754 57.7481 76.3515 57.5653C76.424 57.3798 76.5294 57.2119 76.6615 57.0714C76.9347 56.7995 77.2929 56.654 77.6615 56.6652C77.8416 56.6657 78.0194 56.7107 78.1815 56.7969C78.3505 56.8766 78.5035 56.9922 78.6315 57.1372C78.7458 57.2803 78.8371 57.4436 78.9015 57.6202C79.0305 57.9724 79.0305 58.3657 78.9015 58.7178C78.8324 58.8995 78.7303 59.0639 78.6015 59.2008C78.4741 59.3332 78.3247 59.4376 78.1615 59.5081C77.8406 59.6498 77.4823 59.6498 77.1615 59.5081L77.0515 59.5191Z" fill="#A8A8A8"/>
<path d="M206.203 20.1241C205.498 19.6568 204.655 19.511 203.853 19.718C203.495 19.819 203.156 19.99 202.853 20.2229C202.554 20.438 202.301 20.7228 202.113 21.0571C202.002 21.2463 201.931 21.4599 201.903 21.6828C201.874 21.8273 201.874 21.9773 201.903 22.1218C201.942 22.2318 202 22.3324 202.073 22.4182C202.119 22.4748 202.173 22.523 202.233 22.5609C202.375 22.6714 202.54 22.7395 202.713 22.7585C202.846 22.7749 202.98 22.7749 203.113 22.7585H203.473C203.589 22.759 203.703 22.7931 203.803 22.8573C204.003 22.989 204.147 23.2021 204.203 23.45C204.228 23.6062 204.228 23.7659 204.203 23.922C204.166 24.1337 204.092 24.3351 203.983 24.5148C203.861 24.7589 203.672 24.9547 203.443 25.0746C203.216 25.2043 202.968 25.2827 202.713 25.3051C202.444 25.3254 202.174 25.2957 201.913 25.2173C201.656 25.1496 201.41 25.0385 201.183 24.888C200.878 24.7081 200.611 24.4571 200.403 24.1525C200.199 23.8445 200.056 23.493 199.983 23.1207C199.879 22.2644 200.068 21.3962 200.513 20.6839C200.86 19.9971 201.367 19.4248 201.983 19.0264C202.54 18.6848 203.157 18.4789 203.793 18.4227C204.468 18.3785 205.145 18.4639 205.793 18.6752C206.472 18.8973 207.124 19.2106 207.733 19.6082C208.412 20.0486 209.023 20.6043 209.543 21.2547C210.005 21.8191 210.365 22.4747 210.603 23.1866C210.836 23.8611 210.923 24.5854 210.859 25.3032C210.795 26.0209 210.581 26.7128 210.233 27.3248C209.889 27.9906 209.419 28.5672 208.853 29.0152C208.347 29.4003 207.791 29.7 207.203 29.9043C206.62 30.1102 206.021 30.2571 205.413 30.3434C204.803 30.4312 204.213 30.53 203.633 30.6617C203.068 30.779 202.515 30.9592 201.983 31.1995C201.454 31.4415 200.985 31.8177 200.613 32.2972L199.713 31.6935C199.986 31.2062 200.323 30.766 200.713 30.3873C201.068 30.0214 201.45 29.6873 201.853 29.3884C202.253 29.092 202.673 28.8066 203.103 28.5322C203.533 28.2578 203.953 27.9505 204.373 27.6102C204.813 27.262 205.228 26.8767 205.613 26.4576C206.047 25.9842 206.42 25.4488 206.723 24.866C206.973 24.4253 207.174 23.9537 207.323 23.461C207.446 23.0431 207.5 22.6045 207.483 22.1658C207.448 21.7761 207.332 21.4006 207.143 21.0681C206.913 20.704 206.613 20.4003 206.263 20.179L206.203 20.1241ZM196.363 34.6243C196.516 34.3467 196.716 34.1044 196.953 33.9108C197.183 33.7279 197.44 33.5905 197.713 33.5046C197.991 33.4263 198.279 33.4077 198.563 33.4498C198.858 33.4931 199.141 33.6054 199.393 33.7791C199.651 33.9434 199.876 34.1637 200.053 34.4267C200.215 34.6887 200.336 34.9779 200.413 35.2829C200.463 35.5878 200.463 35.9 200.413 36.2049C200.373 36.5302 200.274 36.8436 200.123 37.1269C199.964 37.4025 199.761 37.6442 199.523 37.8404C199.166 38.1161 198.743 38.2722 198.307 38.2897C197.87 38.3073 197.438 38.1855 197.063 37.9392C196.816 37.7761 196.599 37.5639 196.423 37.3135C196.25 37.0583 196.124 36.7677 196.054 36.4586C195.983 36.1496 195.97 35.8283 196.013 35.5134C196.064 35.1996 196.165 34.8984 196.313 34.6243H196.363Z" fill="#A8A8A8"/>
<path d="M201.044 82.23C200.869 81.9871 200.651 81.7854 200.404 81.6373C200.168 81.5055 199.915 81.4165 199.654 81.3739C199.403 81.3205 199.145 81.3205 198.894 81.3739C198.66 81.4328 198.441 81.5491 198.254 81.7141C198.141 81.7988 198.049 81.9117 197.984 82.0434C197.94 82.1348 197.916 82.2363 197.914 82.3398C197.9 82.4158 197.9 82.4942 197.914 82.5703C197.983 82.7348 198.104 82.8671 198.254 82.9435C198.337 82.9878 198.424 83.021 198.514 83.0423L198.734 83.1301C198.812 83.1536 198.882 83.2035 198.934 83.2728C198.974 83.3366 199.004 83.407 199.024 83.4813C199.044 83.5677 199.044 83.6584 199.024 83.7448C199.014 83.853 198.983 83.9577 198.934 84.0521C198.872 84.1769 198.783 84.2826 198.674 84.3595C198.543 84.4806 198.383 84.557 198.214 84.579C198.046 84.6168 197.872 84.6168 197.704 84.579C197.529 84.5333 197.366 84.4472 197.224 84.3265C197.075 84.2185 196.944 84.0851 196.834 83.9314C196.675 83.7399 196.559 83.5108 196.494 83.2618C196.439 83.013 196.439 82.7533 196.494 82.5044C196.607 81.9329 196.914 81.4303 197.354 81.0994C197.708 80.769 198.136 80.5491 198.594 80.4628C199.018 80.3874 199.452 80.4174 199.864 80.5506C200.295 80.6944 200.7 80.9171 201.064 81.2092C201.44 81.5246 201.776 81.8938 202.064 82.3069C202.398 82.7567 202.668 83.2601 202.864 83.7997C203.028 84.2769 203.112 84.7825 203.114 85.2925C203.111 85.77 203.015 86.2414 202.834 86.6755C202.631 87.1046 202.344 87.4794 201.994 87.7731C201.635 88.1026 201.215 88.3423 200.764 88.4756C200.36 88.5941 199.941 88.6422 199.524 88.6183C199.113 88.5947 198.705 88.5322 198.304 88.4317C197.904 88.3293 197.504 88.2415 197.104 88.1683C196.731 88.1354 196.356 88.1391 195.984 88.1793C195.601 88.1869 195.226 88.3001 194.894 88.5086L194.454 87.9049C194.719 87.6637 195.016 87.4676 195.334 87.3231C195.641 87.1919 195.955 87.0819 196.274 86.9938C196.594 86.906 196.914 86.8401 197.274 86.7743C197.634 86.7084 197.944 86.6206 198.274 86.5218C198.617 86.4181 198.952 86.2822 199.274 86.1157C199.632 85.9235 199.968 85.6839 200.274 85.4022C200.522 85.1825 200.75 84.9362 200.954 84.6668C201.125 84.4361 201.254 84.1715 201.334 83.8875C201.399 83.6251 201.399 83.3485 201.334 83.0862C201.272 82.7898 201.145 82.5147 200.964 82.2849L201.044 82.23ZM191.734 88.8159C191.89 88.6788 192.071 88.5779 192.264 88.5195C192.449 88.4812 192.639 88.4812 192.824 88.5195C193.012 88.5465 193.195 88.6096 193.364 88.7062C193.541 88.8149 193.697 88.9603 193.824 89.1342C193.955 89.302 194.047 89.5013 194.094 89.716C194.147 89.9183 194.163 90.1304 194.141 90.3396C194.119 90.5488 194.058 90.751 193.964 90.9344C193.871 91.1303 193.742 91.3024 193.584 91.4393C193.427 91.5777 193.247 91.682 193.054 91.7466C192.865 91.7848 192.672 91.7848 192.484 91.7466C192.295 91.7216 192.112 91.6583 191.944 91.56C191.729 91.4319 191.547 91.247 191.414 91.0222C191.277 90.7951 191.191 90.5355 191.164 90.2648C191.153 89.9986 191.194 89.733 191.284 89.4855C191.383 89.2384 191.534 89.0203 191.724 88.8488L191.734 88.8159Z" fill="#DDDDDD"/>
<path d="M122.982 5.56897C122.72 5.68233 122.484 5.8586 122.292 6.08488C122.111 6.29459 121.962 6.53564 121.852 6.79836C121.752 7.05591 121.694 7.33095 121.682 7.61064C121.671 7.87324 121.712 8.13529 121.802 8.37901C121.85 8.52249 121.925 8.65335 122.022 8.7632C122.09 8.83176 122.173 8.88078 122.262 8.90589C122.331 8.92755 122.403 8.92755 122.472 8.90589C122.518 8.91624 122.566 8.91624 122.612 8.90589C122.717 8.85716 122.812 8.7863 122.892 8.69733C122.951 8.62146 123.004 8.54073 123.052 8.45585L123.182 8.23631C123.202 8.19221 123.231 8.15301 123.265 8.12097C123.299 8.08894 123.339 8.06471 123.382 8.04971C123.451 8.03194 123.523 8.03194 123.592 8.04971C123.671 8.02875 123.753 8.02875 123.832 8.04971C123.924 8.0913 124.006 8.15509 124.072 8.23631C124.162 8.33499 124.231 8.45518 124.272 8.58757C124.341 8.75984 124.362 8.95098 124.332 9.1364C124.307 9.32404 124.245 9.50363 124.152 9.66329C124.054 9.82947 123.932 9.97764 123.792 10.1024C123.654 10.2217 123.503 10.3213 123.342 10.3987C123.128 10.5108 122.894 10.569 122.657 10.569C122.42 10.569 122.186 10.5108 121.972 10.3987C121.513 10.1299 121.16 9.68426 120.982 9.14738C120.793 8.68281 120.72 8.17119 120.772 7.66552C120.819 7.19717 120.963 6.74674 121.192 6.34832C121.438 5.92615 121.749 5.55462 122.112 5.25065C122.488 4.93022 122.901 4.66799 123.342 4.4713C123.829 4.24177 124.345 4.09732 124.872 4.04321C125.335 3.99868 125.802 4.04326 126.252 4.17493C126.669 4.31206 127.053 4.55238 127.372 4.87744C127.713 5.20201 127.977 5.61258 128.142 6.0739C128.334 6.54291 128.43 7.05259 128.422 7.56673C128.415 8.0232 128.34 8.47538 128.202 8.90589C128.071 9.33537 127.903 9.75059 127.702 10.1463C127.502 10.5414 127.312 10.9366 127.142 11.3317C126.978 11.7125 126.848 12.1094 126.752 12.5172C126.662 12.9285 126.662 13.3573 126.752 13.7686L126.102 14.065C125.971 13.7134 125.884 13.3443 125.842 12.9673C125.816 12.6019 125.816 12.235 125.842 11.8696C125.842 11.5184 125.842 11.1561 125.932 10.7719C125.971 10.4076 125.991 10.0411 125.992 9.67426C125.994 9.27414 125.971 8.87436 125.922 8.4778C125.851 8.02914 125.734 7.59088 125.572 7.17157C125.452 6.85232 125.298 6.55011 125.112 6.27148C124.962 6.02658 124.768 5.81751 124.542 5.65678C124.334 5.50353 124.092 5.41617 123.842 5.40432C123.567 5.38639 123.292 5.44294 123.042 5.56897H122.982ZM126.212 17.2153C126.131 17.0154 126.093 16.7973 126.102 16.5786C126.101 16.375 126.136 16.173 126.207 15.9846C126.277 15.7962 126.381 15.625 126.512 15.4809C126.651 15.3216 126.817 15.1946 127.002 15.1077C127.187 15.0171 127.389 14.9758 127.592 14.987C127.784 14.9888 127.974 15.0298 128.152 15.1077C128.326 15.1937 128.485 15.3126 128.622 15.459C128.763 15.6127 128.875 15.7955 128.952 15.9969C129.027 16.1992 129.068 16.415 129.072 16.6335C129.062 16.8441 129.021 17.0516 128.952 17.2482C128.874 17.4394 128.765 17.614 128.632 17.7641C128.488 17.9192 128.318 18.0422 128.132 18.1263C127.948 18.209 127.751 18.2536 127.552 18.2581C127.363 18.2561 127.177 18.2152 127.002 18.1373C126.826 18.0605 126.666 17.9447 126.532 17.797C126.394 17.6388 126.285 17.4523 126.212 17.2482V17.2153Z" fill="#DDDDDD"/>
<path d="M159.802 21.222C159.543 21.1755 159.293 21.0828 159.062 20.9476C158.689 20.7158 158.386 20.3683 158.192 19.9487C157.998 19.5287 157.925 19.0541 157.982 18.5876C158.013 18.2681 158.102 17.9585 158.242 17.6765C158.373 17.4016 158.553 17.1589 158.772 16.963C158.994 16.7644 159.25 16.6164 159.525 16.5279C159.799 16.4393 160.087 16.4118 160.372 16.4471C160.668 16.4788 160.955 16.5799 161.212 16.7435C161.692 17.0596 162.049 17.5603 162.212 18.1485C162.298 18.4574 162.325 18.7825 162.292 19.1035C162.261 19.4264 162.172 19.7396 162.032 20.0255C161.748 20.561 161.285 20.9545 160.742 21.1232C160.46 21.2127 160.165 21.2425 159.872 21.211L159.802 21.222ZM158.302 18.6315C158.274 18.8997 158.291 19.1713 158.352 19.4328C158.421 19.6898 158.537 19.9288 158.692 20.1353C158.841 20.3339 159.025 20.4981 159.232 20.6183C159.675 20.8723 160.189 20.9349 160.672 20.7939C160.905 20.72 161.122 20.597 161.312 20.4316C161.496 20.2657 161.652 20.065 161.772 19.8389C161.896 19.6015 161.974 19.3387 162.002 19.0668C162.029 18.7949 162.005 18.5197 161.932 18.2583C161.788 17.7485 161.474 17.3172 161.052 17.0508C160.834 16.9164 160.592 16.8341 160.342 16.8093C160.094 16.7762 159.842 16.7986 159.602 16.8752C159.377 16.9582 159.167 17.0846 158.982 17.2484C158.795 17.4126 158.642 17.6183 158.532 17.8521C158.411 18.0888 158.336 18.3504 158.312 18.6205L158.302 18.6315ZM159.682 14.9104V14.7347C159.729 14.2027 159.847 13.6812 160.032 13.187C160.209 12.7246 160.416 12.277 160.652 11.8479C160.882 11.4308 161.132 11.0136 161.392 10.5965C161.652 10.1794 161.902 9.76231 162.132 9.31226C162.368 8.84456 162.569 8.35628 162.732 7.85236C162.921 7.29425 163.042 6.71107 163.092 6.11805C163.142 5.65866 163.142 5.19437 163.092 4.73498C163.061 4.35059 162.959 3.97718 162.792 3.63731C162.645 3.34149 162.432 3.09202 162.172 2.91285C161.869 2.71007 161.526 2.58965 161.172 2.5616C160.809 2.51574 160.441 2.55312 160.092 2.67137C159.767 2.77925 159.462 2.95027 159.192 3.17629C158.94 3.39917 158.724 3.66622 158.552 3.96662C158.394 4.25027 158.295 4.56892 158.262 4.89963C158.227 5.07316 158.227 5.25299 158.262 5.42651C158.289 5.53338 158.345 5.6289 158.422 5.70093C158.471 5.76392 158.532 5.81291 158.602 5.84363H158.742C158.87 5.87602 159.004 5.87602 159.132 5.84363C159.238 5.80827 159.339 5.75653 159.432 5.68996L159.732 5.51433C159.858 5.44123 160 5.41067 160.142 5.42651C160.392 5.46155 160.62 5.59875 160.782 5.8107C160.882 5.94694 160.957 6.10362 161.002 6.27172C161.037 6.48588 161.037 6.70518 161.002 6.91934C160.97 7.20947 160.87 7.48555 160.712 7.72064C160.55 7.93371 160.353 8.11229 160.132 8.24752C159.902 8.38966 159.652 8.48975 159.392 8.54389C159.137 8.58754 158.877 8.58754 158.622 8.54389C158.272 8.52243 157.931 8.41755 157.622 8.23655C157.366 8.0409 157.148 7.79081 156.982 7.50111C156.567 6.80071 156.409 5.95312 156.542 5.13014C156.593 4.40402 156.821 3.7063 157.202 3.11043C157.556 2.56959 158.013 2.12006 158.542 1.79323C159.099 1.46364 159.705 1.24441 160.332 1.14561C160.996 1.0514 161.668 1.0514 162.332 1.14561C163.064 1.22054 163.78 1.4244 164.452 1.74932C165.051 2.03642 165.597 2.44199 166.062 2.94578C166.504 3.41776 166.846 3.99128 167.062 4.62522C167.281 5.28476 167.353 5.99243 167.272 6.68883C167.22 7.41043 167.026 8.11095 166.702 8.74147C166.398 9.30075 166.021 9.80753 165.582 10.2453C165.161 10.6571 164.706 11.0246 164.222 11.343C163.752 11.6723 163.302 12.0125 162.862 12.3528C162.445 12.6775 162.056 13.045 161.702 13.4505C161.367 13.8504 161.124 14.332 160.992 14.8555V15.0092L159.682 14.9104ZM161.392 2.24328C161.747 2.29009 162.088 2.42119 162.392 2.62746C162.696 2.84233 162.947 3.13648 163.122 3.48364C163.304 3.85888 163.419 4.26861 163.462 4.69108C163.517 5.17584 163.517 5.66622 163.462 6.15098C163.41 6.77678 163.286 7.39278 163.092 7.98408C162.915 8.50676 162.701 9.01327 162.452 9.49887C162.226 9.95359 161.975 10.3934 161.702 10.8161C161.442 11.2222 161.202 11.6283 160.972 12.0345C160.75 12.4515 160.553 12.8842 160.382 13.3297C160.233 13.7354 160.129 14.1592 160.072 14.5921L160.732 14.6689C160.881 14.146 161.133 13.6661 161.472 13.2639C161.839 12.8296 162.244 12.4362 162.682 12.0894C163.122 11.7491 163.582 11.3978 164.062 11.0685C164.527 10.7446 164.965 10.3774 165.372 9.97086C165.764 9.56029 166.1 9.09096 166.372 8.57682C166.669 7.98829 166.85 7.33741 166.902 6.66688C166.972 6.03747 166.911 5.39873 166.722 4.79946C166.533 4.20019 166.222 3.65625 165.812 3.20922C165.372 2.74238 164.857 2.37008 164.292 2.11155C163.657 1.8053 162.982 1.60904 162.292 1.52979C161.658 1.44741 161.017 1.44741 160.382 1.52979C159.797 1.6246 159.231 1.83273 158.712 2.14448C158.223 2.43321 157.802 2.84282 157.482 3.34094C157.137 3.88631 156.929 4.52278 156.882 5.18503C156.764 5.92202 156.899 6.68092 157.262 7.31451C157.437 7.57381 157.663 7.78745 157.922 7.94018C158.18 8.09496 158.468 8.18141 158.762 8.19264C158.984 8.22551 159.21 8.22551 159.432 8.19264C159.656 8.14647 159.872 8.06124 160.072 7.94018C160.256 7.82459 160.419 7.67191 160.552 7.49013C160.674 7.31448 160.75 7.10581 160.772 6.88641C160.802 6.72343 160.802 6.55545 160.772 6.39246C160.752 6.27451 160.704 6.16457 160.632 6.07414C160.566 5.98016 160.48 5.9049 160.382 5.85461C160.312 5.81759 160.238 5.79172 160.162 5.77777C160.097 5.78594 160.035 5.81241 159.982 5.85461L159.702 6.03023C159.586 6.09788 159.466 6.15657 159.342 6.20586C159.165 6.25511 158.979 6.25511 158.802 6.20586C158.726 6.19423 158.653 6.1721 158.582 6.14C158.472 6.09068 158.37 6.02005 158.282 5.93144C158.154 5.82456 158.051 5.68523 157.982 5.5253C157.937 5.29739 157.937 5.06169 157.982 4.83377C158.022 4.44533 158.138 4.07095 158.322 3.7361C158.72 3.03676 159.334 2.5184 160.052 2.27621C160.44 2.14352 160.849 2.10238 161.252 2.15546V2.33109V2.15546L161.392 2.24328Z" fill="#DDDDDD"/>
<path d="M103.533 31.4739C103.533 30.508 102.043 29.7286 100.203 29.7286C98.3628 29.7286 96.8828 30.508 96.8828 31.4739C96.8828 32.4398 98.3728 33.2081 100.203 33.2081C102.033 33.2081 103.533 32.4288 103.533 31.4739Z" fill="#A8A8A8"/>
</svg>
