<svg width="235" height="202" viewBox="0 0 235 202" fill="none" xmlns="http://www.w3.org/2000/svg">
<g clip-path="url(#clip0_6053_14769)">
<path d="M179.019 179.84L177.389 199.12L167.629 199.36L177.759 178.6L179.019 179.84Z" fill="#292929"/>
<path d="M116.43 122.4C114.709 121.781 113.038 121.032 111.43 120.16C108.738 118.701 106.3 116.817 104.21 114.58C105.199 114.729 106.209 114.542 107.08 114.05C108.15 113.336 108.897 112.23 109.16 110.97C109.421 109.727 109.459 108.447 109.27 107.19C109.118 104.899 108.481 102.666 107.4 100.64C106.86 99.6291 106.124 98.7361 105.234 98.0132C104.345 97.2904 103.32 96.7521 102.22 96.43C101.284 96.2431 100.316 96.2985 99.4081 96.5908C98.4998 96.883 97.6812 97.4025 97.03 98.1C96.7008 95.7799 96.5071 93.4426 96.45 91.1C96.35 86.9 96.56 82.7 96.68 78.5C96.74 76.06 96.78 73.61 96.68 71.18C97.4 71.18 98.11 71.06 98.83 70.95C103.922 69.9559 108.676 67.6772 112.64 64.33C113.289 65.1078 114.032 65.803 114.85 66.4C118.3 68.93 122.73 69.73 127.04 69.53C133.207 69.1824 139.108 66.8972 143.9 63C143.732 66.2873 144.381 69.5651 145.79 72.54C146.94 74.8242 148.629 76.7942 150.71 78.28C151.646 78.7772 152.36 79.6092 152.71 80.61C153.033 81.8844 153.465 83.129 154 84.33C154.552 85.5302 155.222 86.6725 156 87.74L156.18 87.79C155.698 89.5371 155.403 91.3305 155.3 93.14C154.972 96.2061 155.437 99.3052 156.65 102.14C157.712 104.5 159.664 106.344 162.08 107.27C160.497 109.718 158.678 112.006 156.65 114.1C153.547 117.379 149.865 120.057 145.79 122L145.08 122.34C144.239 122.72 143.378 123.054 142.5 123.34C137.543 124.899 132.315 125.41 127.15 124.84C125.85 124.71 124.56 124.52 123.29 124.28C120.954 123.85 118.659 123.221 116.43 122.4ZM153 108.51C153.778 107.618 154.354 106.568 154.689 105.432C155.024 104.296 155.11 103.102 154.94 101.93C154.51 99.61 152.68 97.18 150.09 96.93C148.946 96.8492 147.797 96.9988 146.711 97.3698C145.626 97.7408 144.626 98.3257 143.77 99.09C142.072 100.632 140.71 102.508 139.77 104.6C139.181 105.723 138.782 106.936 138.59 108.19C138.482 108.848 138.521 109.522 138.704 110.163C138.888 110.804 139.211 111.397 139.651 111.898C140.091 112.399 140.636 112.796 141.248 113.061C141.86 113.326 142.524 113.452 143.19 113.43C144.573 113.397 145.934 113.08 147.19 112.5C149.403 111.659 151.375 110.285 152.93 108.5L153 108.51Z" fill="#DDDDDD"/>
<path d="M170.89 183.57C170.312 183.066 169.863 182.432 169.58 181.72C169.29 181.011 169.17 180.244 169.23 179.48C169.25 178.997 169.3 178.516 169.38 178.04C172.407 180.324 175.634 182.332 179.02 184.04C178.366 184.41 177.671 184.702 176.95 184.91C176.107 185.141 175.23 185.219 174.36 185.14C173.061 185.016 171.84 184.464 170.89 183.57Z" fill="#BF3426"/>
<path d="M154.909 101.93C155.078 103.102 154.993 104.296 154.658 105.432C154.323 106.568 153.747 107.618 152.969 108.51C151.41 110.291 149.439 111.665 147.229 112.51C145.972 113.087 144.611 113.403 143.229 113.44C142.539 113.447 141.857 113.304 141.229 113.02C140.586 112.737 140.013 112.317 139.549 111.79C138.797 110.754 138.478 109.467 138.659 108.2C138.85 106.946 139.248 105.733 139.839 104.61C140.776 102.513 142.138 100.634 143.839 99.0901C144.697 98.33 145.697 97.7484 146.782 97.3793C147.867 97.0101 149.015 96.8608 150.159 96.9401C152.689 97.1801 154.479 99.6101 154.909 101.93Z" fill="#BFBFBF"/>
<path d="M145 122.72C144.92 124.5 144.84 126.31 144.76 128.07C143.784 129.476 142.526 130.663 141.066 131.557C139.606 132.45 137.976 133.03 136.28 133.26C132.78 133.7 127.39 132.32 126.58 129.74C133.362 129.68 139.898 127.19 145 122.72Z" fill="#DDDDDD"/>
<path d="M116.429 122.4C113.738 126.366 111.687 130.729 110.349 135.33C109.222 136.09 108.122 136.91 107.049 137.79C105.839 138.79 104.669 139.84 103.559 140.95C104.647 133.532 107.339 126.441 111.449 120.17C113.048 121.041 114.713 121.787 116.429 122.4Z" fill="#A8A8A8"/>
<path d="M109.358 107.19C109.539 108.447 109.498 109.727 109.238 110.97C108.975 112.23 108.229 113.335 107.158 114.05C106.291 114.542 105.284 114.729 104.298 114.58C103.71 113.943 103.156 113.276 102.638 112.58C101.226 110.636 100.076 108.515 99.2184 106.27C98.2261 103.632 97.5318 100.892 97.1484 98.1C97.7996 97.4025 98.6182 96.883 99.5265 96.5907C100.435 96.2984 101.403 96.2431 102.338 96.43C103.434 96.7496 104.455 97.2869 105.338 98.01C106.229 98.7338 106.967 99.6279 107.508 100.64C108.574 102.671 109.205 104.902 109.358 107.19Z" fill="#BFBFBF"/>
<path d="M145.059 122.35V122.72C139.954 127.182 133.418 129.665 126.639 129.72C126.809 128.12 126.979 126.46 127.149 124.81C132.313 125.388 137.542 124.881 142.499 123.32C143.359 123 144.209 122.71 145.059 122.35Z" fill="#BFBFBF"/>
<path d="M166.809 138.8C160.359 133.8 153.009 128.02 144.809 128.13H144.759C143.785 129.538 142.528 130.727 141.067 131.621C139.607 132.514 137.976 133.093 136.279 133.32C132.779 133.76 127.399 132.39 126.589 129.81H125.999C120.406 130.319 115.032 132.235 110.379 135.38C109.238 136.14 108.136 136.958 107.079 137.83C105.869 138.83 104.699 139.88 103.589 140.99C99.729 144.99 85.829 161.53 82.959 165.37L101.649 184.66L102.479 185.66L102.809 183.66C103.656 178.46 104.552 173.27 105.499 168.09C106.434 161.417 108.691 154.998 112.139 149.21C115.587 143.421 120.157 138.379 125.579 134.38C128.302 136.78 131.831 138.062 135.459 137.97C137.627 137.901 139.75 137.329 141.659 136.3C145.549 154.85 157.059 170.3 165.739 178.95C167.379 180.595 169.115 182.141 170.939 183.58C170.363 183.073 169.911 182.44 169.619 181.73C169.337 181.015 169.22 180.246 169.279 179.48C169.3 179.001 169.347 178.524 169.419 178.05C169.939 173.28 178.199 188.89 180.419 184.64C184.369 154.19 166.809 138.8 166.809 138.8Z" fill="#A8A8A8"/>
<path d="M109.468 90.69C110.125 90.692 110.768 90.499 111.315 90.1354C111.863 89.7718 112.29 89.254 112.543 88.6475C112.795 88.041 112.863 87.3732 112.736 86.7285C112.609 86.0838 112.293 85.4913 111.829 85.026C111.365 84.5607 110.774 84.2435 110.13 84.1146C109.485 83.9857 108.817 84.0508 108.21 84.3018C107.603 84.5528 107.084 84.9783 106.718 85.5245C106.353 86.0707 106.158 86.713 106.158 87.37C106.157 87.8056 106.242 88.2371 106.407 88.6398C106.573 89.0425 106.817 89.4086 107.124 89.717C107.432 90.0254 107.797 90.2702 108.199 90.4371C108.601 90.6041 109.033 90.69 109.468 90.69Z" fill="black"/>
<path d="M172 106.85C172.286 107.265 172.484 107.735 172.58 108.23C172.685 108.721 172.685 109.229 172.58 109.72C172.385 110.263 172.038 110.739 171.58 111.09C171.127 111.441 170.581 111.649 170.01 111.69C169.447 111.738 168.881 111.662 168.35 111.47C167.82 111.275 167.336 110.972 166.93 110.58C166.66 112.77 164.53 114.35 162.36 114.72C160.493 114.947 158.6 114.784 156.8 114.24L156.75 114.18C158.775 112.086 160.59 109.798 162.17 107.35C162.651 107.528 163.151 107.648 163.66 107.71C164.911 107.861 166.179 107.71 167.36 107.27C168.656 106.785 169.845 106.051 170.86 105.11L171.13 105.5C171.446 105.933 171.737 106.383 172 106.85Z" fill="#292929"/>
<path d="M145.809 122C145.559 122.24 145.309 122.48 145.039 122.72V122.35L145.809 122Z" fill="#A66E6E"/>
<path d="M129.26 89.19C129.919 89.2019 130.568 89.0171 131.122 88.6592C131.676 88.3013 132.11 87.7864 132.371 87.1803C132.631 86.5742 132.705 85.9044 132.583 85.2562C132.461 84.608 132.148 84.0108 131.685 83.5409C131.223 83.0709 130.63 82.7495 129.984 82.6176C129.338 82.4857 128.667 82.5493 128.057 82.8002C127.447 83.0512 126.925 83.4782 126.559 84.0267C126.193 84.5752 125.998 85.2204 126 85.88C126 86.7493 126.342 87.5837 126.952 88.203C127.562 88.8223 128.391 89.1769 129.26 89.19Z" fill="black"/>
<path d="M126.61 129.73H126L126.6 129.67L126.61 129.73Z" fill="#A66E6E"/>
<path d="M125.999 129.73C120.403 130.246 115.028 132.173 110.379 135.33C111.715 130.728 113.767 126.364 116.459 122.4C118.68 123.21 120.964 123.832 123.289 124.26C124.559 124.5 125.849 124.69 127.149 124.82C126.979 126.46 126.809 128.12 126.639 129.72V129.66L125.999 129.73Z" fill="#292929"/>
<path d="M166.81 138.78C160.36 133.78 153.01 128.01 144.81 128.11H144.76C144.84 126.33 144.93 124.52 145.01 122.76C145.27 122.53 145.53 122.29 145.78 122.04C149.872 120.118 153.574 117.457 156.7 114.19L156.75 114.25C158.55 114.793 160.443 114.957 162.31 114.73C164.46 114.36 166.61 112.73 166.88 110.59C167.286 110.982 167.77 111.285 168.3 111.48C168.831 111.672 169.397 111.747 169.96 111.7C170.533 111.648 171.08 111.431 171.534 111.076C171.988 110.722 172.33 110.244 172.52 109.7C172.625 109.205 172.625 108.694 172.52 108.2C172.424 107.705 172.226 107.235 171.94 106.82C174.173 106.319 176.471 106.17 178.75 106.38C182.17 106.79 185.64 108.67 186.96 111.87C188.28 115.07 187.14 118.87 186.1 122.33C183.49 131.23 178.61 188.66 177.48 197.87C177.48 197.87 182.94 178.2 178.97 160.51C177.176 152.215 172.941 144.647 166.81 138.78Z" fill="#292929"/>
<path d="M177.39 199.12C178.52 189.91 183.53 131.26 186.15 122.36C187.15 118.94 188.36 115.18 187 111.9C185.64 108.62 182.22 106.82 178.79 106.41C176.514 106.201 174.22 106.35 171.99 106.85C171.721 106.378 171.427 105.921 171.11 105.48L170.85 105.1C169.85 104.67 169.01 104.2 169.31 103.85C170.31 102.64 168.26 102.42 168.9 100.92L174.41 100.1C177.461 99.6716 180.56 99.7087 183.6 100.21C188.6 101.15 193.52 104.29 195.08 109.13C196.64 113.97 194.63 119.23 192.96 124.13C189.63 133.8 185.96 189.13 184.72 199.28C184.72 199.23 178.74 200.18 177.39 199.12Z" fill="#A8A8A8"/>
<path d="M141.609 136.24C139.049 137.571 136.148 138.104 133.282 137.77C130.416 137.437 127.716 136.253 125.529 134.37C120.154 138.203 115.606 143.079 112.156 148.707C108.707 154.336 106.425 160.601 105.449 167.13C104.502 172.163 103.606 177.203 102.759 182.25C102.659 182.9 102.539 183.56 102.429 184.25C101.796 188.09 101.196 191.943 100.629 195.81C100.379 197.57 100.269 198.26 100.029 200.03C99.6089 203.03 100.189 198.53 99.9389 200.66L152.159 200.56L156.459 167.3C150.219 159 144.219 148.28 141.609 136.24Z" fill="#FFFBFF"/>
<path d="M165.698 177.68C162.371 174.45 159.295 170.969 156.498 167.27L152.158 200.53L163.888 200.62C164.838 188 164.758 190.28 165.698 177.68Z" fill="#EAEAEA"/>
<path d="M160.818 109L154.908 101.91L153.648 90.0301L156.588 81.9001L160.468 77.4301L164.818 77.3101L166.468 78.0201L167.868 81.0801L168.808 86.1501V93.2201L166.808 100.75L164.808 108.17L160.818 109Z" fill="#DDDDDD"/>
<path d="M163.668 45.78C163.418 44.3941 162.98 43.0486 162.368 41.78C162.282 41.6 162.182 41.42 162.068 41.24C159.068 36.44 144.278 26.52 119.068 32.57C115.702 33.373 112.386 34.3747 109.138 35.57C106.919 36.3954 104.604 36.9331 102.248 37.17C97.7784 37.62 93.2484 38.01 89.2484 39.82C87.0233 40.7889 85.0108 42.1866 83.3259 43.9333C81.641 45.68 80.3166 47.7415 79.4284 50C78.554 52.2584 78.2118 54.6879 78.4284 57.1C78.661 59.5092 79.4371 61.8342 80.6984 63.9C83.6384 68.46 89.0084 70.9 94.4684 71.19C95.2209 71.2401 95.9759 71.2401 96.7284 71.19C97.4614 71.1682 98.1926 71.1047 98.9184 71C104.015 70.0187 108.772 67.7385 112.728 64.38C113.377 65.1609 114.12 65.8594 114.938 66.46C118.398 68.99 122.828 69.79 127.128 69.58C133.286 69.2186 139.171 66.915 143.938 63C143.766 66.2887 144.42 69.5681 145.838 72.54C146.985 74.8292 148.674 76.8032 150.758 78.29C151.698 78.7832 152.413 79.6167 152.758 80.62C153.097 81.8821 153.542 83.1131 154.088 84.3C154.644 85.4982 155.314 86.6401 156.088 87.71H156.268C155.89 85.0611 156.538 82.3677 158.078 80.18C160.188 77.43 163.818 76.08 168.328 82.08C168.258 76.8 166.888 67.87 166.278 62.6C165.638 57 164.748 51.39 163.668 45.78Z" fill="black"/>
<path d="M162.069 41.24C162.069 41.24 167.339 49.61 170.159 70.09C171.259 78.3014 171.29 86.6208 170.249 94.84C169.709 99.22 169.349 103.75 171.679 106.21L165.319 109.54L160.689 110.06L160.929 100.83C160.954 99.8284 161.213 98.8465 161.688 97.9639C162.162 97.0814 162.837 96.3229 163.659 95.75C165.749 94.31 168.169 91.33 167.189 85.45C165.559 75.64 159.759 78.55 159.759 78.55C159.759 78.55 154.619 80.92 156.279 87.81L152.689 80.67L162.069 41.24Z" fill="black"/>
<path d="M129.35 78.0601C129.573 78.0951 129.777 78.2043 129.93 78.3701C131.256 80.0326 133.158 81.1357 135.26 81.4601C135.386 81.4673 135.509 81.5014 135.62 81.5601C135.735 81.6148 135.837 81.6928 135.919 81.7893C136.002 81.8857 136.064 81.9984 136.1 82.1201C136.149 82.2355 136.175 82.3596 136.175 82.4851C136.175 82.6105 136.149 82.7347 136.1 82.8501C136.038 82.9605 135.961 83.0615 135.87 83.1501C135.772 83.2293 135.66 83.2902 135.54 83.3301C135.414 83.3544 135.286 83.3544 135.16 83.3301C132.542 82.9768 130.154 81.6439 128.48 79.6001C128.346 79.4523 128.259 79.2678 128.23 79.0701C128.209 78.8734 128.248 78.675 128.34 78.5001C128.436 78.3245 128.582 78.1817 128.76 78.0901C128.94 78.0027 129.142 77.9714 129.34 78.0001L129.35 78.0601Z" fill="#292929"/>
<path d="M108.288 79.4199C108.523 79.3694 108.768 79.4049 108.978 79.5199C109.089 79.5814 109.185 79.6645 109.262 79.7641C109.34 79.8638 109.396 79.978 109.428 80.0999C109.495 80.3446 109.467 80.6055 109.348 80.8299C108.208 82.8101 106.373 84.2961 104.198 84.9999C104.079 85.0398 103.953 85.0551 103.827 85.0448C103.702 85.0345 103.58 84.9988 103.468 84.9399C103.243 84.8212 103.071 84.6209 102.988 84.3799C102.92 84.1372 102.946 83.8777 103.061 83.6533C103.176 83.4289 103.372 83.2563 103.608 83.1699C105.326 82.6094 106.773 81.4294 107.668 79.8599C107.733 79.7456 107.822 79.6467 107.928 79.5699C108.037 79.4967 108.16 79.4458 108.288 79.4199Z" fill="#292929"/>
<path d="M119.92 100.51C119.831 100.513 119.744 100.489 119.67 100.44C118.536 99.8056 117.57 98.9111 116.85 97.83C116.461 97.2433 116.235 96.5645 116.193 95.8622C116.151 95.1599 116.294 94.459 116.61 93.83C116.899 93.3392 117.288 92.9136 117.75 92.58C118.215 92.2479 118.742 92.0132 119.3 91.89C120.332 91.6766 121.389 91.6126 122.44 91.7C122.499 91.6867 122.56 91.6867 122.62 91.7C122.678 91.724 122.729 91.7618 122.77 91.81C122.814 91.8555 122.848 91.9101 122.87 91.97C122.879 92.0296 122.879 92.0904 122.87 92.15C122.875 92.2132 122.875 92.2768 122.87 92.34C122.839 92.394 122.802 92.4443 122.76 92.49C122.709 92.5327 122.652 92.5665 122.59 92.59C122.531 92.6053 122.469 92.6053 122.41 92.59C121.45 92.5063 120.483 92.5636 119.54 92.76C119.112 92.8402 118.706 93.0106 118.35 93.26C117.991 93.5117 117.686 93.831 117.45 94.2C117.231 94.6751 117.138 95.1986 117.18 95.72C117.218 96.2479 117.39 96.7573 117.68 97.2C118.322 98.1427 119.174 98.9232 120.17 99.48C120.261 99.5285 120.329 99.6112 120.36 99.71C120.389 99.8112 120.389 99.9188 120.36 100.02C120.331 100.119 120.271 100.207 120.19 100.27C120.106 100.332 120.004 100.367 119.9 100.37L119.92 100.51Z" fill="#BFBFBF"/>
<path d="M207.64 161.47L208.27 162.9L207.27 163.03L207.64 161.47Z" fill="#292929"/>
<path d="M208.28 162.89L209.28 165.08L206.84 165.27L207.33 163.01L208.28 162.89Z" fill="#DDDDDD"/>
<path d="M223.999 161.67L224.279 163.07L223.279 162.9L223.999 161.67Z" fill="#292929"/>
<path d="M224.25 163.07L224.62 164.97L222.26 164.59L223.26 162.9L224.25 163.07Z" fill="#DDDDDD"/>
<path d="M200.939 163.71L203.309 174.35H200.819L198.559 164.24L200.939 163.71Z" fill="#DDDDDD"/>
<path d="M209.249 165.08C209.475 168.167 209.715 171.257 209.969 174.35H207.479L206.799 165.27L209.249 165.08Z" fill="white"/>
<path d="M211.709 174.33C212.039 164.71 212.329 153.41 212.709 145.01H217.399C217.129 151.2 216.909 158.95 216.679 166.44V166.49H215.729L215.409 174.39H211.729L211.709 174.33Z" fill="#DDDDDD"/>
<path d="M218.139 166.55L217.819 174.35H215.359L215.689 166.45H216.639L218.139 166.55Z" fill="white"/>
<path d="M224.619 165L222.919 174.33H220.469L222.239 164.59L224.619 165Z" fill="#DDDDDD"/>
<path d="M203.309 174.35H222.919C223.249 174.35 223.639 174.35 223.699 174.66C223.708 174.899 223.681 175.139 223.619 175.37C223.559 175.92 223.499 176.47 223.439 177L222.969 181.08L222.429 185.78C222.239 187.36 222.059 188.96 221.869 190.55L221.389 194.86C221.259 195.94 221.139 197.01 221.009 198.11L220.899 199.11H202.899V198.83C202.789 197.83 202.669 196.94 202.569 196C202.419 194.67 202.259 193.33 202.109 192L201.569 187.32C201.379 185.73 201.199 184.14 201.019 182.55L200.519 178.24C200.389 177.13 200.269 176.02 200.139 174.91C200.089 174.46 200.339 174.44 200.699 174.44H203.369L203.309 174.35Z" fill="#A8A8A8"/>
<path d="M84.3591 165.75C84.3591 165.75 73.5291 175.28 72.3591 185.44C71.3591 194.15 91.0191 183.56 96.0791 183.44C103.599 183.23 104.579 172.04 104.579 172.04L84.3591 165.75Z" fill="#DDDDDD"/>
<path d="M104.119 174.47L97.2791 173.24C93.838 172.637 90.3212 172.603 86.8691 173.14C86.4591 173.23 85.6391 173.27 85.6791 173.88C85.7191 174.49 86.2191 174.33 86.5591 174.32C88.0678 174.23 89.5805 174.23 91.0891 174.32C94.1348 174.566 97.1491 175.108 100.089 175.94C100.089 175.94 103.659 176.36 103.719 176.37C103.809 176 103.999 175.2 104.119 174.47Z" fill="#BFBFBF"/>
<path d="M129.939 174C133.029 174.53 134.989 176.7 135.179 179.06C135.449 182.46 131.309 183.24 131.309 183.24L129.939 174Z" fill="#DDDDDD"/>
<path d="M122.569 161.34C120.799 163.25 131.499 190.34 134.409 196C137.319 201.66 139.219 199.18 137.569 194.7C135.919 190.22 125.939 157.68 122.569 161.34Z" fill="#2C2D40"/>
<path d="M81.2385 176.11C77.4885 177.2 72.8385 179.19 72.0485 184.11C71.2585 189.03 73.0485 200.18 88.4085 199.18C96.9685 198.63 106.219 193.33 110.749 191.74C111.709 191.338 112.748 191.16 113.788 191.219C114.827 191.278 115.84 191.572 116.749 192.08C119.819 193.73 122.219 193.96 124.439 191.58C124.439 191.58 128.949 193.83 130.229 187.99C131.018 188.303 131.892 188.331 132.7 188.07C133.508 187.809 134.201 187.275 134.659 186.56C136.659 183.17 128.329 175.91 125.849 173.83C123.369 171.75 121.349 170.52 112.429 174.54C103.399 178.68 94.5885 172.22 81.2385 176.11Z" fill="#DDDDDD"/>
<path d="M125.49 181.42C125.13 181.16 125.49 181.42 125.49 181.42V181.42Z" fill="#D57047"/>
<path d="M130.048 176.07C128.43 174.796 126.639 173.759 124.728 172.99C125.137 173.262 125.527 173.559 125.898 173.88C128.378 175.96 136.748 183.22 134.708 186.61C134.416 187.107 134.008 187.525 133.518 187.83C133.187 188.022 132.794 188.08 132.422 187.99C132.05 187.901 131.726 187.672 131.518 187.35C131.238 186.91 130.908 186.5 130.678 186.18C129.356 184.206 127.584 182.575 125.508 181.42C125.399 181.345 125.273 181.298 125.141 181.282C125.01 181.267 124.876 181.284 124.753 181.333C124.63 181.381 124.52 181.459 124.434 181.56C124.347 181.66 124.287 181.781 124.258 181.91C124.168 182.32 124.428 182.54 124.658 182.82C125.278 183.59 126.048 184.25 126.728 184.97C127.527 185.808 128.262 186.703 128.928 187.65C129.128 187.93 129.318 188.28 129.518 188.65C129.65 188.863 129.725 189.107 129.735 189.357C129.746 189.608 129.692 189.857 129.578 190.08C129.281 190.655 128.849 191.149 128.318 191.52C128.004 191.736 127.617 191.818 127.242 191.748C126.867 191.679 126.535 191.464 126.318 191.15C126.058 190.77 125.758 190.41 125.528 190.15C124.335 188.615 122.824 187.356 121.098 186.46C120.188 186.05 119.858 187.13 120.258 187.73C120.827 188.419 121.46 189.051 122.148 189.62C122.618 190.11 123.088 190.62 123.518 191.14C123.613 191.26 123.682 191.399 123.719 191.548C123.756 191.697 123.762 191.852 123.736 192.003C123.709 192.154 123.651 192.297 123.566 192.424C123.48 192.551 123.368 192.659 123.238 192.74C121.358 193.92 119.308 193.52 116.808 192.18C115.401 191.373 113.745 191.114 112.158 191.45C115.248 192.45 116.698 193.94 117.968 194.45C119.08 194.964 120.309 195.171 121.527 195.05C122.746 194.928 123.91 194.483 124.898 193.76C125.964 194.043 127.091 193.998 128.131 193.631C129.172 193.263 130.077 192.59 130.728 191.7C131.086 191.191 131.372 190.636 131.578 190.05C134.198 189.97 136.748 188.16 136.578 185.26C136.368 181.55 132.668 178.22 130.048 176.07Z" fill="#BFBFBF"/>
<path d="M140.639 123.19C140.639 123.19 135.189 126.93 137.529 136.87C140.909 151.2 147.369 196.4 163.999 199.12C180.629 201.84 183.649 180.64 169.669 161.47C154.669 140.86 151.559 130.56 151.559 130.56C151.559 130.56 158.219 127.17 161.229 122.73C163.339 119.61 166.999 114.01 161.229 110.92C155.459 107.83 140.639 123.19 140.639 123.19Z" fill="#DDDDDD"/>
<path d="M158.879 110.06C152.879 114.83 146.579 118.4 140.639 123.19C144.559 116.61 151.769 112.43 158.879 110.06Z" fill="#BFBFBF"/>
<path d="M115.648 109C115.648 109 119.308 104 128.798 106.72" stroke="#292929" stroke-miterlimit="10" stroke-linecap="round"/>
<path d="M0.749146 201H233.419C233.63 200.968 233.822 200.862 233.961 200.7C234.1 200.539 234.176 200.333 234.176 200.12C234.176 199.907 234.1 199.701 233.961 199.54C233.822 199.378 233.63 199.272 233.419 199.24H0.749146C0.538551 199.272 0.346356 199.378 0.207463 199.54C0.0685693 199.701 -0.0078125 199.907 -0.0078125 200.12C-0.0078125 200.333 0.0685693 200.539 0.207463 200.7C0.346356 200.862 0.538551 200.968 0.749146 201Z" fill="black"/>
<path d="M47.5698 131.65H63.4998V199.84L47.0898 199.37L47.5698 131.65Z" fill="#DDDDDD"/>
<path d="M50.1794 136.61H60.7394V194.87L49.8594 194.45L50.1794 136.61Z" fill="white"/>
<path d="M47.5691 131.65L47.0891 199.37H34.5391V137L47.5691 131.65Z" fill="#242424"/>
<path d="M27.6187 131.65H43.5587V199.84L27.1387 199.37L27.6187 131.65Z" fill="#A8A8A8"/>
<path d="M30.2284 136.61H40.7984V194.87L29.8984 194.45L30.2284 136.61Z" fill="white"/>
<path d="M27.6198 131.65L27.1398 199.37H14.5898V137L27.6198 131.65Z" fill="#242424"/>
<path d="M35.7285 14.19C35.7285 22.02 46.0785 28.38 58.8385 28.38C62.1306 28.392 65.4084 27.9477 68.5785 27.06C69.7985 28.71 72.4885 29.86 75.5785 29.86C79.8485 29.86 83.3185 27.72 83.3185 25.08C83.3185 23.25 81.6485 21.66 79.1985 20.86C80.9162 19.0539 81.9123 16.6809 81.9985 14.19C81.9985 6.35 71.5885 0 58.8385 0C46.0885 0 35.7285 6.36 35.7285 14.19Z" fill="#A8A8A8"/>
<path d="M59.1693 5.42993C58.7644 5.44331 58.3664 5.53856 57.9993 5.70993C57.6233 5.86637 57.2831 6.09773 56.9993 6.38993C56.7316 6.66046 56.5178 6.97947 56.3693 7.32993C56.2265 7.64372 56.1548 7.9852 56.1593 8.32993C56.1546 8.53633 56.1956 8.74123 56.2793 8.92993C56.3401 9.05247 56.4292 9.15875 56.5393 9.23993C56.6192 9.30978 56.7156 9.35798 56.8193 9.37993H57.0293C57.1987 9.37916 57.3659 9.34163 57.5193 9.26993L57.8693 9.03993L58.1493 8.80993C58.2445 8.73853 58.3603 8.69993 58.4793 8.69993C58.7072 8.69805 58.9278 8.7799 59.0993 8.92993C59.2111 9.0275 59.2969 9.15116 59.3493 9.28993C59.4203 9.46818 59.4576 9.65807 59.4593 9.84993C59.4714 10.1069 59.4051 10.3615 59.2693 10.5799C59.1411 10.7977 58.9712 10.988 58.7693 11.1399C58.5538 11.306 58.3098 11.4313 58.0493 11.5099C57.8006 11.5943 57.5416 11.6448 57.2793 11.6599C56.9384 11.6777 56.5976 11.6232 56.2793 11.4999C55.9516 11.3796 55.6545 11.1884 55.4093 10.9399C54.8988 10.3352 54.6347 9.56054 54.6693 8.76993C54.6338 8.07814 54.7785 7.38899 55.0893 6.76993C55.3858 6.23503 55.7912 5.7683 56.2793 5.39993C56.8241 5.0074 57.4333 4.71298 58.0793 4.52993C58.7623 4.33027 59.4681 4.21935 60.1793 4.19993C60.9694 4.18049 61.7579 4.27822 62.5193 4.48993C63.185 4.68617 63.8111 4.99755 64.3693 5.40993C64.881 5.80774 65.3034 6.30854 65.6093 6.87993C65.9119 7.47918 66.0759 8.13876 66.0893 8.80993C66.1201 9.49323 66.0042 10.1752 65.7493 10.8099C65.4972 11.3838 65.1601 11.9165 64.7493 12.3899C64.3576 12.8566 63.926 13.2882 63.4593 13.6799C62.9893 14.0799 62.5293 14.4699 62.0993 14.8899C61.6892 15.3027 61.3207 15.7549 60.9993 16.2399C60.6704 16.71 60.4579 17.2516 60.3793 17.8199H59.3293C59.3111 17.3077 59.3683 16.7955 59.4993 16.2999C59.6351 15.8326 59.8021 15.3749 59.9993 14.9299C60.1893 14.4799 60.3993 14.0399 60.6293 13.5999C60.867 13.1448 61.0806 12.6775 61.2693 12.1999C61.4607 11.691 61.6177 11.1698 61.7393 10.6399C61.8678 10.0388 61.9215 9.42419 61.8993 8.80993C61.8922 8.33735 61.8284 7.86732 61.7093 7.40993C61.6111 7.01896 61.4416 6.64945 61.2093 6.31993C60.9896 6.02753 60.7011 5.79394 60.3693 5.63993C59.9985 5.47643 59.5938 5.40441 59.1893 5.42993H59.1693ZM57.9993 21.8999C57.9855 21.608 58.0315 21.3163 58.1347 21.0428C58.2379 20.7694 58.396 20.5199 58.5993 20.3099C58.7959 20.1041 59.0302 19.9377 59.2893 19.8199C59.5597 19.6851 59.8572 19.6133 60.1593 19.6099C60.4565 19.6004 60.7525 19.6514 61.0293 19.7599C61.2955 19.8724 61.5393 20.0315 61.7493 20.2299C61.9572 20.4232 62.1268 20.6539 62.2493 20.9099C62.3697 21.1814 62.4376 21.4732 62.4493 21.7699C62.4563 22.0711 62.4018 22.3705 62.2893 22.6499C62.0797 23.1805 61.6704 23.6077 61.1493 23.8399C60.8773 23.964 60.5832 24.0323 60.2844 24.0409C59.9856 24.0494 59.688 23.9981 59.4093 23.8899C58.8795 23.6845 58.4519 23.2785 58.2193 22.7599C58.0858 22.4957 58.0107 22.2058 57.9993 21.9099V21.8999Z" fill="white"/>
<path d="M70.9997 103V103.09C71.0671 103.42 71.0671 103.76 70.9997 104.09C70.9492 104.447 70.8194 104.789 70.6197 105.09C70.4406 105.362 70.2096 105.597 69.9397 105.78C69.6703 105.969 69.3634 106.099 69.0397 106.16C68.6985 106.234 68.3459 106.24 68.0025 106.176C67.6591 106.113 67.3318 105.981 67.0397 105.79C66.7614 105.611 66.5202 105.38 66.3297 105.11C66.1383 104.839 66.0023 104.533 65.9297 104.21C65.857 103.868 65.8531 103.515 65.9184 103.172C65.9836 102.828 66.1167 102.501 66.3097 102.21C66.4959 101.934 66.7336 101.696 67.0097 101.51C67.2809 101.322 67.5868 101.189 67.9097 101.12C68.24 101.056 68.5795 101.056 68.9097 101.12C69.2656 101.183 69.6055 101.315 69.9097 101.51C70.1806 101.699 70.4145 101.936 70.5997 102.21C70.7785 102.448 70.9139 102.715 70.9997 103ZM66.3497 104.14C66.4081 104.407 66.5204 104.658 66.6797 104.88C66.9339 105.241 67.2881 105.519 67.6986 105.681C68.1091 105.842 68.5579 105.88 68.9897 105.79C69.2658 105.732 69.5276 105.62 69.7597 105.46C69.9921 105.306 70.1896 105.105 70.3397 104.87C70.6682 104.365 70.7833 103.75 70.6597 103.16C70.6066 102.881 70.4978 102.616 70.3397 102.38C70.1799 102.147 69.9802 101.944 69.7497 101.78C69.5009 101.617 69.2222 101.505 68.9297 101.45C68.6395 101.39 68.34 101.39 68.0497 101.45C67.763 101.515 67.4922 101.637 67.2534 101.809C67.0147 101.981 66.8128 102.199 66.6597 102.45C66.4919 102.694 66.3761 102.969 66.3197 103.26C66.2597 103.554 66.2597 103.856 66.3197 104.15L66.3497 104.14ZM64.5097 102.38L64.2397 103.82H64.0597C63.4962 103.72 62.9503 103.538 62.4397 103.28C61.9613 103.037 61.5031 102.756 61.0697 102.44C60.6397 102.14 60.2097 101.8 59.7897 101.44C59.3725 101.082 58.9351 100.748 58.4797 100.44C58.0024 100.121 57.5009 99.8404 56.9797 99.6C56.392 99.3331 55.7742 99.1384 55.1397 99.02C54.6487 98.9283 54.1489 98.8915 53.6497 98.91C53.2421 98.9188 52.8406 99.0107 52.4697 99.18C52.1339 99.3272 51.8413 99.5578 51.6197 99.85C51.3794 100.181 51.2217 100.565 51.1597 100.97C51.0746 101.389 51.0746 101.821 51.1597 102.24C51.2491 102.638 51.4083 103.017 51.6297 103.36C51.8433 103.683 52.1144 103.965 52.4297 104.19C52.7274 104.407 53.0685 104.557 53.4297 104.63C53.6181 104.665 53.8113 104.665 53.9997 104.63C54.1179 104.604 54.2278 104.549 54.3197 104.47C54.3899 104.412 54.4477 104.341 54.4897 104.26C54.5201 104.207 54.5404 104.15 54.5497 104.09C54.5855 103.939 54.5855 103.781 54.5497 103.63C54.518 103.498 54.471 103.371 54.4097 103.25L54.2497 102.89C54.18 102.74 54.159 102.572 54.1897 102.41C54.2113 102.279 54.2589 102.153 54.3297 102.04C54.4081 101.903 54.5177 101.786 54.6497 101.7C54.8002 101.59 54.9752 101.518 55.1597 101.49C55.4252 101.442 55.6981 101.456 55.9578 101.528C56.2176 101.601 56.4575 101.731 56.6597 101.91C56.8755 102.116 57.0517 102.36 57.1797 102.63C57.3025 102.913 57.3834 103.213 57.4197 103.52C57.4648 103.822 57.4648 104.128 57.4197 104.43C57.3678 104.836 57.227 105.226 57.0076 105.571C56.7881 105.917 56.4952 106.21 56.1497 106.43C55.3595 106.855 54.4381 106.965 53.5697 106.74C52.7976 106.595 52.0769 106.25 51.4797 105.74C50.9302 105.281 50.4924 104.703 50.1997 104.05C49.8981 103.371 49.7219 102.642 49.6797 101.9C49.626 101.121 49.673 100.337 49.8197 99.57C49.9713 98.7134 50.2582 97.8864 50.6697 97.12C51.0339 96.4415 51.5185 95.835 52.0997 95.33C52.6513 94.8603 53.3003 94.5187 53.9997 94.33C54.7265 94.1289 55.4904 94.1014 56.2297 94.25C56.9998 94.379 57.7331 94.6723 58.3797 95.11C58.941 95.5031 59.4399 95.9784 59.8597 96.52C60.2748 97.0482 60.6397 97.614 60.9497 98.21C61.2497 98.8 61.5697 99.36 61.8997 99.91C62.2201 100.43 62.5883 100.919 62.9997 101.37C63.392 101.819 63.8905 102.163 64.4497 102.37L64.5097 102.38ZM63.9597 103.38L64.0997 102.6C63.5567 102.368 63.0667 102.028 62.6597 101.6C62.2357 101.127 61.8573 100.614 61.5297 100.07C61.1897 99.52 60.8697 98.95 60.5297 98.36C60.2295 97.783 59.8781 97.2341 59.4797 96.72C59.078 96.2066 58.6029 95.7551 58.0697 95.38C57.4683 94.9747 56.7858 94.7051 56.0697 94.59C55.3844 94.4499 54.6758 94.4704 53.9997 94.65C53.3516 94.8314 52.7509 95.1522 52.2397 95.59C51.7272 96.081 51.3072 96.6602 50.9997 97.3C50.6133 98.0346 50.3402 98.8236 50.1897 99.64C50.0513 100.381 50.0077 101.137 50.0597 101.89C50.1066 102.58 50.2724 103.257 50.5497 103.89C50.8218 104.494 51.2289 105.028 51.7397 105.45C52.2933 105.908 52.9599 106.209 53.6697 106.32C54.4492 106.515 55.2729 106.423 55.9897 106.06C56.2858 105.872 56.5381 105.623 56.7297 105.33C56.9284 105.03 57.055 104.687 57.0997 104.33C57.1299 104.064 57.1299 103.796 57.0997 103.53C57.07 103.261 56.9992 102.998 56.8897 102.75C56.7886 102.52 56.6424 102.313 56.4597 102.14C56.2794 101.971 56.0532 101.86 55.8097 101.82C55.6314 101.785 55.448 101.785 55.2697 101.82C55.1413 101.841 55.0186 101.889 54.9097 101.96C54.7434 102.077 54.6259 102.252 54.5797 102.45C54.55 102.534 54.55 102.626 54.5797 102.71C54.5797 102.82 54.6797 102.94 54.7397 103.06C54.8067 103.202 54.8635 103.349 54.9097 103.5C54.9598 103.707 54.9598 103.923 54.9097 104.13C54.8969 104.22 54.8699 104.308 54.8297 104.39C54.7641 104.515 54.6759 104.627 54.5697 104.72C54.4341 104.834 54.2727 104.913 54.0997 104.95C53.8601 105.01 53.6094 105.01 53.3697 104.95C52.9626 104.869 52.5774 104.702 52.2397 104.46C51.8893 104.206 51.5878 103.891 51.3497 103.53C51.1122 103.151 50.9398 102.736 50.8397 102.3C50.7446 101.831 50.7446 101.349 50.8397 100.88C50.9141 100.418 51.0956 99.9794 51.3697 99.6C51.6308 99.2586 51.9751 98.9901 52.3697 98.82C52.7875 98.6394 53.235 98.5377 53.6897 98.52C54.2163 98.5031 54.7431 98.5467 55.2597 98.65C55.9251 98.7706 56.5732 98.9721 57.1897 99.25C57.7244 99.5066 58.2421 99.7972 58.7397 100.12C59.2097 100.44 59.6597 100.78 60.0797 101.12C60.4997 101.46 60.9097 101.79 61.3297 102.12C61.7538 102.42 62.1982 102.691 62.6597 102.93C63.0809 103.152 63.5324 103.31 63.9997 103.4L63.9597 103.38Z" fill="#DDDDDD"/>
<path d="M50.8095 52.9099C50.6986 53.1691 50.6408 53.448 50.6395 53.7299C50.6286 53.992 50.6693 54.2536 50.7595 54.4999C50.8507 54.7324 50.979 54.9485 51.1395 55.1399C51.295 55.3215 51.49 55.4651 51.7095 55.5599C51.8306 55.6202 51.9642 55.651 52.0995 55.6499C52.1896 55.6504 52.2786 55.6298 52.3595 55.5899C52.4228 55.5605 52.4777 55.5159 52.5195 55.4599C52.5526 55.4224 52.5827 55.3822 52.6095 55.3399C52.6538 55.2355 52.6776 55.1234 52.6795 55.0099C52.6851 54.9233 52.6851 54.8365 52.6795 54.7499V54.5199C52.6595 54.4445 52.6595 54.3653 52.6795 54.2899C52.7102 54.2273 52.7507 54.1699 52.7995 54.1199C52.8554 54.0619 52.9238 54.0175 52.9995 53.9899C53.0883 53.954 53.1837 53.937 53.2795 53.9399C53.4052 53.9471 53.528 53.9812 53.6395 54.0399C53.7962 54.1091 53.931 54.2197 54.0295 54.3599C54.119 54.5047 54.1832 54.6636 54.2195 54.8299C54.2495 55.0053 54.2495 55.1845 54.2195 55.3599C54.1963 55.5355 54.1492 55.7071 54.0795 55.8699C53.9933 56.084 53.8639 56.278 53.6995 56.4399C53.5316 56.5995 53.3299 56.7191 53.1095 56.7899C52.6034 56.9341 52.0608 56.873 51.5995 56.6199C51.1708 56.4513 50.797 56.1675 50.5195 55.7999C50.2584 55.4626 50.0802 55.0687 49.9995 54.6499C49.9195 54.2135 49.9195 53.7663 49.9995 53.3299C50.0607 52.8727 50.1818 52.4256 50.3595 51.9999C50.5602 51.5165 50.8408 51.0703 51.1895 50.6799C51.4905 50.3355 51.8534 50.0506 52.2595 49.8399C52.6473 49.6342 53.0774 49.5208 53.5163 49.5087C53.9551 49.4965 54.3908 49.5859 54.7895 49.7699C55.2141 49.9472 55.5959 50.2131 55.9095 50.5499C56.1865 50.8461 56.4159 51.1834 56.5895 51.5499C56.7584 51.9199 56.8923 52.3049 56.9895 52.6999C57.0995 53.0899 57.2095 53.4699 57.3295 53.8499C57.4523 54.1964 57.6062 54.5311 57.7895 54.8499C57.9782 55.1799 58.2419 55.4609 58.5595 55.6699L58.2695 56.2999C57.9575 56.168 57.6675 55.9893 57.4095 55.7699C57.1616 55.5587 56.9278 55.3316 56.7095 55.0899C56.4995 54.8399 56.2995 54.5899 56.0995 54.3299C55.8937 54.0582 55.6734 53.7978 55.4395 53.5499C55.1873 53.2911 54.9202 53.0474 54.6395 52.8199C54.3327 52.5759 53.9968 52.371 53.6395 52.2099C53.3516 52.0789 53.0496 51.9816 52.7395 51.9199C52.478 51.8749 52.2109 51.8749 51.9495 51.9199C51.711 51.9693 51.4879 52.0757 51.2995 52.2299C51.104 52.4035 50.9502 52.6188 50.8495 52.8599L50.8095 52.9099ZM60.3495 58.3099C60.1708 58.2364 60.0089 58.1276 59.8731 57.9902C59.7374 57.8528 59.6308 57.6894 59.5595 57.5099C59.4869 57.3359 59.4528 57.1483 59.4595 56.9599C59.4585 56.7603 59.4994 56.5628 59.5795 56.3799C59.6624 56.2004 59.7776 56.0377 59.9195 55.8999C60.1928 55.649 60.5485 55.5067 60.9195 55.4999C61.1165 55.5026 61.3107 55.5469 61.4895 55.6299C61.6901 55.7043 61.8665 55.8323 61.9995 55.9999C62.1267 56.1374 62.2283 56.2966 62.2995 56.4699C62.4489 56.8318 62.4489 57.2381 62.2995 57.5999C62.2179 57.7461 62.117 57.8807 61.9995 57.9999C61.8552 58.1307 61.6894 58.2356 61.5095 58.3099C61.3313 58.3792 61.1404 58.4099 60.9495 58.3999C60.7564 58.3995 60.5657 58.3586 60.3895 58.2799L60.3495 58.3099Z" fill="#A8A8A8"/>
<path d="M200.109 19.5001C199.722 19.2625 199.289 19.1091 198.839 19.0501C198.416 18.9917 197.986 19.0087 197.569 19.1001C197.169 19.1922 196.789 19.3584 196.449 19.5901C196.13 19.8075 195.861 20.0905 195.659 20.4201C195.539 20.6043 195.46 20.8124 195.429 21.0301C195.395 21.1781 195.395 21.332 195.429 21.4801C195.476 21.5844 195.536 21.682 195.609 21.7701C195.665 21.8222 195.725 21.8691 195.789 21.9101C195.943 22.0094 196.117 22.0711 196.299 22.0901C196.445 22.1101 196.593 22.1101 196.739 22.0901H197.129C197.256 22.0806 197.382 22.1122 197.489 22.1801C197.7 22.3131 197.853 22.52 197.919 22.7601C197.949 22.9153 197.949 23.0749 197.919 23.2301C197.886 23.4302 197.811 23.6211 197.699 23.7901C197.56 24.0296 197.356 24.224 197.109 24.3501C196.864 24.4772 196.595 24.5521 196.319 24.5701C196.027 24.5937 195.732 24.5666 195.449 24.4901C195.173 24.4174 194.908 24.3099 194.659 24.1701C194.329 23.991 194.042 23.7419 193.819 23.4401C193.599 23.1419 193.442 22.8015 193.359 22.4401C193.254 21.5749 193.483 20.7022 193.999 20.0001C194.369 19.3436 194.907 18.7981 195.559 18.4201C196.172 18.0733 196.856 17.8714 197.559 17.8301C198.281 17.7804 199.006 17.8617 199.699 18.0701C200.435 18.2877 201.14 18.5968 201.799 18.9901C202.548 19.4196 203.223 19.9666 203.799 20.6101C204.298 21.1693 204.688 21.8172 204.949 22.5201C205.2 23.1852 205.295 23.8992 205.225 24.6068C205.156 25.3143 204.925 25.9964 204.549 26.6001C204.161 27.2611 203.632 27.828 202.999 28.2601C202.449 28.6402 201.846 28.9367 201.209 29.1401C200.576 29.3387 199.927 29.4826 199.269 29.5701C198.619 29.6501 197.979 29.7501 197.349 29.8801C196.736 29.9942 196.136 30.1719 195.559 30.4101C194.959 30.6337 194.424 31.0011 193.999 31.4801L192.999 30.8901C193.271 30.4161 193.608 29.9819 193.999 29.6001C194.386 29.2357 194.801 28.9014 195.239 28.6001C195.679 28.3001 196.119 28.0201 196.589 27.7501C197.059 27.4801 197.509 27.1701 197.969 26.8401C198.445 26.4962 198.893 26.115 199.309 25.7001C199.778 25.2367 200.181 24.7119 200.509 24.1401C200.78 23.704 200.998 23.2374 201.159 22.7501C201.29 22.3367 201.348 21.9034 201.329 21.4701C201.298 21.0756 201.171 20.6946 200.959 20.3601C200.71 20.0011 200.386 19.7008 200.009 19.4801L200.109 19.5001ZM189.459 33.8001C189.627 33.5257 189.848 33.2877 190.109 33.1001C190.35 32.9141 190.625 32.7781 190.919 32.7001C191.224 32.6171 191.543 32.5974 191.856 32.6421C192.169 32.6868 192.469 32.795 192.739 32.9601C193.016 33.1277 193.258 33.3486 193.449 33.6101C193.629 33.8607 193.761 34.142 193.839 34.4401C193.894 34.7443 193.894 35.0559 193.839 35.3601C193.798 35.6795 193.689 35.9863 193.519 36.2601C193.352 36.5347 193.135 36.7755 192.879 36.9701C192.495 37.2462 192.037 37.4029 191.564 37.4207C191.091 37.4384 190.623 37.3165 190.219 37.0701C189.948 36.9105 189.71 36.7 189.519 36.4501C189.336 36.1964 189.201 35.9119 189.119 35.6101C189.059 35.303 189.059 34.9872 189.119 34.6801C189.17 34.3693 189.278 34.0709 189.439 33.8001H189.459Z" fill="#A8A8A8"/>
<path d="M194.53 80.7201C194.339 80.4818 194.105 80.2817 193.84 80.1301C193.582 79.9988 193.305 79.911 193.02 79.8701C192.752 79.8199 192.477 79.8199 192.21 79.8701C191.954 79.9261 191.715 80.0389 191.51 80.2001C191.386 80.2861 191.283 80.3989 191.21 80.5301C191.166 80.6209 191.143 80.7196 191.14 80.8201C191.141 80.8993 191.158 80.9776 191.19 81.0501C191.26 81.2137 191.388 81.3455 191.55 81.4201C191.639 81.4638 191.733 81.4973 191.83 81.5201L192.08 81.6001C192.161 81.6312 192.234 81.6829 192.29 81.7501C192.331 81.8125 192.364 81.8796 192.39 81.9501C192.41 82.0356 192.41 82.1246 192.39 82.2101C192.372 82.3147 192.339 82.416 192.29 82.5101C192.206 82.6489 192.093 82.7674 191.958 82.8573C191.823 82.9472 191.67 83.0062 191.51 83.0301C191.328 83.0699 191.141 83.0699 190.96 83.0301C190.768 82.9819 190.588 82.897 190.43 82.7801C190.273 82.6689 190.132 82.5378 190.01 82.3901C189.844 82.1984 189.721 81.9733 189.65 81.7301C189.578 81.4868 189.561 81.2307 189.6 80.9801C189.733 80.4228 190.063 79.9325 190.53 79.6001C190.916 79.2741 191.382 79.0567 191.88 78.9701C192.337 78.8938 192.806 78.9246 193.25 79.0601C193.721 79.1906 194.162 79.4114 194.55 79.7101C194.962 80.0196 195.335 80.379 195.66 80.7801C196.02 81.223 196.31 81.7188 196.52 82.2501C196.698 82.7195 196.79 83.2177 196.79 83.7201C196.794 84.1915 196.688 84.6574 196.48 85.0801C196.27 85.5204 195.962 85.9069 195.58 86.2101C195.188 86.5359 194.731 86.7745 194.24 86.9101C193.805 87.0185 193.357 87.0623 192.91 87.0401C192.462 87.0202 192.017 86.9599 191.58 86.8601C191.15 86.7601 190.72 86.6801 190.29 86.6101C189.877 86.54 189.458 86.5099 189.04 86.5201C188.626 86.5385 188.223 86.6514 187.86 86.8501L187.38 86.2501C187.684 86.0136 188.021 85.8216 188.38 85.6801C188.705 85.5489 189.039 85.4419 189.38 85.3601C189.72 85.2701 190.07 85.2001 190.43 85.1401C190.797 85.0769 191.161 84.9934 191.52 84.8901C191.897 84.7883 192.265 84.6545 192.62 84.4901C193.024 84.3059 193.404 84.0706 193.75 83.7901C194.02 83.575 194.264 83.3301 194.48 83.0601C194.668 82.8344 194.807 82.5723 194.89 82.2901C194.96 82.0314 194.96 81.7587 194.89 81.5001C194.82 81.2121 194.683 80.9447 194.49 80.7201H194.53ZM184.45 87.2301C184.62 87.0915 184.818 86.9894 185.03 86.9301C185.43 86.8298 185.853 86.8796 186.22 87.0701C186.408 87.1731 186.575 87.3124 186.71 87.4801C186.849 87.6489 186.948 87.8472 187 88.0601C187.117 88.4648 187.071 88.8996 186.87 89.2701C186.763 89.4593 186.62 89.6258 186.45 89.7601C186.282 89.8986 186.088 90.0008 185.88 90.0601C185.674 90.0951 185.465 90.0951 185.26 90.0601C185.056 90.0318 184.86 89.9675 184.68 89.8701C184.446 89.7441 184.246 89.5622 184.1 89.3407C183.953 89.1191 183.864 88.8646 183.84 88.6001C183.817 88.3366 183.862 88.0717 183.97 87.8301C184.072 87.5849 184.234 87.3686 184.44 87.2001L184.45 87.2301Z" fill="#DDDDDD"/>
<path d="M110.069 5.12999C109.788 5.24054 109.536 5.41121 109.329 5.62999C109.124 5.83567 108.958 6.0761 108.839 6.33999C108.735 6.59499 108.674 6.86526 108.659 7.13999C108.652 7.39936 108.696 7.65749 108.789 7.89999C108.843 8.04098 108.925 8.17002 109.029 8.27999C109.101 8.34948 109.191 8.3979 109.289 8.41999C109.364 8.43991 109.443 8.43991 109.519 8.41999C109.568 8.42945 109.619 8.42945 109.669 8.41999C109.778 8.36868 109.879 8.30126 109.969 8.21999C110.034 8.14083 110.094 8.0573 110.149 7.96999L110.279 7.75999C110.325 7.68294 110.395 7.62321 110.479 7.58999C110.552 7.5796 110.626 7.5796 110.699 7.58999C110.787 7.56622 110.88 7.56622 110.969 7.58999C111.067 7.63109 111.156 7.69242 111.229 7.76999C111.322 7.87241 111.397 7.99099 111.449 8.11999C111.518 8.291 111.539 8.4779 111.509 8.65999C111.484 8.84372 111.416 9.01877 111.309 9.16999C111.209 9.3411 111.077 9.49068 110.919 9.60999C110.769 9.73079 110.604 9.83164 110.429 9.90999C110.199 10.0127 109.95 10.0672 109.699 10.07C109.443 10.073 109.19 10.0183 108.959 9.90999C108.456 9.63001 108.075 9.1741 107.889 8.62999C107.689 8.17085 107.61 7.6683 107.659 7.16999C107.713 6.70777 107.87 6.26359 108.119 5.86999C108.387 5.4607 108.726 5.10189 109.119 4.80999C109.521 4.47738 109.969 4.20456 110.449 3.99999C110.972 3.77165 111.529 3.6298 112.099 3.57999C112.602 3.52798 113.111 3.5721 113.599 3.70999C114.046 3.84803 114.458 4.07985 114.809 4.38999C115.176 4.71752 115.463 5.12454 115.649 5.57999C115.853 6.04274 115.955 6.54412 115.949 7.04999C115.935 7.49946 115.854 7.94434 115.709 8.36999C115.559 8.78963 115.379 9.19745 115.169 9.58999C114.949 9.97999 114.749 10.37 114.559 10.76C114.381 11.1367 114.238 11.5282 114.129 11.93C114.039 12.3351 114.039 12.7549 114.129 13.16L113.429 13.45C113.285 13.1083 113.191 12.7481 113.149 12.38C113.124 12.0238 113.124 11.6662 113.149 11.31C113.149 10.97 113.199 10.61 113.249 10.25C113.299 9.88999 113.309 9.50999 113.319 9.13999C113.3 8.75704 113.253 8.37599 113.179 7.99999C113.109 7.5553 112.981 7.12165 112.799 6.70999C112.671 6.39492 112.507 6.09615 112.309 5.81999C112.143 5.5812 111.933 5.37731 111.689 5.21999C111.462 5.06889 111.2 4.97929 110.929 4.95999C110.633 4.95236 110.339 5.01042 110.069 5.12999ZM113.569 16.61C113.481 16.4118 113.436 16.1969 113.439 15.98C113.439 15.5657 113.601 15.1678 113.889 14.87C114.039 14.7127 114.219 14.5869 114.419 14.5C114.619 14.4199 114.833 14.3792 115.049 14.38C115.258 14.3792 115.465 14.42 115.659 14.5C115.845 14.5864 116.017 14.7011 116.169 14.84C116.321 14.9961 116.443 15.1792 116.529 15.38C116.607 15.5811 116.651 15.7941 116.659 16.01C116.651 16.2161 116.607 16.4193 116.529 16.61C116.443 16.7991 116.324 16.9717 116.179 17.12C116.027 17.2713 115.847 17.3904 115.649 17.47C115.451 17.5601 115.236 17.6077 115.019 17.61C114.814 17.601 114.611 17.5605 114.419 17.49C114.232 17.4099 114.062 17.2945 113.919 17.15C113.764 16.9978 113.644 16.8135 113.569 16.61Z" fill="#DDDDDD"/>
<path d="M149.89 20.5099C149.611 20.4609 149.341 20.3698 149.09 20.2399C148.69 20.0065 148.367 19.6621 148.159 19.2485C147.951 18.8349 147.868 18.3699 147.92 17.9099C147.985 17.2842 148.294 16.7093 148.78 16.3099C149.016 16.1235 149.283 15.9813 149.57 15.8899C149.894 15.7937 150.234 15.7631 150.57 15.7999C150.887 15.8308 151.194 15.9297 151.47 16.0899C152.004 16.392 152.404 16.885 152.59 17.4699C152.688 17.7936 152.716 18.1347 152.67 18.4699C152.639 18.786 152.544 19.0923 152.39 19.3699C152.241 19.6398 152.041 19.8777 151.8 20.0699C151.561 20.2609 151.285 20.4005 150.99 20.4799C150.686 20.5715 150.365 20.5988 150.05 20.5599L149.89 20.5099ZM148.27 17.9999C148.24 18.2614 148.26 18.5261 148.33 18.7799C148.402 19.0348 148.525 19.2727 148.69 19.4799C148.852 19.6716 149.049 19.831 149.27 19.9499C149.751 20.2087 150.314 20.2697 150.84 20.1199C151.345 19.9749 151.772 19.6373 152.03 19.1799C152.16 18.9452 152.242 18.6868 152.27 18.4199C152.301 18.1513 152.277 17.8791 152.2 17.6199C152.12 17.3667 151.99 17.1319 151.819 16.9293C151.647 16.7267 151.437 16.5604 151.2 16.4399C150.966 16.3062 150.707 16.2212 150.44 16.1899C150.171 16.1622 149.898 16.1894 149.64 16.2699C149.263 16.3865 148.929 16.612 148.68 16.9181C148.431 17.2242 148.278 17.5971 148.24 17.9899L148.27 17.9999ZM149.76 14.3299V14.1499C149.807 13.6277 149.932 13.1154 150.13 12.6299C150.324 12.1741 150.552 11.7329 150.81 11.3099C151.05 10.8999 151.33 10.4799 151.61 10.0699C151.895 9.66057 152.159 9.23666 152.4 8.79991C152.662 8.34381 152.883 7.86524 153.06 7.36991C153.259 6.81796 153.39 6.24369 153.45 5.65991C153.5 5.20796 153.5 4.75186 153.45 4.29991C153.411 3.92636 153.303 3.5634 153.13 3.22991C152.969 2.94153 152.738 2.6976 152.46 2.51991C152.137 2.32516 151.775 2.20553 151.4 2.16991C151.01 2.12601 150.615 2.16346 150.24 2.27991C149.878 2.38085 149.538 2.5506 149.24 2.77991C148.961 2.99524 148.724 3.25956 148.54 3.55991C148.369 3.83952 148.263 4.15391 148.23 4.47991C148.19 4.65093 148.19 4.82889 148.23 4.99991C148.261 5.10382 148.319 5.19723 148.4 5.26991C148.45 5.32971 148.516 5.37465 148.59 5.39991H148.75C148.884 5.43507 149.025 5.43507 149.16 5.39991C149.277 5.36021 149.391 5.31 149.5 5.24991L149.81 5.07991C149.946 5.00092 150.104 4.96927 150.26 4.98991C150.533 5.02374 150.783 5.15948 150.96 5.36991C151.066 5.50313 151.144 5.65612 151.19 5.81991C151.224 6.03186 151.224 6.24796 151.19 6.45991C151.158 6.74475 151.047 7.01501 150.87 7.23991C150.702 7.45729 150.491 7.63771 150.25 7.76991C150.001 7.91053 149.731 8.00855 149.45 8.05991C149.175 8.09971 148.895 8.09971 148.62 8.05991C148.249 8.03708 147.888 7.93477 147.56 7.75991C147.233 7.58443 146.95 7.33849 146.73 7.03991C146.286 6.34231 146.115 5.50562 146.25 4.68991C146.31 3.97154 146.558 3.28169 146.97 2.68991C147.353 2.15934 147.848 1.71906 148.42 1.39991C149.022 1.06964 149.68 0.852714 150.36 0.759911C151.072 0.653244 151.794 0.636445 152.51 0.709911C153.3 0.787754 154.073 0.990263 154.8 1.30991C155.452 1.5894 156.046 1.98977 156.55 2.48991C157.018 2.95692 157.38 3.51983 157.61 4.13991C157.834 4.78119 157.913 5.46444 157.84 6.13991C157.775 6.84257 157.564 7.52388 157.22 8.13991C156.901 8.68802 156.503 9.1866 156.04 9.61991C155.581 10.0324 155.089 10.407 154.57 10.7399C154.057 11.0599 153.567 11.3932 153.1 11.7399C152.694 12.0943 152.325 12.4898 152 12.9199C151.637 13.3124 151.374 13.7854 151.23 14.2999L151.18 14.4499L149.76 14.3299ZM151.61 1.79991C151.986 1.84551 152.347 1.97172 152.67 2.16991C153.004 2.38078 153.28 2.67329 153.47 3.01991C153.662 3.3919 153.787 3.79466 153.84 4.20991C153.895 4.68833 153.895 5.17149 153.84 5.64991C153.779 6.26801 153.642 6.87608 153.43 7.45991C153.237 7.98911 153.006 8.50376 152.74 8.99991C152.489 9.44362 152.215 9.87418 151.92 10.2899C151.64 10.6999 151.38 11.0999 151.13 11.4999C150.889 11.9087 150.675 12.333 150.49 12.7699C150.325 13.1702 150.214 13.5905 150.16 14.0199L150.87 14.0899C151.035 13.578 151.308 13.1074 151.67 12.7099C152.069 12.2638 152.515 11.8615 153 11.5099C153.48 11.1699 154 10.8299 154.49 10.5099C154.995 10.1971 155.47 9.83895 155.91 9.43991C156.341 9.0338 156.708 8.56523 157 8.04991C157.33 7.4703 157.528 6.82493 157.58 6.15991C157.661 5.53205 157.589 4.89386 157.37 4.29991C157.157 3.71758 156.815 3.19104 156.37 2.75991C155.9 2.29228 155.347 1.91591 154.74 1.64991C154.046 1.35063 153.311 1.15844 152.56 1.07991C151.876 0.994883 151.184 0.994883 150.5 1.07991C149.865 1.16708 149.251 1.37047 148.69 1.67991C148.16 1.96726 147.702 2.37064 147.35 2.85991C146.983 3.40204 146.76 4.02813 146.7 4.67991C146.579 5.40644 146.725 6.15206 147.11 6.77991C147.303 7.03083 147.548 7.23803 147.827 7.38796C148.106 7.53789 148.414 7.62715 148.73 7.64991C148.972 7.67963 149.217 7.67963 149.46 7.64991C149.703 7.60732 149.936 7.52272 150.15 7.39991C150.351 7.29006 150.528 7.14035 150.67 6.95991C150.808 6.78845 150.892 6.57943 150.91 6.35991C150.94 6.19795 150.94 6.03188 150.91 5.86991C150.877 5.75732 150.823 5.65209 150.75 5.55991C150.684 5.48694 150.606 5.42602 150.52 5.37991C150.449 5.34179 150.37 5.31801 150.29 5.30991C150.215 5.28999 150.135 5.28999 150.06 5.30991L149.75 5.48991C149.626 5.56184 149.495 5.6221 149.36 5.66991C149.169 5.71538 148.971 5.71538 148.78 5.66991C148.698 5.65944 148.617 5.6393 148.54 5.60991C148.421 5.56117 148.312 5.48986 148.22 5.39991C148.099 5.28386 148.01 5.13945 147.96 4.97991C147.91 4.756 147.91 4.52382 147.96 4.29991C148.003 3.9234 148.129 3.56122 148.33 3.23991C148.532 2.89993 148.797 2.60133 149.11 2.35991C149.435 2.10426 149.804 1.91101 150.2 1.78991C150.62 1.66015 151.063 1.61928 151.5 1.66991V1.84991V1.66991L151.61 1.79991Z" fill="#DDDDDD"/>
<path d="M88.9986 30.67C88.9986 29.67 87.3886 28.95 85.4086 28.95C83.4286 28.95 81.8086 29.72 81.8086 30.67C81.8086 31.62 83.4186 32.38 85.4086 32.38C87.3986 32.38 88.9986 31.62 88.9986 30.67Z" fill="#A8A8A8"/>
</g>
<defs>
<clipPath id="clip0_6053_14769">
<rect width="234.16" height="201.06" fill="white"/>
</clipPath>
</defs>
</svg>
