<svg width="260" height="202" viewBox="0 0 260 202" fill="none" xmlns="http://www.w3.org/2000/svg">
<g clip-path="url(#clip0_6053_14836)">
<path d="M148.539 133.76C151.479 137.4 152.539 139.47 166.539 141.89C180.539 144.31 192.139 133.24 192.139 133.24" stroke="black" stroke-width="3" stroke-linecap="round" stroke-linejoin="round"/>
<path d="M140.258 118.51C139.526 118.518 138.8 118.643 138.108 118.88C135.398 119.82 126.628 125.46 122.458 133.33C114.948 146.85 124.808 152.33 125.458 165.42C125.548 167.16 124.188 175.15 125.458 176.36C126.728 177.57 130.698 199.45 132.458 199.45H199.748C210.578 199.45 212.918 154.77 207.038 133.33C206.358 130.86 200.038 120.4 195.858 118.55C194.955 118.164 193.98 117.976 192.998 118L140.258 118.51Z" fill="#A8A8A8"/>
<path d="M177.89 111L188.45 117.55C188.45 117.55 184.33 130.23 178.67 133.24C173.04 136.81 160.97 136.34 156.31 131.84C150.79 127.75 149.77 119.34 149.77 119.34C149.77 119.34 154.42 113.72 155.72 111H177.89Z" fill="#DDDDDD"/>
<path d="M192.329 161.77C192.281 161.77 192.234 161.753 192.199 161.72C192.181 161.704 192.166 161.684 192.155 161.661C192.145 161.639 192.139 161.615 192.139 161.59L191.879 152.14C191.879 152.092 191.896 152.046 191.929 152.01C191.971 151.996 192.017 151.996 192.059 152.01C192.083 152.009 192.107 152.012 192.129 152.021C192.152 152.029 192.172 152.043 192.189 152.06C192.206 152.077 192.22 152.097 192.228 152.12C192.237 152.142 192.24 152.166 192.239 152.19L192.509 161.64C192.507 161.69 192.485 161.736 192.449 161.77C192.417 161.801 192.374 161.819 192.329 161.82V161.77Z" fill="black"/>
<path d="M78 27.2C78 35 88.38 41.39 101.14 41.39C104.429 41.4027 107.703 40.9585 110.87 40.07C112.09 41.73 114.79 42.87 117.87 42.87C122.14 42.87 125.6 40.73 125.6 38.1C125.6 36.27 123.93 34.67 121.48 33.87C123.169 32.053 124.133 29.68 124.19 27.2C124.19 19.37 113.84 13.01 101.08 13.01C88.32 13.01 78 19.37 78 27.2Z" fill="#A8A8A8"/>
<path d="M129.079 44.5901C129.079 43.5901 127.469 42.8801 125.479 42.8801C123.489 42.8801 121.879 43.6401 121.879 44.5901C121.879 45.5401 123.489 46.3101 125.479 46.3101C127.469 46.3101 129.079 45.5401 129.079 44.5901Z" fill="#A8A8A8"/>
<path d="M101.46 18.4401C101.041 18.448 100.629 18.5433 100.25 18.7201C99.5338 19.0425 98.9634 19.62 98.6499 20.3401C98.5144 20.6558 98.4463 20.9964 98.4499 21.3401C98.4392 21.5469 98.4804 21.7532 98.5699 21.9401C98.6305 22.0627 98.7156 22.1716 98.8199 22.2601C98.9041 22.3271 99.0039 22.3718 99.1099 22.3901H99.3099C99.4825 22.3892 99.6529 22.3517 99.8099 22.2801C99.9314 22.2162 100.045 22.1391 100.15 22.0501L100.43 21.8201C100.53 21.7527 100.649 21.7178 100.77 21.7201C100.997 21.7115 101.219 21.7902 101.39 21.9401C101.494 22.0441 101.579 22.1661 101.64 22.3001C101.708 22.4789 101.742 22.6688 101.74 22.8601C101.752 23.1157 101.689 23.3693 101.56 23.5901C101.431 23.8135 101.258 24.0077 101.05 24.1601C100.836 24.3221 100.596 24.4472 100.34 24.5301C100.088 24.6122 99.8251 24.6593 99.5599 24.6701C99.2199 24.6884 98.8796 24.6374 98.5599 24.5201C98.2304 24.3987 97.9328 24.2037 97.6899 23.9501C97.1801 23.3444 96.9129 22.5713 96.9399 21.7801C96.9075 21.0874 97.0557 20.3982 97.3699 19.7801C97.6641 19.2149 98.0851 18.7255 98.5999 18.3501C99.1384 17.9508 99.7449 17.6527 100.39 17.4701C101.076 17.2712 101.785 17.1603 102.5 17.1401C103.287 17.1195 104.073 17.2207 104.83 17.4401C105.497 17.6286 106.124 17.937 106.68 18.3501C107.197 18.7462 107.62 19.2516 107.92 19.8301C108.233 20.4259 108.401 21.0871 108.41 21.7601C108.436 22.4431 108.321 23.1242 108.07 23.7601C107.818 24.334 107.481 24.8666 107.07 25.3401C106.675 25.8101 106.24 26.245 105.77 26.6401C105.297 27.0334 104.847 27.4334 104.42 27.8401C103.996 28.236 103.613 28.675 103.28 29.1501C102.949 29.6156 102.737 30.1543 102.66 30.7201H101.61C101.593 30.2085 101.647 29.697 101.77 29.2001C101.899 28.7253 102.063 28.2607 102.26 27.8101C102.45 27.3701 102.66 26.9201 102.89 26.4801C103.12 26.0401 103.33 25.5601 103.52 25.0801C103.719 24.5763 103.88 24.0582 104 23.5301C104.127 22.9288 104.181 22.3143 104.16 21.7001C104.147 21.2246 104.084 20.7519 103.97 20.2901C103.87 19.8977 103.697 19.5279 103.46 19.2001C103.246 18.906 102.96 18.6718 102.63 18.5201C102.254 18.3611 101.847 18.2893 101.44 18.3101L101.46 18.4401ZM100.27 34.9201C100.253 34.327 100.473 33.7516 100.88 33.3201C101.071 33.1123 101.302 32.9456 101.56 32.8301C101.833 32.7017 102.129 32.6303 102.43 32.6201C102.728 32.6078 103.026 32.6625 103.3 32.7801C103.567 32.8864 103.811 33.0425 104.02 33.2401C104.229 33.4327 104.398 33.6635 104.52 33.9201C104.651 34.1913 104.72 34.4887 104.72 34.7901C104.73 35.0873 104.679 35.3835 104.57 35.6601C104.358 36.1915 103.95 36.6211 103.43 36.8601C102.873 37.0901 102.247 37.0901 101.69 36.8601C101.16 36.6555 100.73 36.2542 100.49 35.7401C100.367 35.4685 100.292 35.1774 100.27 34.8801V34.9201Z" fill="white"/>
<path d="M112.69 114.66V114.75C112.636 115.445 112.313 116.091 111.79 116.55C111.546 116.767 111.26 116.93 110.95 117.03C110.629 117.142 110.288 117.187 109.95 117.16C109.254 117.102 108.609 116.775 108.15 116.25C107.928 116.005 107.761 115.715 107.66 115.4C107.54 115.076 107.49 114.731 107.513 114.386C107.535 114.042 107.629 113.706 107.79 113.4C107.944 113.088 108.158 112.809 108.42 112.58C108.679 112.37 108.974 112.208 109.29 112.1C109.615 111.987 109.96 111.941 110.304 111.965C110.648 111.989 110.983 112.083 111.29 112.24C111.602 112.394 111.88 112.608 112.11 112.87C112.501 113.369 112.713 113.986 112.71 114.62L112.69 114.66ZM107.9 114.49C107.89 114.762 107.93 115.033 108.02 115.29C108.111 115.561 108.257 115.809 108.45 116.02C108.843 116.469 109.395 116.749 109.99 116.8C110.271 116.82 110.553 116.782 110.82 116.69C111.244 116.55 111.615 116.283 111.883 115.925C112.151 115.568 112.303 115.137 112.32 114.69C112.34 114.404 112.309 114.116 112.23 113.84C112.135 113.573 111.993 113.326 111.81 113.11C111.622 112.879 111.387 112.691 111.12 112.56C110.853 112.43 110.565 112.352 110.27 112.33C109.692 112.3 109.124 112.489 108.68 112.86C108.45 113.053 108.263 113.292 108.13 113.56C108 113.826 107.922 114.115 107.9 114.41V114.49ZM106.61 112.29L106 113.6L105.84 113.52C105.325 113.255 104.85 112.918 104.43 112.52C104.038 112.154 103.674 111.76 103.34 111.34C103.01 110.93 102.69 110.49 102.34 110.04C101.99 109.59 101.7 109.17 101.34 108.75C100.966 108.308 100.558 107.897 100.12 107.52C99.6254 107.123 99.0848 106.787 98.5096 106.52C98.0656 106.291 97.5955 106.116 97.1096 106C96.7142 105.9 96.3029 105.88 95.8996 105.94C95.5364 105.988 95.1919 106.129 94.8996 106.35C94.5717 106.62 94.3114 106.962 94.1396 107.35C93.9478 107.731 93.8323 108.145 93.7996 108.57C93.7807 108.975 93.828 109.38 93.9396 109.77C94.0654 110.132 94.2514 110.47 94.4896 110.77C94.7124 111.052 94.9917 111.283 95.3096 111.45C95.4805 111.541 95.6671 111.599 95.8596 111.62C95.9799 111.622 96.0993 111.598 96.2096 111.55C96.2923 111.516 96.3672 111.465 96.4296 111.4C96.4663 111.353 96.4998 111.302 96.5296 111.25C96.6079 111.113 96.6525 110.958 96.6596 110.8C96.6695 110.667 96.6695 110.533 96.6596 110.4L96.5996 110.01C96.5721 109.85 96.5966 109.685 96.6696 109.54C96.7347 109.42 96.8154 109.309 96.9096 109.21C97.0242 109.103 97.1606 109.021 97.3096 108.97C97.4863 108.91 97.6741 108.89 97.8596 108.91C98.0876 108.932 98.3087 109 98.5096 109.11C98.7877 109.244 99.0206 109.456 99.1796 109.72C99.3353 109.978 99.4405 110.263 99.4896 110.56C99.5346 110.869 99.5346 111.182 99.4896 111.49C99.4312 111.787 99.3372 112.076 99.2096 112.35C99.0472 112.73 98.8051 113.071 98.4996 113.35C98.2094 113.61 97.869 113.807 97.4996 113.93C96.625 114.117 95.712 113.971 94.9396 113.52C94.1987 113.191 93.5623 112.666 93.0996 112C92.6929 111.401 92.4295 110.717 92.3296 110C92.231 109.264 92.258 108.517 92.4096 107.79C92.5746 107.023 92.8367 106.281 93.1896 105.58C93.571 104.805 94.0703 104.093 94.6696 103.47C95.2042 102.911 95.8383 102.457 96.5396 102.13C97.1995 101.832 97.9155 101.679 98.6396 101.68C99.3944 101.694 100.136 101.879 100.81 102.22C101.51 102.555 102.13 103.036 102.63 103.63C103.066 104.161 103.42 104.754 103.68 105.39C103.932 106.014 104.126 106.66 104.26 107.32C104.4 107.96 104.55 108.59 104.72 109.21C104.881 109.8 105.099 110.372 105.37 110.92C105.639 111.442 106.026 111.894 106.5 112.24L106.61 112.29ZM105.81 113.11L106.16 112.4C105.7 112.028 105.322 111.565 105.05 111.04C104.768 110.471 104.543 109.874 104.38 109.26C104.2 108.64 104.05 108 103.91 107.35C103.779 106.715 103.592 106.092 103.35 105.49C103.099 104.885 102.763 104.319 102.35 103.81C101.875 103.257 101.289 102.81 100.63 102.5C100.011 102.179 99.3262 102.008 98.6296 102C97.9401 101.991 97.2573 102.135 96.6296 102.42C95.9689 102.726 95.3718 103.153 94.8696 103.68C94.3005 104.271 93.825 104.946 93.4596 105.68C93.1211 106.356 92.8692 107.072 92.7096 107.81C92.5663 108.498 92.5426 109.205 92.6396 109.9C92.7347 110.556 92.9775 111.182 93.3496 111.73C93.7673 112.329 94.3368 112.805 94.9996 113.11C95.6985 113.511 96.5189 113.646 97.3096 113.49C97.645 113.39 97.9553 113.22 98.2196 112.99C98.4876 112.757 98.6995 112.467 98.8396 112.14C98.9553 111.9 99.0361 111.644 99.0796 111.38C99.1247 111.115 99.1247 110.845 99.0796 110.58C99.05 110.329 98.9682 110.088 98.8396 109.87C98.7132 109.659 98.5246 109.491 98.2996 109.39C98.1429 109.301 97.969 109.247 97.7896 109.23C97.6613 109.2 97.5279 109.2 97.3996 109.23C97.2086 109.298 97.0488 109.433 96.9496 109.61C96.9198 109.694 96.9198 109.786 96.9496 109.87C96.9605 109.998 96.9806 110.125 97.0096 110.25C97.0248 110.406 97.0248 110.564 97.0096 110.72C96.9979 110.933 96.9399 111.142 96.8396 111.33C96.736 111.539 96.5627 111.705 96.3496 111.8C96.1852 111.87 96.008 111.904 95.8296 111.9C95.5842 111.88 95.3458 111.808 95.1296 111.69C94.7421 111.508 94.4003 111.242 94.1296 110.91C93.8603 110.575 93.6567 110.191 93.5296 109.78C93.3966 109.35 93.3424 108.9 93.3696 108.45C93.4003 107.972 93.5297 107.506 93.7496 107.08C93.974 106.648 94.3 106.278 94.6996 106C95.0387 105.743 95.4381 105.578 95.8596 105.52C96.31 105.458 96.768 105.482 97.2096 105.59C97.7223 105.716 98.2188 105.901 98.6896 106.14C99.2964 106.439 99.8641 106.812 100.38 107.25C100.829 107.64 101.25 108.061 101.64 108.51C102 108.94 102.34 109.39 102.64 109.83C102.94 110.27 103.26 110.7 103.59 111.1C103.91 111.509 104.261 111.894 104.64 112.25C104.989 112.572 105.379 112.848 105.8 113.07L105.81 113.11Z" fill="#DDDDDD"/>
<path d="M95.9294 68.44C95.7234 68.6305 95.5599 68.8622 95.4494 69.12C95.3419 69.3602 95.2776 69.6175 95.2594 69.88C95.2491 70.1299 95.2795 70.3799 95.3494 70.62C95.4252 70.8464 95.5479 71.0542 95.7094 71.23C95.8002 71.3293 95.9087 71.4107 96.0294 71.47C96.1183 71.4899 96.2105 71.4899 96.2994 71.47C96.3685 71.4593 96.4358 71.4391 96.4994 71.41L96.6194 71.34C96.7027 71.2619 96.7676 71.1663 96.8094 71.06C96.8419 70.9753 96.8686 70.8884 96.8894 70.8V70.58C96.9111 70.504 96.9525 70.435 97.0094 70.38C97.059 70.3286 97.121 70.2908 97.1894 70.27C97.2647 70.2501 97.344 70.2501 97.4194 70.27C97.5173 70.268 97.6139 70.2922 97.6994 70.34C97.8084 70.3996 97.9065 70.4774 97.9894 70.57C98.1033 70.6979 98.1825 70.8528 98.2194 71.02C98.2445 71.1858 98.2445 71.3543 98.2194 71.52C98.1843 71.6977 98.1165 71.8672 98.0194 72.02C97.9294 72.1716 97.8182 72.3097 97.6894 72.43C97.5271 72.5916 97.333 72.7176 97.1194 72.8C96.902 72.8795 96.6699 72.9102 96.4394 72.89C95.9179 72.8232 95.4437 72.5538 95.1194 72.14C94.8131 71.8202 94.5929 71.428 94.4794 71C94.3845 70.5888 94.3845 70.1613 94.4794 69.75C94.5745 69.3019 94.7507 68.8748 94.9994 68.49C95.2555 68.0928 95.5613 67.7298 95.9094 67.41C96.2898 67.0499 96.7253 66.7528 97.1994 66.53C97.6125 66.3288 98.0608 66.2099 98.5194 66.18C98.9481 66.1524 99.3778 66.2172 99.7794 66.37C100.192 66.5347 100.561 66.7912 100.859 67.12C101.18 67.4539 101.426 67.8529 101.579 68.29C101.712 68.6803 101.786 69.088 101.799 69.5C101.8 69.905 101.77 70.3095 101.709 70.71C101.649 71.12 101.599 71.51 101.559 71.91C101.524 72.2892 101.524 72.6708 101.559 73.05C101.6 73.4269 101.727 73.7895 101.929 74.11L101.419 74.58C101.189 74.3274 100.994 74.0448 100.839 73.74C100.7 73.447 100.576 73.1465 100.469 72.84C100.379 72.53 100.289 72.22 100.209 71.9C100.129 71.58 100.029 71.25 99.9194 70.9C99.7902 70.5577 99.6399 70.2237 99.4694 69.9C99.273 69.5399 99.0347 69.2042 98.7594 68.9C98.5467 68.6674 98.3085 68.4595 98.0494 68.28C97.8305 68.1311 97.5866 68.0227 97.3294 67.96C97.0891 67.9052 96.8396 67.9052 96.5994 67.96C96.3555 68.0493 96.1313 68.1851 95.9394 68.36L95.9294 68.44ZM102.539 77.19C102.283 76.9199 102.14 76.5622 102.139 76.19C102.139 76.0001 102.18 75.8124 102.259 75.64C102.342 75.4605 102.458 75.2978 102.599 75.16C102.816 74.9657 103.085 74.8386 103.372 74.7942C103.66 74.7498 103.954 74.79 104.219 74.91C104.401 74.9836 104.563 75.1003 104.689 75.25C104.828 75.3921 104.934 75.5627 104.999 75.75C105.061 75.9301 105.088 76.12 105.079 76.31C105.056 76.691 104.888 77.0486 104.609 77.31C104.466 77.4399 104.3 77.5417 104.119 77.61C103.941 77.6794 103.75 77.71 103.559 77.7C103.366 77.6913 103.177 77.6472 102.999 77.57C102.828 77.4832 102.673 77.3683 102.539 77.23V77.19Z" fill="#A8A8A8"/>
<path d="M244.179 36.8402C243.791 36.6039 243.359 36.4507 242.909 36.3902C242.489 36.3151 242.059 36.3151 241.639 36.3902C241.238 36.4823 240.858 36.6485 240.519 36.8802C240.199 37.1001 239.927 37.3824 239.719 37.7102C239.603 37.8964 239.525 38.1037 239.489 38.3202C239.454 38.4648 239.454 38.6156 239.489 38.7602C239.527 38.8688 239.588 38.9678 239.669 39.0502C239.719 39.1107 239.78 39.1615 239.849 39.2002C240.001 39.3013 240.176 39.3631 240.359 39.3802C240.505 39.3951 240.652 39.3951 240.799 39.3802H241.179C241.305 39.3684 241.432 39.4001 241.539 39.4702C241.753 39.6014 241.91 39.8084 241.979 40.0502C242.004 40.2058 242.004 40.3645 241.979 40.5202C241.938 40.7196 241.86 40.9096 241.749 41.0802C241.612 41.3215 241.407 41.5165 241.159 41.6402C240.913 41.7673 240.644 41.8422 240.369 41.8602C240.08 41.8838 239.789 41.8567 239.509 41.7802C239.232 41.7093 238.967 41.6017 238.719 41.4602C238.388 41.2787 238.098 41.0301 237.869 40.7302C237.647 40.4337 237.494 40.0924 237.419 39.7302C237.304 38.8871 237.507 38.0314 237.989 37.3302C238.358 36.6764 238.892 36.1314 239.539 35.7502C240.152 35.405 240.836 35.2032 241.539 35.1602C242.261 35.1105 242.986 35.1918 243.679 35.4002C244.413 35.6216 245.118 35.9305 245.779 36.3202C246.524 36.755 247.199 37.3013 247.779 37.9402C248.28 38.4981 248.67 39.1463 248.929 39.8502C249.16 40.4902 249.255 41.1713 249.209 41.8502C249.136 42.5597 248.904 43.2436 248.529 43.8502C248.157 44.5411 247.634 45.1392 246.999 45.6002C246.451 45.984 245.847 46.2808 245.209 46.4802C244.579 46.6788 243.933 46.8227 243.279 46.9102C242.619 46.9902 241.979 47.0902 241.349 47.2202C240.738 47.3311 240.141 47.5089 239.569 47.7502C238.995 47.9798 238.487 48.3473 238.089 48.8202L237.089 48.2302C237.361 47.7561 237.698 47.322 238.089 46.9402C238.477 46.5767 238.891 46.2424 239.329 45.9402C239.759 45.6502 240.209 45.3702 240.669 45.1002C241.147 44.8203 241.611 44.5166 242.059 44.1902C242.535 43.8463 242.983 43.4651 243.399 43.0502C243.862 42.5822 244.265 42.0582 244.599 41.4902C244.864 41.0528 245.079 40.5864 245.239 40.1002C245.38 39.689 245.437 39.2539 245.409 38.8202C245.381 38.4264 245.257 38.0454 245.049 37.7102C244.804 37.3478 244.479 37.0467 244.099 36.8302L244.179 36.8402ZM233.529 51.1402C233.696 50.8683 233.913 50.6307 234.169 50.4402C234.414 50.2405 234.696 50.091 234.999 50.0002C235.299 49.9204 235.611 49.9 235.919 49.9402C236.241 49.9899 236.549 50.1042 236.826 50.276C237.102 50.4478 237.341 50.6737 237.529 50.9402C237.708 51.1908 237.84 51.4721 237.919 51.7702C237.99 52.0714 238.007 52.383 237.969 52.6902C237.918 53.0072 237.81 53.3123 237.649 53.5902C237.482 53.8648 237.265 54.1056 237.009 54.3002C236.62 54.5714 236.162 54.7273 235.689 54.7502C235.215 54.7602 234.748 54.639 234.339 54.4002C234.071 54.2403 233.836 54.0297 233.649 53.7802C233.457 53.5294 233.318 53.2423 233.241 52.9364C233.164 52.6304 233.149 52.3119 233.199 52.0002C233.24 51.6871 233.35 51.3869 233.519 51.1202L233.529 51.1402Z" fill="#A8A8A8"/>
<path d="M238.599 98.0601C238.41 97.8168 238.171 97.6158 237.899 97.4701C237.646 97.3389 237.372 97.251 237.089 97.2101C236.815 97.1768 236.537 97.1937 236.269 97.2601C236.015 97.3184 235.776 97.4309 235.569 97.5901C235.449 97.6773 235.35 97.79 235.279 97.9201C235.243 98.0021 235.225 98.0907 235.225 98.1801C235.225 98.2696 235.243 98.3581 235.279 98.4401C235.353 98.6044 235.485 98.736 235.649 98.8101C235.738 98.8538 235.832 98.8874 235.929 98.9101L236.169 98.9901C236.254 99.0149 236.328 99.0677 236.379 99.1401C236.428 99.1997 236.465 99.2674 236.489 99.3401C236.509 99.4256 236.509 99.5146 236.489 99.6001C236.481 99.7054 236.45 99.8076 236.399 99.9001C236.329 100.022 236.233 100.128 236.119 100.21C235.972 100.327 235.796 100.399 235.609 100.42C235.428 100.46 235.24 100.46 235.059 100.42C234.872 100.37 234.695 100.285 234.539 100.17C234.381 100.061 234.24 99.9296 234.119 99.7801C233.95 99.591 233.826 99.365 233.759 99.1201C233.683 98.8777 233.666 98.6205 233.709 98.3701C233.834 97.8094 234.166 97.3165 234.639 96.9901C235.024 96.6625 235.491 96.4448 235.989 96.3601C236.446 96.28 236.916 96.3109 237.359 96.4501C237.827 96.583 238.264 96.8036 238.649 97.1001C239.066 97.4042 239.44 97.7643 239.759 98.1701C240.12 98.6131 240.41 99.1089 240.619 99.6401C240.801 100.109 240.896 100.607 240.899 101.11C240.898 101.589 240.788 102.062 240.578 102.493C240.369 102.924 240.065 103.303 239.689 103.6C239.297 103.926 238.84 104.165 238.349 104.3C237.911 104.408 237.46 104.452 237.009 104.43C236.565 104.41 236.123 104.35 235.689 104.25C235.259 104.15 234.829 104.07 234.399 104C233.986 103.93 233.568 103.9 233.149 103.91C232.732 103.924 232.324 104.037 231.959 104.24L231.489 103.64C231.792 103.401 232.129 103.209 232.489 103.07C232.816 102.941 233.15 102.831 233.489 102.74C233.839 102.66 234.189 102.59 234.549 102.53C234.913 102.466 235.274 102.382 235.629 102.28C236.009 102.177 236.381 102.043 236.739 101.88C237.144 101.691 237.524 101.453 237.869 101.17C238.139 100.959 238.384 100.717 238.599 100.45C238.784 100.222 238.923 99.9607 239.009 99.6801C239.079 99.4214 239.079 99.1489 239.009 98.8901C238.94 98.6021 238.802 98.3348 238.609 98.1101L238.599 98.0601ZM228.519 104.57C228.685 104.43 228.88 104.327 229.089 104.27C229.291 104.231 229.498 104.231 229.699 104.27C229.903 104.287 230.101 104.349 230.279 104.45C230.473 104.55 230.644 104.689 230.779 104.86C230.919 105.029 231.018 105.227 231.069 105.44C231.184 105.846 231.134 106.281 230.929 106.65C230.83 106.841 230.69 107.008 230.519 107.14C230.352 107.279 230.158 107.381 229.949 107.44C229.744 107.48 229.534 107.48 229.329 107.44C229.126 107.42 228.928 107.359 228.749 107.26C228.514 107.136 228.314 106.953 228.169 106.73C228.02 106.51 227.93 106.255 227.909 105.99C227.889 105.724 227.93 105.458 228.029 105.21C228.139 104.969 228.303 104.757 228.509 104.59L228.519 104.57Z" fill="#DDDDDD"/>
<path d="M140.61 11.1801C140.331 11.2981 140.08 11.4716 139.87 11.6901C139.661 11.8921 139.495 12.1334 139.38 12.4001C139.274 12.6544 139.213 12.9251 139.2 13.2001C139.194 13.4595 139.238 13.7176 139.33 13.9601C139.387 14.0968 139.469 14.2221 139.57 14.3301C139.644 14.3988 139.733 14.4501 139.83 14.4801C139.906 14.4949 139.984 14.4949 140.06 14.4801C140.106 14.4904 140.154 14.4904 140.2 14.4801C140.318 14.4388 140.424 14.3703 140.51 14.2801L140.69 14.0401L140.82 13.8201C140.864 13.7434 140.936 13.6862 141.02 13.6601C141.089 13.6281 141.164 13.6111 141.24 13.6101C141.333 13.6073 141.425 13.6244 141.51 13.6601C141.608 13.7012 141.697 13.7625 141.77 13.8401C141.864 13.9425 141.938 14.0611 141.99 14.1901C142.059 14.3611 142.08 14.548 142.05 14.7301C142.024 14.9164 141.956 15.0943 141.85 15.2501C141.748 15.4161 141.615 15.5619 141.46 15.6801C141.31 15.8009 141.146 15.9017 140.97 15.9801C140.739 16.0854 140.489 16.1399 140.235 16.1399C139.981 16.1399 139.731 16.0854 139.5 15.9801C138.996 15.7024 138.614 15.2456 138.43 14.7001C138.229 14.2412 138.15 13.7384 138.2 13.2401C138.254 12.7779 138.412 12.3337 138.66 11.9401C138.929 11.5308 139.267 11.172 139.66 10.8801C140.068 10.5607 140.519 10.3014 141 10.1101C141.524 9.88176 142.081 9.73991 142.65 9.6901C143.154 9.63809 143.663 9.6822 144.15 9.8201C144.607 9.96427 145.027 10.2062 145.381 10.5292C145.735 10.8521 146.015 11.2483 146.2 11.6901C146.404 12.1531 146.506 12.6543 146.5 13.1601C146.485 13.6127 146.404 14.0608 146.26 14.4901C146.111 14.9065 145.93 15.311 145.72 15.7001C145.5 16.0901 145.3 16.4801 145.11 16.8701C144.931 17.2496 144.787 17.6446 144.68 18.0501C144.59 18.4551 144.59 18.8751 144.68 19.2801L143.98 19.5601C143.837 19.2184 143.742 18.8582 143.7 18.4901C143.675 18.1339 143.675 17.7763 143.7 17.4201C143.7 17.0801 143.75 16.7201 143.8 16.3601C143.85 16.0001 143.86 15.6201 143.87 15.2501C143.87 14.855 143.84 14.4605 143.78 14.0701C143.709 13.6257 143.581 13.1923 143.4 12.7801C143.27 12.4661 143.106 12.1675 142.91 11.8901C142.745 11.6513 142.534 11.4474 142.29 11.2901C142.064 11.139 141.802 11.0494 141.53 11.0301C141.234 11.0225 140.941 11.0805 140.67 11.2001L140.61 11.1801ZM144.11 22.6601C144.024 22.4512 143.987 22.2256 144 22.0001C143.999 21.5825 144.16 21.1809 144.45 20.8801C144.6 20.7228 144.781 20.597 144.98 20.5101C145.18 20.43 145.394 20.3893 145.61 20.3901C145.819 20.3893 146.027 20.4301 146.22 20.5101C146.61 20.6837 146.921 20.9979 147.09 21.3901C147.169 21.5912 147.213 21.8043 147.22 22.0201C147.213 22.2262 147.169 22.4294 147.09 22.6201C147.007 22.8106 146.888 22.9837 146.74 23.1301C146.589 23.2844 146.409 23.4068 146.21 23.4901C146.01 23.5724 145.796 23.6165 145.58 23.6201C145.374 23.6209 145.17 23.5801 144.98 23.5001C144.793 23.42 144.623 23.3046 144.48 23.1601C144.323 23.0097 144.203 22.8248 144.13 22.6201L144.11 22.6601Z" fill="#DDDDDD"/>
<path d="M199.849 19.8301C199.571 19.7902 199.303 19.6986 199.059 19.5601C198.651 19.3312 198.322 18.9821 198.119 18.5601C197.912 18.146 197.828 17.6806 197.879 17.2201C197.916 16.9009 198.015 16.5919 198.169 16.3101C198.313 16.0458 198.507 15.8116 198.739 15.6201C198.975 15.4305 199.242 15.2849 199.529 15.1901C199.837 15.0988 200.16 15.0716 200.479 15.1101C200.798 15.142 201.107 15.2372 201.389 15.3901C201.918 15.7002 202.314 16.1954 202.499 16.7801C202.589 17.0881 202.62 17.4106 202.589 17.7301C202.547 18.0451 202.449 18.35 202.299 18.6301C202.15 18.897 201.95 19.1316 201.709 19.3201C201.471 19.5083 201.199 19.6507 200.909 19.7401C200.604 19.8262 200.285 19.8533 199.969 19.8201L199.849 19.8301ZM198.229 17.2801C198.198 17.5415 198.218 17.8066 198.289 18.0601C198.364 18.3139 198.487 18.5513 198.649 18.7601C198.812 18.9542 199.008 19.1169 199.229 19.2401C199.713 19.4891 200.273 19.5497 200.799 19.4101C201.048 19.3307 201.282 19.2089 201.489 19.0501C201.689 18.8884 201.859 18.6919 201.989 18.4701C202.123 18.2333 202.205 17.9709 202.229 17.7001C202.262 17.4348 202.238 17.1656 202.159 16.9101C202.003 16.4081 201.664 15.9832 201.209 15.7201C200.975 15.5881 200.716 15.5063 200.449 15.4801C200.177 15.4477 199.902 15.4716 199.639 15.5501C199.392 15.6274 199.162 15.7494 198.959 15.9101C198.764 16.0797 198.602 16.2829 198.479 16.5101C198.349 16.7448 198.267 17.0032 198.239 17.2701L198.229 17.2801ZM199.729 13.6101V13.4301C199.776 12.9068 199.905 12.394 200.109 11.9101C200.298 11.4536 200.522 11.0123 200.779 10.5901C201.029 10.1801 201.299 9.76009 201.579 9.3601C201.859 8.9601 202.129 8.5301 202.379 8.0901C202.632 7.62731 202.849 7.14591 203.029 6.6501C203.233 6.09955 203.364 5.52467 203.419 4.9401C203.474 4.48843 203.474 4.03176 203.419 3.5801C203.379 3.20997 203.271 2.85051 203.099 2.5201C202.939 2.22807 202.709 1.98059 202.429 1.8001C202.107 1.60693 201.744 1.49059 201.369 1.4601C200.98 1.41325 200.585 1.44729 200.209 1.5601C199.849 1.6654 199.51 1.83476 199.209 2.0601C198.931 2.27672 198.696 2.54493 198.519 2.8501C198.344 3.1284 198.234 3.44306 198.199 3.7701C198.164 3.93832 198.164 4.11187 198.199 4.2801C198.23 4.384 198.289 4.47742 198.369 4.5501C198.421 4.61071 198.486 4.65861 198.559 4.6901H198.719C198.854 4.72026 198.994 4.72026 199.129 4.6901C199.247 4.64698 199.361 4.59343 199.469 4.5301L199.779 4.3601C199.917 4.28623 200.074 4.25491 200.229 4.2701C200.502 4.30392 200.752 4.43966 200.929 4.6501C201.039 4.78447 201.118 4.9416 201.159 5.1101C201.199 5.31819 201.199 5.532 201.159 5.7401C201.128 6.02803 201.017 6.30157 200.839 6.5301C200.669 6.74253 200.458 6.91924 200.219 7.0501C199.971 7.19072 199.7 7.28874 199.419 7.3401C199.145 7.38977 198.864 7.38977 198.589 7.3401C198.218 7.32083 197.856 7.2183 197.529 7.0401C197.205 6.86171 196.922 6.61627 196.699 6.3201C196.293 5.6193 196.161 4.79256 196.329 4.0001C196.37 3.28549 196.601 2.59481 196.999 2.0001C197.395 1.46763 197.909 1.03315 198.499 0.730095C199.099 0.403011 199.753 0.186242 200.429 0.0900954C201.143 -0.0049667 201.866 -0.0049667 202.579 0.0900954C203.373 0.16098 204.149 0.36024 204.879 0.680095C205.529 0.959625 206.119 1.36006 206.619 1.8601C207.101 2.33596 207.469 2.9159 207.692 3.55549C207.916 4.19509 207.99 4.87737 207.909 5.5501C207.846 6.25305 207.635 6.93466 207.289 7.5501C206.964 8.08545 206.567 8.57339 206.109 9.0001C205.652 9.4117 205.16 9.78308 204.639 10.1101C204.133 10.4301 203.643 10.7634 203.169 11.1101C202.715 11.4394 202.293 11.811 201.909 12.2201C201.547 12.6126 201.283 13.0856 201.139 13.6001V13.7501L199.729 13.6101ZM201.569 1.1201C201.948 1.17095 202.313 1.30037 202.639 1.5001C202.968 1.71046 203.239 1.99908 203.429 2.3401C203.622 2.71509 203.748 3.12138 203.799 3.5401C203.854 4.01852 203.854 4.50167 203.799 4.9801C203.736 5.59783 203.599 6.20564 203.389 6.7901C203.197 7.29871 202.97 7.79326 202.709 8.2701C202.458 8.71703 202.184 9.15092 201.889 9.5701C201.609 9.98009 201.349 10.3701 201.099 10.7801C200.856 11.1878 200.642 11.6122 200.459 12.0501C200.3 12.4489 200.19 12.8651 200.129 13.2901L200.839 13.3701C201.004 12.8551 201.277 12.3812 201.639 11.9801C202.04 11.5576 202.478 11.1727 202.949 10.8301C203.429 10.4901 203.949 10.1501 204.439 9.8301C204.946 9.5198 205.421 9.16148 205.859 8.7601C206.307 8.35664 206.691 7.88805 206.999 7.3701C207.322 6.79154 207.516 6.15038 207.569 5.4901C207.649 4.85893 207.577 4.21786 207.359 3.6201C207.144 3.03929 206.802 2.51339 206.359 2.0801C205.882 1.62446 205.326 1.25861 204.719 1.0001C204.027 0.696227 203.291 0.503845 202.539 0.430095C201.855 0.345068 201.163 0.345068 200.479 0.430095C199.844 0.517266 199.231 0.720659 198.669 1.0301C198.138 1.32031 197.68 1.72719 197.329 2.2201C196.96 2.76081 196.736 3.38765 196.679 4.0401C196.556 4.76346 196.701 5.50702 197.089 6.1301C197.283 6.38545 197.528 6.59678 197.809 6.7501C198.089 6.90238 198.401 6.98794 198.719 7.0001C198.958 7.03498 199.2 7.03498 199.439 7.0001C199.681 6.96102 199.915 6.87979 200.129 6.7601C200.333 6.64956 200.51 6.49601 200.649 6.3101C200.788 6.14268 200.872 5.93672 200.889 5.7201C200.924 5.55866 200.924 5.39153 200.889 5.2301C200.856 5.11468 200.801 5.00628 200.729 4.9101C200.666 4.8373 200.587 4.77927 200.499 4.7401C200.428 4.69872 200.35 4.67155 200.269 4.6601C200.194 4.64017 200.115 4.64017 200.039 4.6601L199.729 4.8401C199.607 4.90687 199.48 4.96372 199.349 5.0101C199.161 5.07957 198.958 5.10021 198.759 5.0701L198.509 5.0001C198.384 4.95811 198.27 4.886 198.179 4.7901C198.062 4.67538 197.973 4.53504 197.919 4.3801C197.87 4.15612 197.87 3.92408 197.919 3.7001C197.962 3.32043 198.088 2.95497 198.289 2.6301C198.491 2.29012 198.756 1.99152 199.069 1.7501C199.395 1.49741 199.764 1.30751 200.159 1.1901C200.58 1.06212 201.022 1.01795 201.459 1.0601V1.2501V1.0601L201.569 1.1201Z" fill="#DDDDDD"/>
<path d="M153.158 96.1702C156.688 99.1702 169.618 112.17 161.578 119.9C147.578 133.38 108.298 112.73 123.658 102.26C132.768 96.0502 139.488 96.3702 138.368 88.2102C138.368 88.2102 149.628 93.1202 153.158 96.1702Z" fill="black"/>
<path d="M164.109 104.61L178.669 99C178.669 99 179.139 110 175.539 115.63C171.939 121.26 165.179 126.53 159.429 120.75C158.279 119.59 156.309 108.25 156.309 108.25L164.109 104.61Z" fill="#DDDDDD"/>
<path d="M163.859 116.77C154.669 117.92 151.709 109.36 151.709 109.36L164.109 104.61L178.669 99C178.669 99 170.649 115.91 163.859 116.77Z" fill="black"/>
<path d="M186.429 88.5402C194.589 67.8702 195.489 37.1502 158.879 43.9602C156.799 44.3402 153.119 42.8502 151.319 43.6502C145.709 46.1502 135.779 61.8302 133.469 68.8902C122.469 102.39 150.389 111.27 156.159 110.68C172.699 109 180.519 103.52 186.429 88.5402Z" fill="#DDDDDD"/>
<path d="M175.169 88.1502C175.169 86.8171 174.774 85.514 174.034 84.4056C173.293 83.2972 172.24 82.4333 171.009 81.9232C169.777 81.4131 168.422 81.2796 167.115 81.5397C165.807 81.7997 164.606 82.4417 163.664 83.3843C162.721 84.3269 162.079 85.5278 161.819 86.8353C161.559 88.1427 161.692 89.4979 162.203 90.7294C162.713 91.961 163.577 93.0137 164.685 93.7543C165.793 94.4949 167.096 94.8902 168.429 94.8902C170.217 94.8902 171.931 94.1801 173.195 92.9161C174.459 91.6521 175.169 89.9377 175.169 88.1502Z" fill="#BFBFBF"/>
<path d="M139.59 80.12C139.59 77.02 137.67 74.49 135.28 74.48C132.89 74.47 130.94 76.99 130.93 80.1C130.92 83.21 132.85 85.73 135.24 85.74C137.63 85.75 139.58 83.24 139.59 80.12Z" fill="#BFBFBF"/>
<path d="M176.728 114C175.968 118 182.358 123.72 184.798 126.66C194.598 138.47 214.548 142.16 219.448 138.47C231.948 129.04 217.278 114.97 210.798 107.66C202.438 98.2202 206.438 97.2201 205.188 77.0001C203.938 56.7801 183.308 47.0001 185.048 50.7801C185.048 50.7801 179.998 97.1301 176.728 114Z" fill="black"/>
<path d="M209.268 127C213.148 139.24 190.168 131.83 178.438 125.92C167.618 120.47 168.118 108.28 177.438 106.85C177.418 106.85 205.388 114.76 209.268 127Z" fill="black"/>
<path d="M228.858 120.43C232.748 132.67 209.758 125.26 198.038 119.36C187.218 113.91 193.188 105.15 202.488 103.71C202.488 103.71 224.998 108.18 228.858 120.43Z" fill="black"/>
<path d="M180.19 44.0902C183.44 43.7002 192.98 48.3002 192.54 58.8602C192.1 69.4202 188.34 75.0002 180.31 78.5402C180.31 78.5402 176.93 44.4902 180.19 44.0902Z" fill="#6D6D6D"/>
<path d="M189.338 54.7801C195.458 60.9301 222.898 59.6501 216.568 41.0801C211.348 25.7501 187.748 41.7001 184.468 45.7801C184.468 45.7801 183.218 48.6301 189.338 54.7801Z" fill="#6D6D6D"/>
<path d="M184.47 45.7801C189.58 40.1601 180.74 19.1201 169.02 22.8401C154.42 27.4601 164.46 39.9901 175.88 47.8401C175.88 47.8001 179.36 51.3901 184.47 45.7801Z" fill="#6D6D6D"/>
<path d="M179.29 99.7701C184.93 103.44 192.55 92.2301 190.99 87.5101C189.43 82.7901 181.55 87.5101 181.55 87.5101C181.55 87.5101 173.65 96.1201 179.29 99.7701Z" fill="#DDDDDD"/>
<path d="M172.648 74.1C151.348 68.61 148.378 49.55 148.378 49.55C148.378 49.55 149.318 48.49 145.028 51.55C141.768 53.89 137.888 59.55 137.888 59.55C137.888 59.55 136.488 58.25 136.528 54.3C136.678 41.3 149.778 34.3 163.828 37.49C184.328 42.1 185.228 52.56 184.758 63.55C184.288 74.54 180.278 75.75 180.278 75.75C177.697 75.3899 175.147 74.8384 172.648 74.1Z" fill="black"/>
<path d="M175.38 41.7802C195.2 46.5502 188.9 77.0002 186.69 80.0002C184.48 83.0002 181 81.5602 181 81.5602C181 81.5602 181.22 80.4602 179.7 75.8402C178.18 71.2202 180.84 60.9102 181.5 60.0302C181.47 60.0002 171.82 40.9202 175.38 41.7802Z" fill="black"/>
<path d="M182.689 85.8002L181.829 81.4102C176.719 81.4102 172.829 90.0002 171.829 93.1902C171.549 94.1202 172.349 93.9402 172.439 93.7102C173.199 91.5416 174.572 89.6401 176.391 88.2361C178.211 86.8322 180.398 85.986 182.689 85.8002Z" fill="black"/>
<path d="M150.459 48.6301C142.749 50.6901 142.869 61.3101 142.869 61.3101L150.459 48.6301Z" fill="black"/>
<path d="M191.599 55.54C187.899 43.45 178.999 42.25 175.379 42.28V41.28C179.279 41.28 188.669 42.51 192.569 55.28L191.599 55.54Z" fill="black"/>
<path d="M143.519 72.6101C143.819 70.4301 142.869 68.5101 141.409 68.3101C139.949 68.1101 138.519 69.7101 138.229 71.8901C137.939 74.0701 138.869 76.0001 140.339 76.2001C141.809 76.4001 143.229 74.7901 143.519 72.6101Z" fill="#242424"/>
<path d="M160.71 77.4801C161.01 75.3001 160.07 73.3701 158.6 73.1701C157.13 72.9701 155.71 74.5801 155.42 76.7601C155.13 78.9401 156.07 80.8601 157.53 81.0601C158.99 81.2601 160.42 79.6601 160.71 77.4801Z" fill="#242424"/>
<path d="M165.38 74.73C165.87 74.23 164.8 72.37 162.99 70.55C161.18 68.73 159.31 67.68 158.81 68.17C158.31 68.66 159.39 70.53 161.2 72.35C163.01 74.17 164.88 75.22 165.38 74.73Z" fill="#242424"/>
<path d="M142.43 65.5901C144.98 65.3001 146.98 64.5001 146.9 63.8101C146.82 63.1201 144.7 62.8101 142.15 63.0701C139.6 63.3301 137.6 64.1601 137.68 64.8501C137.76 65.5401 139.89 65.8801 142.43 65.5901Z" fill="#242424"/>
<path d="M149.999 95.5202C151.178 95.922 152.333 96.3894 153.459 96.9202C153.499 96.9377 153.534 96.9653 153.559 97.0002C153.589 97.0329 153.612 97.07 153.629 97.1102C153.634 97.1501 153.634 97.1904 153.629 97.2302C153.64 97.273 153.64 97.3175 153.629 97.3602C153.608 97.3977 153.581 97.4315 153.549 97.4602C153.519 97.4925 153.481 97.5166 153.439 97.5302H153.319C153.277 97.5394 153.232 97.5394 153.189 97.5302C150.449 96.2702 147.029 94.7102 142.079 95.6902H141.949L141.829 95.6402L141.739 95.5502C141.719 95.5121 141.702 95.4719 141.689 95.4302V95.3002C141.702 95.2586 141.719 95.2183 141.739 95.1802L141.829 95.1002C141.865 95.0724 141.906 95.052 141.949 95.0402C144.633 94.5008 147.411 94.6697 150.009 95.5302L149.999 95.5202Z" fill="#493936"/>
<path d="M146.14 100.17C145.045 100.159 143.994 99.7418 143.19 99C143.149 98.9746 143.115 98.9404 143.09 98.9C143.08 98.8539 143.08 98.8062 143.09 98.76C143.08 98.7139 143.08 98.6662 143.09 98.62C143.108 98.5751 143.135 98.5342 143.17 98.5C143.203 98.4646 143.244 98.4372 143.29 98.42H143.43C143.479 98.4262 143.527 98.4433 143.57 98.47C143.613 98.4951 143.65 98.5292 143.68 98.57C144.398 99.237 145.349 99.596 146.33 99.57C146.837 99.5319 147.331 99.3843 147.776 99.1375C148.221 98.8906 148.608 98.5504 148.91 98.14C148.929 98.0874 148.96 98.0397 149 98H149.12C149.162 97.9905 149.207 97.9905 149.25 98C149.291 98.01 149.329 98.0307 149.36 98.06C149.392 98.0887 149.419 98.1225 149.44 98.16C149.447 98.1997 149.447 98.2404 149.44 98.28C149.445 98.3232 149.445 98.3669 149.44 98.41C149.422 98.4502 149.399 98.4873 149.37 98.52C149.018 98.9963 148.568 99.3918 148.05 99.6798C147.533 99.9679 146.96 100.142 146.37 100.19L146.14 100.17Z" fill="#493936"/>
<path d="M157.22 77.1602C157.66 77.1602 158.02 77.6702 158.02 78.2902C158.02 78.9102 157.66 79.4102 157.22 79.4102C156.78 79.4102 156.42 78.9102 156.42 78.2902C156.42 77.6702 156.78 77.1602 157.22 77.1602Z" fill="white"/>
<path d="M140.118 72.29C140.558 72.29 140.918 72.8 140.918 73.42C140.918 74.04 140.558 74.54 140.118 74.54C139.678 74.54 139.318 74.04 139.318 73.42C139.318 72.8 139.678 72.29 140.118 72.29Z" fill="white"/>
<path d="M146.099 88.5101C146.026 88.5022 145.957 88.4745 145.899 88.4301C145.169 87.8501 142.349 86.6301 141.779 85.9001C141.582 85.6651 141.442 85.3879 141.369 85.0901C141.342 84.7906 141.386 84.4889 141.499 84.2101L147.369 73.5701C147.383 73.5284 147.405 73.4901 147.434 73.4574C147.464 73.4247 147.499 73.3984 147.539 73.3801C147.579 73.3627 147.621 73.3538 147.664 73.3538C147.707 73.3538 147.75 73.3627 147.789 73.3801C147.871 73.4066 147.939 73.464 147.979 73.5401C148.009 73.6207 148.009 73.7094 147.979 73.7901L142.109 84.4601C142.031 84.6291 141.993 84.814 141.999 85.0001C142.052 85.1893 142.148 85.3638 142.279 85.5101C142.819 86.1901 145.589 87.3901 146.279 87.9201C146.345 87.9761 146.388 88.0544 146.399 88.1401C146.406 88.1828 146.403 88.2265 146.391 88.268C146.379 88.3095 146.358 88.3478 146.329 88.3801C146.3 88.4182 146.262 88.449 146.219 88.4701C146.174 88.4846 146.125 88.4846 146.079 88.4701L146.099 88.5101Z" fill="#493936"/>
<path d="M169.939 131.66L179.999 120.14L173.369 112.14C173.155 110.412 172.821 108.701 172.369 107.02C172.009 106.44 168.839 107.31 168.369 108.17C167.899 109.03 169.829 115.23 169.829 115.23L170.459 119.51C170.505 120.945 170.257 122.375 169.729 123.71C168.799 126.6 169.219 128.4 169.729 131.83L169.939 131.66Z" fill="#ADADAD"/>
<path d="M186.45 117C186.37 117.561 186.072 118.068 185.62 118.41C185.283 118.663 184.879 118.811 184.458 118.835C184.038 118.859 183.619 118.757 183.257 118.543C182.894 118.329 182.602 118.012 182.42 117.632C182.237 117.253 182.171 116.827 182.23 116.41L183.6 106.59L184.01 108.17L180.01 102.49L180.67 103.04L178.2 101.63C177.806 101.414 177.51 101.057 177.37 100.63C177.238 100.184 177.281 99.7053 177.49 99.2901C177.704 98.8819 178.06 98.5656 178.49 98.4001C178.928 98.2487 179.407 98.2702 179.83 98.4601L182.42 99.6601C182.643 99.7631 182.838 99.9173 182.99 100.11L183.08 100.21L187.42 105.65C187.587 105.863 187.71 106.108 187.78 106.37C187.85 106.631 187.87 106.902 187.84 107.17V107.23L186.44 117H186.45Z" fill="#DDDDDD"/>
<path d="M185.719 115.86C185.925 116.051 186.088 116.282 186.199 116.54C186.311 116.803 186.369 117.085 186.369 117.37C186.373 117.654 186.323 117.936 186.219 118.2C186.111 118.46 185.951 118.695 185.749 118.89C185.548 119.09 185.31 119.25 185.049 119.36C184.786 119.468 184.504 119.522 184.219 119.52C183.648 119.508 183.105 119.271 182.709 118.86L174.119 110.26L176.279 110.6L169.559 113.86L170.269 113.25L167.169 116.94C166.923 117.259 166.562 117.468 166.163 117.522C165.765 117.577 165.361 117.472 165.039 117.23C164.711 116.989 164.489 116.631 164.419 116.23C164.351 115.837 164.437 115.432 164.659 115.1L167.179 110.99C167.323 110.75 167.536 110.559 167.789 110.44L167.899 110.38L174.609 107.13C174.959 106.97 175.348 106.915 175.729 106.97C176.103 107.031 176.451 107.202 176.729 107.46L185.619 115.76C185.642 115.768 185.663 115.781 185.681 115.799C185.698 115.816 185.711 115.837 185.719 115.86Z" fill="#DDDDDD"/>
<path d="M182.58 116.54C182.818 116.707 183.019 116.921 183.17 117.17C183.328 117.412 183.434 117.685 183.48 117.97C183.535 118.254 183.535 118.546 183.48 118.83C183.415 119.11 183.296 119.375 183.13 119.61C182.963 119.848 182.748 120.049 182.5 120.2C182.258 120.358 181.985 120.464 181.7 120.51C181.416 120.565 181.124 120.565 180.84 120.51C180.559 120.446 180.294 120.327 180.06 120.16L171.5 114.1L174.18 113.92L168.83 118.92L169.49 117.65L168.49 121.99C168.394 122.399 168.148 122.756 167.8 122.99C167.452 123.229 167.028 123.333 166.61 123.28C166.19 123.22 165.807 123.01 165.53 122.69C165.26 122.365 165.118 121.952 165.13 121.53L165.28 117.07C165.282 116.853 165.33 116.638 165.42 116.44C165.51 116.243 165.639 116.066 165.8 115.92L165.94 115.79L171.28 110.79C171.636 110.462 172.093 110.265 172.576 110.23C173.06 110.196 173.54 110.326 173.94 110.6L182.58 116.53V116.54Z" fill="#DDDDDD"/>
<path d="M177.248 117.14H177.198C175.919 115.79 174.56 114.518 173.128 113.33C171.867 113.197 170.594 113.217 169.338 113.39C168.688 113.49 166.718 113.86 166.428 113.92C165.644 114.84 164.929 115.816 164.288 116.84C164.277 116.845 164.265 116.847 164.253 116.847C164.241 116.847 164.229 116.845 164.218 116.84H164.148C164.148 116.84 164.148 116.84 164.148 116.78C164.138 116.754 164.138 116.726 164.148 116.7C164.801 115.646 165.533 114.643 166.338 113.7C166.347 113.695 166.358 113.692 166.368 113.692C166.379 113.692 166.389 113.695 166.398 113.7C166.398 113.7 168.638 113.26 169.348 113.15C170.643 112.991 171.953 112.991 173.248 113.15C174.702 114.359 176.084 115.651 177.388 117.02C177.398 117.046 177.398 117.074 177.388 117.1C177.393 117.111 177.395 117.123 177.395 117.135C177.395 117.147 177.393 117.159 177.388 117.17C177.365 117.178 177.341 117.178 177.318 117.17L177.248 117.14Z" fill="black"/>
<path d="M178.999 114H178.939C178.939 114 174.599 111.25 173.879 110.75C173.517 110.452 173.057 110.301 172.589 110.325C172.121 110.349 171.679 110.547 171.349 110.88C170.489 111.74 168.559 113.51 168.539 113.52H168.459C168.459 113.52 170.459 111.74 171.259 110.89C171.623 110.518 172.113 110.296 172.633 110.266C173.153 110.236 173.665 110.402 174.069 110.73C174.789 111.23 179.069 113.95 179.069 113.98C179.083 113.986 179.095 113.995 179.104 114.008C179.113 114.02 179.118 114.035 179.119 114.05C179.128 114.076 179.128 114.104 179.119 114.13L178.999 114Z" fill="black"/>
<path d="M165.34 120C165.137 120.001 164.934 119.97 164.74 119.91C164.461 119.802 164.209 119.635 164 119.42H164.08C164.254 119.601 164.467 119.741 164.702 119.83C164.937 119.919 165.189 119.955 165.44 119.935C165.69 119.915 165.933 119.839 166.151 119.714C166.369 119.589 166.557 119.417 166.7 119.21C167.13 118.69 168.27 117.13 168.28 117.12C168.29 117.11 168.28 117.12 168.28 117.12H168.33L170.92 116.89L171.63 117.56C171.65 117.582 171.661 117.611 171.661 117.64C171.661 117.67 171.65 117.698 171.63 117.72H171.55L170.88 117.08L168.38 117.29C168.2 117.54 167.22 118.88 166.82 119.35C166.634 119.599 166.39 119.798 166.11 119.93C165.834 120.071 165.53 120.147 165.22 120.15L165.34 120Z" fill="black"/>
<path d="M186.049 106H185.999C185.982 106.004 185.965 106.004 185.949 106L184.599 104.12C183.837 103.768 183.107 103.35 182.419 102.87C181.839 102.46 180.879 101.67 180.899 101.06C180.932 100.639 180.995 100.222 181.089 99.81C181.086 99.7934 181.086 99.7766 181.089 99.76C181.089 99.76 181.089 99.76 181.089 99.76H181.139H181.189C181.096 100.151 181.032 100.549 180.999 100.95C180.999 101.23 181.359 101.78 182.409 102.54C183.095 103.009 183.817 103.424 184.569 103.78C184.588 103.775 184.609 103.775 184.629 103.78L185.999 105.68C186.003 105.703 186.003 105.727 185.999 105.75C186.003 105.774 186 105.799 185.989 105.82C185.978 105.842 185.961 105.859 185.939 105.87C185.928 105.875 185.916 105.877 185.904 105.877C185.892 105.877 185.88 105.875 185.869 105.87L186.049 106Z" fill="black"/>
<path d="M129.619 178.08C129.595 178.08 129.571 178.074 129.548 178.064C129.526 178.053 129.506 178.038 129.489 178.02C129.457 177.985 129.439 177.938 129.439 177.89L130.349 152.94C130.348 152.916 130.352 152.892 130.36 152.87C130.369 152.847 130.382 152.827 130.399 152.81C130.416 152.793 130.436 152.779 130.459 152.771C130.481 152.762 130.505 152.759 130.529 152.76C130.578 152.76 130.624 152.778 130.659 152.81C130.678 152.826 130.693 152.846 130.703 152.869C130.713 152.891 130.719 152.915 130.719 152.94L129.799 177.89C129.801 177.914 129.797 177.938 129.789 177.961C129.78 177.983 129.767 178.004 129.75 178.021C129.733 178.038 129.713 178.051 129.69 178.059C129.668 178.068 129.643 178.072 129.619 178.07V178.08Z" fill="black"/>
<path d="M192.409 158L211.159 159.62C211.159 159.62 211.159 186.46 206.879 191.96C205.119 194.22 202.259 195.46 198.389 194.64L192.389 162.42L192.409 158Z" fill="#DDDDDD"/>
<path d="M202.399 190.45C202.356 190.458 202.312 190.458 202.269 190.45C202.237 190.418 202.21 190.381 202.189 190.34L187.059 149.27C187.051 149.234 187.051 149.196 187.059 149.16C187.054 149.124 187.054 149.087 187.059 149.05C187.067 149.016 187.085 148.985 187.109 148.96C187.135 148.931 187.165 148.908 187.199 148.89H187.289H187.389C187.407 148.896 187.423 148.905 187.437 148.917C187.451 148.929 187.462 148.943 187.469 148.96C187.479 148.993 187.479 149.027 187.469 149.06L202.599 190.12C202.619 190.185 202.619 190.255 202.599 190.32C202.573 190.38 202.527 190.43 202.469 190.46H202.379L202.399 190.45Z" fill="black"/>
<path d="M211.159 159.57L210.959 155.37L192.279 153.31L192.409 157.95L211.159 159.57Z" fill="#FEFBF0"/>
<path d="M128.999 191.05C128.318 192.967 127.21 194.704 125.759 196.13C125.088 196.691 124.292 197.082 123.439 197.27C122.59 197.46 121.708 197.44 120.869 197.21C117.219 196.21 114.979 191.8 114.519 187.14C113.589 177.14 114.289 156.39 116.809 146.42C118.879 138.24 119.809 128.32 126.409 123.1C133.209 117.66 139.729 122.33 140.269 131.59C140.489 135.36 139.529 139.26 138.519 143.02C136.029 152.37 134.729 161.95 133.089 171.79C132.339 176.42 130.729 187.25 128.999 191.05Z" fill="#DDDDDD"/>
<path d="M117.709 130.42C120.709 123.1 125.039 114.73 134.439 115.84C144.789 117.1 147.869 128.18 146.709 136.98C146.049 141.423 144.808 145.76 143.019 149.88C142.629 150.79 138.419 160.35 137.839 160.13C135.539 159.3 110.699 153.89 110.699 153.89C110.699 153.89 114.659 137.74 117.709 130.42Z" fill="#A8A8A8"/>
<path d="M177.999 196.6C177.817 196.964 177.585 197.301 177.309 197.6C175.849 199.21 173.409 199.4 171.229 199.44C156.649 199.83 141.519 201.44 127.099 198.78C123.189 198.03 119.099 196.84 116.429 193.95C115.752 193.305 115.213 192.53 114.845 191.67C114.477 190.81 114.288 189.885 114.289 188.95C114.709 182.35 123.069 181.77 128.039 181.67C135.845 181.589 143.638 182.33 151.289 183.88C155.289 184.64 159.189 185.53 163.109 186.44C166.791 187.139 170.43 188.047 174.009 189.16C177.069 190.25 179.519 193.21 178.009 196.57L177.999 196.6Z" fill="#DDDDDD"/>
<path d="M172.528 197.63C171.938 197.63 171.348 197.76 170.748 197.71C169.278 197.59 169.058 196.29 168.848 195.07C168.656 193.422 169.029 191.758 169.908 190.35C170.29 189.567 170.929 188.939 171.718 188.57C172.46 188.328 173.25 188.273 174.018 188.41C175.081 188.613 176.177 188.548 177.208 188.22C181.802 186.161 186.699 184.858 191.708 184.36C192.475 184.26 193.251 184.26 194.018 184.36C194.861 184.58 195.669 184.917 196.418 185.36C200.718 187.67 205.798 190.58 208.358 194.94C208.918 195.81 209.261 196.801 209.358 197.83C209.386 198.124 209.338 198.42 209.218 198.69C209.039 198.948 208.784 199.144 208.488 199.25C208.188 199.36 207.858 199.36 207.558 199.25C206.966 199.033 206.428 198.692 205.978 198.25C206.05 198.37 206.097 198.502 206.118 198.64C206.138 198.776 206.138 198.914 206.118 199.05C206.08 199.182 206.016 199.304 205.928 199.41C205.844 199.517 205.738 199.606 205.618 199.67C204.468 200.36 203.278 199.03 202.448 198.39C202.878 198.91 202.448 199.76 201.768 199.96C201.086 200.076 200.384 199.967 199.768 199.65C196.978 198.56 193.838 196.78 190.838 196.47C189.698 196.35 188.358 197.2 187.348 197.63C186.058 198.19 184.758 198.58 183.498 199.2C182.14 199.929 180.584 200.203 179.058 199.98C176.908 199.57 175.058 197.92 172.978 197.69C172.83 197.659 172.68 197.639 172.528 197.63Z" fill="#DDDDDD"/>
<path d="M126.93 117.3C126.93 117.3 132.48 122.22 145.13 124.12L146.94 119.34L138.2 113L130.94 113.58L126.93 117.3Z" fill="black"/>
<path d="M150.999 124.12C150.999 124.12 153.369 132.12 160.999 134.46C160.999 134.46 171.409 138.18 179.769 132.52C179.769 132.52 181.829 131.73 183.429 128.24L188.219 130.12C188.219 130.12 184.329 141.64 165.819 140.82C148.549 140.06 145.129 124.12 145.129 124.12C145.129 124.12 149.649 124.15 150.999 124.12Z" fill="#FEFBF0"/>
<path d="M184.529 192.15C184.529 192.15 169.529 136.95 169.709 132.76C169.889 128.57 171.079 128.14 172.709 124.6C173.492 123.119 174.109 121.556 174.549 119.94L186.249 115.74C186.249 115.74 186.359 116.22 186.649 117.44C186.939 118.66 182.649 129.14 182.099 133.25C181.549 137.36 203.269 192.15 203.269 192.15H184.529Z" fill="#DDDDDD"/>
<path d="M137.839 160.13C138.772 158.745 139.605 157.295 140.329 155.79L112.459 147.1L110.699 153.89L137.839 160.13Z" fill="#FEFBF0"/>
<path d="M95.9083 163.1L95.8383 161.1C95.8383 161.1 84.3283 160.65 79.4483 160.86C79.4483 160.86 77.1383 159.4 76.9083 155.31C76.7283 152.57 76.4783 147.56 78.6483 146.89C80.8183 146.22 96.1483 148.09 96.1483 148.09V145.66L78.6883 144.66L29.4383 147.5C27.3783 147.89 25.8883 151.43 26.0883 155.66C26.3795 158.536 27.2941 161.314 28.7683 163.8L76.8983 163.24L95.9083 163.1Z" fill="#A8A8A8"/>
<path d="M29.72 150.37C29.6667 150.368 29.616 150.346 29.5774 150.309C29.5388 150.273 29.5148 150.223 29.51 150.17C29.5087 150.143 29.5128 150.116 29.5223 150.09C29.5317 150.065 29.5462 150.042 29.5649 150.022C29.5836 150.002 29.6062 149.987 29.6311 149.976C29.656 149.965 29.6829 149.96 29.71 149.96L75 147.74C75.0467 147.75 75.0884 147.776 75.1183 147.814C75.1482 147.851 75.1645 147.897 75.1645 147.945C75.1645 147.993 75.1482 148.039 75.1183 148.076C75.0884 148.114 75.0467 148.14 75 148.15L29.74 150.37H29.72Z" fill="#2D2D2D"/>
<path d="M94.8782 161C91.9282 161.14 83.4982 160.74 79.4882 160.91C79.4882 160.91 77.1782 159.45 76.9182 155.35C76.7682 152.62 76.4982 147.6 78.6882 146.94C80.4682 146.39 91.0782 147.16 94.8582 147.88C95.0782 147.87 95.4882 160.92 94.8782 161Z" fill="white"/>
<path d="M93.5994 150.68L81.1895 151C82.3399 151.933 83.7228 152.534 85.1895 152.74C87.7795 153.18 93.5994 150.68 93.5994 150.68Z" fill="#2D2D2D"/>
<path d="M89.6094 157.29L77.1094 156.45C78.2705 157.365 79.6484 157.964 81.1094 158.19C83.6694 158.6 89.6094 157.29 89.6094 157.29Z" fill="#2D2D2D"/>
<path d="M79.4887 160.88C79.4887 160.88 77.1687 159.43 76.9187 155.32C76.7587 152.59 76.4987 147.57 78.6887 146.9C80.4687 146.38 91.0687 147.13 94.8487 147.85L81.9187 148.85C79.5587 148.8 77.6487 151.48 77.8187 154.72V154.83C77.8879 156.968 78.4637 159.058 79.4987 160.93L79.4887 160.88Z" fill="#2D2D2D"/>
<path d="M34.3086 199.42V197.42C34.3086 197.42 45.8186 196.83 50.6686 196.97C50.6686 196.97 52.9386 195.5 53.1586 191.33C53.2886 188.61 53.4786 183.58 51.2886 182.95C49.0986 182.32 33.8086 184.4 33.8086 184.4V181.97L51.2886 180.71L100.559 182.9C102.629 183.25 104.169 186.78 104.039 191.04C103.776 193.919 102.892 196.706 101.449 199.21L53.3686 199.34L34.3086 199.42Z" fill="#A8A8A8"/>
<path d="M100.309 185.75L54.9991 184.18C54.972 184.18 54.9451 184.175 54.9202 184.164C54.8952 184.153 54.8727 184.138 54.854 184.118C54.8353 184.098 54.8208 184.075 54.8113 184.05C54.8019 184.024 54.7977 183.997 54.7991 183.97C54.7991 183.917 54.8201 183.866 54.8577 183.829C54.8952 183.791 54.946 183.77 54.9991 183.77L100.269 185.34C100.324 185.345 100.375 185.37 100.412 185.411C100.449 185.452 100.469 185.505 100.469 185.56C100.466 185.605 100.449 185.647 100.42 185.681C100.391 185.715 100.352 185.739 100.309 185.75Z" fill="#2D2D2D"/>
<path d="M35.309 197.28C38.309 197.37 46.699 196.85 50.719 196.96C50.719 196.96 52.989 195.48 53.209 191.34C53.339 188.6 53.529 183.59 51.339 182.96C49.529 182.44 38.909 183.35 35.179 184.14C34.939 184.18 34.689 197.22 35.309 197.28Z" fill="white"/>
<path d="M36.4492 187L48.8692 187.18C47.7201 188.124 46.3387 188.742 44.8692 188.97C42.2992 189.38 36.4492 187 36.4492 187Z" fill="#2D2D2D"/>
<path d="M40.5195 193.52L53.0295 192.52C51.8786 193.461 50.498 194.079 49.0295 194.31C46.4795 194.73 40.5195 193.52 40.5195 193.52Z" fill="#2D2D2D"/>
<path d="M50.7197 196.94C50.7197 196.94 52.9897 195.47 53.2097 191.3C53.3397 188.58 53.5297 183.55 51.3397 182.92C49.5297 182.44 38.9097 183.35 35.1797 184.14L48.1097 184.92C50.4897 184.83 52.4397 187.47 52.2897 190.73V190.82C52.2445 192.954 51.7072 195.048 50.7197 196.94Z" fill="#2D2D2D"/>
<path d="M95.3495 181.28V179.28C95.3495 179.28 83.8595 178.65 78.9995 178.84C78.9995 178.84 76.7195 177.34 76.4995 173.19C76.3695 170.46 76.1795 165.44 78.3795 164.81C80.5795 164.18 95.8695 166.26 95.8695 166.26V163.83L78.3795 162.57L29.1395 164.78C27.0895 165.13 25.5495 168.64 25.6795 172.9C25.9257 175.788 26.8103 178.586 28.2695 181.09L76.3495 181.2L95.3495 181.28Z" fill="#DDDDDD"/>
<path d="M29.3489 167.62C29.2965 167.62 29.2459 167.601 29.2071 167.566C29.1682 167.531 29.1439 167.482 29.1389 167.43C29.1376 167.403 29.1417 167.376 29.1512 167.351C29.1606 167.325 29.1751 167.302 29.1938 167.282C29.2126 167.263 29.2351 167.247 29.26 167.236C29.2849 167.226 29.3118 167.22 29.3389 167.22L74.6289 165.64C74.6756 165.651 74.7173 165.676 74.7472 165.714C74.7771 165.751 74.7934 165.797 74.7934 165.845C74.7934 165.893 74.7771 165.939 74.7472 165.977C74.7173 166.014 74.6756 166.04 74.6289 166.05L29.3489 167.62Z" fill="#2D2D2D"/>
<path d="M94.3594 179.13C91.3594 179.24 82.9594 178.7 78.9494 178.83C78.9494 178.83 76.6694 177.35 76.4494 173.21C76.3194 170.47 76.1294 165.44 78.3294 164.81C80.1294 164.29 90.7094 165.22 94.4794 165.98C94.7294 166 94.9994 179.09 94.3594 179.13Z" fill="white"/>
<path d="M93.2088 168.83L80.7988 169C81.9465 169.952 83.3273 170.58 84.7988 170.82C87.3588 171.25 93.2088 168.83 93.2088 168.83Z" fill="#2D2D2D"/>
<path d="M89.1384 175.39L76.6484 174.39C77.8026 175.326 79.1817 175.943 80.6484 176.18C83.1784 176.6 89.1384 175.39 89.1384 175.39Z" fill="#2D2D2D"/>
<path d="M78.9983 178.82C78.9983 178.82 76.7183 177.32 76.4983 173.17C76.3683 170.44 76.1783 165.42 78.3783 164.79C80.1783 164.28 90.7583 165.18 94.5283 165.96L81.5883 166.74C79.2183 166.64 77.2683 169.29 77.3983 172.54V172.64C77.4563 174.795 78.0035 176.908 78.9983 178.82Z" fill="#2D2D2D"/>
<path d="M237.779 188.4C237.869 188.413 237.961 188.396 238.039 188.35C238.077 188.326 238.11 188.293 238.134 188.255C238.158 188.217 238.173 188.175 238.179 188.13L238.769 185.34C238.779 185.295 238.779 185.25 238.771 185.205C238.762 185.16 238.745 185.118 238.719 185.08C238.697 185.042 238.666 185.009 238.63 184.983C238.594 184.957 238.553 184.939 238.509 184.93C238.419 184.912 238.326 184.931 238.249 184.981C238.172 185.032 238.119 185.11 238.099 185.2L237.509 187.99C237.5 188.034 237.499 188.08 237.508 188.125C237.517 188.17 237.534 188.212 237.559 188.25C237.584 188.288 237.616 188.322 237.654 188.347C237.692 188.373 237.735 188.391 237.779 188.4Z" fill="#00A3D5"/>
<path d="M242.089 167.76C242.212 167.787 242.34 167.789 242.463 167.765C242.587 167.741 242.705 167.691 242.809 167.62C242.914 167.552 243.004 167.464 243.074 167.361C243.145 167.258 243.194 167.142 243.219 167.02L243.919 163.66C243.948 163.537 243.952 163.41 243.929 163.286C243.907 163.162 243.859 163.044 243.789 162.94C243.647 162.733 243.433 162.587 243.189 162.53C242.94 162.484 242.683 162.534 242.469 162.67C242.26 162.807 242.11 163.018 242.049 163.26L241.349 166.64C241.324 166.762 241.324 166.887 241.348 167.009C241.372 167.131 241.42 167.247 241.489 167.35C241.63 167.557 241.845 167.703 242.089 167.76Z" fill="#A8A8A8"/>
<path d="M238.12 186.77C238.241 186.799 238.366 186.803 238.489 186.78C238.611 186.758 238.727 186.71 238.83 186.64C238.936 186.574 239.027 186.486 239.097 186.383C239.168 186.28 239.216 186.163 239.24 186.04L239.95 182.68C239.97 182.554 239.97 182.426 239.95 182.3C239.929 182.178 239.881 182.062 239.81 181.96C239.739 181.856 239.651 181.765 239.55 181.69C239.444 181.624 239.33 181.574 239.21 181.54C239.084 181.52 238.956 181.52 238.83 181.54C238.709 181.565 238.594 181.613 238.49 181.68C238.384 181.749 238.293 181.837 238.22 181.94C238.151 182.043 238.103 182.158 238.08 182.28L237.38 185.65C237.355 185.772 237.355 185.898 237.38 186.02C237.412 186.142 237.459 186.26 237.52 186.37C237.593 186.473 237.684 186.561 237.79 186.63C237.892 186.701 238.008 186.749 238.13 186.77H238.12Z" fill="#00A3D5"/>
<path d="M241.589 164.92L243.689 165.36C243.814 165.387 243.933 165.438 244.039 165.51C244.145 165.582 244.237 165.674 244.309 165.78C244.379 165.887 244.43 166.005 244.459 166.13C244.483 166.256 244.483 166.385 244.459 166.51L242.669 175.07L240.439 183.59C240.373 183.83 240.219 184.037 240.009 184.17C239.795 184.297 239.542 184.34 239.299 184.29L237.999 184C237.756 183.946 237.542 183.803 237.399 183.6C237.26 183.395 237.203 183.145 237.239 182.9L238.599 174.2L240.399 165.66C240.42 165.535 240.468 165.415 240.539 165.31C240.61 165.204 240.702 165.112 240.809 165.04C240.919 164.97 241.041 164.919 241.169 164.89C241.295 164.87 241.423 164.87 241.549 164.89L241.589 164.92Z" fill="#DDDDDD"/>
<path d="M238.889 174.87L242.189 175.56C242.261 175.58 242.337 175.58 242.409 175.56C242.479 175.547 242.547 175.524 242.609 175.49C242.675 175.45 242.729 175.395 242.769 175.33C242.81 175.265 242.84 175.194 242.859 175.12C242.874 175.048 242.874 174.973 242.859 174.9C242.847 174.829 242.82 174.76 242.779 174.7C242.737 174.631 242.683 174.57 242.619 174.52C242.555 174.482 242.483 174.455 242.409 174.44L239.119 173.74C239.047 173.72 238.971 173.72 238.899 173.74C238.823 173.746 238.75 173.773 238.689 173.82C238.624 173.86 238.57 173.915 238.529 173.98C238.451 174.109 238.419 174.261 238.439 174.41C238.447 174.483 238.475 174.552 238.519 174.61C238.559 174.673 238.61 174.727 238.669 174.77C238.731 174.819 238.803 174.853 238.879 174.87H238.889Z" fill="#A8A8A8"/>
<path d="M237.409 173.39C237.466 173.4 237.523 173.4 237.579 173.39C237.641 173.382 237.7 173.358 237.749 173.32C237.796 173.292 237.837 173.254 237.869 173.21C237.901 173.157 237.925 173.1 237.939 173.04L239.619 164.98C239.629 164.917 239.629 164.853 239.619 164.79C239.603 164.734 239.579 164.68 239.549 164.63L239.429 164.51C239.38 164.482 239.326 164.461 239.269 164.45H239.089C239.033 164.46 238.978 164.48 238.929 164.51L238.809 164.63C238.775 164.678 238.752 164.733 238.739 164.79L237.049 172.88C237.038 172.937 237.038 172.996 237.05 173.054C237.062 173.111 237.086 173.165 237.12 173.213C237.153 173.26 237.196 173.301 237.246 173.331C237.296 173.362 237.352 173.382 237.409 173.39Z" fill="#A8A8A8"/>
<path d="M239 167.88L239.91 168.07L240.41 165.69L239.5 165.51L239 167.88Z" fill="#A8A8A8"/>
<path d="M233.76 180.3L238.08 180.07L237 159.6L232.67 159.81L233.76 180.3Z" fill="#A8A8A8"/>
<path d="M234.738 180.25L237.098 180.13L235.998 159.64L233.648 159.77L234.738 180.25Z" fill="#DDDDDD"/>
<path d="M236.31 187L233.76 180.25L238.16 180.02L236.31 187Z" fill="#0B2D4E"/>
<path d="M234.999 183.52L233.779 180.29L238.179 180.06L237.299 183.4L234.999 183.52Z" fill="#FFE9CC"/>
<path d="M232.71 159.81L237.03 159.58L236.92 157.45L232.6 157.68L232.71 159.81Z" fill="#292929"/>
<path d="M236.92 157.55L232.6 157.76C232.575 157.2 232.77 156.652 233.144 156.233C233.518 155.815 234.04 155.559 234.6 155.52C235.162 155.493 235.713 155.687 236.133 156.061C236.554 156.435 236.811 156.959 236.85 157.52L236.92 157.55Z" fill="#A8A8A8"/>
<path d="M228.45 165L224.52 166.81L233.14 185.43L237.07 183.63L228.45 165Z" fill="#A8A8A8"/>
<path d="M227.56 165.46L225.42 166.46L234 185.06L236.14 184.06L227.56 165.46Z" fill="#DDDDDD"/>
<path d="M223.559 159.73L228.449 165.06L224.449 166.89L223.559 159.73Z" fill="#292929"/>
<path d="M226.11 162.51L228.45 165.06L224.45 166.89L224.02 163.46L226.11 162.51Z" fill="#A8A8A8"/>
<path d="M237.079 183.67L233.139 185.47L234.039 187.41L237.999 185.6L237.079 183.67Z" fill="#51666F"/>
<path d="M234 187.32L237.93 185.51L238.54 186.82C238.575 186.904 238.593 186.994 238.593 187.085C238.593 187.176 238.575 187.266 238.54 187.35C238.474 187.521 238.345 187.661 238.18 187.74L235.54 189C235.457 189.039 235.366 189.061 235.275 189.065C235.183 189.069 235.091 189.054 235.005 189.023C234.918 188.991 234.839 188.943 234.771 188.881C234.703 188.818 234.649 188.743 234.61 188.66L234 187.32Z" fill="#D8584E"/>
<path d="M242.539 178.74H229.439V199.68H242.539V178.74Z" fill="#A8A8A8"/>
<path d="M0.749146 201.18H259.249C259.46 201.148 259.652 201.042 259.791 200.881C259.93 200.719 260.006 200.513 260.006 200.3C260.006 200.087 259.93 199.881 259.791 199.72C259.652 199.558 259.46 199.452 259.249 199.42H0.749146C0.538551 199.452 0.346356 199.558 0.207463 199.72C0.0685693 199.881 -0.0078125 200.087 -0.0078125 200.3C-0.0078125 200.513 0.0685693 200.719 0.207463 200.881C0.346356 201.042 0.538551 201.148 0.749146 201.18Z" fill="black"/>
</g>
<defs>
<clipPath id="clip0_6053_14836">
<rect width="259.99" height="201.18" fill="white"/>
</clipPath>
</defs>
</svg>
