<svg width="230" height="42" viewBox="0 0 230 42" fill="none" xmlns="http://www.w3.org/2000/svg">
<path d="M80.9641 32.5652H89.1128L78.8951 9.38068H71.1469L60.9292 32.5652H68.9436L70.513 28.5239H79.3946L80.9641 32.5652ZM72.6834 22.8931L74.955 17.0637L77.2243 22.8931H72.6834ZM104.64 33.0958C109.216 33.0958 112.821 31.4409 115.126 28.4584L110.152 24.0525C108.782 25.7751 107.145 26.7685 105.043 26.7685C101.769 26.7685 99.5638 24.5176 99.5638 20.9741C99.5638 17.4283 101.769 15.1774 105.043 15.1774C107.145 15.1774 108.782 16.1708 110.152 17.8934L115.126 13.4875C112.821 10.5073 109.216 8.8501 104.64 8.8501C97.1272 8.8501 91.6177 13.8521 91.6177 20.9741C91.6177 28.0938 97.1272 33.0958 104.64 33.0958ZM137.065 32.5652H145.214L134.996 9.38068H127.248L117.03 32.5652H125.045L126.614 28.5239H135.496L137.065 32.5652ZM128.784 22.8931L131.056 17.0637L133.325 22.8931H128.784ZM148.986 32.5652H160.507C168.321 32.5652 173.699 28.1616 173.699 20.9741C173.699 13.7843 168.321 9.38068 160.507 9.38068H148.986V32.5652ZM156.869 26.4717V15.4743H160.175C163.479 15.4743 165.751 17.4283 165.751 20.9741C165.751 24.5176 163.479 26.4717 160.175 26.4717H156.869ZM188.326 26.5044L199.01 14.184V9.38068H178.407V15.4415H188.759L178.073 27.7642V32.5652H199.545V26.5044H188.326ZM221.851 32.5652H230L219.78 9.38068H212.034L201.817 32.5652H209.831L211.4 28.5239H220.282L221.851 32.5652ZM213.571 22.8931L215.84 17.0637L218.112 22.8931H213.571Z" fill="#292D48"/>
<g clip-path="url(#clip0)">
<path d="M38.2887 25.2812C38.3129 25.1897 38.3358 25.0985 38.3584 25.0069C38.4541 24.616 38.5361 24.221 38.6044 23.8219C38.6324 23.6581 38.6581 23.4945 38.6822 23.3295C38.7768 23.116 38.947 22.944 39.161 22.8459L39.6245 22.7582L42.2518 22.2607C42.3089 21.3908 42.3102 20.5181 42.2556 19.648L39.6887 19.164L39.1505 19.062C39.002 18.9868 38.8759 18.8746 38.7846 18.7366C38.7446 18.6763 38.7116 18.6117 38.6861 18.5442C38.6682 18.4145 38.6472 18.2841 38.627 18.1533C38.5919 17.9332 38.5521 17.713 38.5075 17.4927C38.4732 17.3227 38.4366 17.154 38.3977 16.9868C38.3528 16.7934 38.3049 16.601 38.2541 16.4097C38.2666 16.1322 38.3891 15.8707 38.595 15.6818L38.8909 15.4894L41.1199 14.0401C40.8311 13.2153 40.4901 12.4093 40.099 11.6267L37.508 12.1542L37.046 12.2484C36.8935 12.2422 36.7447 12.2004 36.6117 12.1264C36.4787 12.0525 36.3653 11.9485 36.2808 11.8229C36.2797 11.821 36.2784 11.8192 36.2769 11.8175C36.2652 11.7995 36.2539 11.7814 36.2438 11.7637C36.0082 11.3825 35.7586 11.012 35.4949 10.6522C35.4315 10.5652 35.3669 10.4791 35.3003 10.3929C35.2303 10.3003 35.1588 10.2085 35.0859 10.1174C35.0796 10.0966 35.0738 10.0759 35.0691 10.0543C35.0171 9.82618 35.0517 9.58709 35.1664 9.38256L35.2688 9.23791L36.8619 6.91682C36.5764 6.60416 36.2821 6.30022 35.9787 6.005C35.6458 5.68234 35.3028 5.37109 34.9496 5.07126L32.749 6.54709L32.3107 6.84025C32.0956 6.91077 31.8623 6.90451 31.6514 6.82256C31.5237 6.73022 31.3957 6.63904 31.2657 6.55017C30.9164 6.30932 30.5587 6.08143 30.1926 5.8665C30.0961 5.80879 29.998 5.75108 29.9007 5.69837C29.7394 5.56365 29.6271 5.38041 29.5811 5.17667C29.5665 5.11264 29.5587 5.04726 29.5578 4.98161L29.6419 4.57611L30.1786 2.00725C29.9334 1.89183 29.6858 1.78064 29.4356 1.67523C28.8538 1.429 28.2604 1.20906 27.6553 1.01541L26.1136 3.33458L25.9941 3.51348C25.8572 3.67623 25.6695 3.78948 25.4605 3.8355C25.3522 3.85948 25.2406 3.86507 25.1304 3.85204C25.0689 3.83781 25.0071 3.82396 24.9456 3.81049C24.5159 3.71687 24.0821 3.63928 23.6444 3.57773C23.5448 3.56388 23.4447 3.55041 23.3451 3.53925C23.2066 3.49781 23.0793 3.42627 22.9724 3.32988C22.8655 3.23349 22.7818 3.11468 22.7274 2.98216L22.655 2.60782L22.1549 0.023186C21.2316 -0.0196825 20.3065 -0.00246059 19.3856 0.0747401L18.8882 2.64167L18.7839 3.1803C18.6689 3.39765 18.4738 3.56296 18.2389 3.64198C18.1385 3.65814 18.0393 3.67506 17.9396 3.69353C17.8583 3.70854 17.7762 3.72392 17.6948 3.7397C17.4283 3.791 17.1647 3.84896 16.9039 3.9136C16.7441 3.95515 16.5863 3.99708 16.4306 4.0394C16.4271 4.0394 16.4229 4.04171 16.4197 4.04287C16.2759 4.04174 16.1341 4.00893 16.0047 3.94684C15.8753 3.88475 15.7615 3.79493 15.6717 3.68391L15.5701 3.53002L14.0303 1.22086C13.1418 1.53329 12.2757 1.90463 11.4378 2.33235L11.9792 4.92583L12.092 5.46445C12.0742 5.66306 11.9944 5.85128 11.8636 6.00308C11.7028 6.09965 11.5436 6.20006 11.3868 6.30278C11.0964 6.49259 10.8128 6.69008 10.5359 6.89527L10.5309 6.89912L10.4974 6.92374C10.479 6.93734 10.4607 6.95119 10.4425 6.96529C10.3179 7.0474 10.1757 7.09986 10.0272 7.11855C9.87862 7.13724 9.72769 7.12165 9.58624 7.07302L9.17679 6.79832L7.01935 5.35211C6.69241 5.64194 6.37545 5.94139 6.06849 6.25046C5.7034 6.61826 5.35233 6.99928 5.01527 7.3935L6.52621 9.59417L6.80333 9.99737C6.88178 10.2184 6.87569 10.4602 6.78621 10.6772C6.70253 10.7926 6.6204 10.908 6.53867 11.0254C6.37805 11.2577 6.22236 11.4938 6.0716 11.7337C5.9887 11.8656 5.90852 11.9987 5.82951 12.1334C5.70029 12.2627 5.53632 12.3527 5.357 12.3927C5.33287 12.3977 5.30913 12.4027 5.28499 12.4066L4.63967 12.2773L2.13233 11.7656C1.97405 12.0859 1.82368 12.4104 1.68123 12.739C1.44302 13.2935 1.22895 13.8578 1.03902 14.4318L3.34669 15.9322L3.58645 16.0919C3.64882 16.1468 3.70364 16.2095 3.74953 16.2785C3.81976 16.3838 3.86819 16.5018 3.89204 16.6256C3.91589 16.7495 3.91468 16.8768 3.88848 17.0003C3.81297 17.327 3.74681 17.6567 3.68998 17.9894C3.66689 18.121 3.64587 18.2532 3.62693 18.3861C3.57901 18.5091 3.50587 18.6211 3.4121 18.7149C3.31833 18.8087 3.20595 18.8824 3.08202 18.9312L2.71421 19.0005L0.0465104 19.506C-0.0182611 20.4713 -0.0147496 21.4398 0.0570193 22.4046L2.67101 22.8986C2.83879 22.8871 3.00672 22.9189 3.15831 22.9909C3.3169 23.0662 3.45154 23.183 3.54753 23.3287C3.58721 23.3891 3.6201 23.4536 3.64561 23.5211C3.66429 23.6427 3.68453 23.7639 3.70555 23.8858C3.7315 24.0294 3.75861 24.1732 3.7869 24.3171C3.81518 24.461 3.84658 24.6074 3.88109 24.7565C3.90132 24.8426 3.92169 24.9287 3.94219 25.0146C3.95466 25.148 3.93858 25.2824 3.89499 25.4092C3.8514 25.5361 3.78128 25.6524 3.6892 25.7506C3.58297 25.866 3.44914 25.9532 3.29998 26.0041L1.06821 27.455C1.3728 28.373 1.7423 29.2686 2.17398 30.1354L4.82533 29.5968L5.16161 29.5279C5.32633 29.5236 5.48943 29.5611 5.63541 29.6366C5.78139 29.7122 5.90541 29.8233 5.99571 29.9596C5.99688 29.9612 5.99793 29.9628 5.99882 29.9646C6.00894 29.9792 6.01828 29.9942 6.02684 30.0088C6.21263 30.3107 6.40724 30.6057 6.61067 30.8937C6.65582 30.9576 6.70136 31.0214 6.74729 31.0861C6.82505 31.2289 6.86467 31.389 6.86243 31.5511C6.86018 31.7133 6.81613 31.8722 6.73444 32.0129C6.71006 32.0548 6.68261 32.0949 6.65232 32.1329L5.05341 34.4613C5.4652 34.9376 5.8971 35.3947 6.34912 35.8325C6.58913 36.0649 6.83499 36.2915 7.08668 36.5123L9.43017 34.9403C9.45313 34.9219 9.47726 34.9049 9.50256 34.8884C9.51852 34.878 9.53409 34.868 9.55043 34.8595C9.67764 34.7869 9.81993 34.7439 9.96649 34.7337C10.113 34.7236 10.26 34.7466 10.3962 34.801C10.525 34.8992 10.6566 34.9934 10.7889 35.0888C11.0261 35.2581 11.2674 35.4215 11.5129 35.579C11.6557 35.6379 11.7821 35.7297 11.8816 35.8469C11.9811 35.964 12.0507 36.103 12.0846 36.2523C12.0945 36.296 12.1014 36.3403 12.1053 36.385L11.9936 36.9105L11.4584 39.4779C11.9288 39.7187 12.4089 39.942 12.8985 40.1477C13.2877 40.3118 13.6832 40.4639 14.0848 40.604L15.5744 38.3687L15.7814 38.0582C15.8296 38.0099 15.8829 37.9667 15.9402 37.9293C16.0892 37.8321 16.2627 37.7778 16.4411 37.7727C16.5412 37.8 16.6416 37.827 16.7424 37.8527C16.8202 37.872 16.895 37.8912 16.9717 37.9097C17.2444 37.9751 17.5194 38.0342 17.7968 38.087C17.9657 38.1194 18.1344 38.149 18.3028 38.1759C18.5086 38.2727 18.6732 38.4383 18.7675 38.6434L18.8539 39.09L19.3653 41.7335C20.2997 41.8105 21.2382 41.8262 22.1747 41.7805L22.6675 39.2339L22.7628 38.7415C22.8683 38.5282 23.0504 38.3613 23.2735 38.2733L23.3081 38.2686C23.4534 38.2512 23.5985 38.2317 23.7433 38.2102C24.0287 38.1686 24.3141 38.1197 24.5995 38.0636C24.7 38.0436 24.7996 38.0229 24.8985 38.0016C24.993 37.9812 25.0865 37.9605 25.1795 37.9389C25.4004 37.9222 25.6204 37.9814 25.8022 38.1067L26.2 38.7049L27.6012 40.8075C28.4764 40.5316 29.3325 40.1994 30.1638 39.813L29.5924 37.0783C29.5789 37.0323 29.5691 36.9854 29.5632 36.9379V36.9348C29.546 36.795 29.5601 36.6532 29.6044 36.5194C29.6487 36.3855 29.7222 36.263 29.8197 36.1603C29.9801 36.0722 30.1389 35.9806 30.2957 35.8871C30.6089 35.7007 30.9154 35.5049 31.2151 35.2997C31.3416 35.2135 31.4661 35.1254 31.5903 35.0361C31.6376 35.0175 31.6862 35.0024 31.7359 34.9911C31.8969 34.9552 32.0645 34.9608 32.2228 35.0073L32.7085 35.3331L34.8881 36.7951C35.3604 36.3958 35.8133 35.9774 36.2469 35.5401C36.4434 35.3412 36.6361 35.1385 36.8237 34.9326L35.2688 32.6704L35.1314 32.4703C35.0675 32.3468 35.0316 32.2111 35.0262 32.0725C35.0209 31.9339 35.0461 31.7958 35.1003 31.6678C35.2004 31.5413 35.2988 31.4131 35.3953 31.2831C35.6541 30.9368 35.9013 30.579 36.1325 30.215C36.1714 30.1558 36.2068 30.0962 36.2434 30.0373C36.2432 30.0365 36.2432 30.0357 36.2434 30.035C36.3443 29.9078 36.476 29.8079 36.6264 29.7443C36.7767 29.6808 36.9408 29.6557 37.1036 29.6714C37.1036 29.6714 37.1036 29.6714 37.1055 29.6714L37.2951 29.7099L40.0453 30.2704C40.243 29.8819 40.4298 29.4879 40.6022 29.087C40.7777 28.68 40.94 28.2673 41.0892 27.8489L38.8624 26.4012L38.4732 26.1488C38.3165 25.981 38.2253 25.7637 38.2159 25.5355C38.2432 25.4513 38.2658 25.3659 38.2887 25.2812ZM23.6175 33.9412C16.3863 35.3647 9.35777 30.721 7.91961 23.573C6.48145 16.4251 11.1762 9.47759 18.4086 8.05562C25.6411 6.63365 32.6684 11.277 34.1066 18.4242C35.5447 25.5713 30.8488 32.5196 23.6175 33.9412Z" fill="#292D48"/>
<path d="M20.996 8.73999C14.1602 8.73999 8.6189 14.2174 8.6189 20.9745C8.6189 27.7315 14.1602 33.209 20.996 33.209C27.8319 33.209 33.3732 27.7315 33.3732 20.9745C33.3732 14.2174 27.8338 8.73999 20.996 8.73999ZM20.996 32.4395C14.5903 32.4395 9.39733 27.3064 9.39733 20.9745C9.39733 14.6426 14.5903 9.50945 20.996 9.50945C27.4018 9.50945 32.5947 14.6426 32.5947 20.9745C32.5947 27.3064 27.4018 32.4395 20.996 32.4395Z" fill="#292D48"/>
</g>
<defs>
<clipPath id="clip0">
<rect width="42.294" height="41.8062" fill="white"/>
</clipPath>
</defs>
</svg>
