<svg width="223" height="209" viewBox="0 0 223 209" fill="none" xmlns="http://www.w3.org/2000/svg">
<path d="M103.472 205.182C101.852 194.503 100.283 183.816 98.7635 173.12C97.2551 162.546 93.0955 146.176 101.415 137.308C103.14 135.511 105.295 134.183 107.677 133.446C109.244 132.932 124.772 129.396 124.785 129.507L125.373 129.416L125.961 129.312C131.479 128.472 137.062 128.114 142.619 127.684C155.359 126.694 160.85 140.322 163.214 150.558C166.564 165.04 169.32 179.645 171.925 194.276C172.521 197.588 173.107 200.904 173.682 204.225C174.361 208.138 103.778 207.175 103.472 205.182Z" fill="#A8A8A8"/>
<path d="M169.215 178.616C163.991 170.509 159.159 162.519 153.373 155.175C151.035 152.218 148.685 149.132 147.437 145.701C144.368 137.281 148.358 130.64 156.475 132.847C164.311 134.976 168.96 143.402 173.936 149.874C179.989 157.753 188.556 175.861 191.567 185.107C192.951 189.424 192.67 194.223 189.804 196.489C189.143 197.011 188.366 197.366 187.538 197.524C186.71 197.681 185.857 197.637 185.05 197.394C183.293 196.886 181.687 195.526 180.224 194.139C177.26 191.417 171.677 182.425 169.215 178.616Z" fill="#DDDDDD"/>
<path d="M182.243 154.133C182.243 154.133 162.281 168.458 160.563 170.079C160.126 170.49 152.727 163.64 152.035 162.982C148.869 160.004 146.108 156.627 143.82 152.935C139.419 145.577 137.898 134.573 146.602 129.494C154.51 124.897 161.523 130.679 167.034 136.005C172.546 141.332 182.243 154.133 182.243 154.133Z" fill="#A8A8A8"/>
<path d="M85.6368 184.41C90.8607 176.303 95.6929 168.314 101.478 160.969C103.816 158.013 106.167 154.927 107.414 151.495C110.483 143.076 106.493 136.434 98.3767 138.642C90.5408 140.771 85.8914 149.197 80.9156 155.669C74.8624 163.548 66.2951 181.656 63.2848 190.902C61.9004 195.219 62.1812 200.018 65.0479 202.284C65.7083 202.806 66.4856 203.161 67.3133 203.318C68.1411 203.476 68.9949 203.432 69.8017 203.189C71.5582 202.681 73.1646 201.32 74.6273 199.933C77.5919 197.211 83.175 188.219 85.6368 184.41Z" fill="#DDDDDD"/>
<path d="M156.852 186.566L156.853 186.566C164.242 185.076 171.767 184.363 179.305 184.438C181.705 184.484 184.914 184.647 187.572 185.591C188.901 186.063 190.086 186.728 190.965 187.667C191.842 188.605 192.415 189.818 192.516 191.394C192.517 192.284 192.336 193.166 191.985 193.985C191.633 194.804 191.118 195.544 190.47 196.159L190.47 196.159L190.467 196.162C187.874 198.916 183.978 200.085 180.2 200.787L180.2 200.787C169.33 202.82 158.041 202.309 146.901 201.804C143.777 201.662 140.664 201.521 137.576 201.437L137.576 201.437C136.521 201.411 135.412 201.357 134.391 201.116C133.372 200.875 132.446 200.448 131.756 199.679L131.756 199.679L131.754 199.678C131.491 199.398 131.271 199.08 131.102 198.735C130.38 197.133 130.6 195.633 131.364 194.401C132.13 193.167 133.444 192.2 134.91 191.681C137.487 190.774 140.103 190.208 142.737 189.637C143.634 189.443 144.533 189.249 145.434 189.04C149.228 188.161 153.027 187.301 156.852 186.566Z" fill="#DDDDDD" stroke="black" stroke-width="0.158557"/>
<path d="M131.394 199.301C129.925 196.045 132.288 193.187 135.246 192.138C138.707 190.921 142.24 190.315 145.779 189.495C149.573 188.616 153.374 187.756 157.2 187.021C164.595 185.53 172.126 184.816 179.67 184.891C184.469 184.982 192.553 185.542 192.958 191.924C192.96 192.826 192.777 193.719 192.421 194.548C192.065 195.378 191.544 196.126 190.888 196.749C188.276 199.522 184.358 200.694 180.577 201.398C166.649 204.002 152.028 202.433 137.937 202.049C135.828 201.997 133.47 201.834 132.06 200.265C131.791 199.979 131.566 199.654 131.394 199.301Z" fill="#DDDDDD"/>
<path d="M135.868 199.784C133.818 199.992 132.074 201.594 129.991 201.985C128.517 202.201 127.012 201.936 125.701 201.23C124.486 200.637 123.233 200.253 121.985 199.712C121.006 199.289 119.713 198.475 118.609 198.593C115.71 198.892 112.68 200.624 109.977 201.672C109.392 201.973 108.725 202.076 108.077 201.965C107.424 201.777 106.999 200.956 107.424 200.455C106.614 201.067 105.465 202.35 104.355 201.692C104.238 201.628 104.136 201.541 104.053 201.436C103.971 201.332 103.91 201.212 103.875 201.084C103.84 200.956 103.831 200.823 103.848 200.691C103.865 200.56 103.909 200.433 103.976 200.318C103.55 200.76 103.03 201.1 102.454 201.314C102.163 201.412 101.849 201.411 101.558 201.312C101.268 201.213 101.018 201.022 100.848 200.767C100.73 200.504 100.683 200.214 100.711 199.927C100.802 198.939 101.126 197.986 101.658 197.147C104.132 192.941 109.043 190.128 113.203 187.894C113.921 187.462 114.7 187.139 115.514 186.937C116.255 186.83 117.007 186.83 117.747 186.937C122.594 187.402 127.331 188.66 131.767 190.662C132.727 191.091 133.844 190.922 134.849 190.831C135.592 190.714 136.352 190.77 137.07 190.994C137.828 191.36 138.444 191.967 138.82 192.719C139.662 194.082 140.023 195.686 139.845 197.277C139.642 198.456 139.427 199.719 138.003 199.83C137.429 199.869 136.854 199.752 136.279 199.752C136.142 199.754 136.004 199.764 135.868 199.784Z" fill="#DDDDDD"/>
<path d="M104.147 201.363L104.053 201.436L104.147 201.363C104.074 201.271 104.021 201.166 103.99 201.053C103.959 200.94 103.951 200.822 103.966 200.707C103.981 200.591 104.019 200.479 104.078 200.378L103.89 200.236C103.477 200.664 102.973 200.994 102.415 201.202C102.149 201.291 101.862 201.29 101.597 201.199C101.334 201.11 101.108 200.938 100.952 200.71C100.846 200.467 100.804 200.202 100.829 199.939L100.829 199.938C100.919 198.969 101.237 198.034 101.758 197.211L101.758 197.211L101.76 197.207C104.215 193.034 109.095 190.235 113.259 187.999L113.259 187.999L113.264 187.996C113.97 187.571 114.737 187.254 115.537 187.054C116.264 186.949 117.003 186.949 117.73 187.055L117.73 187.055L117.736 187.056C122.57 187.519 127.294 188.774 131.718 190.77L131.719 190.77C132.22 190.994 132.757 191.061 133.291 191.061C133.714 191.061 134.141 191.019 134.549 190.979C134.654 190.969 134.758 190.959 134.86 190.949L134.86 190.95L134.868 190.948C135.59 190.835 136.328 190.888 137.026 191.105C137.757 191.46 138.351 192.046 138.713 192.772L138.713 192.773L138.718 192.782C139.547 194.121 139.902 195.697 139.727 197.261C139.625 197.854 139.523 198.442 139.277 198.897C139.156 199.123 139.001 199.312 138.796 199.452C138.592 199.591 138.332 199.685 137.995 199.711C137.717 199.73 137.438 199.711 137.151 199.687C137.111 199.683 137.07 199.68 137.029 199.676C136.783 199.655 136.531 199.633 136.279 199.633L136.278 199.633C136.136 199.635 135.994 199.646 135.854 199.666C134.805 199.773 133.839 200.236 132.889 200.71C132.836 200.736 132.783 200.762 132.731 200.789C131.828 201.24 130.936 201.686 129.971 201.868C128.523 202.079 127.045 201.819 125.757 201.125L125.757 201.125L125.753 201.123C125.141 200.824 124.519 200.578 123.898 200.34C123.793 200.3 123.687 200.26 123.582 200.22C123.065 200.023 122.548 199.827 122.033 199.603L122.033 199.603C121.818 199.511 121.589 199.399 121.347 199.282C121.315 199.266 121.284 199.251 121.252 199.235C120.975 199.101 120.685 198.962 120.389 198.84C119.802 198.597 119.179 198.412 118.597 198.474C117.13 198.626 115.635 199.139 114.174 199.742C113.536 200.005 112.902 200.286 112.28 200.563C112.19 200.603 112.1 200.643 112.01 200.682C111.301 200.997 110.607 201.301 109.934 201.562L109.934 201.561L109.922 201.567C109.363 201.854 108.724 201.953 108.103 201.849C107.816 201.764 107.575 201.538 107.454 201.277C107.333 201.015 107.34 200.737 107.514 200.532L107.352 200.36C107.213 200.465 107.063 200.59 106.908 200.72C106.834 200.782 106.759 200.845 106.683 200.907C106.445 201.102 106.197 201.295 105.941 201.447C105.428 201.754 104.914 201.885 104.415 201.59L104.415 201.59L104.412 201.588C104.309 201.531 104.219 201.455 104.147 201.363Z" fill="#DDDDDD" stroke="#BFBFBF" stroke-width="0.237835"/>
<path d="M96.4702 201.862C97.1587 198.587 95.7749 195.779 94.1293 194.788C92.2044 193.637 90.2613 193.099 88.3073 192.346C86.2127 191.54 84.1152 190.753 82.0078 190.09C77.9328 188.74 73.8102 188.168 69.7074 188.384C67.0987 188.564 62.7185 189.273 62.7158 195.647C62.7458 196.547 62.8758 197.435 63.0977 198.256C63.3197 199.077 63.629 199.814 64.0068 200.423C65.5228 203.141 67.6949 204.238 69.7764 204.869C77.4449 207.209 85.3478 205.371 93.0032 204.726C94.1493 204.634 95.4265 204.428 96.1406 202.836C96.2774 202.546 96.3885 202.217 96.4702 201.862Z" fill="#DDDDDD"/>
<path d="M90.4034 53.2364C90.8169 63.5099 109.869 70.4364 134.858 77.9379C157.367 84.6965 170.792 82.5384 171.167 67.5482C171.367 59.6201 156.178 45.6573 135.582 38.7049C109.313 29.8271 90.0417 43.874 90.4034 53.2364Z" fill="black"/>
<path d="M114.299 134.922C113.979 133.359 114.182 132.076 115.605 131.256C116.911 130.507 116.467 128.495 116.369 127.284C116.254 125.238 116.021 123.201 115.671 121.183C115.207 118.767 114.789 116.338 114.26 113.942C116.743 112.986 119.332 112.331 121.972 111.989C124.382 111.683 126.732 111.077 129.155 110.81C129.343 110.77 129.539 110.788 129.717 110.862C129.785 110.913 129.843 110.978 129.887 111.052C129.931 111.125 129.959 111.207 129.971 111.292C130.827 114.508 131.055 117.881 131.839 121.117C132.276 122.902 133.393 127.941 135.816 128.059C136.034 128.05 136.253 128.065 136.469 128.104C136.616 128.163 136.75 128.251 136.862 128.363C136.975 128.475 137.063 128.608 137.122 128.755C138.552 131.796 136.175 135.644 133.994 137.676C131.579 139.807 128.521 141.074 125.302 141.277C120.431 141.726 115.409 140.293 114.299 134.922Z" fill="#DDDDDD"/>
<path d="M80.436 93.9392C80.1944 101.753 85.2617 108.232 90.1592 108.915C95.0566 109.599 97.5445 103.843 98.5567 96.5438C99.5688 89.2445 96.4279 82.7332 91.5239 82.0755C84.8242 81.1574 80.6646 86.5814 80.436 93.9392Z" fill="#DDDDDD"/>
<path d="M84.2619 72.6862C80.05 98.6797 95.3628 113.141 119.524 117.035C143.684 120.929 163.274 112.087 167.46 86.0932C171.646 60.0998 154.955 51.2117 130.82 47.3244C106.686 43.4372 88.4737 46.6928 84.2619 72.6862Z" fill="black"/>
<path d="M86.241 107.164C86.6066 118.611 98.5826 129.016 109.004 130.553C130.919 133.808 155.641 124.692 160.591 94.2517C165.541 63.8111 149.941 60.4577 128.509 57.0067C114.196 54.6951 102.207 53.0543 94.7691 61.5646C90.1589 66.7737 86.0189 100.131 86.241 107.164Z" fill="#DDDDDD"/>
<path d="M90.7135 96.3944C92.0416 98.332 93.8643 99.8802 95.9929 100.879C98.1215 101.877 100.479 102.289 102.821 102.073C105.162 101.857 107.404 101.019 109.313 99.6481C111.222 98.2767 112.729 96.421 113.678 94.2729L118.25 95.1286C118.366 97.6017 119.178 99.9921 120.592 102.026C122.007 104.06 123.966 105.654 126.247 106.627C128.528 107.6 131.037 107.911 133.486 107.526C135.936 107.14 138.228 106.074 140.098 104.448C141.968 102.822 143.342 100.703 144.061 98.3336C144.781 95.9643 144.817 93.4405 144.165 91.0516C143.514 88.6627 142.201 86.5054 140.378 84.827C138.555 83.1486 136.295 82.017 133.857 81.562C132.154 81.2397 130.405 81.2563 128.708 81.6109C127.012 81.9655 125.402 82.6512 123.972 83.6285C122.542 84.6058 121.319 85.8555 120.374 87.3059C119.428 88.7563 118.779 90.3787 118.464 92.0801C118.464 92.4189 118.339 92.7576 118.303 93.0785L114.357 92.3476C114.445 92.0247 114.517 91.6974 114.571 91.3671C114.97 89.2373 114.836 87.0422 114.182 84.9763C113.528 82.9104 112.374 81.0374 110.821 79.5233C109.269 78.0091 107.367 76.9006 105.283 76.2958C103.198 75.6911 100.997 75.6088 98.8736 76.0562C96.7501 76.5037 94.7699 77.4671 93.1084 78.8612C91.4469 80.2552 90.1555 82.0367 89.3485 84.048C88.5415 86.0593 88.2439 88.2383 88.482 90.3919C88.7201 92.5454 89.4866 94.6072 90.7135 96.3944ZM105.714 99.3002C103.419 100.199 100.89 100.311 98.5237 99.6191C96.1578 98.9272 94.0892 97.4704 92.6426 95.4774C91.1961 93.4844 90.4536 91.0683 90.5319 88.6083C90.6101 86.1484 91.5045 83.7841 93.0748 81.8867C94.645 79.9894 96.802 78.6664 99.2071 78.1257C101.612 77.5849 104.129 77.857 106.362 78.8992C108.596 79.9413 110.419 81.6946 111.546 83.8835C112.673 86.0724 113.04 88.5731 112.589 90.9927C112.254 92.861 111.447 94.6129 110.244 96.0824C109.041 97.5519 107.481 98.6902 105.714 99.3894V99.3002ZM120.446 92.4545C120.796 90.6055 121.608 88.8746 122.807 87.4224C124.006 85.9702 125.553 84.8436 127.304 84.147C128.666 83.6062 130.122 83.3386 131.588 83.3595C133.054 83.3804 134.502 83.6894 135.848 84.2688C137.195 84.8482 138.414 85.6866 139.436 86.7363C140.457 87.786 141.262 89.0264 141.804 90.3866C142.346 91.7467 142.614 93.2001 142.593 94.6637C142.572 96.1273 142.262 97.5725 141.682 98.9167C141.102 100.261 140.262 101.478 139.21 102.498C138.159 103.518 136.916 104.322 135.554 104.862C133.2 105.8 130.597 105.91 128.173 105.174C125.749 104.439 123.647 102.902 122.214 100.816C120.535 98.3741 119.892 95.3676 120.428 92.4545H120.446Z" fill="black"/>
<path d="M110.176 69.3564C109.789 69.401 109.433 69.5553 109.177 69.789C107.066 71.6818 102.646 72.6462 98.8505 72.0297C98.4419 71.9627 98.0101 72.025 97.6503 72.2029C97.2905 72.3808 97.032 72.6597 96.9318 72.9783C96.8315 73.2968 96.8976 73.629 97.1157 73.9017C97.3337 74.1743 97.6858 74.3652 98.0944 74.4322C103.001 75.2403 108.65 73.9399 111.528 71.3615C111.811 71.1123 111.959 70.7894 111.938 70.4639C111.917 70.1384 111.73 69.8369 111.417 69.6257C111.248 69.5162 111.051 69.4357 110.838 69.3893C110.624 69.343 110.399 69.3317 110.176 69.3564Z" fill="#242424"/>
<path d="M133.041 75.3447C132.764 75.2862 132.47 75.3068 132.197 75.4037C131.924 75.5007 131.685 75.6693 131.513 75.8872C131.341 76.1051 131.244 76.3619 131.234 76.6232C131.224 76.8846 131.302 77.1381 131.457 77.35C133.535 80.2048 138.304 81.8755 142.809 81.3159C142.995 81.2928 143.175 81.237 143.341 81.1517C143.506 81.0663 143.653 80.9531 143.774 80.8185C143.894 80.6839 143.985 80.5305 144.042 80.3671C144.099 80.2037 144.12 80.0336 144.105 79.8663C144.09 79.699 144.038 79.5379 143.953 79.3922C143.868 79.2464 143.751 79.119 143.609 79.017C143.467 78.915 143.303 78.8406 143.126 78.7979C142.949 78.7552 142.762 78.7451 142.577 78.7682C139.118 79.1994 135.375 77.9481 133.854 75.8526C133.665 75.596 133.377 75.4155 133.041 75.3447Z" fill="#242424"/>
<path d="M110.454 103.367C110.538 103.381 110.625 103.364 110.698 103.32C110.771 103.276 110.826 103.207 110.852 103.126C111.069 102.573 111.47 102.109 111.987 101.814C112.504 101.518 113.108 101.408 113.697 101.501C114.286 101.595 114.825 101.887 115.224 102.328C115.624 102.769 115.86 103.334 115.894 103.927C115.887 103.979 115.891 104.031 115.906 104.081C115.921 104.131 115.946 104.177 115.981 104.216C116.015 104.255 116.057 104.286 116.105 104.308C116.152 104.329 116.204 104.34 116.256 104.34C116.308 104.34 116.36 104.329 116.407 104.308C116.455 104.286 116.497 104.255 116.531 104.216C116.566 104.177 116.591 104.131 116.606 104.081C116.621 104.031 116.625 103.979 116.618 103.927C116.598 103.155 116.307 102.413 115.797 101.831C115.287 101.249 114.59 100.863 113.824 100.738C113.059 100.614 112.275 100.76 111.606 101.151C110.937 101.542 110.426 102.153 110.16 102.879C110.131 102.971 110.138 103.07 110.181 103.156C110.224 103.242 110.298 103.309 110.389 103.341L110.454 103.367Z" fill="black"/>
<path d="M149.359 86.0017C147.635 98.8161 151.063 107.691 156.496 108.551C161.929 109.41 168.407 94.7269 170.444 81.9581C172.769 67.3336 165.964 60.2297 160.649 58.4846C155.334 56.7396 151.318 71.4358 149.359 86.0017Z" fill="black"/>
<path d="M166.585 113.109C162.726 120.922 153.597 124.477 147.707 122.426C141.817 120.375 147.59 95.9707 158.952 96.0684C168.42 96.1465 170.209 105.757 166.585 113.109Z" fill="#DDDDDD"/>
<path d="M159.926 111.39C158.737 114.789 154.205 116.938 151.436 115.375C150.359 114.769 154.786 103.003 156.628 103.355C159.749 103.986 161.108 107.997 159.926 111.39Z" fill="#DDDDDD"/>
<path d="M106.222 87.2395C106.369 86.9006 106.395 86.5474 106.297 86.2025C106.2 85.8575 105.981 85.5282 105.655 85.2356C105.254 84.8977 104.737 84.6131 104.138 84.4002C103.322 84.0658 102.373 83.8605 101.382 83.8043C100.885 83.7465 100.376 83.7354 99.873 83.7714C99.3043 83.8183 98.7595 83.9368 98.2758 84.1187C97.797 84.3087 97.4048 84.565 97.1338 84.8649C96.9323 85.0627 96.7587 85.2699 96.6148 85.4843C96.4822 85.7498 96.4098 86.0243 96.3991 86.3009C96.3587 86.6556 96.3935 87.0118 96.5029 87.3615C96.6491 87.9587 97.181 88.4998 97.9883 88.8726C98.7473 89.2124 99.6172 89.4568 100.544 89.5906C101.584 89.782 102.698 89.782 103.738 89.5906C104.51 89.41 105.131 89.0599 105.471 88.6145C105.817 88.1761 106.069 87.7142 106.222 87.2395Z" fill="#242424"/>
<path d="M100.177 86.7764C101.542 87.1605 101.992 85.5719 100.621 85.1943C99.2494 84.8166 98.8054 86.3988 100.177 86.7764Z" fill="white"/>
<path d="M138.134 93.2241C138.281 92.8844 138.307 92.5305 138.209 92.1847C138.112 91.8389 137.893 91.5088 137.567 91.2154C137.165 90.8763 136.645 90.5914 136.042 90.38C135.227 90.0474 134.281 89.8422 133.294 89.784C132.797 89.7299 132.288 89.7204 131.785 89.7558C131.216 89.7995 130.671 89.9165 130.188 90.0984C129.707 90.2889 129.314 90.547 129.046 90.8493C128.841 91.0461 128.668 91.2535 128.527 91.4688C128.391 91.7323 128.319 92.0055 128.311 92.2808C128.271 92.6355 128.305 92.9918 128.415 93.3414C128.557 93.9396 129.087 94.4826 129.893 94.8573C130.655 95.1939 131.524 95.438 132.448 95.5754C133.488 95.7659 134.602 95.7659 135.642 95.5754C136.414 95.3948 137.035 95.0446 137.375 94.5992C137.72 94.1601 137.974 93.6985 138.134 93.2241Z" fill="#242424"/>
<path d="M132.068 92.9297C133.433 93.3073 133.877 91.7187 132.505 91.341C131.134 90.9634 130.697 92.552 132.068 92.9297Z" fill="white"/>
<path d="M72.609 159.927C72.609 159.927 92.5711 174.252 94.2884 175.874C94.7259 176.284 102.124 169.434 102.817 168.776C105.982 165.798 108.744 162.421 111.031 158.729C115.432 151.371 116.954 140.367 108.249 135.288C100.342 130.691 93.3285 136.473 87.8172 141.8C82.306 147.126 72.609 159.927 72.609 159.927Z" fill="#A8A8A8"/>
<path d="M100.27 43.3841C100.771 52.2369 118.259 57.9668 141.179 64.1169C161.823 69.658 174.062 67.6264 174.224 54.6966C174.312 47.8582 160.268 36.0122 141.369 30.2797C117.264 22.9592 99.8267 35.3161 100.27 43.3841Z" fill="black"/>
<path d="M119.558 53.1441C128.779 56.5731 142.475 62.0208 124.026 65.365C110.216 67.8602 97.5552 58.4411 97.3783 53.9474C97.2993 52.0204 99.5029 40.3803 101.427 39.897C104 39.2396 115.641 51.6901 119.558 53.1441Z" fill="black"/>
<path d="M108.693 117.343C108.693 117.343 111.826 113.063 119.948 115.391" stroke="#292929" stroke-width="0.792784" stroke-miterlimit="10" stroke-linecap="round"/>
<path d="M88.9203 204.722C90.9967 204.358 93.1965 205.547 95.3604 205.365C96.8736 205.173 98.2702 204.466 99.3418 203.35C100.353 202.381 101.467 201.62 102.527 200.697C103.359 199.973 104.38 198.749 105.499 198.558C108.437 198.049 111.939 199.008 114.913 199.342C115.578 199.492 116.264 199.41 116.867 199.11C117.451 198.725 117.617 197.741 117.048 197.335C118.029 197.748 119.549 198.771 120.438 197.763C120.533 197.662 120.607 197.542 120.656 197.409C120.705 197.275 120.728 197.132 120.723 196.988C120.719 196.843 120.687 196.7 120.63 196.566C120.573 196.433 120.492 196.311 120.391 196.21C120.943 196.554 121.558 196.764 122.188 196.825C122.503 196.845 122.812 196.754 123.067 196.568C123.322 196.381 123.508 196.109 123.598 195.793C123.633 195.482 123.591 195.164 123.477 194.87C123.086 193.856 122.477 192.947 121.7 192.215C117.988 188.494 112.31 186.932 107.546 185.767C106.709 185.516 105.846 185.399 104.985 185.418C104.225 185.515 103.487 185.729 102.793 186.053C98.1764 187.921 93.9099 190.592 90.1652 193.96C89.3539 194.685 88.2061 194.824 87.1911 195.015C86.4264 195.103 85.6975 195.378 85.0613 195.818C84.4279 196.419 84.0087 197.232 83.8693 198.131C83.4571 199.804 83.5919 201.594 84.2523 203.217C84.8103 204.399 85.4069 205.666 86.8381 205.378C87.4141 205.255 87.9424 204.969 88.5066 204.805C88.6423 204.768 88.7805 204.74 88.9203 204.722Z" fill="#BFBFBF"/>
<path d="M87.8895 203.693C89.9169 203.323 92.0373 204.376 94.1468 204.171C95.623 203.969 96.9947 203.295 98.0572 202.252C99.0588 201.344 100.156 200.626 101.204 199.76C102.027 199.081 103.042 197.939 104.134 197.745C107.002 197.225 110.395 198.045 113.283 198.3C113.928 198.425 114.598 198.338 115.19 198.052C115.764 197.689 115.944 196.783 115.396 196.419C116.345 196.782 117.805 197.694 118.689 196.753C118.782 196.659 118.857 196.547 118.907 196.424C118.957 196.301 118.982 196.169 118.98 196.036C118.978 195.904 118.95 195.773 118.897 195.651C118.843 195.529 118.766 195.42 118.67 195.328C119.202 195.634 119.796 195.816 120.409 195.861C120.715 195.874 121.017 195.785 121.268 195.61C121.52 195.434 121.706 195.181 121.799 194.889C121.839 194.603 121.804 194.312 121.697 194.044C121.334 193.12 120.758 192.295 120.014 191.637C116.466 188.286 110.967 186.951 106.35 185.964C105.54 185.749 104.701 185.656 103.863 185.688C103.122 185.791 102.4 186 101.718 186.31C97.1923 188.105 92.9929 190.633 89.2891 193.79C88.4868 194.47 87.3672 194.618 86.376 194.811C85.63 194.905 84.9157 195.17 84.2888 195.585C83.6619 196.148 83.2396 196.902 83.0882 197.729C82.6578 199.273 82.7578 200.914 83.3722 202.393C83.8946 203.468 84.4532 204.622 85.8513 204.332C86.4141 204.209 86.9334 203.937 87.4853 203.777C87.6181 203.74 87.7531 203.712 87.8895 203.693Z" fill="#DDDDDD"/>
<rect x="136.082" y="192.589" width="13.6942" height="7.70358" fill="#DDDDDD"/>
<rect width="13.6942" height="2.04139" transform="matrix(0.982073 -0.188499 0.188471 0.982079 130.885 192.28)" fill="#DDDDDD"/>
<path d="M47.9297 24.301C47.9297 31.1033 56.1205 36.6185 66.2114 36.6185C68.815 36.6288 71.4073 36.243 73.9144 35.4722C74.8816 36.9097 77.0127 37.9057 79.4862 37.9057C82.9098 37.9057 85.6058 36.0266 85.6058 33.7623C85.6058 32.165 84.2878 30.7839 82.3449 30.0886C83.6695 28.5081 84.4188 26.4484 84.4504 24.301C84.4504 17.4987 76.2938 11.9835 66.2029 11.9835C56.112 11.9835 47.9297 17.5081 47.9297 24.301Z" fill="#A8A8A8"/>
<path d="M66.4776 16.6809C66.1444 16.6896 65.8159 16.7694 65.5104 16.9158C65.2329 17.0724 64.9812 17.2788 64.7657 17.5265C64.5599 17.7667 64.3921 18.043 64.2693 18.3439C64.1515 18.6398 64.0959 18.9609 64.1066 19.2835C64.0987 19.4616 64.131 19.6392 64.2008 19.8002C64.2497 19.9095 64.3199 20.0057 64.4062 20.0821C64.474 20.1356 64.5491 20.1769 64.6288 20.2042H64.7914C64.927 20.202 65.0609 20.1701 65.1851 20.1103C65.2815 20.0534 65.3731 19.9874 65.459 19.913L65.6217 19.6969C65.6941 19.6325 65.7853 19.5991 65.8785 19.6029C65.969 19.5976 66.0597 19.6123 66.1449 19.6462C66.2302 19.6801 66.3084 19.7325 66.3749 19.8002C66.4619 19.885 66.5294 19.9913 66.5718 20.1103C66.6262 20.2628 66.6524 20.4257 66.6488 20.5895C66.6646 20.8129 66.6168 21.0361 66.5119 21.2283C66.4108 21.4206 66.2736 21.5871 66.1096 21.7169C65.9393 21.8581 65.7482 21.9661 65.5446 22.0364C65.3457 22.1095 65.1381 22.1506 64.9283 22.1585C64.6375 22.1933 64.3434 22.1481 64.0724 22.027C63.8145 21.9208 63.5808 21.754 63.3876 21.5384C62.9894 21.0115 62.7795 20.3436 62.797 19.6593C62.7693 19.058 62.8843 18.459 63.1308 17.9211C63.3926 17.4263 63.7524 17.0024 64.1837 16.6809C64.618 16.3333 65.1048 16.0725 65.6217 15.9105C66.1791 15.7375 66.7544 15.6427 67.3336 15.6287C67.9552 15.6098 68.5758 15.6954 69.1739 15.8823C69.6803 16.0575 70.1552 16.3277 70.5776 16.6809C70.996 17.0253 71.3369 17.4702 71.5743 17.9816C71.8117 18.4929 71.9393 19.0572 71.9472 19.6311C71.9684 20.2283 71.8751 20.8236 71.6732 21.3787C71.4845 21.8738 71.2308 22.336 70.92 22.7504C70.606 23.1561 70.2625 23.5332 69.8929 23.8779C69.5162 24.2161 69.1653 24.5637 68.8229 24.9208C68.4861 25.2718 68.1822 25.6589 67.9156 26.0764C67.6568 26.4816 67.4896 26.9486 67.4277 27.4387H66.5718C66.5542 26.9926 66.5975 26.5461 66.7002 26.114C66.8028 25.7007 66.9315 25.2957 67.0853 24.902C67.2394 24.5167 67.402 24.1315 67.5818 23.7463C67.7615 23.3611 67.9327 22.9477 68.0868 22.5343C68.2408 22.0967 68.3666 21.6477 68.4634 21.1908C68.5673 20.6665 68.6076 20.1294 68.5833 19.5935C68.5818 19.1813 68.5329 18.7709 68.4377 18.3721C68.3578 18.0343 68.2214 17.7157 68.0355 17.4326C67.8647 17.1775 67.638 16.9739 67.3764 16.8407C67.0924 16.7107 66.7845 16.656 66.4776 16.6809ZM65.5361 30.9808C65.5263 30.7215 65.5641 30.4627 65.6473 30.2198C65.7314 29.9883 65.8565 29.7776 66.0154 29.5997C66.166 29.4162 66.3496 29.2691 66.5547 29.1675C66.7692 29.0566 67.0024 28.9958 67.2394 28.989C67.5841 28.9843 67.9228 29.0879 68.2155 29.2877C68.5082 29.4875 68.7428 29.7751 68.8914 30.1164C68.9925 30.3519 69.0478 30.6079 69.054 30.8681C69.0647 31.2454 68.9716 31.6175 68.7869 31.9359C68.6022 32.2543 68.3344 32.5043 68.0183 32.6532C67.8 32.7532 67.5658 32.8047 67.3293 32.8047C67.0927 32.8047 66.8585 32.7532 66.6403 32.6532C66.2281 32.4844 65.8909 32.148 65.6987 31.7137C65.5939 31.4825 65.5355 31.2294 65.5275 30.9714L65.5361 30.9808Z" fill="white"/>
<path d="M58.7736 108.275V108.351C58.8352 108.66 58.8352 108.981 58.7736 109.29C58.7288 109.586 58.6266 109.868 58.474 110.117C58.3327 110.355 58.1494 110.56 57.9348 110.718C57.7191 110.878 57.4782 110.993 57.2244 111.057C56.6832 111.172 56.1225 111.054 55.6581 110.728C55.2235 110.408 54.9171 109.917 54.8022 109.356C54.7406 109.046 54.7406 108.726 54.8022 108.416C54.8524 108.118 54.9572 107.833 55.1104 107.58C55.26 107.341 55.4486 107.134 55.6667 106.97C55.8824 106.81 56.1233 106.695 56.3771 106.631C56.91 106.514 57.4637 106.632 57.9177 106.96C58.1322 107.119 58.3156 107.323 58.4569 107.561C58.5942 107.778 58.6956 108.02 58.7564 108.275H58.7736ZM55.0932 109.215C55.1393 109.448 55.2265 109.668 55.35 109.863C55.4821 110.065 55.6476 110.237 55.8379 110.371C56.2351 110.654 56.7173 110.755 57.1816 110.653C57.3989 110.603 57.6053 110.507 57.7893 110.371C57.9702 110.23 58.1267 110.055 58.2515 109.854C58.5096 109.415 58.6017 108.882 58.5082 108.369C58.4585 108.129 58.3717 107.901 58.2515 107.693C58.1283 107.487 57.9681 107.311 57.7807 107.176C57.5872 107.025 57.3646 106.926 57.1303 106.885C56.9016 106.833 56.6657 106.833 56.437 106.885C55.99 106.993 55.5979 107.286 55.3415 107.702C55.2076 107.917 55.1172 108.16 55.0761 108.416C55.0288 108.667 55.0288 108.926 55.0761 109.177L55.0932 109.215ZM53.6382 107.74L53.3815 109.027H53.236C52.7779 108.915 52.3369 108.732 51.9265 108.482C51.5469 108.274 51.1833 108.032 50.8395 107.759C50.4971 107.486 50.1633 107.204 49.8295 106.904C49.4984 106.602 49.1526 106.319 48.7939 106.058C48.4304 105.78 48.0469 105.535 47.647 105.325C47.1843 105.089 46.695 104.922 46.192 104.827C45.8064 104.741 45.4127 104.707 45.0195 104.724C44.6944 104.731 44.374 104.811 44.078 104.959C43.8166 105.092 43.5878 105.292 43.4104 105.541C43.2251 105.82 43.0993 106.141 43.0424 106.481C42.9782 106.844 42.9782 107.217 43.0424 107.58C43.1141 107.915 43.2387 108.233 43.4104 108.52C43.5804 108.801 43.7949 109.046 44.0437 109.243C44.2737 109.432 44.5402 109.561 44.8226 109.619C44.969 109.657 45.1213 109.657 45.2677 109.619C45.3617 109.599 45.4498 109.554 45.5244 109.488C45.5813 109.442 45.6257 109.38 45.6528 109.309C45.6774 109.262 45.6947 109.212 45.7042 109.159C45.7342 109.026 45.7342 108.887 45.7042 108.755C45.6761 108.642 45.6388 108.532 45.5929 108.426L45.4645 108.116C45.4263 107.981 45.4263 107.837 45.4645 107.702C45.481 107.586 45.5188 107.474 45.5758 107.374C45.6376 107.255 45.7223 107.152 45.824 107.073C45.946 106.985 46.0827 106.924 46.2263 106.894C46.4044 106.857 46.5874 106.857 46.7655 106.894C47.0074 106.942 47.2326 107.062 47.4159 107.242C47.5866 107.423 47.7258 107.636 47.8268 107.871C47.9233 108.117 47.9867 108.376 48.0151 108.642C48.0488 108.904 48.0488 109.169 48.0151 109.431C47.9624 109.766 47.8489 110.085 47.6813 110.371C47.5048 110.661 47.2744 110.908 47.0051 111.094C46.3826 111.467 45.6539 111.564 44.9681 111.367C44.3605 111.257 43.7904 110.971 43.3162 110.54C42.879 110.143 42.5306 109.642 42.2977 109.074C42.0579 108.48 41.9187 107.844 41.8869 107.195C41.831 106.553 41.8453 105.907 41.9297 105.269C42.0501 104.526 42.2784 103.809 42.6059 103.146C42.8908 102.553 43.2739 102.024 43.7356 101.586C44.1746 101.179 44.6884 100.881 45.242 100.712C45.8177 100.543 46.4214 100.524 47.0051 100.656C47.6169 100.768 48.2002 101.021 48.7169 101.398C49.1618 101.738 49.5571 102.15 49.8895 102.619C50.213 103.083 50.4994 103.577 50.7453 104.094C50.985 104.592 51.2332 105.09 51.4985 105.56C51.7462 106.015 52.0328 106.443 52.3544 106.838C52.6715 107.212 53.0645 107.498 53.5013 107.674L53.6382 107.74ZM53.2017 108.614L53.3216 107.928C52.8888 107.731 52.5004 107.433 52.1832 107.054C51.8556 106.647 51.5686 106.203 51.3273 105.729C51.062 105.26 50.8053 104.79 50.557 104.245C50.3128 103.744 50.0262 103.269 49.7012 102.826C49.3585 102.373 48.9543 101.98 48.5029 101.661C48.0266 101.309 47.4864 101.075 46.9195 100.975C46.3781 100.853 45.8181 100.872 45.2848 101.032C44.771 101.184 44.2945 101.46 43.8897 101.84C43.4553 102.251 43.0952 102.748 42.8284 103.305C42.5145 103.939 42.2977 104.624 42.1865 105.335C42.0768 105.976 42.0394 106.629 42.0752 107.28C42.1262 107.886 42.2739 108.477 42.5117 109.027C42.7288 109.553 43.0506 110.018 43.4532 110.389C43.8917 110.783 44.4173 111.043 44.9767 111.141C45.5873 111.31 46.233 111.226 46.7911 110.906C47.0233 110.744 47.2216 110.529 47.3731 110.277C47.5248 110.021 47.6241 109.733 47.6641 109.431C47.694 109.201 47.694 108.966 47.6641 108.736C47.6444 108.502 47.5894 108.273 47.5015 108.059C47.4217 107.857 47.3052 107.675 47.1592 107.524C47.018 107.382 46.8428 107.287 46.6542 107.251C46.5127 107.223 46.3677 107.223 46.2263 107.251C46.1227 107.275 46.024 107.32 45.9353 107.383C45.8059 107.485 45.7147 107.635 45.6785 107.806C45.6527 107.878 45.6527 107.959 45.6785 108.031C45.7142 108.135 45.7571 108.235 45.8069 108.332C45.8572 108.457 45.9 108.586 45.9353 108.717C45.9737 108.899 45.9737 109.089 45.9353 109.271C45.9171 109.346 45.8913 109.419 45.8582 109.488C45.8133 109.6 45.746 109.699 45.6614 109.779C45.549 109.873 45.4211 109.944 45.2848 109.985C45.0956 110.028 44.9005 110.028 44.7113 109.985C44.404 109.906 44.1134 109.762 43.8554 109.563C43.5822 109.341 43.3474 109.067 43.1622 108.755C42.9677 108.428 42.8286 108.065 42.7514 107.684C42.6743 107.278 42.6743 106.859 42.7514 106.453C42.8114 106.053 42.955 105.673 43.1707 105.344C43.3766 105.049 43.6476 104.816 43.9582 104.668C44.2881 104.509 44.6423 104.419 45.0023 104.405C45.4157 104.39 45.8293 104.428 46.2348 104.517C46.7636 104.621 47.2784 104.798 47.7669 105.043C48.1902 105.263 48.5991 105.514 48.9908 105.795C49.3674 106.077 49.7183 106.368 50.0521 106.659C50.3859 106.951 50.7111 107.242 51.0449 107.505C51.3776 107.766 51.7265 108.002 52.0891 108.21C52.4261 108.395 52.7825 108.534 53.1504 108.623L53.2017 108.614Z" fill="#EAEAEA"/>
<path d="M42.7342 64.7649C42.6463 64.9874 42.5997 65.227 42.5972 65.4695C42.5966 65.6997 42.6313 65.9284 42.6999 66.1459C42.77 66.3483 42.8713 66.5358 42.9995 66.7002C43.1251 66.8566 43.2798 66.9815 43.4531 67.0666C43.5497 67.1158 43.6548 67.1415 43.7612 67.1418C43.8328 67.141 43.9032 67.1217 43.9666 67.0854C44.0182 67.0617 44.0626 67.0227 44.095 66.9727C44.1199 66.9419 44.1401 66.9071 44.1549 66.8693C44.1929 66.7811 44.2134 66.685 44.2149 66.5875C44.219 66.5124 44.219 66.4371 44.2149 66.362V66.1647C44.1977 66.0971 44.1977 66.0257 44.2149 65.958C44.2362 65.9039 44.2684 65.8558 44.309 65.8171C44.3505 65.7632 44.4034 65.7213 44.4631 65.695C44.5367 65.6808 44.612 65.6808 44.6856 65.695C44.7864 65.7041 44.8849 65.7327 44.9766 65.7795C45.0966 65.8441 45.1997 65.9411 45.2762 66.0614C45.3483 66.1853 45.4004 66.322 45.4302 66.4654C45.4516 66.6179 45.4516 66.7731 45.4302 66.9257C45.3868 67.2785 45.243 67.6073 45.0194 67.8652C44.8855 68.001 44.7284 68.1064 44.5572 68.1752C44.1547 68.2917 43.7271 68.2381 43.359 68.0249C43.0199 67.8765 42.7241 67.6297 42.5031 67.3109C42.2975 67.0196 42.1594 66.6779 42.1008 66.315C42.0367 65.9362 42.0367 65.5477 42.1008 65.1689C42.143 64.7433 42.2381 64.3261 42.3833 63.9288C42.5433 63.5113 42.7628 63.1244 43.0337 62.7826C43.2768 62.4841 43.5667 62.2359 43.8896 62.0499C44.1933 61.882 44.5257 61.786 44.8653 61.768C45.2189 61.7562 45.5702 61.8334 45.8924 61.9935C46.2172 62.1515 46.5087 62.3819 46.7483 62.6699C46.9694 62.952 47.1511 63.2686 47.2875 63.6094C47.4285 63.9252 47.5486 64.2517 47.6469 64.5864C47.724 64.9246 47.8181 65.2628 47.9123 65.5917C48.0035 65.9171 48.1239 66.2318 48.2717 66.5311C48.4207 66.8179 48.6288 67.0625 48.8794 67.2451L48.6569 67.7994C48.4116 67.6788 48.1815 67.5241 47.9722 67.3391C47.7792 67.1538 47.5962 66.9561 47.4244 66.7472C47.2532 66.5311 47.0992 66.315 46.9366 66.0802C46.7739 65.8453 46.6028 65.6292 46.4145 65.4132C46.2179 65.1835 46.0062 64.97 45.7811 64.7743C45.5181 64.5586 45.2303 64.3817 44.9252 64.2482C44.7028 64.1135 44.4674 64.0064 44.2234 63.9288C44.0169 63.8867 43.8051 63.8867 43.5986 63.9288C43.4106 63.9749 43.2348 64.0682 43.0851 64.2012C42.9319 64.3534 42.8095 64.539 42.7256 64.7461L42.7342 64.7649ZM50.2745 69.4623C50.135 69.3969 50.0087 69.3017 49.9029 69.1824C49.7972 69.0631 49.714 68.9219 49.6583 68.7671C49.6004 68.6154 49.5713 68.4523 49.5727 68.2879C49.5753 68.116 49.6103 67.9464 49.6754 67.79C49.7375 67.6312 49.8277 67.4875 49.9407 67.3672C50.1745 67.1346 50.4812 67.0101 50.7966 67.0196C50.9508 67.0201 51.1029 67.0586 51.2417 67.1324C51.3863 67.2005 51.5173 67.2995 51.6268 67.4236C51.7246 67.546 51.8028 67.6858 51.8579 67.837C51.9683 68.1384 51.9683 68.475 51.8579 68.7764C51.7988 68.9319 51.7114 69.0726 51.6011 69.1898C51.4921 69.3032 51.3643 69.3925 51.2245 69.4529C50.9499 69.5741 50.6433 69.5741 50.3687 69.4529L50.2745 69.4623Z" fill="#A8A8A8"/>
<path d="M90.0569 38.6097C90.0569 37.783 88.7816 37.116 87.2068 37.116C85.6319 37.116 84.3652 37.783 84.3652 38.6097C84.3652 39.4364 85.6405 40.094 87.2068 40.094C88.773 40.094 90.0569 39.427 90.0569 38.6097Z" fill="#A8A8A8"/>
<path d="M200.46 20.2968C199.856 19.8968 199.134 19.772 198.448 19.9492C198.142 20.0357 197.852 20.1821 197.592 20.3814C197.336 20.5655 197.12 20.8093 196.959 21.0954C196.864 21.2574 196.803 21.4402 196.779 21.631C196.754 21.7547 196.754 21.8831 196.779 22.0068C196.812 22.1009 196.862 22.187 196.925 22.2605C196.964 22.3089 197.011 22.3502 197.062 22.3826C197.183 22.4772 197.325 22.5355 197.473 22.5517C197.586 22.5658 197.701 22.5658 197.815 22.5517H198.123C198.222 22.5522 198.32 22.5814 198.406 22.6363C198.576 22.749 198.699 22.9315 198.748 23.1437C198.769 23.2773 198.769 23.414 198.748 23.5477C198.716 23.7288 198.652 23.9013 198.56 24.055C198.455 24.264 198.293 24.4316 198.097 24.5342C197.903 24.6452 197.691 24.7123 197.473 24.7315C197.242 24.7489 197.011 24.7235 196.788 24.6563C196.568 24.5984 196.357 24.5033 196.163 24.3745C195.901 24.2205 195.674 24.0057 195.496 23.745C195.321 23.4813 195.199 23.1805 195.136 22.8618C195.047 22.1289 195.209 21.3857 195.59 20.776C195.886 20.1881 196.32 19.6982 196.848 19.3573C197.324 19.0649 197.853 18.8886 198.397 18.8405C198.975 18.8027 199.554 18.8758 200.109 19.0566C200.69 19.2467 201.248 19.5149 201.769 19.8552C202.35 20.2322 202.873 20.7079 203.318 21.2646C203.714 21.7476 204.021 22.3088 204.226 22.9182C204.425 23.4955 204.5 24.1155 204.445 24.7299C204.39 25.3442 204.206 25.9364 203.909 26.4603C203.615 27.0302 203.212 27.5237 202.728 27.9072C202.294 28.2368 201.818 28.4934 201.316 28.6682C200.816 28.8444 200.304 28.9702 199.784 29.044C199.261 29.1192 198.756 29.2038 198.26 29.3165C197.776 29.4169 197.303 29.5712 196.848 29.7769C196.395 29.984 195.993 30.306 195.675 30.7164L194.905 30.1997C195.138 29.7826 195.427 29.4058 195.761 29.0816C196.065 28.7684 196.391 28.4825 196.737 28.2266C197.079 27.9729 197.438 27.7287 197.806 27.4938C198.174 27.2589 198.534 26.9958 198.893 26.7045C199.27 26.4065 199.625 26.0767 199.955 25.718C200.326 25.3128 200.645 24.8546 200.905 24.3557C201.118 23.9784 201.291 23.5747 201.418 23.1531C201.524 22.7953 201.57 22.4199 201.555 22.0444C201.525 21.7109 201.425 21.3894 201.264 21.1048C201.067 20.7932 200.81 20.5332 200.511 20.3438L200.46 20.2968ZM192.038 32.7083C192.168 32.4707 192.34 32.2633 192.543 32.0976C192.739 31.941 192.96 31.8234 193.193 31.7499C193.431 31.6829 193.678 31.6669 193.921 31.703C194.173 31.74 194.415 31.8362 194.631 31.9848C194.852 32.1255 195.044 32.3141 195.196 32.5392C195.334 32.7634 195.438 33.011 195.504 33.272C195.547 33.533 195.547 33.8003 195.504 34.0612C195.47 34.3397 195.385 34.6079 195.256 34.8505C195.12 35.0863 194.946 35.2932 194.742 35.4612C194.436 35.6971 194.075 35.8307 193.701 35.8457C193.327 35.8607 192.958 35.7565 192.637 35.5457C192.426 35.4061 192.24 35.2245 192.089 35.0102C191.941 34.7917 191.833 34.5429 191.773 34.2784C191.713 34.0139 191.701 33.7389 191.738 33.4693C191.781 33.2007 191.868 32.9429 191.995 32.7083H192.038Z" fill="#A8A8A8"/>
<path d="M202.743 68.3114C202.593 68.1035 202.407 67.9309 202.195 67.8041C201.994 67.6913 201.777 67.6151 201.553 67.5786C201.338 67.533 201.117 67.533 200.903 67.5786C200.702 67.6291 200.515 67.7286 200.355 67.8699C200.259 67.9424 200.179 68.039 200.124 68.1517C200.086 68.2299 200.065 68.3168 200.064 68.4054C200.052 68.4704 200.052 68.5376 200.064 68.6026C200.123 68.7435 200.227 68.8566 200.355 68.9221C200.426 68.96 200.5 68.9884 200.577 69.0066L200.766 69.0818C200.833 69.1019 200.893 69.1446 200.937 69.2039C200.971 69.2585 200.997 69.3188 201.014 69.3824C201.031 69.4563 201.031 69.5339 201.014 69.6079C201.005 69.7005 200.979 69.7901 200.937 69.8709C200.884 69.9777 200.807 70.0682 200.714 70.134C200.603 70.2377 200.466 70.303 200.321 70.3219C200.177 70.3543 200.028 70.3543 199.884 70.3219C199.735 70.2828 199.595 70.2091 199.473 70.1058C199.346 70.0133 199.234 69.8991 199.139 69.7676C199.004 69.6037 198.904 69.4076 198.848 69.1945C198.801 68.9815 198.801 68.7592 198.848 68.5463C198.945 68.0571 199.209 67.627 199.585 67.3438C199.887 67.0609 200.254 66.8727 200.646 66.7989C201.009 66.7343 201.38 66.76 201.733 66.874C202.102 66.9971 202.449 67.1877 202.76 67.4377C203.082 67.7077 203.37 68.0236 203.616 68.3772C203.902 68.7622 204.133 69.1931 204.3 69.6548C204.441 70.0633 204.513 70.496 204.514 70.9325C204.512 71.3412 204.43 71.7447 204.275 72.1162C204.101 72.4835 203.855 72.8043 203.556 73.0557C203.249 73.3376 202.89 73.5428 202.503 73.6569C202.157 73.7583 201.799 73.7995 201.442 73.7791C201.09 73.7588 200.741 73.7054 200.398 73.6194C200.055 73.5317 199.713 73.4565 199.371 73.3939C199.051 73.3657 198.731 73.3689 198.412 73.4033C198.084 73.4098 197.764 73.5067 197.479 73.6851L197.102 73.1684C197.329 72.962 197.583 72.7942 197.856 72.6705C198.118 72.5582 198.387 72.4641 198.66 72.3887C198.934 72.3135 199.208 72.2571 199.516 72.2008C199.824 72.1444 200.09 72.0693 200.372 71.9847C200.666 71.8959 200.952 71.7796 201.228 71.6371C201.535 71.4726 201.822 71.2675 202.084 71.0265C202.296 70.8384 202.491 70.6276 202.666 70.397C202.812 70.1995 202.922 69.9731 202.991 69.73C203.047 69.5055 203.047 69.2687 202.991 69.0442C202.938 68.7906 202.829 68.555 202.674 68.3584L202.743 68.3114ZM194.774 73.9482C194.908 73.8308 195.063 73.7445 195.228 73.6945C195.386 73.6617 195.549 73.6617 195.707 73.6945C195.869 73.7176 196.025 73.7716 196.17 73.8542C196.321 73.9473 196.455 74.0717 196.563 74.2206C196.675 74.3642 196.754 74.5348 196.794 74.7185C196.84 74.8917 196.854 75.0732 196.835 75.2523C196.816 75.4313 196.764 75.6044 196.683 75.7613C196.604 75.929 196.493 76.0764 196.358 76.1935C196.223 76.312 196.069 76.4012 195.904 76.4565C195.743 76.4892 195.578 76.4892 195.416 76.4565C195.255 76.4351 195.098 76.381 194.954 76.2968C194.771 76.1872 194.615 76.0289 194.501 75.8365C194.383 75.6422 194.31 75.4199 194.287 75.1883C194.277 74.9604 194.312 74.7331 194.389 74.5213C194.474 74.3097 194.603 74.1231 194.766 73.9764L194.774 73.9482Z" fill="#DDDDDD"/>
<path d="M115.739 3.88828C115.515 3.98532 115.313 4.13619 115.149 4.32988C114.994 4.50938 114.866 4.71571 114.772 4.94059C114.687 5.16103 114.637 5.39646 114.627 5.63586C114.618 5.86063 114.653 6.08494 114.729 6.29355C114.771 6.41636 114.835 6.52837 114.918 6.62239C114.976 6.68108 115.047 6.72304 115.123 6.74453C115.182 6.76307 115.244 6.76307 115.303 6.74453C115.342 6.75339 115.383 6.75339 115.423 6.74453C115.513 6.70282 115.594 6.64217 115.662 6.56602C115.713 6.50107 115.759 6.43197 115.799 6.35931L115.911 6.1714C115.928 6.13366 115.952 6.1001 115.982 6.07268C116.011 6.04526 116.045 6.02452 116.082 6.01168C116.141 5.99647 116.202 5.99647 116.262 6.01168C116.329 5.99374 116.4 5.99374 116.467 6.01168C116.546 6.04728 116.616 6.10188 116.672 6.1714C116.75 6.25587 116.808 6.35874 116.844 6.47206C116.903 6.61952 116.921 6.78313 116.895 6.94184C116.873 7.10245 116.821 7.25617 116.741 7.39283C116.657 7.53507 116.553 7.6619 116.433 7.76865C116.315 7.8708 116.185 7.95605 116.048 8.02233C115.865 8.11828 115.664 8.16807 115.461 8.16807C115.258 8.16807 115.058 8.11828 114.875 8.02233C114.482 7.79225 114.18 7.41077 114.028 6.95123C113.866 6.55358 113.804 6.11566 113.848 5.68283C113.888 5.28195 114.011 4.8964 114.207 4.55537C114.418 4.19401 114.684 3.876 114.995 3.61581C115.316 3.34155 115.67 3.11708 116.048 2.94873C116.464 2.75226 116.906 2.62862 117.357 2.5823C117.754 2.54419 118.154 2.58235 118.538 2.69505C118.896 2.81243 119.224 3.01814 119.497 3.29636C119.789 3.57419 120.015 3.92561 120.156 4.32048C120.321 4.72193 120.402 5.15819 120.396 5.59827C120.39 5.98899 120.326 6.37604 120.208 6.74453C120.095 7.11215 119.952 7.46756 119.78 7.80623C119.608 8.14447 119.446 8.48271 119.3 8.82095C119.16 9.14683 119.048 9.48659 118.966 9.83567C118.889 10.1877 118.889 10.5547 118.966 10.9068L118.41 11.1604C118.298 10.8595 118.223 10.5436 118.187 10.2209C118.165 9.90817 118.165 9.59405 118.187 9.28133C118.187 8.98067 118.187 8.67062 118.265 8.34178C118.298 8.02988 118.315 7.71621 118.316 7.40222C118.318 7.05974 118.298 6.71755 118.256 6.37811C118.195 5.99408 118.095 5.61894 117.956 5.26003C117.854 4.98677 117.722 4.72809 117.563 4.4896C117.434 4.27998 117.268 4.10102 117.075 3.96345C116.897 3.83227 116.69 3.75749 116.476 3.74735C116.24 3.73201 116.005 3.7804 115.791 3.88828H115.739ZM118.504 13.857C118.435 13.6859 118.402 13.4992 118.41 13.312C118.409 13.1377 118.439 12.9649 118.5 12.8036C118.56 12.6423 118.649 12.4957 118.761 12.3725C118.88 12.236 119.022 12.1274 119.18 12.053C119.339 11.9755 119.512 11.9401 119.685 11.9497C119.85 11.9513 120.012 11.9863 120.165 12.053C120.314 12.1266 120.45 12.2284 120.567 12.3537C120.688 12.4852 120.784 12.6417 120.85 12.8141C120.914 12.9872 120.949 13.172 120.952 13.359C120.944 13.5393 120.909 13.7169 120.85 13.8852C120.782 14.0488 120.69 14.1983 120.576 14.3267C120.453 14.4595 120.307 14.5648 120.148 14.6368C119.99 14.7075 119.822 14.7458 119.651 14.7495C119.49 14.7479 119.33 14.7128 119.18 14.6462C119.029 14.5805 118.893 14.4813 118.778 14.3549C118.66 14.2195 118.567 14.0599 118.504 13.8852V13.857Z" fill="#DDDDDD"/>
<path d="M156.033 17.2449C155.811 17.2051 155.598 17.1257 155.399 17.01C155.08 16.8116 154.821 16.5142 154.655 16.155C154.489 15.7956 154.426 15.3893 154.475 14.99C154.502 14.7165 154.577 14.4515 154.698 14.2101C154.809 13.9749 154.964 13.7671 155.151 13.5994C155.341 13.4294 155.56 13.3028 155.795 13.227C156.031 13.1511 156.277 13.1276 156.521 13.1578C156.774 13.185 157.019 13.2715 157.24 13.4115C157.651 13.6821 157.956 14.1107 158.096 14.6142C158.17 14.8786 158.193 15.1568 158.164 15.4316C158.137 15.708 158.062 15.9761 157.942 16.2208C157.698 16.6791 157.302 17.0159 156.837 17.1603C156.596 17.2369 156.343 17.2624 156.093 17.2355L156.033 17.2449ZM154.749 15.0276C154.725 15.2571 154.739 15.4896 154.792 15.7134C154.851 15.9335 154.95 16.138 155.083 16.3147C155.21 16.4848 155.367 16.6253 155.545 16.7281C155.924 16.9456 156.364 16.9992 156.778 16.8785C156.977 16.8153 157.163 16.71 157.325 16.5684C157.483 16.4264 157.616 16.2546 157.719 16.0611C157.825 15.8579 157.892 15.6329 157.916 15.4002C157.939 15.1675 157.919 14.9319 157.856 14.7081C157.733 14.2717 157.464 13.9026 157.103 13.6746C156.916 13.5595 156.709 13.4891 156.495 13.4679C156.283 13.4395 156.067 13.4587 155.862 13.5243C155.669 13.5953 155.489 13.7035 155.331 13.8437C155.171 13.9843 155.04 14.1604 154.946 14.3605C154.842 14.5631 154.778 14.787 154.758 15.0182L154.749 15.0276ZM155.93 11.8425V11.6921C155.97 11.2368 156.071 10.7903 156.23 10.3674C156.381 9.97153 156.558 9.58841 156.76 9.22112C156.957 8.86409 157.171 8.50706 157.394 8.15003C157.616 7.793 157.83 7.43597 158.027 7.05075C158.229 6.65042 158.401 6.23247 158.541 5.80115C158.703 5.32343 158.806 4.82425 158.849 4.31665C158.892 3.92344 158.892 3.52603 158.849 3.13282C158.822 2.80379 158.735 2.48417 158.592 2.19326C158.467 1.94005 158.284 1.72652 158.061 1.57316C157.802 1.39959 157.509 1.29651 157.206 1.2725C156.895 1.23325 156.58 1.26524 156.281 1.36646C156.003 1.4588 155.742 1.60518 155.511 1.79865C155.295 1.98942 155.11 2.218 154.963 2.47513C154.827 2.71792 154.743 2.99067 154.715 3.27375C154.685 3.42228 154.685 3.5762 154.715 3.72473C154.738 3.8162 154.786 3.89796 154.852 3.95962C154.893 4.01353 154.946 4.05547 155.006 4.08176H155.126C155.235 4.10949 155.35 4.10949 155.459 4.08176C155.55 4.0515 155.637 4.00721 155.716 3.95023L155.973 3.7999C156.081 3.73733 156.203 3.71117 156.324 3.72473C156.538 3.75473 156.733 3.87216 156.872 4.05358C156.958 4.1702 157.022 4.30431 157.06 4.44819C157.09 4.6315 157.09 4.81921 157.06 5.00253C157.033 5.25086 156.947 5.48717 156.812 5.6884C156.673 5.87077 156.505 6.02363 156.315 6.13938C156.118 6.26104 155.904 6.34672 155.682 6.39306C155.464 6.43042 155.241 6.43042 155.023 6.39306C154.724 6.37469 154.431 6.28492 154.167 6.12999C153.948 5.96253 153.761 5.74846 153.619 5.50049C153.263 4.90098 153.129 4.17548 153.242 3.47105C153.286 2.84953 153.481 2.25231 153.807 1.74228C154.11 1.27934 154.502 0.894567 154.954 0.614814C155.431 0.332695 155.95 0.145048 156.487 0.0604773C157.055 -0.0201591 157.63 -0.0201591 158.198 0.0604773C158.825 0.124621 159.437 0.299109 160.013 0.577231C160.526 0.822972 160.993 1.17012 161.391 1.60134C161.77 2.00534 162.062 2.49624 162.247 3.03886C162.435 3.6034 162.496 4.20913 162.427 4.80522C162.383 5.42287 162.216 6.02249 161.939 6.56218C161.679 7.0409 161.356 7.47468 160.98 7.84937C160.62 8.2019 160.23 8.51646 159.816 8.78892C159.414 9.07079 159.029 9.36205 158.652 9.65331C158.295 9.93124 157.962 10.2458 157.659 10.5929C157.373 10.9352 157.164 11.3474 157.051 11.7955V11.927L155.93 11.8425ZM157.394 1.00003C157.698 1.0401 157.99 1.15232 158.25 1.32887C158.51 1.51279 158.725 1.76457 158.875 2.06172C159.03 2.38291 159.129 2.73362 159.166 3.09523C159.213 3.51017 159.213 3.92991 159.166 4.34484C159.121 4.8805 159.015 5.40776 158.849 5.91389C158.698 6.36128 158.515 6.79483 158.301 7.21047C158.107 7.5997 157.893 7.97616 157.659 8.33794C157.437 8.68557 157.231 9.03321 157.034 9.38084C156.844 9.73779 156.675 10.1082 156.529 10.4895C156.402 10.8368 156.313 11.1995 156.264 11.57L156.829 11.6358C156.956 11.1882 157.172 10.7774 157.462 10.4331C157.777 10.0614 158.123 9.7247 158.498 9.42782C158.875 9.13656 159.268 8.8359 159.679 8.55404C160.077 8.27679 160.452 7.96244 160.801 7.61448C161.136 7.26305 161.424 6.86132 161.656 6.42125C161.911 5.91749 162.066 5.36037 162.11 4.78643C162.17 4.24769 162.118 3.70095 161.956 3.188C161.794 2.67506 161.528 2.20947 161.177 1.82684C160.801 1.42724 160.359 1.10857 159.876 0.887284C159.332 0.625143 158.755 0.457159 158.164 0.389321C157.621 0.318811 157.072 0.318811 156.529 0.389321C156.028 0.470472 155.544 0.648619 155.1 0.91547C154.681 1.16261 154.321 1.51321 154.047 1.93958C153.751 2.40639 153.574 2.95118 153.533 3.51803C153.432 4.14886 153.548 4.79844 153.859 5.34076C154.009 5.56272 154.202 5.74558 154.424 5.87631C154.645 6.0088 154.891 6.0828 155.143 6.09241C155.333 6.12054 155.526 6.12054 155.716 6.09241C155.908 6.05289 156.093 5.97993 156.264 5.87631C156.422 5.77737 156.561 5.64668 156.675 5.49109C156.779 5.34075 156.844 5.16213 156.863 4.97434C156.889 4.83483 156.889 4.69105 156.863 4.55154C156.846 4.45057 156.805 4.35647 156.743 4.27907C156.687 4.19863 156.613 4.13421 156.529 4.09116C156.47 4.05948 156.406 4.03733 156.341 4.02539C156.285 4.03238 156.232 4.05504 156.187 4.09116L155.947 4.24149C155.848 4.29939 155.745 4.34962 155.639 4.39182C155.487 4.43397 155.329 4.43397 155.177 4.39182C155.112 4.38187 155.049 4.36292 154.989 4.33544C154.894 4.29323 154.807 4.23277 154.732 4.15693C154.622 4.06545 154.534 3.94618 154.475 3.80929C154.437 3.61421 154.437 3.41246 154.475 3.21738C154.509 2.88489 154.609 2.56443 154.766 2.27782C155.107 1.67922 155.632 1.23552 156.247 1.02822C156.579 0.914648 156.929 0.879427 157.274 0.924866V1.07519V0.924866L157.394 1.00003Z" fill="#DDDDDD"/>
<path d="M0.647871 207.791H221.895C222.075 207.764 222.239 207.673 222.358 207.535C222.477 207.396 222.543 207.22 222.543 207.038C222.543 206.856 222.477 206.679 222.358 206.541C222.239 206.403 222.075 206.312 221.895 206.285H0.647871C0.467625 206.312 0.303129 206.403 0.184251 206.541C0.0653742 206.679 0 206.856 0 207.038C0 207.22 0.0653742 207.396 0.184251 207.535C0.303129 207.673 0.467625 207.764 0.647871 207.791Z" fill="black"/>
<path d="M50.2175 206.109V204.878C50.2175 204.878 43.6101 204.512 40.8028 204.606C40.3382 204.173 39.9694 203.63 39.7243 203.018C39.4775 202.407 39.3633 201.741 39.3905 201.073C39.3135 199.354 39.1937 196.15 40.5118 195.793C41.8298 195.436 50.5342 196.732 50.5342 196.732V195.173L40.5118 194.383L12.2675 195.755C11.0778 195.981 10.2048 198.217 10.2733 200.857C10.426 202.668 10.934 204.421 11.7625 205.996L39.3649 206.09L50.2175 206.109Z" fill="#A8A8A8"/>
<path d="M12.3001 197.634L38.2762 196.638C38.3014 196.64 38.3265 196.636 38.3501 196.626C38.3737 196.616 38.3952 196.601 38.4132 196.582C38.4255 196.542 38.4255 196.499 38.4132 196.46C38.4242 196.423 38.4242 196.384 38.4132 196.347C38.3881 196.3 38.3528 196.262 38.3104 196.234H38.2334L12.2573 197.23H12.1203V197.38C12.1031 197.429 12.1031 197.482 12.1203 197.531C12.1392 197.566 12.1657 197.595 12.1974 197.615H12.3001V197.634Z" fill="#292929"/>
<path d="M49.6773 204.746C47.9655 204.746 43.1384 204.473 40.836 204.558C40.3684 204.128 39.9971 203.586 39.7508 202.973C39.5044 202.361 39.3896 201.694 39.4153 201.026C39.3382 199.297 39.2355 196.103 40.5365 195.746C41.5635 195.426 47.6318 195.999 49.7971 196.479C49.8485 196.516 49.9769 204.727 49.6773 204.746Z" fill="white"/>
<path d="M48.985 198.264L41.8555 198.376C42.4994 198.97 43.2769 199.362 44.1065 199.513C45.6128 199.795 48.985 198.264 48.985 198.264Z" fill="#292929"/>
<path d="M46.6399 202.388L39.459 201.749C40.1048 202.334 40.8772 202.726 41.7014 202.886C43.36 202.947 45.019 202.779 46.6399 202.388Z" fill="#292929"/>
<path d="M40.7948 204.558C40.3302 204.125 39.9614 203.582 39.7164 202.97C39.4705 202.359 39.3562 201.693 39.3826 201.025C39.3056 199.297 39.1857 196.103 40.5038 195.746C41.5309 195.426 47.6162 195.999 49.7816 196.479L42.3525 196.958C40.9831 196.958 39.8704 198.574 39.956 200.659C39.9592 202.012 40.2462 203.346 40.7948 204.558Z" fill="#292929"/>
<path d="M31.1495 194.722C32.7021 194.648 34.1998 194.07 35.4532 193.061C36.7066 192.053 37.6594 190.659 38.1911 189.056C38.7228 187.453 38.8095 185.713 38.4402 184.056C38.0709 182.398 37.2623 180.899 36.1166 179.746C34.9708 178.594 33.5395 177.84 32.0035 177.58C30.4675 177.321 28.8959 177.567 27.4875 178.288C26.079 179.009 24.897 180.173 24.0909 181.631C23.2848 183.09 22.8907 184.778 22.9587 186.482C23.052 188.766 23.9667 190.916 25.5022 192.461C27.0377 194.006 29.0687 194.819 31.1495 194.722Z" fill="#292929"/>
<path d="M26.6309 192.758L25.5696 192.016L25.3128 192.458L24.32 194.149C24.2418 194.304 24.2187 194.486 24.2551 194.66C24.2914 194.833 24.3846 194.985 24.5168 195.088C24.6568 195.185 24.8255 195.218 24.9876 195.182C25.069 195.163 25.146 195.125 25.2138 195.072C25.2815 195.019 25.3385 194.951 25.3813 194.872L26.0831 193.688L26.6309 192.758Z" fill="#292929"/>
<path d="M35.3438 192.448L36.3451 191.612L36.5505 191.922L37.7402 193.632C37.7891 193.705 37.8241 193.789 37.8432 193.878C37.8624 193.967 37.8651 194.059 37.8515 194.148C37.8423 194.239 37.8163 194.327 37.7751 194.406C37.7339 194.485 37.6783 194.554 37.6118 194.609C37.4789 194.716 37.3134 194.763 37.1497 194.74C37.0662 194.726 36.9852 194.698 36.91 194.656C36.8402 194.606 36.7793 194.542 36.7303 194.468L35.9343 193.303L35.3438 192.448Z" fill="#292929"/>
<path d="M22.753 177.161L22.4449 177.509C22.4112 177.55 22.3926 177.604 22.3926 177.659C22.3926 177.715 22.4112 177.768 22.4449 177.81L25.8256 181.314C25.8609 181.352 25.9086 181.374 25.9583 181.374C26.008 181.374 26.0557 181.352 26.091 181.314L26.3905 180.976C26.4261 180.935 26.446 180.881 26.446 180.825C26.446 180.769 26.4261 180.715 26.3905 180.675L23.0183 177.171C22.9842 177.131 22.9372 177.108 22.8874 177.106C22.8377 177.104 22.7894 177.124 22.753 177.161Z" fill="#A8A8A8"/>
<path d="M22.7614 182.535C22.4921 182.228 22.2816 181.865 22.1424 181.468C22.0032 181.07 21.938 180.646 21.9508 180.22C21.9636 179.795 22.054 179.376 22.2168 178.989C22.3795 178.603 22.6113 178.256 22.8983 177.969C25.466 175.066 27.4174 177.528 27.4174 177.528C25.6196 178.905 24.0457 180.604 22.7614 182.554V182.535Z" fill="#EAEAEA"/>
<path d="M23.832 177.415C24.0613 177.252 24.3315 177.171 24.6048 177.184C24.878 177.198 25.1405 177.305 25.3555 177.491L24.7735 178.035L23.832 177.415Z" fill="white"/>
<path d="M25.125 178.355L25.5101 178.693L26.1863 178.073L25.8268 177.735L25.125 178.355Z" fill="white"/>
<path d="M35.5564 180.656L35.8645 181.013C35.8821 181.034 35.9033 181.05 35.9269 181.061C35.9504 181.073 35.9758 181.078 36.0015 181.078C36.0271 181.078 36.0525 181.073 36.076 181.061C36.0996 181.05 36.1208 181.034 36.1384 181.013L39.5619 177.434C39.5804 177.416 39.5951 177.393 39.6052 177.368C39.6152 177.343 39.6204 177.316 39.6204 177.289C39.6204 177.261 39.6152 177.234 39.6052 177.209C39.5951 177.184 39.5804 177.161 39.5619 177.143L39.2538 176.786C39.2186 176.748 39.1709 176.726 39.1212 176.726C39.0715 176.726 39.0238 176.748 38.9885 176.786L35.5649 180.365C35.5288 180.403 35.5076 180.454 35.506 180.509C35.5044 180.564 35.5225 180.617 35.5564 180.656Z" fill="#A8A8A8"/>
<path d="M39.2704 182.253C39.5497 181.938 39.7679 181.565 39.9119 181.155C40.0559 180.745 40.1228 180.307 40.1084 179.868C40.094 179.429 39.9986 178.998 39.8281 178.601C39.6576 178.203 39.4155 177.848 39.1164 177.556C36.4546 174.587 34.5117 177.114 34.5117 177.114C36.3427 178.512 37.9506 180.233 39.2704 182.206V182.253Z" fill="#EAEAEA"/>
<path d="M27.0669 192.579L26.0056 191.828L25.7403 192.269L24.756 193.96C24.7136 194.039 24.6845 194.125 24.6704 194.214C24.6489 194.3 24.6489 194.391 24.6704 194.477C24.6798 194.567 24.7125 194.652 24.7646 194.721C24.8132 194.793 24.8709 194.856 24.9357 194.909C25.0071 194.957 25.0852 194.992 25.1668 195.013C25.2491 195.027 25.3328 195.027 25.415 195.013C25.4938 194.987 25.5687 194.949 25.6376 194.9C25.7089 194.851 25.7678 194.783 25.8087 194.703L26.502 193.519L27.0669 192.579Z" fill="#A8A8A8"/>
<path d="M26.5086 193.528L27.0649 192.589L26.0036 191.837L25.7383 192.279L26.5086 193.528Z" fill="#292929"/>
<path d="M35.7695 192.251L36.7795 191.424L36.9849 191.734L38.166 193.444C38.2171 193.515 38.2523 193.599 38.2687 193.688C38.286 193.778 38.286 193.871 38.2687 193.96C38.26 194.047 38.2337 194.131 38.1917 194.205C38.1491 194.284 38.0941 194.354 38.0291 194.411C37.8944 194.523 37.7259 194.573 37.5583 194.552C37.4767 194.539 37.3983 194.509 37.3278 194.462C37.2572 194.415 37.1959 194.353 37.1475 194.28L36.343 193.115L35.7695 192.251Z" fill="#A8A8A8"/>
<path d="M36.3601 193.115L35.7695 192.251L36.7795 191.424L36.9849 191.734L36.3601 193.115Z" fill="#292929"/>
<path d="M31.4924 194.327C33.0471 194.253 34.5467 193.674 35.8017 192.664C37.0566 191.654 38.0104 190.258 38.5424 188.653C39.0744 187.048 39.1607 185.305 38.7904 183.646C38.42 181.987 37.6097 180.486 36.4619 179.332C35.3141 178.179 33.8804 177.425 32.3423 177.166C30.8041 176.907 29.2306 177.155 27.8208 177.878C26.4111 178.602 25.2284 179.768 24.4224 181.229C23.6164 182.69 23.2234 184.381 23.293 186.087C23.3863 188.373 24.3022 190.525 25.8396 192.07C27.377 193.615 29.4101 194.427 31.4924 194.327Z" fill="#A8A8A8"/>
<path d="M31.4313 192.871C32.7147 192.808 33.9524 192.329 34.9878 191.494C36.0232 190.66 36.81 189.507 37.2485 188.181C37.6871 186.856 37.7578 185.417 37.4518 184.047C37.1457 182.678 36.4766 181.439 35.529 180.486C34.5814 179.534 33.3979 178.912 32.1282 178.698C30.8584 178.484 29.5593 178.688 28.3952 179.285C27.2311 179.881 26.2543 180.843 25.5881 182.049C24.922 183.255 24.5964 184.65 24.6527 186.059C24.689 186.995 24.8933 187.915 25.2539 188.764C25.6144 189.614 26.1242 190.377 26.7539 191.009C27.3837 191.642 28.121 192.132 28.9237 192.452C29.7263 192.771 30.5785 192.913 31.4313 192.871Z" fill="white"/>
<path d="M30.4035 191.302V191.161H30.5148V191.293L30.4035 191.302ZM29.4534 191.039L29.3335 190.992L29.3763 190.86L29.4876 190.907L29.4534 191.039ZM31.5162 191.339V191.208H31.6361V191.339H31.5162ZM28.4519 190.503L28.3492 190.428L28.4177 190.315L28.5204 190.391L28.4519 190.503ZM32.6033 191.123L32.5605 191.001L32.6718 190.954L32.7146 191.086L32.6033 191.123ZM27.5788 189.761L27.4933 189.667L27.5874 189.564L27.673 189.658L27.5788 189.761ZM33.6219 190.701L33.5705 190.588L33.6647 190.522L33.7332 190.635L33.6219 190.701ZM26.8684 188.821L26.7999 188.699L26.9112 188.634C26.9279 188.673 26.948 188.711 26.9711 188.746L26.8684 188.821ZM34.5206 189.958L34.435 189.855L34.5292 189.77L34.6148 189.874L34.5206 189.958ZM26.3634 187.75C26.3611 187.707 26.3611 187.663 26.3634 187.619H26.4832C26.4832 187.619 26.4832 187.703 26.4832 187.741L26.3634 187.75ZM35.2739 189.075L35.1712 188.991L35.2396 188.887L35.3423 188.962L35.2739 189.075ZM26.0809 186.576V186.435H26.2093V186.567L26.0809 186.576ZM35.8302 188.013L35.719 187.957L35.7618 187.835L35.873 187.891L35.8302 188.023V188.013ZM26.0381 185.345C26.0342 185.298 26.0342 185.251 26.0381 185.204H26.158C26.1663 185.247 26.1663 185.292 26.158 185.336L26.0381 185.345ZM36.0442 186.811V186.679H36.1641C36.1681 186.726 36.1681 186.773 36.1641 186.82L36.0442 186.811ZM26.3463 184.171H26.2264C26.2264 184.171 26.2264 184.077 26.2264 184.03L26.3463 184.077V184.208V184.171ZM36.1384 185.627V185.477H36.2668V185.627H36.1384ZM26.7229 183.062L26.6116 183.006L26.6715 182.883L26.7828 182.959L26.7229 183.062ZM35.9672 184.434V184.302H36.087C36.087 184.302 36.087 184.396 36.087 184.434H35.9672ZM27.3734 182.113L27.2793 182.019L27.3563 181.925L27.459 182.01L27.3734 182.113ZM35.6334 183.334C35.6235 183.29 35.606 183.249 35.582 183.212L35.6933 183.146C35.6933 183.146 35.6933 183.231 35.7532 183.278L35.6334 183.334ZM28.1609 181.305L28.0839 181.192L28.1866 181.126L28.2551 181.23L28.1609 181.305ZM35.0684 182.329L35 182.226L35.0941 182.132C35.115 182.17 35.141 182.205 35.1712 182.235L35.0684 182.329ZM29.0768 180.713L29.0254 180.581L29.1367 180.525L29.1795 180.657L29.0768 180.713ZM34.2724 181.483L34.1868 181.399L34.2639 181.296L34.3666 181.38L34.2724 181.483ZM30.0953 180.347V180.215H30.2152V180.347H30.0953ZM33.3737 180.835L33.2709 180.779L33.3223 180.657L33.425 180.713L33.3737 180.835ZM31.1739 180.243V180.102H31.2937V180.234L31.1739 180.243ZM32.3636 180.412H32.2438V180.281H32.3636V180.412Z" fill="#292929"/>
<path d="M27.0744 187.149C27.3145 187.137 27.5461 187.048 27.7399 186.892C27.9338 186.736 28.0813 186.521 28.1637 186.273C28.2461 186.025 28.2597 185.756 28.2029 185.5C28.1461 185.244 28.0213 185.012 27.8444 184.833C27.6674 184.655 27.4463 184.538 27.2088 184.497C26.9714 184.457 26.7284 184.495 26.5104 184.606C26.2924 184.717 26.1094 184.896 25.9843 185.121C25.8592 185.346 25.7977 185.607 25.8077 185.871C25.8143 186.046 25.8523 186.218 25.9196 186.377C25.9868 186.536 26.082 186.679 26.1997 186.798C26.3173 186.917 26.4551 187.009 26.6052 187.069C26.7553 187.129 26.9148 187.156 27.0744 187.149Z" fill="white"/>
<path d="M35.5301 186.557C35.6969 186.561 35.8627 186.528 36.0172 186.459C36.1717 186.39 36.3117 186.287 36.4283 186.156C36.545 186.025 36.6359 185.87 36.6953 185.699C36.7548 185.527 36.7815 185.345 36.7738 185.162C36.7662 184.979 36.7243 184.8 36.6508 184.635C36.5774 184.471 36.4739 184.325 36.3467 184.207C36.2196 184.088 36.0717 183.999 35.912 183.946C35.7524 183.893 35.5845 183.877 35.4188 183.898C35.2521 183.894 35.0863 183.927 34.9318 183.996C34.7772 184.065 34.6373 184.168 34.5206 184.299C34.4039 184.429 34.3131 184.585 34.2536 184.756C34.1942 184.927 34.1675 185.11 34.1751 185.293C34.1828 185.476 34.2246 185.655 34.2981 185.819C34.3716 185.984 34.4751 186.13 34.6022 186.248C34.7293 186.367 34.8773 186.455 35.0369 186.509C35.1966 186.562 35.3644 186.578 35.5301 186.557Z" fill="white"/>
<path d="M30.8482 181.935C31.0886 181.923 31.3205 181.834 31.5145 181.677C31.7085 181.521 31.8558 181.305 31.9379 181.057C32.02 180.808 32.033 180.539 31.9755 180.282C31.9179 180.026 31.7922 179.794 31.6145 179.616C31.4367 179.438 31.2148 179.322 30.9768 179.282C30.7389 179.243 30.4957 179.282 30.2779 179.394C30.0602 179.507 29.8778 179.688 29.7538 179.914C29.6298 180.141 29.5699 180.402 29.5815 180.666C29.5881 180.841 29.6261 181.013 29.6935 181.171C29.7609 181.33 29.8562 181.472 29.974 181.59C30.0918 181.708 30.2297 181.799 30.3797 181.859C30.5298 181.918 30.689 181.943 30.8482 181.935Z" fill="white"/>
<path d="M31.5455 191.612C31.788 191.602 32.0225 191.514 32.2191 191.357C32.4156 191.201 32.5654 190.984 32.6495 190.734C32.7335 190.485 32.7479 190.213 32.6909 189.954C32.6339 189.695 32.5081 189.46 32.3294 189.28C32.1507 189.1 31.9272 188.982 31.6873 188.942C31.4474 188.901 31.202 188.94 30.9822 189.053C30.7624 189.166 30.5782 189.348 30.4529 189.576C30.3277 189.804 30.2671 190.068 30.2788 190.334C30.2943 190.687 30.436 191.019 30.6731 191.259C30.9102 191.498 31.2237 191.625 31.5455 191.612Z" fill="white"/>
<path d="M32.1154 175.47L29.4365 175.583C29.3668 175.588 29.3015 175.622 29.2538 175.678C29.206 175.733 29.1796 175.807 29.1797 175.884V176.56C29.1841 176.636 29.2152 176.707 29.2663 176.757C29.3174 176.808 29.3846 176.835 29.4536 176.833L32.1325 176.72C32.1674 176.719 32.2016 176.71 32.2334 176.694C32.2652 176.679 32.2938 176.656 32.3177 176.628C32.3415 176.6 32.3601 176.567 32.3724 176.532C32.3847 176.496 32.3904 176.458 32.3893 176.419V175.752C32.3882 175.714 32.3802 175.676 32.3658 175.641C32.3515 175.607 32.331 175.575 32.3055 175.549C32.2801 175.523 32.2502 175.502 32.2176 175.489C32.185 175.475 32.1502 175.469 32.1154 175.47Z" fill="#EAEAEA"/>
<path d="M31.1849 188.802L31.0822 186.059L29.3105 182.113L29.6443 181.935L31.4502 185.974L31.553 188.793L31.1849 188.802Z" fill="#292929"/>
<path d="M29.1372 182.169L29.8561 181.869C29.8827 181.852 29.906 181.83 29.9246 181.803C29.9329 181.769 29.9329 181.733 29.9246 181.7C29.9332 181.669 29.9332 181.636 29.9246 181.606C29.9181 181.569 29.8999 181.535 29.8732 181.512L29.2998 181.061C29.2719 181.051 29.2421 181.051 29.2142 181.061H29.1372C29.1094 181.071 29.0854 181.091 29.0687 181.117C29.0441 181.139 29.0262 181.168 29.0173 181.202L28.8718 181.953C28.863 181.987 28.863 182.023 28.8718 182.057C28.8869 182.089 28.9072 182.117 28.9317 182.141C28.9415 182.156 28.9543 182.168 28.9692 182.176C28.9842 182.184 29.0007 182.188 29.0173 182.188L29.1372 182.169Z" fill="#292929"/>
<path d="M30.8478 188.981L31.2672 189.686C31.2829 189.717 31.3067 189.743 31.3356 189.761H31.4298C31.4605 189.77 31.4931 189.77 31.5239 189.761C31.5509 189.741 31.5741 189.715 31.5924 189.686L31.8748 188.981C31.8824 188.947 31.8824 188.912 31.8748 188.878C31.8782 188.846 31.8782 188.815 31.8748 188.784C31.8562 188.757 31.8329 188.735 31.8063 188.718C31.7784 188.709 31.7487 188.709 31.7208 188.718H31.019C30.9911 188.708 30.9613 188.708 30.9334 188.718C30.9044 188.735 30.8807 188.761 30.8649 188.793C30.8599 188.827 30.8599 188.862 30.8649 188.896C30.8526 188.922 30.8467 188.952 30.8478 188.981Z" fill="#292929"/>
<path d="M31.33 186.566C31.4084 186.563 31.4853 186.542 31.5563 186.505C31.6272 186.469 31.6909 186.417 31.7434 186.353C31.796 186.289 31.8365 186.215 31.8625 186.134C31.8885 186.052 31.8995 185.966 31.8949 185.88C31.8896 185.75 31.8492 185.624 31.7787 185.52C31.7083 185.415 31.611 185.335 31.4992 185.291C31.3874 185.247 31.2662 185.24 31.151 185.272C31.0357 185.303 30.9316 185.372 30.852 185.469C30.7723 185.565 30.7206 185.686 30.7035 185.815C30.6864 185.944 30.7046 186.076 30.7559 186.193C30.8071 186.311 30.889 186.409 30.9913 186.476C31.0935 186.542 31.2114 186.574 31.33 186.566Z" fill="#292929"/>
<path d="M30.2168 180.074H30.0371V179.764H30.5335L30.5935 181.22H30.2768L30.2168 180.074Z" fill="#292929"/>
<path d="M30.7315 180.92C30.9968 180.647 31.2963 180.384 31.2878 180.14C31.2792 179.896 31.2279 179.961 31.1423 179.971C31.0567 179.98 30.9882 180.055 30.9968 180.187H30.6972C30.6843 180.122 30.6843 180.055 30.6972 179.99C30.7171 179.925 30.746 179.865 30.7828 179.811C30.8271 179.763 30.8794 179.725 30.9369 179.698C30.9965 179.688 31.057 179.688 31.1166 179.698C31.1705 179.689 31.2254 179.689 31.2792 179.698C31.3318 179.717 31.381 179.746 31.4247 179.783C31.4688 179.824 31.5039 179.875 31.5274 179.933C31.5507 179.99 31.5651 180.05 31.5702 180.112C31.5519 180.269 31.5016 180.42 31.4231 180.553C31.3446 180.687 31.2399 180.799 31.1166 180.882H31.613V181.164L30.7058 181.211L30.7315 180.92Z" fill="#292929"/>
<path d="M36.1635 184.462C36.446 184.462 36.6 184.621 36.6086 184.838C36.6253 184.905 36.6253 184.977 36.6086 185.044C36.5737 185.1 36.5266 185.145 36.4717 185.176C36.5403 185.192 36.6011 185.236 36.6428 185.298C36.6831 185.361 36.704 185.437 36.7028 185.514C36.7117 185.573 36.7117 185.633 36.7028 185.693C36.6815 185.749 36.6494 185.801 36.6086 185.843C36.5707 185.886 36.5236 185.918 36.4717 185.937C36.4187 185.955 36.362 185.955 36.309 185.937C36.2469 185.951 36.1829 185.951 36.1207 185.937C36.0628 185.921 36.0097 185.888 35.9667 185.843C35.9136 185.803 35.872 185.748 35.8469 185.683C35.8343 185.621 35.8343 185.557 35.8469 185.495H36.1379C36.1379 185.495 36.1379 185.552 36.1379 185.57C36.1334 185.592 36.1334 185.615 36.1379 185.636H36.1978C36.2198 185.646 36.2442 185.646 36.2663 185.636C36.2756 185.641 36.2858 185.644 36.2962 185.644C36.3066 185.644 36.3168 185.641 36.3262 185.636C36.3342 185.64 36.343 185.643 36.3518 185.643C36.3607 185.643 36.3695 185.64 36.3775 185.636C36.3811 185.621 36.3811 185.605 36.3775 185.589C36.3775 185.589 36.3775 185.542 36.3775 185.523C36.3775 185.505 36.3005 185.345 36.1379 185.354H36.0865V185.072H36.1464C36.2491 185.072 36.3518 185.072 36.3518 184.903C36.3518 184.734 36.3518 184.903 36.3518 184.847C36.3555 184.832 36.3555 184.815 36.3518 184.8C36.3352 184.794 36.3171 184.794 36.3005 184.8H36.1978H36.1464C36.1429 184.822 36.1429 184.844 36.1464 184.866H35.8469C35.8297 184.805 35.8297 184.739 35.8469 184.678C35.8668 184.617 35.899 184.563 35.941 184.518C35.9844 184.478 36.0335 184.446 36.0865 184.424C36.1428 184.41 36.2014 184.41 36.2577 184.424L36.1635 184.462Z" fill="#292929"/>
<path d="M26.0049 185.974C26.0126 186.018 26.0337 186.058 26.0648 186.087C26.0823 186.095 26.1012 186.1 26.1204 186.1C26.1396 186.1 26.1585 186.095 26.176 186.087C26.3044 186.087 26.3472 185.955 26.3387 185.674C26.307 185.721 26.2661 185.759 26.2188 185.786C26.1741 185.8 26.1266 185.8 26.0819 185.786C26.0281 185.796 25.9731 185.796 25.9193 185.786C25.8722 185.763 25.8288 185.731 25.7909 185.692C25.7518 185.645 25.7199 185.591 25.6968 185.533C25.6844 185.477 25.6844 185.419 25.6968 185.364C25.6883 185.298 25.6883 185.232 25.6968 185.166C25.7176 185.101 25.7529 185.043 25.7995 184.997C25.8373 184.947 25.888 184.911 25.945 184.894C26.0014 184.881 26.0597 184.881 26.1161 184.894C26.5013 184.894 26.604 185.157 26.6297 185.598C26.6553 186.04 26.5441 186.369 26.1932 186.388C26.1397 186.402 26.084 186.402 26.0305 186.388C25.9771 186.376 25.927 186.35 25.885 186.312C25.8418 186.274 25.8067 186.226 25.7823 186.171C25.7697 186.116 25.7697 186.058 25.7823 186.002L26.0049 185.974ZM26.2959 185.382C26.3044 185.358 26.3044 185.331 26.2959 185.307C26.3003 185.285 26.3003 185.263 26.2959 185.241L26.236 185.194H26.1589H26.0905C26.0673 185.205 26.0468 185.221 26.0305 185.241C26.0258 185.263 26.0258 185.286 26.0305 185.307C26.0264 185.332 26.0264 185.357 26.0305 185.382C26.0257 185.407 26.0257 185.433 26.0305 185.457C26.0398 185.483 26.0544 185.505 26.0733 185.523H26.1333H26.2103H26.2787C26.2973 185.509 26.3121 185.489 26.3215 185.467C26.3257 185.442 26.3257 185.417 26.3215 185.392L26.2959 185.382Z" fill="#292929"/>
<path d="M31.6552 190.916C31.6602 190.895 31.6602 190.872 31.6552 190.85V190.803C31.6552 190.803 31.6552 190.803 31.6038 190.803H31.5439C31.4069 190.803 31.3556 190.944 31.3727 191.226C31.3956 191.172 31.435 191.129 31.484 191.104C31.5328 191.08 31.5848 191.064 31.638 191.057C31.6915 191.043 31.7472 191.043 31.8007 191.057C31.852 191.077 31.8987 191.109 31.9376 191.151C31.9769 191.193 32.0063 191.244 32.0232 191.301C32.0396 191.359 32.0396 191.422 32.0232 191.48C32.0359 191.545 32.0359 191.612 32.0232 191.677C32.0034 191.74 31.9712 191.798 31.929 191.846C31.8912 191.896 31.8405 191.932 31.7835 191.95C31.7272 191.964 31.6687 191.964 31.6124 191.95C31.2101 191.95 31.0988 191.658 31.0903 191.226C31.0817 190.794 31.2015 190.465 31.5439 190.456C31.5973 190.442 31.653 190.442 31.7065 190.456C31.7573 190.467 31.8045 190.493 31.8435 190.531C31.8867 190.569 31.9218 190.617 31.9462 190.672C31.9588 190.727 31.9588 190.785 31.9462 190.841L31.6552 190.916ZM31.347 191.508C31.347 191.508 31.347 191.564 31.347 191.593V191.658C31.3685 191.681 31.3951 191.697 31.4241 191.705H31.5011C31.5235 191.702 31.5451 191.694 31.5643 191.681C31.5836 191.668 31.6 191.651 31.6124 191.63C31.6365 191.621 31.6578 191.604 31.6744 191.583C31.6909 191.562 31.702 191.536 31.7065 191.508C31.7059 191.458 31.6874 191.411 31.6552 191.376C31.622 191.342 31.5803 191.319 31.5353 191.311H31.4669L31.3984 191.358V191.423C31.3984 191.423 31.3984 191.48 31.3984 191.508H31.347Z" fill="#292929"/>
<path d="M208.051 174.152L208.59 175.376L207.734 175.487L208.051 174.152Z" fill="#292929"/>
<path d="M208.598 175.368L209.454 177.242L207.365 177.405L207.785 175.47L208.598 175.368Z" fill="#DDDDDD"/>
<path d="M222.056 174.323L222.295 175.522L221.439 175.376L222.056 174.323Z" fill="#292929"/>
<path d="M222.266 175.522L222.582 177.148L220.562 176.823L221.418 175.376L222.266 175.522Z" fill="#DDDDDD"/>
<path d="M202.316 176.069L204.345 185.176H202.214L200.279 176.523L202.316 176.069Z" fill="#DDDDDD"/>
<path d="M209.429 177.242C209.623 179.884 209.828 182.529 210.045 185.176H207.914L207.332 177.405L209.429 177.242Z" fill="white"/>
<path d="M211.535 185.16C211.818 176.926 212.066 167.253 212.391 160.063H216.406C216.174 165.362 215.986 171.995 215.789 178.406V178.449H214.976L214.702 185.211H211.552L211.535 185.16Z" fill="#DDDDDD"/>
<path d="M217.04 178.5L216.766 185.176H214.66L214.943 178.415H215.756L217.04 178.5Z" fill="white"/>
<path d="M222.585 177.174L221.13 185.159H219.033L220.548 176.823L222.585 177.174Z" fill="#DDDDDD"/>
<path d="M204.346 185.177H221.13C221.412 185.177 221.746 185.177 221.797 185.442C221.804 185.647 221.781 185.852 221.729 186.05C221.677 186.521 221.626 186.991 221.575 187.445L221.172 190.937L220.71 194.96C220.547 196.313 220.393 197.682 220.231 199.043L219.82 202.732C219.709 203.657 219.606 204.573 219.495 205.514L219.401 206.37H203.995V206.131C203.9 205.275 203.798 204.513 203.712 203.708C203.584 202.57 203.447 201.423 203.318 200.284L202.856 196.279C202.694 194.918 202.54 193.557 202.386 192.196L201.958 188.507C201.846 187.556 201.744 186.606 201.632 185.656C201.59 185.271 201.804 185.254 202.112 185.254H204.397L204.346 185.177Z" fill="#A8A8A8"/>
</svg>
