<svg width="482" height="362" viewBox="0 0 482 362" fill="none" xmlns="http://www.w3.org/2000/svg">
<g clip-path="url(#clip0_8531_20441)">
<path d="M266.371 327.085C256.786 314.182 248.035 300.034 239.211 287.187C235.448 282.2 232.483 276.655 230.423 270.752C226.308 256.38 233.686 245.764 246.905 250.301C259.66 254.763 266.463 269.301 273.953 280.642C283.112 294.419 295.31 313.383 299.185 329.13C301.039 336.455 300.001 344.412 294.977 347.87C293.822 348.667 292.492 349.171 291.1 349.339C289.708 349.507 288.297 349.335 286.986 348.837C284.032 347.456 281.432 345.414 279.385 342.869C274.788 337.819 270.456 332.531 266.408 327.029L266.371 327.085Z" fill="#F8A17A"/>
<path d="M291.658 294.438C291.658 294.438 257.12 315.874 254.098 318.347C253.319 318.979 241.88 306.801 240.824 305.63C235.956 300.34 231.782 294.448 228.402 288.098C221.988 275.418 220.709 257.05 235.651 249.65C249.222 242.939 260.141 253.276 268.614 262.664C277.086 272.053 291.658 294.438 291.658 294.438Z" fill="#A8A8A8"/>
<path d="M267.539 250.673C267.15 247.81 265.148 245.597 264.221 242.901C262.812 238.885 260.643 234.163 262.089 229.887C262.515 228.586 263.275 227.433 263.665 226.169C264.61 223.12 263.405 221.577 262.348 218.955C261.291 216.334 263.479 213.378 265.166 211.314C267.202 208.956 269.375 206.721 271.673 204.621C273.25 202.849 275.394 201.685 277.736 201.33C281.61 201.107 284.41 204.825 286.449 208.153C289.008 212.299 291.696 216.91 291.065 221.744C290.565 225.574 288.229 229.181 286.69 232.732C285.151 236.283 284.113 239.964 282.63 243.496C282.157 245.18 282.1 246.954 282.463 248.665C282.702 249.9 282.644 251.174 282.296 252.383C281.718 253.658 280.733 254.705 279.497 255.358C277.261 256.862 274.578 257.552 271.896 257.31C269.912 256.975 267.799 256.715 267.558 254.354C267.558 253.424 267.558 252.495 267.558 251.491C267.558 251.268 267.558 251.026 267.558 250.784L267.539 250.673Z" fill="#DDDDDD"/>
<path d="M263.758 226.132C264.684 223.045 263.498 221.502 262.423 218.881C261.347 216.259 263.572 213.303 265.259 211.24C267.29 208.884 269.463 206.655 271.766 204.565C273.342 202.799 275.476 201.63 277.81 201.256C278.917 201.181 280.021 201.44 280.98 201.999C280.195 203.454 279.532 204.971 278.997 206.536C278.589 209.101 279.794 211.518 279.72 213.973C279.572 215.994 279.142 217.984 278.441 219.885C277.33 223.84 275.286 227.47 272.482 230.466C269.678 233.463 266.196 235.738 262.33 237.101C261.553 234.755 261.495 232.229 262.163 229.85C262.59 228.679 263.35 227.433 263.758 226.132Z" fill="#BFBFBF"/>
<path d="M253.746 360.401C256.434 342.609 258.084 331.119 260.606 313.29C263.127 295.46 270.042 268.316 256.212 253.517C253.336 250.516 249.744 248.301 245.774 247.084C243.179 246.229 217.335 240.336 217.317 240.503L216.334 240.336L215.37 240.168C206.101 238.774 196.831 238.179 187.561 237.472C166.353 235.818 157.231 258.537 153.282 275.604C147.721 299.773 143.141 324.166 138.803 348.558C137.802 354.136 137.654 354.879 136.708 360.401C135.8 361.349 253.338 359.248 253.746 360.401Z" fill="#BCBCBC"/>
<path d="M143.4 322.437C152.095 308.921 160.086 295.572 169.763 283.394C173.856 278.67 177.185 273.332 179.626 267.572C184.743 253.536 178.106 242.455 164.591 246.155C151.613 249.669 143.827 263.761 135.54 274.544C125.473 287.633 111.235 317.919 106.211 333.276C103.912 340.471 104.357 348.484 109.14 352.258C110.228 353.111 111.496 353.703 112.848 353.987C114.223 354.245 115.639 354.175 116.982 353.782C120.039 352.6 122.786 350.73 125.01 348.316C130.015 343.799 139.303 328.795 143.4 322.437Z" fill="#DDDDDD"/>
<path d="M234.762 249.947C235.299 247.363 234.965 245.188 232.592 243.831C230.219 242.474 231.165 239.239 231.332 237.212C231.52 233.797 231.904 230.395 232.481 227.024C233.26 223.008 233.946 218.936 234.836 214.939C230.706 213.338 226.398 212.246 222.007 211.686C217.984 211.184 214.09 210.18 210.049 209.715C209.736 209.658 209.413 209.697 209.122 209.826C209.001 209.901 208.9 210.003 208.825 210.124C208.757 210.244 208.713 210.377 208.695 210.514C207.268 215.906 206.842 221.539 205.581 226.931C204.858 229.887 203.004 238.309 198.962 238.513C198.605 238.486 198.245 238.486 197.887 238.513C197.651 238.634 197.428 238.777 197.22 238.941C197.041 239.139 196.897 239.365 196.793 239.61C194.42 244.667 198.369 251.1 202.003 254.484C206.02 258.05 211.109 260.17 216.463 260.508C224.565 261.307 232.926 258.909 234.762 249.947Z" fill="#D8D8D8"/>
<path d="M266.705 244.667C266.757 244.429 266.838 244.198 266.946 243.98C267.588 242.913 268.597 242.119 269.783 241.749C271.694 241.002 273.706 240.544 275.752 240.391C277.736 240.261 280.072 240.596 281.017 242.25C282.871 245.578 282.686 249.687 283.65 253.294C288.637 271.886 298.24 289.009 304.302 307.21C307.677 317.454 317.41 346.606 300.595 350.343C299.069 350.569 297.513 350.474 296.026 350.064C294.538 349.654 293.152 348.939 291.955 347.963C286.542 344.059 283.372 337.57 281.036 331.231C271.284 304.682 267.651 274.563 266.594 246.545C266.51 245.891 266.51 245.229 266.594 244.574L266.705 244.667Z" fill="#DDDDDD"/>
<path d="M121.729 281.609C121.729 281.609 154.932 305.5 157.806 308.195C158.529 308.883 170.783 297.449 171.988 296.334C177.257 291.383 181.851 285.757 185.652 279.601C193.067 267.331 195.514 248.962 181.017 240.559C167.873 232.917 156.193 242.566 147.034 251.453C137.876 260.34 121.729 281.609 121.729 281.609Z" fill="#BCBCBC"/>
<path d="M371.062 330.692C360.791 344.524 296.905 344.524 296.905 344.524L251.021 332.514L311.069 307.954C311.069 307.954 345.403 321.303 371.062 330.692Z" fill="#D1D1D3"/>
<path d="M183.13 354.675H216.204L220.264 344.486L185.151 340.378L183.13 354.675Z" fill="#808185"/>
<path d="M372.897 341.326C362.126 346.904 308.196 334.317 296.887 344.487V354.675H378.2L372.897 341.326Z" fill="#AEB3B7"/>
<path d="M177.494 339.43C197.683 342.423 220.264 344.524 220.264 344.524L297.294 352.407L251.428 340.396C251.428 340.396 203.171 330.059 177.494 339.43Z" fill="#D1D1D3"/>
<path d="M221.543 341.326C232.315 346.904 286.245 334.317 297.554 344.487V354.675H216.167L221.543 341.326Z" fill="#AEB3B7"/>
<path d="M296.849 344.524C296.849 344.524 267.094 338.147 250.983 332.513C250.983 308.995 293.179 296.185 296.849 288.823C313.738 295.739 347.498 306.187 371.006 313.717C350.094 332.476 305.303 327.996 296.849 344.524Z" fill="white"/>
<path d="M174.417 326.192C194.699 330.952 220.264 344.524 220.264 344.524H296.85L250.984 332.513C250.984 332.513 200.094 316.841 174.417 326.192Z" fill="white"/>
<path d="M288.934 353.076L294.217 347.796C294.629 347.378 295.121 347.049 295.663 346.829C296.202 346.597 296.783 346.483 297.369 346.494C297.955 346.485 298.536 346.599 299.075 346.829C299.615 347.054 300.106 347.382 300.521 347.796L305.804 353.076L297.369 357.631L288.934 353.076Z" fill="#A8A8A8"/>
<path d="M183.687 354.638H199.89H207.992C209.327 354.638 210.698 354.731 212.033 354.638C213.368 354.545 214.221 354.173 215.203 355.01C215.608 355.316 215.921 355.728 216.11 356.199C216.3 356.671 216.358 357.185 216.279 357.687C215.871 360.383 211.44 359.323 209.994 359.323H201.058L183.446 359.416C181.054 359.379 181.332 354.675 183.687 354.638Z" fill="#381F7A"/>
<path d="M214.851 354.415L289.007 350.696C289.527 350.693 290.031 350.87 290.435 351.198C290.846 351.502 291.146 351.933 291.288 352.425C291.009 351.7 291.751 352.89 292.029 353.095C293.674 354.052 295.562 354.505 297.461 354.396C300.483 354.526 300.483 359.249 297.461 359.118C293.382 358.951 288.395 357.947 286.745 353.69L289.007 355.419L214.851 359.137C211.81 359.267 211.829 354.582 214.851 354.415Z" fill="#A8A8A8"/>
<path d="M380.054 359.137L305.897 355.418L308.159 353.652C306.509 357.947 301.522 358.932 297.462 359.1C294.44 359.211 294.44 354.507 297.462 354.377C299.363 354.461 301.248 353.996 302.894 353.039C303.172 352.853 303.895 351.681 303.617 352.388C303.769 351.891 304.074 351.455 304.488 351.142C304.899 350.843 305.39 350.674 305.897 350.659L380.054 354.377C383.076 354.507 383.094 359.23 380.054 359.1V359.137Z" fill="#A8A8A8"/>
<path d="M206.935 356.051C209.382 350.622 205.452 345.862 200.52 344.096C194.768 342.302 188.919 340.837 183.001 339.708C176.697 338.24 170.357 336.808 163.998 335.581C151.698 333.084 139.172 331.888 126.623 332.011C118.633 332.179 105.173 333.108 104.506 343.761C104.502 345.263 104.805 346.75 105.396 348.13C105.975 349.538 106.847 350.806 107.954 351.849C112.292 356.515 118.818 358.449 125.103 359.639C148.277 363.971 172.6 361.349 196.052 360.717C199.556 360.717 203.468 360.345 205.822 357.742C206.263 357.255 206.637 356.711 206.935 356.125V356.051Z" fill="#DDDDDD"/>
<path d="M198.889 357.742C202.3 358.114 205.192 360.773 208.659 361.461C211.112 361.805 213.61 361.363 215.797 360.197C217.817 359.193 219.912 358.56 221.989 357.649C223.602 356.962 225.697 355.604 227.551 355.79C232.371 356.292 237.413 359.155 241.9 360.922C242.878 361.418 243.987 361.594 245.07 361.424C246.145 361.089 246.924 359.713 246.145 358.895C247.499 359.918 249.408 362.056 251.262 360.959C251.455 360.842 251.624 360.691 251.763 360.513C251.897 360.348 251.998 360.159 252.059 359.955C252.105 359.734 252.105 359.506 252.059 359.286C252.037 359.063 251.967 358.847 251.855 358.653C252.564 359.389 253.424 359.961 254.377 360.327C254.863 360.494 255.392 360.494 255.878 360.327C256.357 360.151 256.771 359.833 257.065 359.416C257.247 358.975 257.323 358.497 257.287 358.021C257.142 356.368 256.601 354.773 255.712 353.373C251.596 346.346 243.42 341.661 236.505 337.924C235.302 337.208 234.004 336.67 232.649 336.325C231.418 336.157 230.171 336.157 228.941 336.325C220.94 337.133 213.121 339.23 205.786 342.534C204.125 343.06 202.36 343.162 200.65 342.832C199.411 342.617 198.139 342.706 196.942 343.092C195.683 343.697 194.659 344.704 194.032 345.955C192.625 348.232 192.024 350.917 192.326 353.578C192.66 355.549 193.012 357.631 195.385 357.835C196.349 357.835 197.239 357.705 198.259 357.705C198.469 357.702 198.68 357.715 198.889 357.742Z" fill="#DDDDDD"/>
<path d="M63.4782 323.794C63.2011 323.844 62.9153 323.785 62.6805 323.629C62.4457 323.473 62.2799 323.233 62.2175 322.957L60.3636 314.275C60.311 313.999 60.3639 313.714 60.5119 313.476C60.679 313.253 60.913 313.09 61.1793 313.011C61.3195 312.983 61.4639 312.983 61.604 313.012C61.744 313.041 61.877 313.097 61.995 313.178C62.1139 313.252 62.2164 313.349 62.2961 313.465C62.3759 313.58 62.4311 313.71 62.4585 313.847L64.3124 322.53C64.3624 322.808 64.3035 323.094 64.1481 323.33C63.9927 323.565 63.7528 323.732 63.4782 323.794Z" fill="#00A3D5"/>
<path d="M50.0561 259.708C49.6756 259.789 49.2828 259.792 48.9009 259.719C48.5189 259.645 48.1554 259.496 47.8314 259.28C47.1807 258.851 46.722 258.184 46.5522 257.421L44.4944 246.954C44.411 246.573 44.4058 246.178 44.4791 245.795C44.5524 245.411 44.7027 245.047 44.9208 244.723C45.35 244.075 46.0156 243.621 46.7747 243.459C47.1562 243.377 47.5505 243.374 47.9331 243.451C48.3158 243.528 48.6787 243.682 48.9994 243.905C49.3286 244.11 49.6122 244.381 49.8323 244.701C50.0524 245.021 50.2043 245.383 50.2786 245.764L52.4477 256.25C52.5581 257.018 52.3652 257.798 51.91 258.425C51.4752 259.068 50.8121 259.52 50.0561 259.689V259.708Z" fill="#242424"/>
<path d="M62.4404 318.737C62.0623 318.824 61.6708 318.834 61.2887 318.767C60.9067 318.7 60.5419 318.557 60.2157 318.346C59.5677 317.914 59.1098 317.248 58.9365 316.487L56.7674 306.039C56.6934 305.658 56.6934 305.267 56.7674 304.886C56.8281 304.499 56.9737 304.131 57.1938 303.808C57.4074 303.482 57.685 303.204 58.0095 302.99C58.3244 302.76 58.6848 302.602 59.0663 302.525C59.4458 302.451 59.8361 302.451 60.2157 302.525C60.5995 302.592 60.9654 302.738 61.291 302.952C61.6066 303.17 61.8826 303.441 62.1067 303.752C62.3232 304.072 62.4744 304.432 62.5516 304.812L64.7207 315.26C64.7948 315.647 64.7948 316.045 64.7207 316.432C64.5451 317.182 64.1036 317.842 63.4786 318.291C63.1581 318.502 62.7989 318.647 62.4219 318.718L62.4404 318.737Z" fill="#00A3D5"/>
<path d="M51.687 250.877L45.1612 252.253C44.7741 252.33 44.4077 252.489 44.0859 252.718C43.7551 252.938 43.4715 253.223 43.2517 253.554C43.0283 253.885 42.8767 254.258 42.8067 254.651C42.7233 255.031 42.7233 255.424 42.8067 255.804L48.3685 282.409L55.2836 308.846C55.4759 309.614 55.9534 310.279 56.6184 310.705C57.2708 311.112 58.0564 311.246 58.806 311.077L62.6622 310.278C63.4109 310.115 64.072 309.677 64.5161 309.051C64.963 308.413 65.1427 307.626 65.0167 306.857L60.8083 279.806L55.2465 253.276C55.173 252.884 55.0217 252.511 54.8016 252.179C54.5916 251.844 54.3058 251.564 53.9673 251.361C53.6341 251.136 53.2638 250.972 52.8735 250.877C52.48 250.822 52.0806 250.822 51.687 250.877Z" fill="#BFBFBF"/>
<path d="M60.0486 281.758L49.8335 283.933C49.6082 283.989 49.3728 283.989 49.1476 283.933C48.9245 283.892 48.7108 283.81 48.5172 283.692C48.3154 283.564 48.1444 283.392 48.0167 283.19C47.8818 283.002 47.7928 282.786 47.7571 282.558C47.7112 282.331 47.7112 282.097 47.7571 281.87C47.7977 281.643 47.8862 281.427 48.0167 281.238C48.1405 281.028 48.3043 280.845 48.4987 280.698C48.6909 280.573 48.9047 280.485 49.129 280.438L59.3256 278.281C59.5483 278.208 59.7888 278.208 60.0115 278.281C60.2374 278.299 60.4548 278.376 60.6418 278.505C60.8437 278.633 61.0147 278.804 61.1424 279.007C61.2806 279.192 61.3698 279.409 61.4019 279.639C61.447 279.872 61.447 280.112 61.4019 280.345C61.3592 280.571 61.2709 280.786 61.1424 280.977C61.0228 281.169 60.865 281.333 60.6789 281.461C60.49 281.611 60.2672 281.713 60.03 281.758H60.0486Z" fill="#242424"/>
<path d="M64.6275 277.166C64.4502 277.203 64.2671 277.203 64.0898 277.166C63.9109 277.143 63.7396 277.08 63.5893 276.98C63.4351 276.882 63.3016 276.754 63.1967 276.604C63.0917 276.454 63.0172 276.285 62.9775 276.106L57.7865 250.989C57.7496 250.804 57.7496 250.615 57.7865 250.431C57.8297 250.254 57.8984 250.085 57.9904 249.929C58.1064 249.791 58.237 249.666 58.3798 249.557C58.5301 249.457 58.7014 249.393 58.8803 249.371C59.0576 249.334 59.2406 249.334 59.418 249.371C59.5969 249.393 59.7682 249.457 59.9185 249.557C60.0613 249.666 60.1919 249.791 60.3078 249.929C60.3999 250.085 60.4686 250.254 60.5118 250.431L65.7398 275.548C65.7736 275.723 65.7695 275.903 65.7279 276.076C65.6864 276.25 65.6082 276.412 65.4988 276.552C65.3986 276.699 65.2698 276.825 65.12 276.92C64.9703 277.016 64.8027 277.081 64.6275 277.11V277.166Z" fill="#242424"/>
<path opacity="0.3" d="M59.678 260.061L56.8415 260.675L55.3027 253.238L58.1392 252.68L59.678 260.061Z" fill="white"/>
<path d="M76.0112 298.639L62.6074 297.933L65.8889 234.349L79.2741 235.018L76.0112 298.639Z" fill="#BFBFBF"/>
<path opacity="0.3" d="M72.8777 298.472L65.5918 298.1L68.8547 234.479L76.1406 234.888L72.8777 298.472Z" fill="white"/>
<path d="M68.0207 319.574L76.0111 298.602L62.4033 297.914L68.0207 319.574Z" fill="#0B2D4E"/>
<path d="M72.1362 308.623L75.8441 298.602L62.2363 297.914L64.9616 308.251L72.1362 308.623Z" fill="#FFE9CC"/>
<path opacity="0.3" d="M79.1812 235.018L65.7959 234.256L66.1481 227.637L79.5334 228.325L79.1812 235.018Z" fill="white"/>
<path d="M66.1299 227.991L79.5337 228.66C79.6038 226.911 78.992 225.204 77.8281 223.9C77.2461 223.246 76.5396 222.715 75.75 222.338C74.9605 221.961 74.1038 221.747 73.2304 221.707C72.361 221.659 71.4907 221.784 70.6695 222.074C69.8482 222.364 69.0922 222.814 68.4446 223.398C67.7971 223.982 67.2708 224.688 66.8958 225.476C66.5209 226.264 66.3047 227.119 66.2597 227.991H66.1299Z" fill="#242424"/>
<path d="M92.3625 251.249L104.524 256.827L77.8648 314.684L65.7031 309.107L92.3625 251.249Z" fill="#BFBFBF"/>
<path opacity="0.3" d="M95.1251 252.55L101.762 255.618L75.0657 313.42L68.4287 310.352L95.1251 252.55Z" fill="white"/>
<path d="M107.527 234.777L92.3994 251.323L104.765 257.012L107.527 234.777Z" fill="#242424"/>
<path d="M99.6111 243.403L92.3623 251.323L104.728 257.012L106.044 246.359L99.6111 243.403Z" fill="#BFBFBF"/>
<path d="M65.6656 309.088L77.8273 314.665L75.0465 320.689L62.8848 315.112L65.6656 309.088Z" fill="#51666F"/>
<path d="M75.1766 320.429L62.9964 314.851L61.1424 318.904C61.0323 319.169 60.9756 319.454 60.9756 319.741C60.9756 320.028 61.0323 320.312 61.1424 320.578C61.2415 320.842 61.3927 321.084 61.587 321.288C61.7813 321.492 62.0148 321.656 62.2733 321.767L70.4491 325.56C70.985 325.773 71.5818 325.773 72.1176 325.56C72.6535 325.35 73.0906 324.945 73.3412 324.426L75.1766 320.429Z" fill="#D8584E"/>
<path d="M48.7578 293.75H89.303V358.821H48.7578V293.75Z" fill="#BCBCBC"/>
<path opacity="0.1" d="M48.7578 293.75H69.0211V358.821H48.7578V293.75Z" fill="black"/>
<path d="M291.066 181.567C291.455 194.581 283.02 205.42 274.881 206.554C266.742 207.688 262.589 198.114 260.902 185.936C259.215 173.758 264.443 162.901 272.6 161.767C283.817 160.279 290.732 169.315 291.066 181.567Z" fill="#BFBFBF"/>
<path d="M284.743 146.131C291.751 189.487 266.204 213.619 226.067 220.108C185.93 226.596 153.282 211.853 146.349 168.497C139.415 125.141 167.15 110.286 207.305 103.798C247.461 97.3093 277.736 102.775 284.743 146.131Z" fill="#242424"/>
<path d="M281.443 203.636C280.85 222.729 260.921 240.113 243.586 242.678C207.12 248.107 165.981 232.899 157.75 182.125C149.519 131.351 175.473 125.755 211.124 119.991C234.947 116.124 254.895 113.41 267.261 127.577C274.936 136.278 281.796 191.923 281.443 203.636Z" fill="#DDDDDD"/>
<path d="M185.095 210.793C185.466 214.679 190.119 217.412 195.477 216.873C200.835 216.334 204.895 212.82 204.524 208.897C204.153 204.974 199.5 202.26 194.124 202.799C188.747 203.338 184.724 206.889 185.095 210.793Z" fill="#BFBFBF"/>
<path d="M262.941 198.3C263.812 201.906 268.058 203.989 272.452 202.929C276.846 201.869 279.682 198.114 278.811 194.488C277.939 190.863 273.694 188.911 269.3 189.859C264.906 190.807 262.088 194.674 262.941 198.3Z" fill="#BFBFBF"/>
<path d="M255.674 82.7333C257.788 88.4967 255.674 93.8883 251.188 99.0011C253.487 91.1553 252.133 81.7293 242.363 71.4109C237.654 76.6166 232.649 82.1383 227.625 87.6229C227.64 84.1932 226.959 80.7963 225.622 77.6391C218.392 91.0624 208.807 92.1593 178.644 104.467C158.01 112.889 155.971 127.725 159.92 135.274C173.917 129.696 196.238 133.916 212.07 131.388C231.74 128.283 246.331 122.297 253.264 115.455C261.625 107.2 266.965 92.6427 255.674 82.7333Z" fill="#242424"/>
<path d="M245.904 149.031C246.544 149.127 247.122 149.467 247.517 149.98C250.836 154.107 258.103 156.301 264.48 155.092C265.17 154.962 265.882 155.109 266.464 155.501C266.752 155.692 266.998 155.938 267.189 156.225C267.38 156.512 267.512 156.835 267.576 157.175C267.646 157.52 267.646 157.875 267.576 158.22C267.506 158.565 267.368 158.893 267.169 159.183C266.769 159.753 266.164 160.146 265.482 160.28C257.232 161.897 247.962 158.922 243.438 153.289C243.014 152.766 242.803 152.102 242.845 151.43C242.911 150.707 243.258 150.04 243.809 149.571C244.113 149.357 244.452 149.199 244.81 149.106C245.169 149.013 245.545 149.013 245.904 149.106V149.031Z" fill="#242424"/>
<path d="M204.228 156.505C204.7 156.234 205.244 156.117 205.785 156.171C206.322 156.166 206.844 156.343 207.268 156.673C207.712 156.98 208.044 157.424 208.214 157.937C208.362 158.447 208.362 158.989 208.214 159.499C206.36 166.47 198.944 172.847 190.731 174.651C190.395 174.725 190.047 174.725 189.712 174.651C189.374 174.584 189.049 174.465 188.748 174.298C188.461 174.1 188.21 173.855 188.006 173.573C187.803 173.283 187.664 172.953 187.598 172.606C187.523 172.263 187.523 171.908 187.598 171.565C187.678 171.233 187.803 170.914 187.969 170.616C188.167 170.335 188.411 170.09 188.692 169.891C188.975 169.686 189.296 169.54 189.637 169.464C195.959 168.051 201.744 163.18 203.134 158.086C203.299 157.445 203.687 156.884 204.228 156.505Z" fill="#242424"/>
<path d="M240.064 193.057C239.932 193.102 239.789 193.102 239.657 193.057C239.536 192.976 239.445 192.859 239.397 192.722C239.049 191.799 238.394 191.024 237.543 190.528C236.681 190.047 235.682 189.87 234.708 190.025C233.733 190.18 232.838 190.659 232.167 191.384C231.5 192.121 231.107 193.067 231.054 194.061C231.064 194.147 231.064 194.235 231.054 194.321C231.018 194.405 230.975 194.486 230.925 194.563C230.864 194.617 230.795 194.661 230.721 194.693C230.634 194.702 230.547 194.702 230.461 194.693H230.22C230.138 194.665 230.062 194.621 229.998 194.563C229.946 194.49 229.908 194.408 229.886 194.321C229.859 194.236 229.859 194.145 229.886 194.061C229.922 192.774 230.4 191.539 231.24 190.565C232.099 189.599 233.253 188.945 234.521 188.706C235.802 188.501 237.113 188.751 238.229 189.413C239.337 190.073 240.183 191.098 240.621 192.313C240.652 192.387 240.668 192.466 240.668 192.546C240.668 192.625 240.652 192.704 240.621 192.778C240.547 192.913 240.429 193.018 240.287 193.075L240.064 193.057Z" fill="#BFBFBF"/>
<path d="M176.437 168.33C179.311 189.729 173.601 204.528 164.572 205.959C155.544 207.391 144.754 182.906 141.361 161.599C137.486 137.207 148.777 125.327 157.657 122.427C166.537 119.526 173.174 144.03 176.437 168.33Z" fill="#242424"/>
<path d="M147.775 213.545C154.209 226.559 169.392 232.509 179.181 229.125C188.97 225.741 179.385 184.969 160.475 185.137C144.717 185.267 141.75 201.293 147.775 213.545Z" fill="#DDDDDD"/>
<path d="M158.863 210.682C160.828 216.371 168.373 219.978 172.989 217.338C174.843 216.352 167.428 196.701 164.35 197.277C159.159 198.337 156.897 205.03 158.863 210.682Z" fill="#BFBFBF"/>
<path d="M246.071 169.185C245.948 168.571 245.948 167.939 246.071 167.326C246.164 166.713 246.365 166.121 246.664 165.578C247.031 164.993 247.518 164.493 248.091 164.109C248.831 163.527 249.716 163.161 250.65 163.05C251.116 162.966 251.593 162.966 252.059 163.05C252.597 163.126 253.107 163.337 253.542 163.663C254 164.019 254.368 164.478 254.617 165.002C254.8 165.357 254.961 165.724 255.099 166.099C255.219 166.579 255.281 167.072 255.285 167.567C255.368 168.184 255.368 168.81 255.285 169.427C255.172 170.463 254.684 171.423 253.913 172.122C253.219 172.721 252.402 173.158 251.521 173.405C250.564 173.758 249.512 173.758 248.555 173.405C248.186 173.238 247.853 172.999 247.577 172.702C247.3 172.405 247.084 172.057 246.942 171.676C246.544 170.888 246.251 170.05 246.071 169.185Z" fill="#242424"/>
<path d="M251.985 167.474C250.428 167.976 249.927 165.931 251.484 165.448C253.042 164.965 253.561 166.991 251.985 167.474Z" fill="white"/>
<path d="M201.465 178.797C201.367 178.181 201.367 177.554 201.465 176.938C201.538 176.282 201.747 175.649 202.077 175.079C202.426 174.47 202.908 173.949 203.486 173.554C204.212 172.94 205.101 172.553 206.044 172.439C206.506 172.374 206.974 172.374 207.435 172.439C207.972 172.527 208.481 172.744 208.918 173.071C209.378 173.434 209.741 173.907 209.975 174.446C210.17 174.809 210.331 175.188 210.457 175.581C210.588 176.072 210.657 176.578 210.661 177.086C210.727 177.704 210.727 178.328 210.661 178.946C210.545 179.997 210.058 180.973 209.289 181.697C208.599 182.299 207.79 182.749 206.916 183.017C205.958 183.37 204.907 183.37 203.949 183.017C203.571 182.83 203.234 182.569 202.957 182.25C202.68 181.931 202.469 181.56 202.337 181.158C202.017 180.341 201.781 179.494 201.632 178.63L201.465 178.797Z" fill="#242424"/>
<path d="M207.38 176.956C205.822 177.458 205.322 175.339 206.879 174.837C208.436 174.335 208.937 176.454 207.38 176.956Z" fill="white"/>
<path d="M1.39064 361.926H480.628C481.019 361.866 481.375 361.669 481.633 361.369C481.89 361.068 482.032 360.686 482.032 360.29C482.032 359.894 481.89 359.511 481.633 359.211C481.375 358.91 481.019 358.713 480.628 358.654H1.39064C1.00022 358.713 0.643904 358.91 0.386407 359.211C0.12891 359.511 -0.0126953 359.894 -0.0126953 360.29C-0.0126953 360.686 0.12891 361.068 0.386407 361.369C0.643904 361.669 1.00022 361.866 1.39064 361.926Z" fill="black"/>
<path d="M225.418 214.214C225.208 214.221 225.003 214.148 224.844 214.01C224.762 213.93 224.697 213.835 224.652 213.729C224.608 213.624 224.585 213.51 224.585 213.396C224.585 213.282 224.608 213.168 224.652 213.063C224.697 212.958 224.762 212.862 224.844 212.783L224.955 212.671C227.903 209.083 236.449 201.516 252.096 207.986C252.28 208.092 252.418 208.262 252.486 208.463C252.553 208.665 252.545 208.884 252.464 209.08C252.382 209.276 252.232 209.435 252.041 209.528C251.851 209.621 251.633 209.641 251.429 209.585C236.857 203.505 228.996 210.477 226.29 213.768L226.16 213.935C226.065 214.035 225.949 214.112 225.821 214.16C225.693 214.208 225.555 214.227 225.418 214.214Z" fill="#292929"/>
<path d="M418.336 358.282C424.113 358.215 429.74 356.431 434.506 353.156C439.272 349.881 442.961 345.262 445.108 339.883C447.255 334.504 447.763 328.608 446.567 322.94C445.371 317.272 442.525 312.087 438.389 308.041C434.254 303.995 429.015 301.271 423.335 300.212C417.655 299.154 411.789 299.809 406.481 302.094C401.172 304.38 396.659 308.194 393.512 313.052C390.365 317.911 388.727 323.597 388.803 329.39C388.901 337.148 392.067 344.55 397.605 349.968C403.143 355.385 410.6 358.376 418.336 358.282Z" fill="#292929"/>
<path d="M401.745 351.105L397.907 348.465L396.906 349.934L393.05 355.511C392.71 356.026 392.577 356.65 392.679 357.259C392.734 357.566 392.85 357.858 393.018 358.12C393.187 358.381 393.405 358.607 393.661 358.784C393.911 358.962 394.195 359.086 394.494 359.15C394.794 359.214 395.104 359.216 395.404 359.155C395.707 359.099 395.996 358.984 396.254 358.814C396.512 358.645 396.733 358.426 396.906 358.17L399.613 354.21L401.745 351.105Z" fill="#292929"/>
<path d="M434.15 351.049L437.858 348.354L438.6 349.413L442.808 355.363C443.151 355.879 443.284 356.507 443.181 357.119C443.077 357.73 442.745 358.279 442.252 358.653C441.996 358.822 441.714 358.948 441.418 359.025C441.112 359.09 440.796 359.09 440.491 359.025C440.188 358.989 439.897 358.887 439.638 358.727C439.378 358.566 439.157 358.351 438.989 358.096L436.134 354.024L434.15 351.049Z" fill="#292929"/>
<path d="M421.192 304.459L421.099 294.438C421.099 294.309 421.073 294.182 421.024 294.063C420.974 293.945 420.902 293.837 420.81 293.747C420.719 293.657 420.61 293.587 420.491 293.539C420.372 293.492 420.245 293.468 420.116 293.471H417.855C417.596 293.476 417.348 293.581 417.165 293.765C416.982 293.949 416.877 294.196 416.872 294.456V304.477C416.877 304.735 416.983 304.981 417.166 305.162C417.35 305.343 417.597 305.444 417.855 305.444H420.116C420.254 305.46 420.393 305.446 420.524 305.404C420.656 305.361 420.776 305.291 420.878 305.197C420.98 305.104 421.061 304.99 421.115 304.862C421.169 304.735 421.195 304.597 421.192 304.459Z" fill="#292929"/>
<path d="M406.304 299.532C399.486 303.981 393.458 309.542 388.47 315.985C392.167 314.102 395.525 311.614 398.407 308.623C405.47 301.874 406.304 299.532 406.304 299.532Z" fill="#292929"/>
<path d="M389.008 297.747L387.859 298.9C387.729 299.035 387.657 299.214 387.657 299.402C387.657 299.589 387.729 299.769 387.859 299.904L400.02 312.193C400.152 312.321 400.328 312.393 400.512 312.393C400.695 312.393 400.871 312.321 401.003 312.193L402.171 311.059C402.237 310.993 402.289 310.915 402.325 310.829C402.361 310.742 402.38 310.65 402.38 310.557C402.38 310.463 402.361 310.371 402.325 310.285C402.289 310.198 402.237 310.12 402.171 310.055L390.028 297.784C389.964 297.712 389.887 297.654 389.801 297.614C389.715 297.573 389.621 297.55 389.526 297.546C389.43 297.543 389.335 297.559 389.246 297.593C389.157 297.628 389.076 297.68 389.008 297.747Z" fill="#A8A8A8"/>
<path d="M388.489 316.06C387.523 314.988 386.781 313.733 386.307 312.369C385.833 311.005 385.635 309.559 385.727 308.118C385.818 306.676 386.197 305.267 386.84 303.975C387.483 302.682 388.378 301.532 389.472 300.591C399.446 291.035 406.305 299.625 406.305 299.625C399.486 304.08 393.458 309.648 388.47 316.097L388.489 316.06Z" fill="#EAEAEA"/>
<path d="M393.03 298.695C396.182 297.394 397.609 298.323 398.592 299.141L396.386 301L393.03 298.695Z" fill="white"/>
<path d="M397.684 302.042L399.093 303.232L401.651 301.205L400.353 300.015L397.684 302.042Z" fill="white"/>
<path d="M432.723 299.123C439.365 304.075 445.147 310.093 449.834 316.933C446.203 314.805 442.946 312.091 440.194 308.902C433.39 301.558 432.723 299.123 432.723 299.123Z" fill="#292929"/>
<path d="M436.171 311.096L437.284 312.341C437.349 312.408 437.427 312.46 437.513 312.496C437.599 312.532 437.691 312.551 437.784 312.551C437.877 312.551 437.97 312.532 438.055 312.496C438.141 312.46 438.219 312.408 438.285 312.341L451.373 300.573C451.439 300.509 451.491 300.432 451.527 300.348C451.562 300.263 451.581 300.172 451.581 300.08C451.581 299.988 451.562 299.897 451.527 299.813C451.491 299.728 451.439 299.652 451.373 299.588L450.261 298.342C450.197 298.276 450.121 298.224 450.036 298.188C449.952 298.152 449.861 298.134 449.77 298.134C449.678 298.134 449.588 298.152 449.503 298.188C449.419 298.224 449.342 298.276 449.279 298.342L436.19 310.092C436.123 310.156 436.069 310.234 436.031 310.319C435.994 310.405 435.974 310.497 435.972 310.59C435.97 310.683 435.987 310.776 436.021 310.863C436.055 310.95 436.106 311.029 436.171 311.096Z" fill="#A8A8A8"/>
<path d="M449.797 316.933C450.847 315.906 451.682 314.679 452.251 313.324C452.821 311.968 453.115 310.512 453.115 309.041C453.115 307.57 452.821 306.114 452.251 304.759C451.682 303.404 450.847 302.176 449.797 301.149C440.194 290.793 432.741 299.123 432.741 299.123C439.388 304.07 445.17 310.088 449.853 316.933H449.797Z" fill="#EAEAEA"/>
<path d="M451.003 304.793C452.449 307.917 451.578 309.385 450.799 310.482L448.945 308.344L451.003 304.793Z" fill="white"/>
<path d="M447.888 309.608L446.738 311.059L448.852 313.568L449.964 312.211L447.888 309.608Z" fill="white"/>
<path d="M403.395 350.529L399.538 347.852L398.519 349.339L394.681 354.916C394.504 355.173 394.384 355.465 394.329 355.772C394.223 356.373 394.335 356.993 394.644 357.519C394.82 357.767 395.033 357.986 395.274 358.17C395.535 358.342 395.824 358.468 396.127 358.542C396.427 358.597 396.735 358.597 397.036 358.542C397.334 358.469 397.621 358.357 397.888 358.207C398.144 358.034 398.365 357.813 398.537 357.556L401.225 353.615L403.395 350.529Z" fill="#A8A8A8"/>
<path d="M401.225 353.689L403.394 350.529L399.52 347.852L398.519 349.357L401.225 353.689Z" fill="#292929"/>
<path d="M435.671 350.455L439.509 347.74L440.232 348.837L444.44 354.768C444.628 355.035 444.761 355.337 444.831 355.656C444.901 355.976 444.907 356.306 444.848 356.627C444.792 356.925 444.679 357.209 444.514 357.464C444.359 357.733 444.143 357.962 443.884 358.133C443.636 358.317 443.354 358.447 443.054 358.518C442.755 358.588 442.444 358.596 442.141 358.542C441.836 358.491 441.545 358.379 441.284 358.213C441.022 358.047 440.797 357.83 440.621 357.575L437.766 353.541L435.671 350.455Z" fill="#A8A8A8"/>
<path d="M437.859 353.448L435.671 350.455L439.509 347.74L440.25 348.837L437.859 353.448Z" fill="#292929"/>
<path d="M419.634 357.11C425.409 357.036 431.033 355.246 435.793 351.967C440.554 348.688 444.238 344.066 446.379 338.687C448.52 333.307 449.023 327.412 447.823 321.746C446.623 316.081 443.774 310.899 439.637 306.858C435.5 302.816 430.261 300.095 424.582 299.039C418.903 297.984 413.04 298.641 407.733 300.927C402.427 303.214 397.916 307.027 394.771 311.885C391.625 316.743 389.988 322.427 390.064 328.219C390.11 332.064 390.912 335.863 392.423 339.397C393.935 342.931 396.127 346.132 398.874 348.815C401.62 351.499 404.868 353.613 408.43 355.036C411.992 356.46 415.8 357.165 419.634 357.11Z" fill="#A8A8A8"/>
<path d="M419.56 352.035C424.324 351.968 428.961 350.487 432.886 347.779C436.811 345.071 439.847 341.257 441.612 336.819C443.376 332.381 443.79 327.519 442.8 322.845C441.81 318.172 439.461 313.897 436.049 310.562C432.638 307.227 428.318 304.98 423.634 304.106C418.95 303.232 414.113 303.77 409.734 305.651C405.355 307.533 401.63 310.674 399.03 314.677C396.43 318.681 395.071 323.367 395.126 328.144C395.162 331.323 395.823 334.463 397.071 337.386C398.32 340.308 400.131 342.954 402.4 345.173C404.67 347.393 407.354 349.141 410.299 350.318C413.243 351.496 416.391 352.079 419.56 352.035Z" fill="white"/>
<path d="M415.908 346.587V346.104L416.353 346.197V346.643L415.908 346.587ZM412.404 345.583L411.978 345.416L412.163 344.988L412.571 345.156L412.404 345.583ZM420.042 346.866V346.401H420.469V346.848L420.042 346.866ZM408.77 343.687L408.381 343.408L408.659 343.036L409.03 343.297L408.77 343.687ZM424.121 346.253L423.973 345.825L424.399 345.695L424.529 346.141L424.121 346.253ZM405.582 341.047L405.267 340.694L405.619 340.378C405.707 340.498 405.806 340.61 405.915 340.712L405.582 341.047ZM427.921 344.765L427.718 344.375L428.088 344.152L428.311 344.561L427.921 344.765ZM403.023 337.756L402.782 337.347L403.19 337.124C403.257 337.258 403.332 337.389 403.413 337.515L403.023 337.756ZM431.333 342.516L431.017 342.163L431.351 341.884L431.666 342.218L431.333 342.516ZM401.262 334.019C401.262 333.871 401.151 333.722 401.114 333.573L401.559 333.443C401.611 333.583 401.654 333.726 401.689 333.871L401.262 334.019ZM434.188 339.597L433.835 339.299L434.095 338.965L434.466 339.225L434.188 339.597ZM400.446 330.022V329.557H400.91V330.022H400.446ZM436.487 336.064L436.079 335.841L436.264 335.432L436.672 335.637C436.672 335.804 436.542 335.934 436.487 336.083V336.064ZM400.409 325.858C400.401 325.703 400.401 325.548 400.409 325.393H400.873C400.899 325.534 400.899 325.679 400.873 325.82L400.409 325.858ZM437.488 332.049C437.488 331.9 437.488 331.751 437.488 331.621H437.951C437.934 331.78 437.897 331.936 437.84 332.086L437.488 332.049ZM401.781 321.972L401.336 321.823C401.336 321.674 401.336 321.526 401.485 321.358L401.911 321.526C401.911 321.712 401.818 321.842 401.781 321.991V321.972ZM437.97 328.051V327.549H438.415V328.07L437.97 328.051ZM403.394 318.272L402.986 318.049L403.246 317.659L403.635 317.9L403.394 318.272ZM437.562 323.98V323.534L438.007 323.422C438.013 323.577 438.051 323.729 438.118 323.868L437.562 323.98ZM405.804 315.037L405.452 314.721L405.767 314.405L406.119 314.721L405.804 315.037ZM436.338 320.15C436.291 320.01 436.235 319.874 436.171 319.741L436.561 319.536C436.64 319.673 436.708 319.816 436.765 319.964L436.338 320.15ZM408.659 312.341L408.381 311.951L408.77 311.709L409.03 312.1L408.659 312.341ZM434.206 316.599L433.947 316.246L434.299 315.948C434.381 316.08 434.474 316.204 434.577 316.32L434.206 316.599ZM412.237 310.482L412.07 310.055L412.497 309.869L412.645 310.315L412.237 310.482ZM431.462 313.717L431.147 313.42L431.462 313.066L431.796 313.364L431.462 313.717ZM416.075 309.367L415.982 308.921H416.446V309.385L416.075 309.367ZM428.255 311.412L427.866 311.207L428.088 310.798L428.459 311.003L428.255 311.412ZM420.154 309.144V308.623H420.598V309.106L420.154 309.144ZM424.566 309.85H424.139V309.404L424.584 309.515L424.566 309.85Z" fill="#292929"/>
<path d="M404.006 332.123C404.901 332.112 405.773 331.834 406.511 331.326C407.249 330.817 407.82 330.101 408.151 329.267C408.483 328.432 408.56 327.518 408.373 326.64C408.186 325.762 407.744 324.959 407.102 324.333C406.459 323.708 405.647 323.287 404.766 323.125C403.885 322.963 402.976 323.067 402.154 323.423C401.332 323.779 400.634 324.372 400.149 325.127C399.663 325.881 399.412 326.763 399.426 327.661C399.446 328.861 399.939 330.004 400.797 330.84C401.655 331.677 402.809 332.138 404.006 332.123Z" fill="white"/>
<path d="M435.467 331.119C436.362 331.108 437.234 330.83 437.972 330.322C438.71 329.814 439.281 329.097 439.612 328.263C439.944 327.429 440.021 326.514 439.834 325.636C439.647 324.758 439.205 323.955 438.563 323.33C437.92 322.704 437.107 322.283 436.227 322.121C435.346 321.959 434.437 322.063 433.615 322.419C432.793 322.775 432.095 323.368 431.61 324.123C431.124 324.877 430.873 325.759 430.887 326.657C430.907 327.857 431.4 329 432.258 329.836C433.116 330.673 434.27 331.134 435.467 331.119Z" fill="white"/>
<path d="M418.429 314.889C419.32 314.877 420.188 314.602 420.922 314.096C421.657 313.59 422.226 312.878 422.556 312.048C422.887 311.218 422.965 310.309 422.78 309.435C422.596 308.561 422.157 307.761 421.519 307.137C420.881 306.513 420.073 306.093 419.198 305.93C418.322 305.766 417.417 305.867 416.598 306.219C415.779 306.571 415.083 307.158 414.597 307.907C414.111 308.656 413.858 309.533 413.869 310.426C413.873 311.021 413.995 311.608 414.228 312.154C414.46 312.701 414.798 313.196 415.222 313.61C415.646 314.025 416.148 314.352 416.698 314.571C417.248 314.79 417.837 314.898 418.429 314.889Z" fill="white"/>
<path d="M420.116 347.777C421.011 347.77 421.883 347.497 422.623 346.992C423.363 346.487 423.937 345.774 424.273 344.942C424.608 344.111 424.69 343.198 424.508 342.32C424.327 341.441 423.889 340.636 423.252 340.007C422.614 339.378 421.804 338.952 420.925 338.785C420.046 338.617 419.138 338.714 418.314 339.064C417.49 339.414 416.789 340.002 416.298 340.752C415.807 341.502 415.549 342.381 415.556 343.278C415.561 343.874 415.682 344.463 415.914 345.011C416.146 345.56 416.483 346.057 416.907 346.475C417.33 346.893 417.832 347.223 418.383 347.446C418.933 347.67 419.522 347.782 420.116 347.777Z" fill="white"/>
<path d="M423.954 293.118H413.998C413.738 293.118 413.488 293.221 413.303 293.406C413.119 293.591 413.016 293.842 413.016 294.103V296.39C413.02 296.648 413.126 296.894 413.31 297.075C413.494 297.255 413.741 297.357 413.998 297.357H423.954C424.214 297.357 424.464 297.253 424.649 297.068C424.833 296.883 424.936 296.633 424.936 296.371V294.103C424.939 293.973 424.915 293.844 424.867 293.723C424.818 293.602 424.746 293.493 424.654 293.401C424.562 293.309 424.453 293.236 424.333 293.187C424.212 293.139 424.083 293.115 423.954 293.118Z" fill="#EAEAEA"/>
<path d="M419.078 338.202L418.985 328.907L412.83 315.242L414.091 314.665L420.357 328.591V338.202H419.078Z" fill="#292929"/>
<path d="M412.181 315.465L414.888 314.535C414.995 314.489 415.086 314.411 415.148 314.312C415.23 314.225 415.282 314.115 415.296 313.996C415.314 313.879 415.314 313.76 415.296 313.643C415.256 313.527 415.186 313.424 415.092 313.345L413.016 311.746C412.926 311.687 412.825 311.649 412.719 311.635C412.615 311.617 412.508 311.617 412.404 311.635C412.347 311.645 412.294 311.667 412.246 311.699C412.198 311.731 412.157 311.773 412.126 311.821C412.034 311.89 411.968 311.988 411.94 312.1L411.31 314.61C411.291 314.733 411.291 314.858 411.31 314.981C411.365 315.089 411.434 315.189 411.514 315.279C411.601 315.363 411.711 315.421 411.829 315.446C411.942 315.493 412.069 315.493 412.181 315.446V315.465Z" fill="#292929"/>
<path d="M417.947 338.797L419.43 341.233C419.487 341.341 419.578 341.426 419.69 341.475C419.806 341.501 419.926 341.501 420.042 341.475C420.16 341.481 420.278 341.449 420.376 341.382C420.482 341.334 420.572 341.257 420.635 341.159L421.766 338.797C421.825 338.689 421.857 338.568 421.859 338.444C421.835 338.334 421.798 338.228 421.748 338.128C421.686 338.036 421.603 337.959 421.507 337.905C421.404 337.872 421.294 337.872 421.191 337.905L418.596 337.793C418.486 337.772 418.372 337.772 418.262 337.793C418.159 337.854 418.07 337.936 418.003 338.035C417.947 338.139 417.909 338.253 417.891 338.37C417.883 338.515 417.902 338.66 417.947 338.797Z" fill="#292929"/>
<path d="M419.838 330.636C420.131 330.633 420.419 330.573 420.688 330.459C420.957 330.344 421.201 330.178 421.406 329.969C421.611 329.76 421.773 329.513 421.882 329.241C421.992 328.97 422.047 328.679 422.045 328.386C422.073 328.075 422.036 327.761 421.937 327.464C421.837 327.168 421.678 326.896 421.467 326.665C421.257 326.434 421.001 326.25 420.716 326.123C420.431 325.997 420.122 325.932 419.811 325.932C419.499 325.932 419.191 325.997 418.905 326.123C418.62 326.25 418.364 326.434 418.154 326.665C417.944 326.896 417.784 327.168 417.684 327.464C417.585 327.761 417.548 328.075 417.577 328.386C417.574 328.684 417.631 328.979 417.744 329.254C417.857 329.529 418.024 329.779 418.235 329.989C418.445 330.199 418.696 330.364 418.971 330.475C419.247 330.586 419.542 330.641 419.838 330.636Z" fill="#292929"/>
<path d="M416.427 308.493H415.76V307.433H417.614V312.36H416.427V308.493Z" fill="#292929"/>
<path d="M418.225 311.43C419.263 310.538 420.376 309.683 420.357 308.846C420.357 308.474 420.19 308.251 419.838 308.251C419.486 308.251 419.3 308.53 419.3 308.976H418.188C418.183 308.75 418.214 308.524 418.281 308.307C418.369 308.099 418.488 307.904 418.633 307.731C418.806 307.579 418.999 307.454 419.208 307.359C419.629 307.261 420.066 307.261 420.487 307.359C420.686 307.417 420.87 307.518 421.025 307.656C421.185 307.792 421.312 307.964 421.395 308.158C421.476 308.353 421.52 308.561 421.525 308.772C421.436 309.3 421.234 309.803 420.934 310.246C420.633 310.689 420.24 311.061 419.782 311.338H421.636V312.267H418.244L418.225 311.43Z" fill="#292929"/>
<path d="M438.025 324.091C439.063 324.091 439.638 324.668 439.638 325.411C439.654 325.649 439.589 325.885 439.452 326.081C439.33 326.28 439.149 326.436 438.933 326.527C439.183 326.6 439.403 326.749 439.564 326.954C439.71 327.181 439.781 327.447 439.768 327.717C439.771 327.922 439.727 328.126 439.638 328.312C439.56 328.503 439.439 328.675 439.286 328.814C439.136 328.958 438.95 329.061 438.748 329.111C438.553 329.156 438.35 329.156 438.155 329.111C437.929 329.167 437.694 329.167 437.469 329.111C437.251 329.052 437.053 328.937 436.894 328.776C436.712 328.633 436.566 328.448 436.468 328.237C436.384 328.024 436.34 327.797 436.338 327.568H437.524C437.506 327.654 437.506 327.742 437.524 327.828C437.545 327.908 437.59 327.98 437.654 328.033C437.719 328.095 437.794 328.145 437.877 328.181C437.962 328.2 438.051 328.2 438.136 328.181C438.203 328.201 438.273 328.201 438.34 328.181C438.42 328.161 438.492 328.115 438.544 328.051C438.544 328.051 438.544 327.94 438.655 327.884C438.673 327.85 438.682 327.811 438.682 327.772C438.682 327.734 438.673 327.695 438.655 327.661C438.655 327.215 438.396 327.047 437.802 327.047H437.524V326.118H437.728C438.118 326.118 438.507 326.025 438.488 325.579C438.507 325.518 438.507 325.453 438.488 325.393C438.486 325.358 438.474 325.324 438.455 325.294C438.435 325.265 438.409 325.241 438.377 325.225C438.377 325.225 438.266 325.225 438.21 325.095H438.006C437.94 325.078 437.869 325.078 437.802 325.095C437.738 325.116 437.68 325.155 437.636 325.207C437.59 325.256 437.553 325.313 437.524 325.374C437.508 325.448 437.508 325.524 437.524 325.597H436.412C436.396 325.382 436.427 325.166 436.505 324.965C436.601 324.769 436.733 324.592 436.894 324.445C437.043 324.294 437.228 324.186 437.432 324.128C437.639 324.082 437.854 324.082 438.062 324.128L438.025 324.091Z" fill="#292929"/>
<path d="M400.15 328.014C400.18 328.167 400.25 328.308 400.354 328.423C400.48 328.505 400.63 328.544 400.78 328.535C401.262 328.535 401.429 328.126 401.429 327.178C401.302 327.321 401.152 327.44 400.984 327.531C400.818 327.616 400.632 327.654 400.447 327.642C400.241 327.646 400.038 327.602 399.853 327.512C399.671 327.436 399.507 327.322 399.371 327.178C399.231 327.031 399.129 326.853 399.075 326.657C399.032 326.467 399.032 326.27 399.075 326.081C399.018 325.861 399.018 325.631 399.075 325.411C399.147 325.196 399.275 325.003 399.445 324.854C399.594 324.686 399.787 324.563 400.002 324.5C400.221 324.446 400.45 324.446 400.669 324.5C402.078 324.5 402.523 325.43 402.523 326.936C402.523 328.442 402.152 329.557 400.836 329.576C400.634 329.613 400.426 329.613 400.224 329.576C400.038 329.503 399.863 329.402 399.705 329.279C399.557 329.15 399.437 328.992 399.353 328.814C399.252 328.631 399.195 328.427 399.186 328.219L400.15 328.014ZM401.299 326.044C401.318 325.958 401.318 325.869 401.299 325.783C401.275 325.699 401.23 325.623 401.17 325.56C401.104 325.498 401.029 325.448 400.947 325.411C400.903 325.393 400.856 325.383 400.808 325.383C400.76 325.383 400.713 325.393 400.669 325.411H400.409C400.33 325.443 400.26 325.495 400.205 325.56C400.145 325.623 400.1 325.699 400.076 325.783C400.058 325.869 400.058 325.958 400.076 326.044C400.05 326.128 400.05 326.219 400.076 326.304C400.092 326.391 400.138 326.47 400.205 326.527C400.267 326.598 400.353 326.644 400.447 326.657C400.526 326.675 400.608 326.675 400.688 326.657H400.947C400.947 326.657 401.095 326.657 401.132 326.49C401.17 326.322 401.244 326.36 401.281 326.304C401.299 326.263 401.309 326.219 401.309 326.174C401.309 326.129 401.299 326.084 401.281 326.044H401.299Z" fill="#292929"/>
<path d="M420.599 345.435C420.609 345.361 420.609 345.286 420.599 345.212L420.469 345.044C420.405 345 420.337 344.963 420.265 344.933H420.061C419.542 344.933 419.357 345.398 419.375 346.346C419.477 346.17 419.633 346.033 419.82 345.955C420 345.869 420.195 345.819 420.395 345.807C420.6 345.803 420.803 345.848 420.988 345.937C421.179 346.015 421.35 346.136 421.489 346.29C421.626 346.438 421.727 346.616 421.785 346.811C421.832 347.006 421.832 347.21 421.785 347.405C421.81 347.633 421.778 347.863 421.692 348.075C421.625 348.288 421.503 348.48 421.34 348.633C421.182 348.788 420.992 348.909 420.784 348.986C420.573 349.072 420.343 349.104 420.117 349.079C418.652 349.079 418.263 348.038 418.263 346.569C418.263 345.1 418.763 344.022 420.117 344.022C420.317 343.965 420.528 343.965 420.728 344.022C420.92 344.084 421.097 344.185 421.248 344.319C421.409 344.447 421.537 344.613 421.618 344.803C421.686 344.988 421.723 345.182 421.73 345.379L420.599 345.435ZM419.412 347.294C419.394 347.399 419.394 347.505 419.412 347.61C419.457 347.687 419.507 347.762 419.56 347.833C419.636 347.904 419.724 347.961 419.82 348H420.135C420.297 347.976 420.444 347.889 420.543 347.759C420.602 347.701 420.648 347.632 420.676 347.554C420.705 347.477 420.717 347.395 420.71 347.313C420.711 347.148 420.651 346.99 420.543 346.866C420.433 346.738 420.282 346.653 420.117 346.625C420.025 346.604 419.93 346.604 419.839 346.625C419.748 346.645 419.664 346.69 419.598 346.755L419.431 346.959C419.423 347.052 419.423 347.145 419.431 347.238L419.412 347.294Z" fill="#292929"/>
<path d="M443.309 327.642C443.305 324.452 442.675 321.293 441.455 318.346C439.588 313.934 436.455 310.179 432.454 307.557C428.453 304.935 423.765 303.565 418.986 303.622C415.819 303.646 412.688 304.296 409.772 305.534C406.856 306.773 404.212 308.575 401.991 310.839C399.77 313.102 398.016 315.783 396.828 318.726C395.641 321.67 395.043 324.82 395.07 327.996C395.07 327.996 396.924 305.425 419.171 305.239C440.324 305.053 443.309 327.642 443.309 327.642Z" fill="#292929"/>
<path d="M452.023 318.365C452.005 318.304 452.005 318.24 452.023 318.179C452.031 318.148 452.048 318.12 452.071 318.097C452.093 318.074 452.122 318.058 452.153 318.049C453.975 316.749 455.235 314.801 455.675 312.602C456.496 309.856 456.203 306.896 454.859 304.366V304.254C454.892 304.24 454.926 304.233 454.961 304.233C454.996 304.233 455.031 304.24 455.063 304.254C455.115 304.272 455.16 304.304 455.193 304.347C455.888 305.654 456.32 307.085 456.463 308.558C456.606 310.032 456.458 311.52 456.027 312.936C455.565 315.255 454.239 317.309 452.32 318.681L452.023 318.365Z" fill="#292929"/>
<path d="M455.341 316.729H455.229V316.636V316.469V316.376C455.883 315.63 456.376 314.756 456.675 313.81C457.486 311.737 457.736 309.486 457.398 307.284V307.173H457.584C457.594 307.196 457.599 307.222 457.599 307.247C457.599 307.273 457.594 307.298 457.584 307.322C457.937 309.613 457.695 311.957 456.879 314.126C456.554 315.158 456.003 316.105 455.266 316.896H455.1L455.341 316.729Z" fill="#292929"/>
<path d="M394.421 293.75H394.328C394.318 293.713 394.318 293.675 394.328 293.638C396.239 292.739 398.364 292.399 400.459 292.655C402.554 292.912 404.535 293.755 406.175 295.088C406.175 295.088 406.175 295.088 406.175 295.181V295.293H406.008C403.795 293.521 400.986 292.675 398.166 292.932C396.956 293.045 395.776 293.372 394.68 293.898L394.421 293.75Z" fill="#292929"/>
<path d="M430.628 299.327C429.231 298.751 427.777 298.327 426.29 298.063C426.284 298.032 426.284 298.001 426.29 297.97V297.858C426.31 297.803 426.349 297.757 426.401 297.728C426.455 297.708 426.514 297.708 426.568 297.728C428.099 297.99 429.598 298.42 431.036 299.011V299.197H430.924C430.924 299.197 430.924 299.197 430.795 299.197L430.628 299.327Z" fill="#292929"/>
<path d="M45.8662 50.5695C45.8662 65.1454 65.0543 76.9512 88.7102 76.9512C94.8134 76.9734 100.89 76.1475 106.767 74.4971C109.029 77.5833 114.016 79.7027 119.745 79.7027C127.68 79.7027 134.094 75.7241 134.094 70.8345C134.094 67.4322 130.998 64.4575 126.456 62.9702C129.641 59.6144 131.482 55.2 131.628 50.5695C131.628 36.0121 112.366 24.1692 88.7102 24.1692C65.0543 24.1692 45.8662 36.0121 45.8662 50.5695Z" fill="#A8A8A8"/>
<path d="M140.508 82.9006C140.508 81.0414 137.524 79.7214 133.853 79.7214C130.182 79.7214 127.179 81.1344 127.179 82.9006C127.179 84.6668 130.164 86.0984 133.853 86.0984C137.542 86.0984 140.508 84.6668 140.508 82.9006Z" fill="#A8A8A8"/>
<path d="M89.322 34.2831C88.5404 34.2985 87.7704 34.4757 87.0603 34.8036C86.3684 35.1043 85.7394 35.5332 85.2063 36.0679C84.7134 36.5736 84.3175 37.166 84.0384 37.8155C83.7736 38.3989 83.6407 39.0338 83.6491 39.6747C83.6476 40.0577 83.7232 40.4372 83.8715 40.7902C83.9892 41.0199 84.1534 41.2225 84.3535 41.3851C84.5073 41.5135 84.6933 41.5971 84.8912 41.6268C85.014 41.6463 85.1391 41.6463 85.262 41.6268C85.5817 41.6235 85.8973 41.5539 86.1889 41.4223C86.4142 41.3037 86.6256 41.1602 86.8193 40.9947L87.3384 40.5671C87.5177 40.4421 87.7318 40.3771 87.9501 40.3812C88.3768 40.3661 88.7936 40.5121 89.1181 40.7902C89.306 40.9841 89.4568 41.211 89.5631 41.4595C89.6947 41.7909 89.7638 42.1439 89.767 42.5006C89.7893 42.9759 89.6734 43.4474 89.4333 43.8578C89.189 44.2688 88.868 44.6286 88.4878 44.9176C88.0838 45.2192 87.6327 45.4516 87.153 45.6055C86.691 45.7565 86.2108 45.8441 85.7254 45.8657C85.0952 45.8963 84.4651 45.8015 83.8715 45.5869C83.2684 45.3564 82.7238 44.9945 82.2772 44.5271C81.3241 43.4056 80.8276 41.9651 80.8867 40.4927C80.8208 39.2066 81.0891 37.9253 81.6654 36.7744C82.2178 35.7228 83.0044 34.813 83.9642 34.1157C84.9604 33.3699 86.0855 32.8153 87.2827 32.4797C88.5552 32.1085 89.8698 31.9023 91.1945 31.8661C92.6544 31.8291 94.1112 32.0172 95.5141 32.4239C96.7488 32.7783 97.9103 33.3513 98.9439 34.1157C99.8976 34.8575 100.682 35.7958 101.243 36.8673C101.814 37.9785 102.124 39.2057 102.151 40.4555C102.191 41.7248 101.977 42.9893 101.521 44.1739C101.046 45.2369 100.422 46.2262 99.6669 47.1114C98.9297 47.9808 98.1237 48.7891 97.2568 49.5283C96.3916 50.2596 95.5574 51.0033 94.754 51.7593C93.976 52.5631 93.2861 53.4481 92.6962 54.3994C92.0833 55.2648 91.6889 56.2664 91.5467 57.3183H89.6928C89.6683 56.3662 89.7743 55.4154 90.008 54.4923C90.2322 53.6265 90.5109 52.7758 90.8423 51.9452C91.213 51.1272 91.6024 50.2906 92.0288 49.4725C92.4552 48.6545 92.8445 47.7621 93.1967 46.8697C93.5598 45.9327 93.8511 44.9694 94.0681 43.988C94.3137 42.8716 94.4134 41.7279 94.3647 40.5857C94.3503 39.701 94.2321 38.8212 94.0125 37.9642C93.8426 37.2331 93.5273 36.5438 93.0855 35.9377C92.6822 35.3902 92.1462 34.9551 91.5282 34.6735C90.8381 34.3782 90.0899 34.2446 89.3406 34.2831H89.322ZM87.1344 64.9223C87.1135 64.3696 87.2082 63.8186 87.4125 63.3048C87.6029 62.8038 87.8859 62.3433 88.2468 61.9476C88.6113 61.5648 89.0455 61.2556 89.526 61.0366C90.0309 60.796 90.5801 60.6631 91.1389 60.6462C91.6919 60.6234 92.243 60.725 92.7518 60.9436C93.2467 61.1414 93.6997 61.4316 94.0866 61.7989C94.4734 62.157 94.788 62.5861 95.0136 63.0631C95.2391 63.5736 95.3649 64.1226 95.3844 64.6806C95.4037 65.2332 95.309 65.7839 95.1063 66.2981C94.7056 67.2874 93.9428 68.0855 92.9743 68.5291C91.9413 68.9567 90.7814 68.9567 89.7484 68.5291C88.7716 68.1481 87.9806 67.4015 87.5423 66.4468C87.3054 65.945 87.1669 65.4022 87.1344 64.8479V64.9223Z" fill="white"/>
<path d="M110.123 213.173V213.34C110.023 214.631 109.424 215.832 108.454 216.687C108 217.085 107.47 217.389 106.897 217.579C106.302 217.785 105.671 217.867 105.043 217.821C103.752 217.72 102.552 217.112 101.706 216.129C101.296 215.669 100.981 215.132 100.779 214.549C100.558 213.946 100.465 213.304 100.506 212.664C100.548 212.023 100.723 211.399 101.02 210.83C101.319 210.253 101.721 209.736 102.206 209.306C102.679 208.912 103.219 208.61 103.801 208.413C104.396 208.209 105.027 208.127 105.655 208.172C106.301 208.206 106.933 208.377 107.509 208.674C108.082 208.961 108.592 209.359 109.01 209.845C109.396 210.32 109.692 210.862 109.882 211.444C110.062 211.976 110.144 212.537 110.123 213.099V213.173ZM101.261 212.857C101.227 213.361 101.297 213.867 101.465 214.344C101.642 214.843 101.913 215.304 102.262 215.701C102.996 216.541 104.026 217.061 105.136 217.152C105.657 217.186 106.18 217.116 106.674 216.947C107.163 216.778 107.615 216.52 108.009 216.185C108.85 215.452 109.369 214.417 109.455 213.303C109.496 212.769 109.433 212.233 109.27 211.723C109.102 211.227 108.844 210.767 108.51 210.366C108.158 209.94 107.723 209.591 107.231 209.343C106.502 208.98 105.684 208.839 104.876 208.938C104.069 209.037 103.308 209.372 102.688 209.901C102.274 210.266 101.934 210.708 101.687 211.202C101.447 211.697 101.302 212.233 101.261 212.782V212.857ZM98.8694 208.767L97.6644 211.202L97.3492 211.053C96.3979 210.555 95.5185 209.93 94.7352 209.194C94.0103 208.533 93.3291 207.825 92.6959 207.075C92.0841 206.313 91.4908 205.495 90.842 204.658C90.2686 203.825 89.6497 203.024 88.988 202.26C88.2958 201.438 87.5395 200.674 86.7263 199.973C85.8102 199.234 84.8079 198.61 83.7415 198.114C82.9171 197.69 82.0459 197.366 81.146 197.147C80.413 196.961 79.6504 196.923 78.9027 197.035C78.2312 197.131 77.594 197.393 77.0488 197.798C76.4467 198.3 75.9705 198.936 75.6584 199.657C75.2949 200.361 75.0803 201.133 75.028 201.925C74.9743 202.678 75.0624 203.435 75.2876 204.156C75.5146 204.828 75.8531 205.456 76.2887 206.015C76.7132 206.534 77.2362 206.964 77.8275 207.279C78.1432 207.451 78.4898 207.558 78.8471 207.595C79.07 207.597 79.291 207.553 79.496 207.465C79.6469 207.396 79.7848 207.302 79.9038 207.186L80.0892 206.907C80.2345 206.652 80.3171 206.365 80.3303 206.071C80.3487 205.823 80.3487 205.575 80.3303 205.327L80.2746 204.509C80.2236 204.211 80.2691 203.905 80.4044 203.635C80.5188 203.408 80.669 203.201 80.8493 203.022C81.063 202.85 81.3089 202.724 81.5724 202.65C81.8998 202.537 82.2481 202.499 82.592 202.538C83.0087 202.58 83.4126 202.706 83.7785 202.91C84.3028 203.153 84.7421 203.548 85.0392 204.044C85.3299 204.521 85.5193 205.053 85.5954 205.606C85.6974 206.178 85.6974 206.763 85.5954 207.335C85.5039 207.891 85.3289 208.43 85.0763 208.934C84.7821 209.645 84.3322 210.28 83.76 210.793C83.2232 211.278 82.5919 211.645 81.9061 211.871C80.2786 212.218 78.5806 211.947 77.1415 211.109C75.7935 210.471 74.6458 209.474 73.823 208.228C73.0612 207.118 72.5721 205.844 72.3955 204.509C72.194 203.142 72.2443 201.749 72.5438 200.4C72.8498 198.975 73.3357 197.594 73.9899 196.292C74.697 194.85 75.6226 193.526 76.7336 192.369C77.7181 191.33 78.8876 190.485 80.1819 189.877C81.4114 189.322 82.7452 189.037 84.0937 189.041C85.4874 189.065 86.8571 189.408 88.0982 190.045C89.402 190.667 90.5585 191.561 91.4908 192.666C92.2672 193.659 92.892 194.761 93.3447 195.938C93.8037 197.102 94.1634 198.302 94.42 199.527C94.661 200.716 94.9577 201.888 95.2728 203.04C95.5721 204.136 95.9757 205.201 96.4779 206.22C96.9714 207.193 97.6896 208.035 98.5728 208.674L98.8694 208.767ZM97.3863 210.291L98.0352 208.971C97.1747 208.258 96.4735 207.371 95.9773 206.368C95.4566 205.306 95.0346 204.199 94.7166 203.059C94.4015 201.906 94.1049 200.716 93.8638 199.508C93.6223 198.326 93.2748 197.169 92.8256 196.05C92.3682 194.921 91.7432 193.868 90.9717 192.926C90.0996 191.898 89.0188 191.068 87.8015 190.491C86.6542 189.897 85.3848 189.579 84.0937 189.561C82.8155 189.545 81.5496 189.812 80.3859 190.342C79.1611 190.91 78.0541 191.705 77.123 192.685C76.0623 193.783 75.1746 195.037 74.4904 196.403C73.877 197.663 73.4164 198.993 73.1185 200.363C72.8467 201.64 72.7966 202.955 72.9702 204.249C73.1613 205.467 73.617 206.629 74.305 207.651C75.069 208.742 76.1044 209.614 77.3084 210.18C78.6041 210.926 80.1251 211.176 81.5909 210.886C82.2527 210.755 82.8787 210.482 83.4263 210.087C83.9174 209.652 84.304 209.112 84.5572 208.506C84.7776 208.06 84.9337 207.584 85.0207 207.093C85.1043 206.601 85.1043 206.098 85.0207 205.606C84.959 205.139 84.8012 204.689 84.5572 204.286C84.3305 203.893 83.987 203.581 83.5746 203.394C83.283 203.231 82.9612 203.13 82.6291 203.096C82.3913 203.041 82.1439 203.041 81.9061 203.096C81.5494 203.218 81.2516 203.471 81.0718 203.803C80.9954 203.952 80.9632 204.119 80.9791 204.286C80.9791 204.509 80.9791 204.751 81.1089 204.993C81.2387 205.234 81.1089 205.569 81.1089 205.866C81.0872 206.263 80.9797 206.65 80.7937 207C80.7183 207.152 80.618 207.291 80.4971 207.409C80.3277 207.605 80.1193 207.764 79.8853 207.874C79.5801 208.002 79.2519 208.065 78.9213 208.06C78.4654 208.027 78.0223 207.894 77.6235 207.67C76.902 207.337 76.2674 206.84 75.7696 206.22C75.2703 205.596 74.893 204.883 74.6573 204.119C74.4108 203.319 74.3103 202.481 74.3606 201.646C74.42 200.76 74.6531 199.894 75.0466 199.099C75.4205 198.312 75.9729 197.625 76.6595 197.091C77.2865 196.611 78.0278 196.303 78.81 196.199C79.645 196.084 80.4942 196.128 81.3128 196.329C82.2574 196.563 83.1719 196.907 84.0381 197.351C85.169 197.907 86.2275 198.6 87.1897 199.415C88.0171 200.139 88.7915 200.922 89.5071 201.758C90.1931 202.557 90.8234 203.394 91.3611 204.212C91.8987 205.03 92.5105 205.829 93.1037 206.573C93.7099 207.329 94.3664 208.044 95.0689 208.711C95.7141 209.314 96.4375 209.827 97.2194 210.235L97.3863 210.291Z" fill="#292929"/>
<path d="M79.0695 127.242C78.6877 127.596 78.3846 128.027 78.1796 128.506C77.9803 128.953 77.8611 129.431 77.8274 129.919C77.7991 130.384 77.8556 130.85 77.9942 131.295C78.1276 131.719 78.3559 132.107 78.6616 132.429C78.8274 132.616 79.0292 132.768 79.2549 132.875C79.4135 132.912 79.5783 132.912 79.7369 132.875C79.8661 132.86 79.9917 132.823 80.1077 132.764L80.3302 132.634C80.4828 132.483 80.6083 132.307 80.7009 132.113C80.7636 131.958 80.8072 131.795 80.8307 131.63V131.221C80.863 131.076 80.941 130.945 81.0532 130.849C81.1414 130.757 81.2492 130.687 81.3684 130.644C81.5146 130.609 81.6671 130.609 81.8133 130.644C81.9889 130.641 82.1619 130.686 82.3139 130.774C82.5247 130.88 82.7134 131.025 82.87 131.202C83.123 131.414 83.315 131.69 83.4262 132.001C83.4913 132.308 83.4913 132.625 83.4262 132.931C83.3677 133.26 83.2482 133.576 83.074 133.861C82.9071 134.142 82.7011 134.399 82.4622 134.623C82.1577 134.928 81.7908 135.162 81.3869 135.311C80.9903 135.458 80.5661 135.515 80.1448 135.478C79.178 135.354 78.2989 134.853 77.6976 134.084C77.082 133.519 76.6277 132.801 76.3813 132.001C76.1958 131.238 76.1958 130.441 76.3813 129.677C76.5521 128.869 76.8728 128.099 77.3268 127.409C77.8016 126.671 78.3686 125.996 79.0139 125.401C79.7125 124.732 80.5137 124.18 81.3869 123.765C82.1545 123.396 82.9848 123.175 83.8341 123.115C84.6449 123.055 85.4585 123.182 86.2133 123.485C86.9682 123.787 87.6444 124.259 88.1908 124.862C88.7861 125.483 89.2413 126.225 89.5256 127.037C89.7629 127.765 89.9001 128.522 89.9335 129.287C89.9339 130.04 89.8782 130.792 89.7666 131.537C89.6554 132.299 89.5627 133.024 89.4885 133.768C89.4144 134.472 89.4144 135.183 89.4885 135.887C89.5628 136.591 89.8044 137.267 90.193 137.858L89.2475 138.732C88.8147 138.267 88.4524 137.741 88.1722 137.17C87.8978 136.632 87.6684 136.072 87.4863 135.497C87.3009 134.92 87.1526 134.344 87.0043 133.749C86.8549 133.119 86.6692 132.498 86.4481 131.89C86.223 131.251 85.9503 130.629 85.6324 130.031C85.2617 129.365 84.8204 128.742 84.3161 128.172C83.9175 127.743 83.4764 127.357 82.9998 127.019C82.5668 126.73 82.082 126.528 81.5723 126.424C81.1331 126.322 80.6766 126.322 80.2375 126.424C79.7853 126.59 79.3697 126.842 79.0139 127.168L79.0695 127.242ZM91.3054 143.51C90.8309 143.007 90.5657 142.342 90.5638 141.651C90.5779 141.297 90.6597 140.95 90.8048 140.628C90.9519 140.29 91.1664 139.987 91.4351 139.736C91.7023 139.487 92.018 139.297 92.3621 139.178C93.0283 138.909 93.7723 138.909 94.4385 139.178C94.7757 139.315 95.0748 139.531 95.3098 139.81C95.5667 140.074 95.7629 140.391 95.8845 140.74C96.0612 141.248 96.0851 141.798 95.9533 142.32C95.8215 142.842 95.5397 143.314 95.143 143.677C94.8843 143.918 94.5823 144.107 94.2531 144.235C93.9227 144.364 93.5689 144.421 93.2149 144.402C92.8564 144.39 92.5037 144.308 92.1767 144.16C91.8562 144.004 91.5672 143.79 91.3239 143.528L91.3054 143.51Z" fill="#A8A8A8"/>
<path d="M353.894 68.492C353.182 68.0532 352.387 67.7683 351.558 67.6554C350.773 67.516 349.97 67.516 349.185 67.6554C348.444 67.8304 347.74 68.1391 347.109 68.5664C346.526 68.9816 346.029 69.5056 345.644 70.1095C345.422 70.4519 345.276 70.839 345.218 71.2436C345.153 71.5125 345.153 71.7928 345.218 72.0617C345.282 72.2669 345.397 72.4525 345.552 72.6008C345.643 72.7083 345.749 72.8022 345.867 72.8797C346.151 73.0644 346.475 73.1791 346.812 73.2144C347.084 73.2422 347.357 73.2422 347.628 73.2144H348.351C348.586 73.1939 348.821 73.2528 349.018 73.3817C349.409 73.629 349.693 74.0135 349.816 74.46C349.871 74.7487 349.871 75.0452 349.816 75.3338C349.74 75.7046 349.595 76.0579 349.389 76.375C349.132 76.8202 348.752 77.1817 348.295 77.4161C347.841 77.6524 347.342 77.7917 346.831 77.8251C346.295 77.8691 345.755 77.8187 345.237 77.6764C344.724 77.5447 344.231 77.3446 343.772 77.0814C343.155 76.7493 342.617 76.2861 342.196 75.7242C341.786 75.1731 341.501 74.5385 341.362 73.8651C341.139 72.2972 341.517 70.703 342.419 69.403C343.097 68.1838 344.09 67.1694 345.292 66.4655C346.43 65.8237 347.697 65.4487 349 65.3686C350.338 65.2762 351.683 65.4274 352.967 65.8148C354.336 66.2228 355.65 66.7972 356.879 67.5253C358.232 68.3355 359.452 69.3515 360.494 70.5371C361.423 71.5745 362.147 72.7796 362.626 74.0882C363.072 75.2738 363.249 76.5438 363.145 77.8065C363.018 79.1245 362.593 80.3961 361.903 81.5249C361.206 82.7457 360.258 83.804 359.122 84.6297C358.105 85.3397 356.986 85.8913 355.804 86.2658C354.636 86.6331 353.439 86.9005 352.226 87.0652C351.002 87.2139 349.816 87.3999 348.648 87.6416C347.509 87.8478 346.396 88.1783 345.329 88.6269C344.274 89.0591 343.338 89.7417 342.604 90.6162L340.75 89.5193C341.249 88.6343 341.874 87.8264 342.604 87.121C343.317 86.4454 344.079 85.8239 344.884 85.2618C345.7 84.7165 346.534 84.1959 347.387 83.7001C348.268 83.1797 349.122 82.615 349.945 82.0083C350.838 81.374 351.675 80.6649 352.448 79.8888C353.302 79.0184 354.043 78.044 354.654 76.9885C355.16 76.1798 355.565 75.3119 355.859 74.4042C356.121 73.6398 356.228 72.8308 356.175 72.0245C356.123 71.2924 355.894 70.5841 355.507 69.9608C355.025 69.2781 354.39 68.7179 353.653 68.3247L353.894 68.492ZM334.169 95.0783C334.473 94.5687 334.876 94.126 335.355 93.7768C335.806 93.427 336.323 93.1738 336.875 93.0332C337.425 92.8854 337.998 92.8475 338.562 92.9216C339.16 92.9987 339.735 93.2014 340.249 93.5165C340.762 93.823 341.205 94.2348 341.547 94.725C341.887 95.1865 342.133 95.711 342.27 96.2681C342.418 96.8255 342.456 97.4066 342.381 97.9786C342.288 98.5681 342.087 99.1352 341.788 99.6518C341.404 100.298 340.862 100.835 340.213 101.212C339.564 101.589 338.83 101.795 338.08 101.808C337.208 101.827 336.348 101.601 335.596 101.158C335.093 100.861 334.653 100.47 334.298 100.005C334.021 99.5515 333.821 99.0553 333.705 98.5363C333.603 97.9645 333.603 97.3791 333.705 96.8073C333.799 96.2295 334 95.6746 334.298 95.1712L334.169 95.0783Z" fill="#A8A8A8"/>
<path d="M343.55 182.311C343.205 181.859 342.769 181.485 342.271 181.214C341.795 180.967 341.281 180.804 340.75 180.73C340.248 180.668 339.739 180.699 339.249 180.823C338.776 180.928 338.332 181.137 337.951 181.437C337.729 181.599 337.545 181.808 337.413 182.05C337.328 182.218 337.277 182.401 337.265 182.589C337.267 182.737 337.299 182.882 337.358 183.017C337.489 183.327 337.735 183.573 338.044 183.705C338.203 183.786 338.371 183.848 338.544 183.891L339.008 184.04C339.163 184.09 339.299 184.188 339.397 184.319C339.488 184.426 339.551 184.553 339.582 184.69C339.62 184.849 339.62 185.015 339.582 185.174C339.556 185.367 339.5 185.556 339.416 185.732C339.277 185.958 339.094 186.154 338.878 186.308C338.616 186.53 338.293 186.667 337.951 186.698C337.615 186.772 337.267 186.772 336.931 186.698C336.583 186.609 336.255 186.451 335.967 186.233C335.674 186.031 335.412 185.786 335.189 185.508C334.875 185.153 334.642 184.735 334.503 184.281C334.379 183.827 334.348 183.353 334.41 182.887C334.658 181.847 335.278 180.934 336.153 180.321C336.86 179.712 337.718 179.307 338.637 179.15C339.491 179.001 340.368 179.058 341.195 179.317C342.062 179.564 342.873 179.975 343.587 180.526C344.356 181.096 345.048 181.765 345.645 182.515C346.313 183.339 346.851 184.26 347.239 185.248C347.58 186.118 347.75 187.046 347.74 187.981C347.743 188.855 347.553 189.718 347.184 190.51C346.787 191.329 346.21 192.048 345.496 192.61C344.777 193.216 343.936 193.66 343.031 193.912C342.219 194.113 341.382 194.194 340.547 194.154C339.722 194.117 338.903 194.005 338.099 193.819C337.284 193.633 336.505 193.484 335.708 193.354C334.942 193.225 334.166 193.169 333.39 193.187C332.616 193.21 331.86 193.42 331.184 193.8L330.313 192.685C330.877 192.244 331.501 191.887 332.167 191.625C332.772 191.383 333.391 191.178 334.021 191.012C334.651 190.863 335.3 190.733 335.967 190.621C336.649 190.504 337.324 190.348 337.988 190.156C338.693 189.964 339.381 189.715 340.046 189.413C340.796 189.062 341.5 188.618 342.141 188.093C342.641 187.699 343.095 187.25 343.494 186.754C343.83 186.326 344.087 185.841 344.254 185.322C344.374 184.84 344.374 184.336 344.254 183.854C344.126 183.314 343.865 182.815 343.494 182.404L343.55 182.311ZM324.862 194.414C325.179 194.156 325.545 193.966 325.938 193.856C326.311 193.781 326.695 193.781 327.069 193.856C327.446 193.893 327.812 194.007 328.144 194.191C328.503 194.376 328.819 194.636 329.071 194.953C329.322 195.271 329.505 195.638 329.608 196.031C329.811 196.787 329.718 197.592 329.349 198.281C329.158 198.632 328.9 198.942 328.589 199.192C328.272 199.45 327.906 199.639 327.513 199.75C327.14 199.823 326.756 199.823 326.383 199.75C326 199.71 325.628 199.596 325.289 199.415C324.86 199.174 324.492 198.836 324.214 198.43C323.939 198.017 323.773 197.542 323.73 197.048C323.688 196.554 323.772 196.057 323.973 195.604C324.176 195.155 324.48 194.76 324.862 194.451V194.414Z" fill="#DDDDDD"/>
<path d="M161.903 20.7855C161.381 21.0045 160.908 21.327 160.513 21.7337C160.137 22.115 159.836 22.5625 159.623 23.0537C159.418 23.5237 159.305 24.0285 159.289 24.541C159.268 25.0239 159.35 25.5057 159.53 25.954C159.629 26.2118 159.781 26.446 159.975 26.6419C160.11 26.7736 160.276 26.8695 160.457 26.9207C160.598 26.9488 160.743 26.9488 160.883 26.9207C160.969 26.94 161.057 26.94 161.143 26.9207C161.361 26.844 161.558 26.7166 161.718 26.5489L162.033 26.0283L162.292 25.6193C162.367 25.4779 162.493 25.3712 162.645 25.3219C162.779 25.2625 162.924 25.2309 163.071 25.2289C163.237 25.2222 163.402 25.254 163.553 25.3219C163.738 25.3939 163.903 25.5085 164.035 25.6565C164.215 25.8426 164.354 26.0642 164.443 26.3072C164.586 26.6211 164.631 26.9711 164.573 27.3112C164.516 27.6555 164.39 27.9846 164.202 28.2779C164.006 28.5825 163.762 28.8526 163.479 29.0774C163.201 29.302 162.896 29.4895 162.57 29.6351C162.143 29.8309 161.678 29.9323 161.208 29.9323C160.738 29.9323 160.273 29.8309 159.845 29.6351C158.905 29.1246 158.196 28.2733 157.861 27.2554C157.49 26.4022 157.343 25.4675 157.435 24.541C157.528 23.6799 157.82 22.8524 158.288 22.1241C158.78 21.3589 159.409 20.6909 160.142 20.1534C160.897 19.5596 161.734 19.0775 162.626 18.7218C163.597 18.2973 164.63 18.0336 165.685 17.9409C166.619 17.8442 167.563 17.9263 168.466 18.1826C169.299 18.4387 170.065 18.8769 170.709 19.4655C171.389 20.0633 171.917 20.8155 172.248 21.6593C172.631 22.5189 172.827 23.4506 172.823 24.3923C172.81 25.2444 172.673 26.0901 172.415 26.9022C172.154 27.6826 171.819 28.4359 171.414 29.1518C171.018 29.883 170.647 30.6081 170.301 31.327C169.948 32.0121 169.656 32.7276 169.43 33.465C169.254 34.2171 169.254 34.9998 169.43 35.7518L168.132 36.2724C167.866 35.6371 167.692 34.9674 167.613 34.2831C167.567 33.6208 167.567 32.9561 167.613 32.2938C167.631 31.6334 167.693 30.975 167.798 30.323C167.872 29.6376 167.91 28.9488 167.91 28.2594C167.916 27.5254 167.867 26.7919 167.761 26.0655C167.629 25.2394 167.392 24.4335 167.057 23.6672C166.817 23.0834 166.512 22.5283 166.148 22.0125C165.837 21.573 165.447 21.1949 164.999 20.897C164.578 20.6191 164.093 20.4528 163.59 20.4136C163.042 20.3995 162.497 20.5074 161.996 20.7297L161.903 20.7855ZM168.373 42.1288C168.207 41.7421 168.131 41.3224 168.151 40.9017C168.145 40.5165 168.216 40.1339 168.359 39.7764C168.502 39.4189 168.715 39.0936 168.985 38.8195C169.264 38.5271 169.598 38.2932 169.968 38.1316C170.339 37.9827 170.736 37.9069 171.136 37.9085C171.523 37.907 171.908 37.9828 172.266 38.1316C172.99 38.4544 173.566 39.0385 173.879 39.7676C174.028 40.1401 174.103 40.5378 174.102 40.9389C174.097 41.3232 174.015 41.7026 173.861 42.0544C173.719 42.4114 173.505 42.7345 173.23 43.0026C172.948 43.2941 172.606 43.5222 172.229 43.6719C171.859 43.8267 171.463 43.9088 171.061 43.9136C170.686 43.9131 170.314 43.8373 169.968 43.6905C169.615 43.5417 169.295 43.3272 169.022 43.0584C168.737 42.7737 168.516 42.4314 168.373 42.0544V42.1288Z" fill="#DDDDDD"/>
<path d="M271.729 36.8675C271.208 36.7933 270.705 36.6231 270.246 36.3655C269.492 35.9344 268.885 35.2868 268.503 34.5063C268.123 33.7348 267.975 32.8693 268.076 32.015C268.138 31.4226 268.315 30.848 268.596 30.3232C268.87 29.8313 269.235 29.396 269.671 29.0403C270.107 28.6879 270.603 28.4171 271.135 28.2409C271.7 28.0716 272.293 28.021 272.878 28.0921C273.469 28.1514 274.043 28.3284 274.565 28.6127C275.557 29.1816 276.298 30.1043 276.642 31.197C276.812 31.7692 276.862 32.3705 276.79 32.9632C276.728 33.5497 276.551 34.1182 276.271 34.6364C275.995 35.1327 275.623 35.5688 275.177 35.9193C274.731 36.2731 274.221 36.5381 273.675 36.7001C273.109 36.8615 272.518 36.912 271.933 36.8489L271.729 36.8675ZM268.818 32.1266C268.76 32.6126 268.797 33.1054 268.929 33.5767C269.064 34.0506 269.29 34.493 269.597 34.8781C269.898 35.239 270.262 35.5415 270.672 35.7705C271.569 36.2352 272.607 36.3479 273.583 36.0866C274.044 35.939 274.477 35.7126 274.862 35.4173C275.233 35.1167 275.547 34.7514 275.789 34.339C276.028 33.8951 276.179 33.4089 276.234 32.9074C276.287 32.4128 276.237 31.9124 276.085 31.4387C275.939 30.9645 275.7 30.5244 275.381 30.1444C275.063 29.7645 274.672 29.4523 274.231 29.2262C273.8 28.9755 273.319 28.8232 272.822 28.78C272.318 28.7199 271.807 28.7642 271.321 28.9102C270.871 29.0582 270.45 29.2848 270.079 29.5795C269.713 29.8901 269.411 30.269 269.189 30.695C268.941 31.1287 268.79 31.6105 268.744 32.108L268.818 32.1266ZM271.58 25.3034V24.9687C271.676 23.9973 271.914 23.0452 272.285 22.1428C272.65 21.301 273.065 20.4815 273.527 19.6887C273.99 18.9264 274.491 18.1456 275.029 17.4019C275.566 16.6582 276.03 15.8588 276.493 15.0407C276.976 14.1846 277.385 13.289 277.717 12.3635C278.086 11.3374 278.329 10.2697 278.44 9.18433C278.533 8.34407 278.533 7.49611 278.44 6.65585C278.37 5.96448 278.162 5.2943 277.828 4.68513C277.532 4.1422 277.105 3.68208 276.586 3.34652C276.021 3.00315 275.388 2.78743 274.732 2.7144C274.01 2.62623 273.278 2.68954 272.581 2.90032C271.913 3.09609 271.285 3.41098 270.728 3.82991C270.206 4.23222 269.765 4.73073 269.43 5.29866C269.11 5.81712 268.913 6.40233 268.855 7.0091C268.782 7.32087 268.782 7.6455 268.855 7.95728C268.913 8.14579 269.015 8.31784 269.152 8.45925C269.255 8.57231 269.381 8.66118 269.522 8.71954H269.801C270.057 8.77481 270.323 8.77481 270.579 8.71954C270.798 8.63938 271.009 8.53983 271.21 8.42207L271.784 8.10601C272.039 7.9676 272.33 7.9093 272.619 7.93868C273.124 8.00158 273.588 8.25394 273.916 8.64517C274.106 8.90408 274.25 9.19323 274.343 9.50039C274.407 9.88813 274.407 10.2839 274.343 10.6717C274.285 11.207 274.079 11.7156 273.749 12.1404C273.433 12.5354 273.043 12.8639 272.6 13.1072C272.132 13.3687 271.625 13.5508 271.098 13.6464C270.59 13.7395 270.068 13.7395 269.56 13.6464C268.877 13.6129 268.21 13.4221 267.613 13.0886C267.007 12.7624 266.482 12.3051 266.074 11.75C265.233 10.4809 264.89 8.94452 265.11 7.43671C265.219 6.10056 265.679 4.81735 266.445 3.71836C267.15 2.72147 268.068 1.8956 269.133 1.30143C270.253 0.695616 271.47 0.29281 272.73 0.111557C274.053 -0.0651804 275.393 -0.0651804 276.716 0.111557C278.181 0.243372 279.615 0.61387 280.961 1.20847C282.168 1.73273 283.268 2.47653 284.206 3.4023C285.1 4.28701 285.78 5.36522 286.195 6.55434C286.609 7.74346 286.747 9.01195 286.597 10.2627C286.474 11.571 286.076 12.8383 285.429 13.981C284.867 14.9947 284.161 15.9215 283.334 16.7326C282.483 17.4935 281.572 18.1837 280.609 18.7963C279.657 19.3912 278.749 20.0109 277.884 20.6554C277.038 21.2629 276.255 21.9543 275.548 22.7191C274.876 23.4488 274.387 24.3282 274.12 25.2848L274.028 25.5637L271.58 25.3034ZM275.01 2.08228C275.708 2.17388 276.378 2.41481 276.975 2.78877C277.59 3.1787 278.1 3.7152 278.458 4.35048C278.819 5.04527 279.046 5.80226 279.126 6.58149C279.237 7.4704 279.237 8.36978 279.126 9.2587C279.01 10.4072 278.754 11.5372 278.366 12.6238C278.011 13.5731 277.584 14.4931 277.086 15.3754C276.627 16.206 276.126 17.0127 275.585 17.7923C275.066 18.5546 274.584 19.2797 274.12 20.0419C273.67 20.7999 273.273 21.5889 272.934 22.4031C272.632 23.142 272.426 23.9168 272.322 24.7084L273.638 24.8572C273.944 23.8998 274.449 23.0187 275.121 22.2729C275.86 21.4831 276.673 20.7671 277.55 20.1349C278.421 19.5028 279.404 18.8706 280.312 18.2757C281.248 17.6941 282.129 17.0283 282.945 16.2864C283.755 15.5397 284.449 14.6747 285.003 13.7207C285.614 12.6497 285.982 11.4559 286.078 10.2255C286.226 9.05203 286.092 7.86016 285.689 6.74881C285.294 5.66615 284.661 4.68723 283.835 3.88568C282.945 3.02281 281.901 2.33538 280.757 1.85918C279.468 1.29441 278.098 0.93679 276.697 0.799452C275.435 0.641574 274.159 0.641574 272.897 0.799452C271.719 0.961517 270.582 1.33966 269.541 1.91496C268.557 2.45451 267.707 3.21097 267.057 4.12738C266.364 5.12871 265.948 6.29622 265.852 7.51108C265.623 8.85594 265.893 10.2383 266.612 11.3968C266.964 11.8706 267.412 12.2637 267.928 12.5494C268.449 12.8283 269.025 12.9871 269.615 13.0142C270.064 13.0796 270.52 13.0796 270.969 13.0142C271.418 12.9416 271.851 12.7906 272.248 12.568C272.626 12.3625 272.955 12.0771 273.212 11.7314C273.469 11.4202 273.624 11.0372 273.657 10.6345C273.713 10.3334 273.713 10.0246 273.657 9.72349C273.602 9.50933 273.508 9.30745 273.379 9.12856C273.261 8.99322 273.116 8.88533 272.952 8.8125C272.821 8.73558 272.676 8.68506 272.526 8.66376C272.386 8.62672 272.239 8.62672 272.099 8.66376L271.525 8.99841C271.252 9.12756 270.966 9.22727 270.672 9.29588C270.329 9.42509 269.959 9.46351 269.597 9.40743L269.226 9.29588C269.001 9.21266 268.798 9.07914 268.633 8.90546C268.415 8.69219 268.25 8.43126 268.151 8.1432C268.059 7.72678 268.059 7.29537 268.151 6.87895C268.239 6.19557 268.466 5.53759 268.818 4.94541C269.205 4.31679 269.701 3.7627 270.283 3.30934C270.884 2.83616 271.57 2.48275 272.303 2.2682C273.083 2.03027 273.902 1.94816 274.713 2.02651V2.37975V2.02651L275.01 2.08228Z" fill="#292929"/>
</g>
<defs>
<clipPath id="clip0_8531_20441">
<rect width="482" height="362" fill="white"/>
</clipPath>
</defs>
</svg>
